<svg width="58" height="58" viewBox="0 0 58 58" fill="none" xmlns="http://www.w3.org/2000/svg">
<path d="M54.6819 26.7608H49.3011V25.9565C49.3011 24.2913 47.953 22.9432 46.2878 22.9432H39.8308C38.1655 22.9432 36.8288 24.2913 36.8175 25.9565V26.7608H34.8351C34.7897 26.7155 34.7331 26.6589 34.6878 26.6249C32.105 24.2686 29.1936 22.66 26.0784 21.8444C31.8104 19.1823 34.3026 12.3741 31.6405 6.63074C28.9784 0.887383 22.1589 -1.59348 16.4268 1.06863C10.6948 3.73074 8.20263 10.5503 10.8647 16.2823C12.0089 18.7292 13.9686 20.7003 16.4268 21.8444C13.3116 22.66 10.4003 24.2686 7.81747 26.6249C4.09052 30.0233 1.34911 34.8264 0.0916914 40.1507C-0.123543 41.0569 0.0803633 42.0085 0.64677 42.7335C7.72685 51.9206 20.0179 55.3304 30.8136 51.0936V53.6651C30.8136 56.0554 32.7507 58.0038 35.1522 58.0038H51.2042C53.5944 58.0038 55.5315 56.0667 55.5429 53.6651V37.0014C56.9929 36.6163 58.0124 35.3022 58.0124 33.7956V30.0913C58.0011 28.2561 56.5171 26.7721 54.6819 26.7608ZM11.5104 11.4565C11.5104 6.07566 15.8718 1.71434 21.2526 1.71434C26.6335 1.71434 30.9948 6.07566 30.9948 11.4565C30.9948 16.8374 26.6335 21.1987 21.2526 21.1987C15.8718 21.1874 11.5104 16.8261 11.5104 11.4565ZM21.2526 51.1956C13.6968 51.2182 6.57138 47.7065 1.99482 41.7026C1.7456 41.3741 1.65497 40.955 1.7456 40.5471C4.2038 30.1706 12.2241 22.9206 21.2526 22.9206C25.2175 22.9206 28.9784 24.3139 32.1729 26.7608H31.4366C29.6015 26.7608 28.1175 28.2448 28.1175 30.08V33.7843C28.1175 35.3815 29.2503 36.7409 30.8136 37.0468V49.2472C27.7776 50.5386 24.5378 51.1956 21.2526 51.1956ZM53.821 53.6651C53.821 55.1151 52.6429 56.2932 51.1929 56.2932H35.1409C33.6909 56.2932 32.5128 55.1151 32.5128 53.6651V37.1147H53.821V53.6651ZM56.2905 33.7956C56.2905 34.3507 56.0073 34.8718 55.5315 35.1663C55.271 35.3249 54.9765 35.4155 54.6819 35.4042H31.4366C31.2214 35.4042 31.0061 35.3589 30.8136 35.2796C30.2132 35.0303 29.828 34.4413 29.828 33.7956V30.0913C29.828 29.1964 30.553 28.4714 31.4479 28.4714H38.5167V25.9565C38.5167 25.2315 39.1058 24.6538 39.8308 24.6425H46.2878C47.0128 24.6425 47.6018 25.2315 47.6018 25.9565V28.4714H54.6819C55.5769 28.4714 56.3018 29.1964 56.3018 30.0913L56.2905 33.7956Z" fill="#ffffff"/>
<path d="M37.9939 40.3203C37.5068 40.3203 37.1103 40.7168 37.1103 41.1926V52.1469C37.0877 52.634 37.4728 53.0418 37.9599 53.0531C38.447 53.0758 38.8549 52.6906 38.8662 52.2035C38.8662 52.1809 38.8662 52.1582 38.8662 52.1355V41.1813C38.8662 40.7168 38.481 40.3203 37.9939 40.3203Z" fill="#ffffff"/>
<path d="M43.1733 53.0315C43.6604 53.0315 44.0569 52.635 44.0569 52.1479V41.1936C44.0342 40.7065 43.6264 40.3327 43.1506 40.344C42.6862 40.3553 42.3237 40.7292 42.301 41.1936V52.1479C42.2897 52.6463 42.6862 53.0315 43.1733 53.0315Z" fill="#ffffff"/>
<path d="M48.3491 53.0315C48.8362 53.0315 49.2327 52.635 49.2327 52.1479V41.1936C49.21 40.7065 48.8022 40.3327 48.3264 40.344C47.862 40.3553 47.4995 40.7292 47.4768 41.1936V52.1479C47.4655 52.6463 47.862 53.0315 48.3491 53.0315Z" fill="#ffffff"/>
</svg>
