<svg width="14" height="8" viewBox="0 0 14 8" fill="none" xmlns="http://www.w3.org/2000/svg">
<path d="M2.35813 0.408L6.99838 5.04825L11.6386 0.408C11.8145 0.232161 12.053 0.133376 12.3016 0.133376C12.5503 0.133376 12.7888 0.232161 12.9646 0.407999C13.1405 0.583838 13.2393 0.822327 13.2393 1.071C13.2393 1.31967 13.1405 1.55816 12.9646 1.734L7.66138 7.0365C7.57458 7.12402 7.4713 7.19347 7.3575 7.24085C7.24371 7.28822 7.12165 7.31257 6.99838 7.3125C6.75013 7.3125 6.51088 7.2135 6.33538 7.038L1.03288 1.73475C0.86206 1.55798 0.767498 1.3212 0.769564 1.07539C0.77163 0.829575 0.87016 0.59441 1.04393 0.42054C1.2177 0.246671 1.45281 0.148009 1.69862 0.145803C1.94443 0.143598 2.18127 0.238026 2.35813 0.40875L2.35813 0.408Z" fill="white"/>
</svg>
