<svg width="36" height="38" viewBox="0 0 24 25" fill="none" xmlns="http://www.w3.org/2000/svg">
<path d="M17.4718 3.65935L15.9944 5.13682C15.5864 5.54482 14.9131 5.51967 14.357 5.36579C13.3064 5.07508 11.9632 5.47432 11.1926 6.24493C10.1726 7.26492 10.1726 8.91864 11.1926 9.93863C12.2126 10.9586 13.8663 10.9586 14.8863 9.93863C13.8663 10.9586 13.8663 12.6123 14.8863 13.6323C15.9062 14.6523 17.56 14.6523 18.58 13.6323C19.3506 12.8617 19.7498 11.5185 19.4591 10.4679C19.3052 9.91183 19.2801 9.23851 19.6881 8.83052L21.1655 7.35304" stroke="#62A07B" stroke-width="1.5" stroke-linecap="round" stroke-linejoin="round"/>
<path d="M2.87028 18.3156L4.34776 16.8381C4.75576 16.4301 4.73061 15.7568 4.57673 15.2007C4.28601 14.1501 4.68526 12.8069 5.45587 12.0363C6.47585 11.0163 8.12958 11.0163 9.14956 12.0363C10.1695 13.0563 10.1695 14.71 9.14956 15.73C10.1695 14.71 11.8233 14.71 12.8433 15.73C13.8632 16.75 13.8632 18.4037 12.8433 19.4237C12.0726 20.1943 10.7294 20.5936 9.67886 20.3028C9.12277 20.149 8.44945 20.1238 8.04146 20.5318L6.56398 22.0093" stroke="#62A07B" stroke-width="1.5" stroke-linecap="round" stroke-linejoin="round"/>
<path d="M2 12.8125C2 8.09845 2 5.74143 3.46447 4.27697C4.92893 2.8125 7.28595 2.8125 12 2.8125C16.714 2.8125 19.0711 2.8125 20.5355 4.27697C22 5.74143 22 8.09845 22 12.8125C22 17.5265 22 19.8836 20.5355 21.348C19.0711 22.8125 16.714 22.8125 12 22.8125C7.28595 22.8125 4.92893 22.8125 3.46447 21.348C2 19.8836 2 17.5265 2 12.8125Z" stroke="#62A07B" stroke-width="1.5"/>
</svg>
