<svg width="20" height="20" viewBox="0 0 20 20" fill="none" xmlns="http://www.w3.org/2000/svg">
<path d="M3.21942 13.7125C2.50442 10.8525 2.14692 9.42333 2.89775 8.46167C3.64858 7.5 5.12275 7.5 8.07025 7.5H11.9286C14.8769 7.5 16.3503 7.5 17.1011 8.46167C17.8519 9.42333 17.4944 10.8533 16.7794 13.7125C16.3244 15.5317 16.0978 16.4408 15.4194 16.9708C14.7411 17.5 13.8036 17.5 11.9286 17.5H8.07025C6.19525 17.5 5.25775 17.5 4.57942 16.9708C3.90108 16.4408 3.67358 15.5317 3.21942 13.7125Z" stroke="white" stroke-width="1.5"/>
<path d="M16.25 7.91927L15.6583 5.74844C15.43 4.91094 15.3158 4.4926 15.0817 4.17677C14.8482 3.86299 14.5311 3.62127 14.1667 3.47927C13.8 3.33594 13.3667 3.33594 12.5 3.33594M3.75 7.91927L4.34167 5.74844C4.57 4.91094 4.68417 4.4926 4.91833 4.17677C5.15181 3.86299 5.46891 3.62127 5.83333 3.47927C6.2 3.33594 6.63333 3.33594 7.5 3.33594" stroke="white" stroke-width="1.5"/>
<path d="M7.5 3.33333C7.5 3.11232 7.5878 2.90036 7.74408 2.74408C7.90036 2.5878 8.11232 2.5 8.33333 2.5H11.6667C11.8877 2.5 12.0996 2.5878 12.2559 2.74408C12.4122 2.90036 12.5 3.11232 12.5 3.33333C12.5 3.55435 12.4122 3.76631 12.2559 3.92259C12.0996 4.07887 11.8877 4.16667 11.6667 4.16667H8.33333C8.11232 4.16667 7.90036 4.07887 7.74408 3.92259C7.5878 3.76631 7.5 3.55435 7.5 3.33333Z" stroke="white" stroke-width="1.5"/>
</svg>
