<svg width="0" height="0" viewBox="0 0 0 0" fill="none" xmlns="http://www.w3.org/2000/svg">
<path d="M-93.0778 54.2324H-122.927L-100.297 23.0373H-70.45L-93.0778 54.2324ZM-127.451 14.7455L-116.88 0.375H-46.75C-21.9115 0.375 -11.4434 7.4225 -11.4434 19.0647C-11.4434 33.402 -36.352 54.2336 -91.9356 54.2336C-91.9356 54.2336 -66.925 45.2508 -49.7893 31.0524C-44.6069 26.7331 -41.8086 22.3807 -43.8471 18.3048C-45.4369 15.0921 -51.5856 14.7454 -56.5602 14.7454L-127.451 14.7455ZM23.8263 16.232H8.76483V21.5865H23.7587C24.9329 21.5865 25.8993 22.5541 25.8993 23.7283V35.5783C25.8993 36.7525 24.9329 37.7189 23.7587 37.7189H17.3677V25.4902H11.9775V43.1435H23.8275C28.0078 43.1435 31.3582 39.7574 31.3582 35.6128V23.7628C31.3926 19.6169 28.0079 16.232 23.8263 16.232ZM41.4807 29.4629V24.0395C41.4807 22.6919 42.5504 21.621 43.8979 21.621H47.6639C49.0115 21.621 50.0824 22.6919 50.0824 24.0395V29.4629H41.4807ZM43.6557 16.2321C39.4766 16.2321 36.125 19.6169 36.125 23.7628V43.1435H41.5139V34.8185H50.1168V43.1435H55.5057V23.7627C55.5057 19.5824 52.1196 16.232 47.975 16.232L43.6557 16.2321ZM66.9746 37.7534C66.3869 37.7534 65.9037 37.269 65.9037 36.6825V16.2319H60.5148V38.3077C60.5148 40.9671 62.6923 43.1446 65.3517 43.1446H73.9877V37.7544L66.9746 37.7534ZM127.95 37.7534C127.362 37.7534 126.879 37.269 126.879 36.6825V16.2319H121.49V38.3077C121.49 40.9671 123.666 43.1446 126.327 43.1446H134.963V37.7544L127.95 37.7534ZM144.221 37.7534C143.633 37.7534 143.15 37.269 143.15 36.6825V16.2319H137.76V38.3077C137.76 40.9671 139.937 43.1446 142.597 43.1446H151.233V37.7544H144.221L144.221 37.7534ZM167.159 35.335C167.159 36.6826 166.088 37.7535 164.74 37.7535H160.974C159.627 37.7535 158.556 36.6826 158.556 35.335V24.0383C158.556 22.6907 159.627 21.6198 160.974 21.6198H164.74C166.088 21.6198 167.159 22.6907 167.159 24.0383V35.335ZM165.018 16.2321H160.699C156.518 16.2321 153.168 19.6169 153.168 23.7628V35.6128C153.168 39.7919 156.553 43.1435 160.699 43.1435H165.018C169.197 43.1435 172.549 39.7574 172.549 35.6128V23.7628C172.549 19.6169 169.163 16.2321 165.018 16.2321ZM91.5033 35.335C91.5033 36.6826 90.4312 37.7535 89.0836 37.7535H82.4504V32.1568H89.0836C90.4312 32.1568 91.5033 33.2289 91.5033 34.5753V35.335ZM82.4517 21.621H88.6349C89.9825 21.621 91.0546 22.6919 91.0546 24.0395V24.6616C91.0546 26.078 89.9136 27.2178 88.4972 27.2178H82.4517V21.621ZM94.1628 29.3595C95.1993 28.1853 96.4767 26.8021 96.3735 23.1062C96.2702 19.3058 93.8874 16.232 89.0838 16.232H77.1662V43.1435H89.1539C94.1986 43.1435 96.8223 39.8275 96.8223 35.5427C96.8223 31.5702 95.1649 30.2226 94.1628 29.3595ZM117.067 21.621V16.2321H105.839C103.18 16.2321 101.003 18.4083 101.003 21.069V38.3079C101.003 40.9673 103.18 43.1448 105.839 43.1448H117.482V37.7546H107.739C106.979 37.7546 106.391 37.1669 106.391 36.407V32.2279H115.582V27.1156H106.391V22.9697C106.391 22.2098 106.979 21.6221 107.739 21.6221H117.067V21.621Z" fill="#2E2E2E"/>
</svg>
