<?xml version="1.0" encoding="UTF-8"?>
<svg version="1.1" xmlns="http://www.w3.org/2000/svg" width="868" height="173">
<path d="M0 0 C1.63339577 0.02474396 1.63339577 0.02474396 3.29978943 0.04998779 C5.58297183 0.08718674 7.86610263 0.1276901 10.14916992 0.17138672 C13.61566567 0.23427652 17.08201003 0.27568653 20.54882812 0.31640625 C22.7825755 0.35545375 25.01630103 0.39577548 27.25 0.4375 C28.78171593 0.45179047 28.78171593 0.45179047 30.34437561 0.46636963 C38.69878953 0.6623299 46.62043352 2.01306775 54.05859375 5.984375 C54.05859375 6.644375 54.05859375 7.304375 54.05859375 7.984375 C54.65027344 8.09394531 55.24195313 8.20351563 55.8515625 8.31640625 C61.22910175 9.94394468 64.32741842 14.72327853 67.03125 19.38671875 C72.62187698 30.10291171 74.62206963 39.59845892 72.37109375 51.671875 C70.55189166 56.26319455 68.34436896 60.61063205 66.05859375 64.984375 C65.38921477 66.31634872 64.72157465 67.64920514 64.05859375 68.984375 C64.65671875 69.665 65.25484375 70.345625 65.87109375 71.046875 C71.78610105 78.9898848 73.39957496 87.89528507 73.30859375 97.546875 C73.32019531 98.7834082 73.32019531 98.7834082 73.33203125 100.04492188 C73.29886067 110.41902058 68.92520258 120.78820995 61.84375 128.44921875 C50.5933435 138.12407598 35.36597576 136.15033149 21.49609375 136.109375 C20.63797089 136.10848877 19.77984802 136.10760254 18.89572144 136.10668945 C4.59772603 136.08935996 -9.66247401 135.76644033 -23.94140625 134.984375 C-24.83732301 104.99022576 -25.05368701 75.00522164 -25.06478882 44.9997406 C-25.0664107 42.10142687 -25.06997582 39.20312092 -25.07397461 36.30480957 C-25.07982265 31.69302453 -25.08005596 27.08127268 -25.07572556 22.46948624 C-25.07472593 20.74309431 -25.07532291 19.01670067 -25.07756424 17.29030991 C-25.08010026 14.91372101 -25.0763308 12.53722641 -25.07080078 10.16064453 C-25.07282753 9.45768879 -25.07485428 8.75473305 -25.07694244 8.03047562 C-25.05570018 3.21296286 -25.05570018 3.21296286 -23.94140625 0.984375 C-16.11423443 -0.42485719 -7.92460797 -0.1370423 0 0 Z M4.05859375 28.984375 C4.05859375 37.234375 4.05859375 45.484375 4.05859375 53.984375 C22.82114437 55.40168171 22.82114437 55.40168171 40.46875 51.56640625 C40.99339844 51.04433594 41.51804687 50.52226563 42.05859375 49.984375 C42.05859375 49.324375 42.05859375 48.664375 42.05859375 47.984375 C42.71859375 47.984375 43.37859375 47.984375 44.05859375 47.984375 C45.02960644 40.58555876 45.02960644 40.58555876 42.5703125 33.88671875 C37.67971226 29.76565395 34.50442846 28.86061144 28.08203125 28.88671875 C27.39678375 28.8881337 26.71153625 28.88954865 26.00552368 28.89100647 C23.81483614 28.89660825 21.62425045 28.90916094 19.43359375 28.921875 C17.94922023 28.92688978 16.4648451 28.93145272 14.98046875 28.93554688 C11.33977285 28.94572779 7.69929744 28.96530263 4.05859375 28.984375 Z M4.05859375 81.984375 C4.05859375 90.234375 4.05859375 98.484375 4.05859375 106.984375 C8.20352032 107.05358528 12.34640914 107.11320943 16.49145508 107.14916992 C17.89875109 107.16417377 19.30600099 107.18458363 20.71313477 107.21069336 C22.74637282 107.24745165 24.77898807 107.26418484 26.8125 107.27734375 C28.03267822 107.2930542 29.25285645 107.30876465 30.51000977 107.32495117 C35.25316959 106.86972531 39.04496938 105.46103287 42.93359375 102.609375 C44.97330303 99.66312826 45.21366165 97.22916661 44.7734375 93.6953125 C44.14262164 90.27445856 44.14262164 90.27445856 43.05859375 86.984375 C42.06859375 86.654375 41.07859375 86.324375 40.05859375 85.984375 C40.05859375 85.324375 40.05859375 84.664375 40.05859375 83.984375 C36.32227732 81.58482956 33.03063877 81.75443813 28.66796875 81.7890625 C27.61104828 81.79330734 27.61104828 81.79330734 26.53277588 81.79763794 C24.29120615 81.80879699 22.05004189 81.83389307 19.80859375 81.859375 C18.28516204 81.86941036 16.76172404 81.87853524 15.23828125 81.88671875 C11.51143839 81.90701746 7.78546779 81.94617242 4.05859375 81.984375 Z " fill="#FEFEFE" transform="translate(390.94140625,15.015625)"/>
<path d="M0 0 C1.43571012 0.00574764 2.87140318 0.01729592 4.30703735 0.03314209 C5.08930695 0.03793076 5.87157654 0.04271942 6.67755127 0.0476532 C9.28150284 0.06543071 11.88529417 0.09116859 14.48916626 0.11810303 C16.2998451 0.1347958 18.11052422 0.15145798 19.92120361 0.16809082 C23.72955357 0.20465008 27.5378246 0.24587399 31.34609985 0.28948975 C36.20224386 0.34413829 41.05834133 0.3808826 45.91467857 0.41312027 C49.66227804 0.44115083 53.40965639 0.48221953 57.15709305 0.52672577 C58.94541644 0.54580241 60.73379713 0.56015844 62.52219772 0.56952667 C73.58342119 0.63321641 83.81076009 0.83482109 93.84072876 6.10247803 C93.84072876 6.76247803 93.84072876 7.42247803 93.84072876 8.10247803 C94.52135376 8.26747803 95.20197876 8.43247803 95.90322876 8.60247803 C103.43743738 12.44973349 107.89954876 20.43215796 110.84072876 28.10247803 C112.80777442 36.34585145 113.14840257 44.55765343 113.14151001 52.99700928 C113.14579514 54.18743332 113.15008026 55.37785736 113.15449524 56.60435486 C113.1602008 59.10608285 113.16076692 61.60782742 113.15640259 64.10955811 C113.15324575 67.8946014 113.17674034 71.67885927 113.20205688 75.46380615 C113.29630769 110.73451868 113.29630769 110.73451868 102.05947876 123.05560303 C94.08847387 130.56925518 85.11217429 135.12974458 74.19204712 135.35540771 C73.53303909 135.37012619 72.87403107 135.38484467 72.1950531 135.40000916 C70.02363004 135.44676636 67.85216328 135.48622384 65.68057251 135.52435303 C64.93777102 135.53821297 64.19496952 135.55207291 63.42965889 135.56635284 C59.50352491 135.63946405 55.57734138 135.70702687 51.65103149 135.7699585 C47.59306103 135.83604524 43.53569751 135.92065343 39.47817135 136.00953293 C36.35825037 136.0745762 33.23821151 136.1260824 30.11798286 136.17386627 C28.62155348 136.1991315 27.12520128 136.22949824 25.62898064 136.26503754 C23.53927082 136.31338669 21.45012228 136.34261083 19.36001587 136.36712646 C18.17072983 136.38853699 16.98144379 136.40994751 15.75611877 136.43200684 C12.84072876 136.10247803 12.84072876 136.10247803 10.95455933 135.10063171 C9.14808689 131.8599148 9.45104948 128.47926844 9.50015259 124.86737061 C9.49949547 123.60850288 9.49949547 123.60850288 9.49882507 122.32420349 C9.50091629 119.54823601 9.5242629 116.77287134 9.54776001 113.99700928 C9.55335478 112.07315908 9.55762544 110.14930461 9.56062317 108.22544861 C9.57208129 103.16022963 9.60155683 98.09526844 9.63473511 93.03015137 C9.66541513 87.86223844 9.67912408 82.69428389 9.69424438 77.52630615 C9.72642556 67.3849168 9.77763364 57.24371885 9.84072876 47.10247803 C18.48685827 42.77941327 29.18068537 46.74469864 38.84072876 47.10247803 C38.84072876 66.90247803 38.84072876 86.70247803 38.84072876 107.10247803 C46.48229126 106.91685303 46.48229126 106.91685303 54.27822876 106.72747803 C55.86691772 106.693479 57.45560669 106.65947998 59.09243774 106.62445068 C71.53760981 106.99885567 71.53760981 106.99885567 82.04190063 101.83319092 C85.12335514 96.81159599 84.38935403 90.76014672 84.33682251 85.07513428 C84.33900536 83.18171547 84.33900536 83.18171547 84.3412323 81.25004578 C84.33957441 78.58416914 84.33012515 75.91972728 84.30728149 73.25408936 C84.27892589 69.85355117 84.28163077 66.45391194 84.2943716 63.05330753 C84.30303865 59.78969284 84.2878649 56.52622103 84.27432251 53.26263428 C84.27725815 52.0489064 84.28019379 50.83517853 84.28321838 49.58467102 C84.21449329 43.40085852 84.1587318 38.42679987 80.84072876 33.10247803 C76.73374741 29.89485505 73.0645364 29.69138643 68.03701782 29.777771 C67.26736191 29.77893921 66.49770599 29.78010742 65.70472717 29.78131104 C63.17165788 29.78847449 60.63927081 29.81665912 58.10635376 29.84466553 C56.34470216 29.85280365 54.58304319 29.85946621 52.82138062 29.86471558 C48.19220885 29.88181122 43.56333123 29.91606046 38.93429565 29.95477295 C31.51073034 30.01404802 24.08701296 30.04774879 16.66329193 30.0805397 C14.06565027 30.09454799 11.46815358 30.11612746 8.87057495 30.13882446 C7.28933817 30.1488419 5.70810041 30.15870751 4.12686157 30.168396 C3.39960373 30.17670441 2.67234589 30.18501282 1.92304993 30.193573 C0.22868787 30.20118712 -1.4657823 30.15739575 -3.15927124 30.10247803 C-4.98961179 28.27213748 -4.28969921 25.37035811 -4.29208374 22.91497803 C-4.2933728 21.65943115 -4.29466187 20.40388428 -4.29598999 19.11029053 C-4.29389526 18.45319092 -4.29180054 17.79609131 -4.28964233 17.11907959 C-4.28429358 15.11086468 -4.28958815 13.10287344 -4.29598999 11.09466553 C-4.29470093 9.83911865 -4.29341187 8.58357178 -4.29208374 7.28997803 C-4.29039185 5.54781006 -4.29039185 5.54781006 -4.28866577 3.77044678 C-4.10114575 -0.09600383 -3.93958721 0.12778932 0 0 Z " fill="#FEFEFE" transform="translate(34.159271240234375,14.89752197265625)"/>
<path d="M0 0 C8.99203411 8.45174022 13.55315878 19.11346801 14.10065079 31.42332077 C14.13706697 33.77217069 14.14297662 36.11913515 14.13720703 38.46826172 C14.13983551 39.79874794 14.13983551 39.79874794 14.14251709 41.15611267 C14.14689416 44.06763707 14.14401379 46.97910006 14.140625 49.890625 C14.14129887 51.91846732 14.14226959 53.94630957 14.14352417 55.97415161 C14.14499521 60.2122678 14.14286432 64.45036284 14.13818359 68.68847656 C14.13246476 74.1329051 14.13578262 79.57728458 14.14175606 85.02171135 C14.14535907 89.2028338 14.14422467 93.3839445 14.14162827 97.56506729 C14.1409594 99.57382335 14.141786 101.58258047 14.14410782 103.5913353 C14.14663243 106.38757945 14.14279748 109.1837424 14.13720703 111.97998047 C14.13923126 112.81630508 14.14125549 113.6526297 14.14334106 114.51429749 C14.12207961 120.22167039 14.12207961 120.22167039 13.0078125 121.3359375 C8.5417869 121.7771316 4.05324285 121.89943304 -0.4296875 122.0859375 C-1.69619141 122.15425781 -2.96269531 122.22257813 -4.26757812 122.29296875 C-5.47478516 122.34324219 -6.68199219 122.39351562 -7.92578125 122.4453125 C-9.04009521 122.49655273 -10.15440918 122.54779297 -11.30249023 122.60058594 C-12.19009033 122.51325195 -13.07769043 122.42591797 -13.9921875 122.3359375 C-16.44561716 118.65579302 -16.16190174 116.05570883 -15.96875 111.82421875 C-15.94707764 111.17851929 -15.92540527 110.53281982 -15.90307617 109.86755371 C-15.81922152 107.46075577 -15.71711646 105.05462164 -15.6171875 102.6484375 C-15.4109375 97.2653125 -15.2046875 91.8821875 -14.9921875 86.3359375 C-28.5221875 86.6659375 -42.0521875 86.9959375 -55.9921875 87.3359375 C-56.3221875 98.5559375 -56.6521875 109.7759375 -56.9921875 121.3359375 C-66.2321875 121.3359375 -75.4721875 121.3359375 -84.9921875 121.3359375 C-86.71085458 117.89860334 -86.10524362 113.94480232 -86.07739258 110.16381836 C-86.07261902 108.73666 -86.07261902 108.73666 -86.06774902 107.28067017 C-86.05511686 104.12064416 -86.03423855 100.96075153 -86.01171875 97.80078125 C-86.00476171 96.72162508 -85.99780468 95.64246891 -85.99063683 94.53061104 C-85.95318995 88.81437398 -85.90915993 83.0982288 -85.86010742 77.38208008 C-85.81086661 71.48655708 -85.78460108 65.59116869 -85.76367664 59.69548702 C-85.74325857 55.1561755 -85.70536112 50.61712738 -85.662817 46.07797432 C-85.64551722 43.90561694 -85.63479122 41.73319657 -85.63086891 39.56077385 C-85.62375282 36.51131216 -85.59174645 33.46303378 -85.55395508 30.41381836 C-85.5574144 29.52359482 -85.56087372 28.63337128 -85.56443787 27.71617126 C-85.45059147 21.4709686 -83.89202029 16.84330532 -80.9921875 11.3359375 C-80.6621875 10.6759375 -80.3321875 10.0159375 -79.9921875 9.3359375 C-79.3321875 9.3359375 -78.6721875 9.3359375 -77.9921875 9.3359375 C-77.88777344 8.74296875 -77.78335938 8.15 -77.67578125 7.5390625 C-76.8916234 5.01183378 -75.94164226 3.9129157 -74.0546875 2.0859375 C-73.53003906 1.56515625 -73.00539062 1.044375 -72.46484375 0.5078125 C-70.9921875 -0.6640625 -70.9921875 -0.6640625 -68.9921875 -0.6640625 C-68.6621875 -1.6540625 -68.3321875 -2.6440625 -67.9921875 -3.6640625 C-49.96763106 -16.39839273 -16.47300867 -13.75980724 0 0 Z M-54.9921875 23.3359375 C-56.71983683 27.55054505 -57.23240641 31.07382776 -57.1875 35.609375 C-57.18250488 36.65013184 -57.17750977 37.69088867 -57.17236328 38.76318359 C-57.15415527 40.06594238 -57.13594727 41.36870117 -57.1171875 42.7109375 C-57.0759375 46.8771875 -57.0346875 51.0434375 -56.9921875 55.3359375 C-43.1321875 55.3359375 -29.2721875 55.3359375 -14.9921875 55.3359375 C-14.8478125 50.8809375 -14.7034375 46.4259375 -14.5546875 41.8359375 C-14.49095947 40.44697266 -14.42723145 39.05800781 -14.36157227 37.62695312 C-14.26817276 31.65971467 -14.27984171 27.25789329 -18.14453125 22.4921875 C-21.3487347 19.49731195 -23.51758177 18.36851958 -27.9921875 18.3359375 C-28.76433594 18.29243164 -29.53648437 18.24892578 -30.33203125 18.20410156 C-33.05377754 18.05749933 -35.76693863 18.00274745 -38.4921875 17.9609375 C-39.41644531 17.92355469 -40.34070313 17.88617188 -41.29296875 17.84765625 C-47.65927084 17.7656867 -50.75874131 18.44603921 -54.9921875 23.3359375 Z " fill="#FEFEFE" transform="translate(247.9921875,28.6640625)"/>
<path d="M0 0 C1.07314453 0.02707031 2.14628906 0.05414063 3.25195312 0.08203125 C16.34519951 0.573127 26.27084306 3.52619067 35.8515625 12.703125 C46.38403688 24.08716114 47.12502369 37.1355261 47.11328125 52.1171875 C47.11756638 53.35437531 47.1218515 54.59156311 47.12626648 55.86624146 C47.13197367 58.46632275 47.13253693 61.06642001 47.12817383 63.66650391 C47.12501413 67.60737789 47.14851945 71.54749972 47.17382812 75.48828125 C47.17610176 78.03124907 47.17680432 80.57421887 47.17578125 83.1171875 C47.184991 84.27596405 47.19420074 85.4347406 47.20368958 86.62863159 C47.12062769 101.58285979 44.32386937 112.52326212 34.1875 123.625 C33.40375 124.32625 32.62 125.0275 31.8125 125.75 C31.07 126.430625 30.3275 127.11125 29.5625 127.8125 C19.93605755 134.59476627 10.31493977 134.98427196 -1.11450195 135.04516602 C-2.61264515 135.0566541 -4.11074844 135.07705574 -5.60864258 135.10668945 C-14.48048375 135.28183664 -22.19409116 135.11361004 -30.1875 130.75 C-31.10144531 130.25757813 -32.01539063 129.76515625 -32.95703125 129.2578125 C-42.69723137 122.6650193 -49.50445927 113.25701852 -52.1875 101.75 C-52.6031356 97.06183452 -52.58475426 92.39933953 -52.55078125 87.6953125 C-52.55026111 86.34447226 -52.55078475 84.99363125 -52.55229187 83.64279175 C-52.55220265 80.82375655 -52.54188034 78.0050103 -52.52368164 75.18603516 C-52.5010402 71.60340792 -52.50044803 68.0212033 -52.50719929 64.43852425 C-52.51056934 61.65180826 -52.50385193 58.86518557 -52.49407005 56.0784874 C-52.48843917 54.12509686 -52.48964253 52.17169038 -52.49104309 50.21829224 C-52.37846505 35.91095 -50.1842794 22.21285601 -40.0078125 11.34375 C-33.47982798 5.62826141 -26.79155322 1.8972071 -18.1875 0.75 C-17.2696875 0.57871582 -16.351875 0.40743164 -15.40625 0.23095703 C-10.25547446 -0.5386901 -5.18995306 -0.20208667 0 0 Z M-22.3125 35.09619141 C-25.47705969 40.00748346 -24.75692932 45.92911529 -24.71875 51.55859375 C-24.7225769 52.79867691 -24.72640381 54.03876007 -24.73034668 55.31642151 C-24.73375874 58.60356934 -24.71771691 61.88995522 -24.6953125 65.17700195 C-24.68751201 67.18440972 -24.69527885 69.19111713 -24.70898438 71.19848633 C-24.73375318 75.06884975 -24.73068489 78.9381866 -24.71875 82.80859375 C-24.72684692 84.00044785 -24.73494385 85.19230194 -24.74328613 86.42027283 C-24.65543306 94.23305681 -23.59379455 98.49213181 -18.6875 104.625 C-14.25658276 107.94818793 -7.62178268 107.0109599 -2.375 107.0625 C-0.91610352 107.10600586 -0.91610352 107.10600586 0.57226562 107.15039062 C6.85942525 107.20572785 10.85225058 106.76358744 15.8125 102.75 C19.48815216 96.41520437 19.26422833 90.28632126 19.24609375 83.09765625 C19.2513356 81.88355576 19.25657745 80.66945526 19.26197815 79.41856384 C19.26838577 76.85758222 19.26707775 74.29657112 19.25854492 71.7355957 C19.25003606 67.82905397 19.27881554 63.92397557 19.31054688 60.01757812 C19.31215913 57.52343794 19.31158089 55.02929517 19.30859375 52.53515625 C19.31982773 51.37347427 19.33106171 50.2117923 19.34263611 49.01490784 C19.28383519 42.13273879 18.54809194 37.58769309 14.8125 31.75 C9.65308169 27.72915703 3.57608308 28.26894791 -2.6875 28.3125 C-4.21697266 28.2825293 -4.21697266 28.2825293 -5.77734375 28.25195312 C-13.2197943 28.25679217 -17.18510318 29.43508347 -22.3125 35.09619141 Z " fill="#FDFEFD" transform="translate(798.1875,15.25)"/>
<path d="M0 0 C1.02814316 0.00222061 2.05628632 0.00444122 3.11558533 0.00672913 C4.85727745 0.00684242 4.85727745 0.00684242 6.63415527 0.00695801 C8.52943214 0.01469994 8.52943214 0.01469994 10.46299744 0.02259827 C12.39193092 0.02472069 12.39193092 0.02472069 14.35983276 0.02688599 C17.78427561 0.03071034 21.20867628 0.0405399 24.63310242 0.05158997 C28.12522308 0.06180587 31.61735053 0.06638399 35.10948181 0.07142639 C41.96561897 0.08216225 48.82172806 0.09923767 55.67784119 0.12025452 C56.80397133 7.56255455 56.80397133 7.56255455 56.81065369 11.12806702 C56.81194275 11.80482483 56.81323181 12.48158264 56.81455994 13.17884827 C56.81069275 13.86076233 56.80682556 14.54267639 56.80284119 15.24525452 C56.80670837 15.93490295 56.81057556 16.62455139 56.81455994 17.33509827 C56.80741379 21.07253384 56.46837823 24.47687576 55.67784119 28.12025452 C55.12962204 28.14086945 54.58140289 28.16148438 54.01657104 28.182724 C48.28937007 28.39978161 42.56273995 28.62889484 36.83628845 28.86488342 C34.70164482 28.95128528 32.56687616 29.03465538 30.43199158 29.11488342 C27.3560068 29.23101242 24.28064274 29.35818675 21.20518494 29.48744202 C20.25699387 29.520867 19.3088028 29.55429199 18.33187866 29.58872986 C13.14407559 29.81856391 8.56153992 30.2951789 3.67784119 32.12025452 C2.04514587 35.38564516 2.33726882 39.02427567 2.17784119 42.62025452 C1.81297632 50.84998425 1.81297632 50.84998425 0.67784119 53.12025452 C1.46626404 52.95726868 2.25468689 52.79428284 3.06700134 52.62635803 C7.55759662 51.996946 11.92356815 51.99627407 16.45127869 52.02259827 C17.37502289 52.02401321 18.29876709 52.02542816 19.25050354 52.02688599 C22.18464981 52.03245843 25.1187182 52.04500583 28.05284119 52.05775452 C30.04893383 52.06277308 32.04502768 52.06733536 34.04112244 52.07142639 C38.92005844 52.08241883 43.79893663 52.09966441 48.67784119 52.12025452 C50.07634365 54.91725944 49.68797959 57.1014081 49.55674744 60.22181702 C49.51364441 61.31316956 49.47054138 62.40452209 49.4261322 63.52894592 C49.36482117 64.92032776 49.30351013 66.31170959 49.24034119 67.74525452 C48.96190369 74.36587952 48.96190369 74.36587952 48.67784119 81.12025452 C33.16784119 81.45025452 17.65784119 81.78025452 1.67784119 82.12025452 C1.67784119 88.06025452 1.67784119 94.00025452 1.67784119 100.12025452 C5.68708309 104.36086774 5.68708309 104.36086774 10.7217865 104.75794983 C11.72252197 104.79768921 12.72325745 104.83742859 13.75431824 104.87837219 C15.36388397 104.91302582 15.36388397 104.91302582 17.00596619 104.94837952 C18.11010864 104.98711182 19.2142511 105.02584412 20.35185242 105.06575012 C23.8768682 105.18526437 27.40201495 105.27807605 30.92784119 105.37025452 C33.31852298 105.44662172 35.70914998 105.52472566 38.09971619 105.60462952 C43.95880512 105.79993248 49.81731414 105.95911123 55.67784119 106.12025452 C55.67784119 115.36025452 55.67784119 124.60025452 55.67784119 134.12025452 C47.59165419 134.18326377 39.5063626 134.24335705 31.42014313 134.27550507 C27.65412837 134.29130971 23.88831804 134.3124102 20.12242126 134.34657288 C16.49140983 134.37930368 12.86059596 134.39713622 9.22944832 134.40488625 C7.84803218 134.41040527 6.46662616 134.42118243 5.08529472 134.43744469 C-5.40302648 134.55594863 -11.81405687 133.54859821 -20.32215881 127.12025452 C-26.57055236 120.69829448 -26.63781044 113.24839542 -26.77137756 104.76869202 C-26.79311539 103.791633 -26.81485321 102.81457397 -26.83724976 101.8079071 C-26.88098014 99.75228123 -26.92022117 97.69655548 -26.95521545 95.64076233 C-27.00960831 92.49817223 -27.07981856 89.35622561 -27.15223694 86.21400452 C-27.19288521 84.2114191 -27.23262973 82.2088151 -27.27137756 80.20619202 C-27.29213852 79.26963776 -27.31289948 78.3330835 -27.33428955 77.3681488 C-27.40089531 73.08123594 -27.18562458 69.32385861 -26.32215881 65.12025452 C-26.22446255 62.09500621 -26.30107434 59.07550514 -26.36512756 56.04994202 C-26.38753161 54.24786988 -26.40898527 52.44578573 -26.42958069 50.64369202 C-26.46649725 47.8262984 -26.50935664 45.00953008 -26.56898499 42.19252014 C-27.07241891 17.20109271 -27.07241891 17.20109271 -18.32215881 8.05775452 C-17.33215881 6.98847717 -17.33215881 6.98847717 -16.32215881 5.89759827 C-12.25768269 2.28561265 -8.64815375 1.82368781 -3.32215881 1.12025452 C-2.32215881 0.12025452 -2.32215881 0.12025452 0 0 Z " fill="#FEFEFE" transform="translate(505.32215881347656,15.879745483398438)"/>
<path d="M0 0 C9.24 0 18.48 0 28 0 C29.14727461 14.91456988 29.14727461 14.91456988 29.05004883 22.19921875 C29.04063011 23.43359932 29.04063011 23.43359932 29.03102112 24.69291687 C29.01734706 26.44973549 29.00145713 28.20653812 28.98346901 29.96331787 C28.95645828 32.74653908 28.93882744 35.52967679 28.92399597 38.31298828 C28.88158302 46.21580726 28.83315287 54.11845743 28.75317383 62.02099609 C28.70467554 66.87944793 28.67567213 71.73768177 28.65942955 76.59634399 C28.64954462 78.4399652 28.6323536 80.28356255 28.60764503 82.12704468 C28.57391337 84.69694921 28.56501534 87.26583914 28.56176758 89.8359375 C28.53783936 90.97055672 28.53783936 90.97055672 28.51342773 92.12809753 C28.54182666 97.05536385 29.51258683 99.52781459 33 103 C36.71792429 105.8038725 41.23493399 105.35038664 45.703125 105.4140625 C46.54091492 105.43342865 47.37870483 105.4527948 48.24188232 105.4727478 C50.91115213 105.53240724 53.58046539 105.57887413 56.25 105.625 C58.06251854 105.66319236 59.87501918 105.70224482 61.6875 105.7421875 C66.12485415 105.83809752 70.56229325 105.9221788 75 106 C75.19581346 110.47884439 75.3802636 114.95808426 75.5625 119.4375 C75.64661133 121.3565918 75.64661133 121.3565918 75.73242188 123.31445312 C75.80493164 125.13686523 75.80493164 125.13686523 75.87890625 126.99609375 C75.94960327 128.68496704 75.94960327 128.68496704 76.02172852 130.40795898 C76 133 76 133 75 134 C73.66297378 134.11863818 72.31986796 134.17000965 70.9777832 134.19287109 C70.12211258 134.20893402 69.26644196 134.22499695 68.38484192 134.24154663 C64.41241212 134.28624724 60.44015325 134.32718284 56.4675293 134.35009766 C54.38733625 134.36651642 52.30719621 134.39361526 50.22729492 134.43212891 C35.31180404 134.70677168 22.39699256 134.65257105 10.375 124.625 C2.21512178 116.55875973 -0.27265856 108.2867202 -0.4140625 97.03125 C-0.43351929 96.0547197 -0.45297607 95.07818939 -0.47302246 94.07206726 C-0.5335564 90.88146614 -0.57986787 87.6908534 -0.625 84.5 C-0.66223618 82.28685912 -0.69983707 80.07372435 -0.73779297 77.8605957 C-1.60741205 24.51303378 -1.60741205 24.51303378 0 0 Z " fill="#FEFEFE" transform="translate(579,16)"/>
<path d="M0 0 C0.33 33.33 0.66 66.66 1 101 C7.15009265 104.07504633 11.68562428 105.31239121 18.58203125 105.4140625 C19.39621017 105.43342865 20.2103891 105.4527948 21.04924011 105.4727478 C23.63688852 105.53228752 26.22458203 105.57882583 28.8125 105.625 C30.57228449 105.6632034 32.33205074 105.7022565 34.09179688 105.7421875 C38.3944337 105.83955976 42.69688818 105.91932992 47 106 C47 115.24 47 124.48 47 134 C40.70098821 134.04597819 34.40256167 134.08578436 28.10351562 134.10986328 C25.96189396 134.11990416 23.82028595 134.13353954 21.67871094 134.15087891 C18.59566879 134.17521118 15.51280835 134.18650242 12.4296875 134.1953125 C11.47633514 134.20563507 10.52298279 134.21595764 9.54074097 134.22659302 C4.59503403 134.22742269 0.64271493 133.90634415 -4 132 C-5.258125 131.608125 -6.51625 131.21625 -7.8125 130.8125 C-16.11273306 127.60667385 -21.48362062 122.10723911 -25.90625 114.52734375 C-28.48322654 108.57268724 -28.16662594 102.17590878 -28.20532227 95.80371094 C-28.21522186 94.79167603 -28.22512146 93.77964111 -28.23532104 92.73693848 C-28.26682339 89.40277416 -28.29165192 86.06859567 -28.31640625 82.734375 C-28.33698851 80.41603231 -28.35798531 78.09769326 -28.37937927 75.77935791 C-28.43450119 69.68431578 -28.48394776 63.58924028 -28.53222656 57.49414062 C-28.58247198 51.27991745 -28.63816692 45.06574335 -28.69335938 38.8515625 C-28.77311378 29.79396789 -28.8506461 20.73635918 -28.92407227 11.67871094 C-28.93185196 10.72285095 -28.93963165 9.76699097 -28.94764709 8.78216553 C-28.95461609 7.91301514 -28.96158508 7.04386475 -28.96876526 6.14837646 C-28.97484078 5.3910812 -28.98091631 4.63378593 -28.98717594 3.85354233 C-28.99606291 2.56905185 -29 1.28452122 -29 0 C-19.06515704 -1.10576163 -10.15675899 -0.63479744 0 0 Z " fill="#FEFEFE" transform="translate(306,16)"/>
<path d="M0 0 C0.70511719 0.04382812 1.41023437 0.08765625 2.13671875 0.1328125 C7.23655862 0.48655862 7.23655862 0.48655862 8.375 1.625 C8.48970478 4.61155612 8.53986597 7.57591903 8.54858398 10.56347656 C8.5586145 11.97079292 8.5586145 11.97079292 8.56884766 13.40653992 C8.58293503 15.45164928 8.59481721 17.49677472 8.60479546 19.54190826 C8.62115579 22.77789608 8.64439273 26.01376533 8.66969299 29.24969482 C8.7405972 38.45302453 8.80055543 47.65640363 8.85180664 56.85986328 C8.88360172 62.48262228 8.92488351 68.1052472 8.97200203 73.72789764 C8.98802454 75.87287735 9.00034495 78.01788801 9.00890923 80.16291046 C9.02106512 83.16506041 9.0452179 86.16689551 9.07202148 89.16894531 C9.07261063 90.05641953 9.07319977 90.94389374 9.07380676 91.85826111 C9.12464507 96.15620544 9.17826234 99.79526505 11.375 103.625 C16.17891644 106.05663457 21.01751062 105.88811085 26.2734375 105.8203125 C27.10839752 105.8174826 27.94335754 105.81465271 28.80361938 105.81173706 C31.45256291 105.80060301 34.10115984 105.77551127 36.75 105.75 C38.55338051 105.73996143 40.35676636 105.73083712 42.16015625 105.72265625 C46.56534293 105.7023932 50.96978659 105.66323232 55.375 105.625 C55.375 115.195 55.375 124.765 55.375 134.625 C49.09429747 134.67101247 42.81418429 134.71080837 36.53344727 134.73486328 C34.39866143 134.74489563 32.26388926 134.75852464 30.12915039 134.77587891 C27.05351381 134.8002489 23.97805957 134.811511 20.90234375 134.8203125 C19.48005714 134.83579636 19.48005714 134.83579636 18.02903748 134.85159302 C7.3711955 134.8533811 -1.05275221 131.3755514 -9.875 125.4375 C-18.83999565 116.26875445 -19.78442903 107.40606803 -19.73852539 95.19165039 C-19.73867142 94.1665033 -19.73881744 93.1413562 -19.7389679 92.08514404 C-19.73827413 88.71429286 -19.73050689 85.34349772 -19.72265625 81.97265625 C-19.72079017 79.62853526 -19.71936716 77.28441388 -19.71836853 74.94029236 C-19.71455836 68.78362951 -19.7047409 62.62699041 -19.69366455 56.47033691 C-19.68341815 50.18270184 -19.678864 43.8950629 -19.67382812 37.60742188 C-19.66311727 25.27993751 -19.64605889 12.95247073 -19.625 0.625 C-17.88653835 0.45339483 -16.14769014 0.28570312 -14.40869141 0.11962891 C-12.95627548 -0.02108536 -12.95627548 -0.02108536 -11.47451782 -0.16464233 C-7.60944952 -0.44997017 -3.85741673 -0.29844617 0 0 Z " fill="#FEFEFE" transform="translate(683.625,15.375)"/>
<path d="M0 0 C0.66 0.33 1.32 0.66 2 1 C3.56753875 7.85556874 3.16197424 15.00752594 3.16796875 22 C3.17118755 23.3632816 3.17455208 24.72656285 3.17805481 26.08984375 C3.18401879 28.93750815 3.18589742 31.78514231 3.18530273 34.6328125 C3.185201 38.26741434 3.19887657 41.90182131 3.21607494 45.53637695 C3.22723241 48.34864175 3.22922083 51.16085988 3.22869301 53.97314453 C3.23043368 55.95997568 3.24124516 57.94679227 3.25224304 59.93359375 C3.23693671 65.99399879 3.141176 71.29726918 1 77 C0.67 77 0.34 77 0 77 C0.00222061 76.12160965 0.00444122 75.2432193 0.00672913 74.33821106 C0.02677775 66.0545807 0.04199748 57.77095851 0.05181217 49.48730946 C0.05702764 45.2287524 0.06410104 40.97021542 0.07543945 36.71166992 C0.0863158 32.60088084 0.09228691 28.49011106 0.09487724 24.3793087 C0.09672293 22.81205631 0.10032707 21.24480497 0.10573006 19.67756081 C0.11300348 17.4800858 0.11398828 15.28269021 0.11352539 13.08520508 C0.115746 11.83500076 0.11796661 10.58479645 0.12025452 9.29670715 C0.01443194 6.39564323 -0.42518025 3.83089607 -1 1 C-0.67 0.67 -0.34 0.34 0 0 Z " fill="#F4F4F4" transform="translate(259,50)"/>
<path d="M0 0 C14.52 0 29.04 0 44 0 C44 0.66 44 1.32 44 2 C38.21607249 2.16757848 32.43200914 2.32814209 26.64770508 2.48217773 C24.67955267 2.53558162 22.71145151 2.59090974 20.7434082 2.64819336 C17.91629078 2.73014912 15.08906195 2.80520687 12.26171875 2.87890625 C11.38037766 2.90594131 10.49903656 2.93297638 9.59098816 2.96083069 C8.3600518 2.99097511 8.3600518 2.99097511 7.10424805 3.02172852 C6.02169991 3.05170677 6.02169991 3.05170677 4.9172821 3.08229065 C3 3 3 3 0 2 C0 1.34 0 0.68 0 0 Z " fill="#EFEFEF" transform="translate(190,113)"/>
<path d="M0 0 C0.33 0 0.66 0 1 0 C1 8.25 1 16.5 1 25 C2.32 25.33 3.64 25.66 5 26 C3.34385343 26.38218767 1.67542976 26.71395102 0 27 C-1.71084501 25.28915499 -1.13014689 23.05639907 -1.1328125 20.72265625 C-1.13410156 19.65208984 -1.13539063 18.58152344 -1.13671875 17.47851562 C-1.13285156 16.35123047 -1.12898438 15.22394531 -1.125 14.0625 C-1.12886719 12.93908203 -1.13273437 11.81566406 -1.13671875 10.65820312 C-1.13542969 9.58634766 -1.13414062 8.51449219 -1.1328125 7.41015625 C-1.13168457 6.42152588 -1.13055664 5.43289551 -1.12939453 4.41430664 C-1 2 -1 2 0 0 Z " fill="#F1F1F1" transform="translate(394,44)"/>
</svg>
