<svg width="20" height="20" viewBox="0 0 20 20" fill="none" xmlns="http://www.w3.org/2000/svg">
<path d="M9.16797 2.46094H7.5013C3.33464 2.46094 1.66797 4.02466 1.66797 7.93398V12.6252C1.66797 16.5345 3.33464 18.0982 7.5013 18.0982H12.5013C16.668 18.0982 18.3346 16.5345 18.3346 12.6252V11.0614" stroke="#62A07B" stroke-width="1.5" stroke-linecap="round" stroke-linejoin="round"/>
<path d="M13.3675 3.25955L6.80088 9.42063C6.55088 9.65519 6.30088 10.1165 6.25088 10.4527L5.89254 12.8061C5.75921 13.6583 6.40088 14.2525 7.30921 14.1353L9.81754 13.7991C10.1675 13.7522 10.6592 13.5176 10.9175 13.283L17.4842 7.12195C18.6175 6.05862 19.1509 4.82328 17.4842 3.25955C15.8175 1.69583 14.5009 2.19622 13.3675 3.25955Z" stroke="#62A07B" stroke-width="1.5" stroke-miterlimit="10" stroke-linecap="round" stroke-linejoin="round"/>
<path d="M12.4258 4.14062C12.9841 6.00928 14.5424 7.47136 16.5424 8.00303" stroke="#62A07B" stroke-width="1.5" stroke-miterlimit="10" stroke-linecap="round" stroke-linejoin="round"/>
</svg>
