<svg width="24" height="24" viewBox="0 0 24 24" fill="none" xmlns="http://www.w3.org/2000/svg">
<path d="M14.5299 9.46992L9.46992 14.5299C8.81992 13.8799 8.41992 12.9899 8.41992 11.9999C8.41992 10.0199 10.0199 8.41992 11.9999 8.41992C12.9899 8.41992 13.8799 8.81992 14.5299 9.46992Z" stroke="#62A07B" stroke-width="1.28571" stroke-linecap="round" stroke-linejoin="round"/>
<path d="M17.8218 5.76998C16.0718 4.44998 14.0718 3.72998 12.0018 3.72998C8.4718 3.72998 5.1818 5.80998 2.8918 9.40998C1.9918 10.82 1.9918 13.19 2.8918 14.6C3.6818 15.84 4.6018 16.91 5.6018 17.77" stroke="#BAC4C6" stroke-width="1.28571" stroke-miterlimit="10" stroke-linecap="round" stroke-linejoin="round"/>
<path d="M8.41992 19.5302C9.55992 20.0102 10.7699 20.2702 11.9999 20.2702C15.5299 20.2702 18.8199 18.1902 21.1099 14.5902C22.0099 13.1802 22.0099 10.8102 21.1099 9.40018C20.7799 8.88018 20.4199 8.39018 20.0499 7.93018" stroke="#BAC4C6" stroke-width="1.28571" stroke-miterlimit="10" stroke-linecap="round" stroke-linejoin="round"/>
<path d="M15.5095 12.6997C15.2495 14.1097 14.0995 15.2597 12.6895 15.5197" stroke="#62A07B" stroke-width="1.28571" stroke-miterlimit="10" stroke-linecap="round" stroke-linejoin="round"/>
<path d="M9.46805 14.5303L1.99805 22.0003" stroke="#62A07B" stroke-width="1.28571" stroke-miterlimit="10" stroke-linecap="round" stroke-linejoin="round"/>
<path d="M22.0013 1.99951L14.5312 9.46951" stroke="#62A07B" stroke-width="1.28571" stroke-miterlimit="10" stroke-linecap="round" stroke-linejoin="round"/>
</svg>
