<svg width="24" height="24" viewBox="0 0 24 24" fill="none" xmlns="http://www.w3.org/2000/svg">
<path d="M15.5799 11.9999C15.5799 13.9799 13.9799 15.5799 11.9999 15.5799C10.0199 15.5799 8.41992 13.9799 8.41992 11.9999C8.41992 10.0199 10.0199 8.41992 11.9999 8.41992C13.9799 8.41992 15.5799 10.0199 15.5799 11.9999Z" stroke="#62A07B" stroke-width="1.28571" stroke-linecap="round" stroke-linejoin="round"/>
<path d="M12.0018 20.2697C15.5318 20.2697 18.8218 18.1897 21.1118 14.5897C22.0118 13.1797 22.0118 10.8097 21.1118 9.39973C18.8218 5.79973 15.5318 3.71973 12.0018 3.71973C8.4718 3.71973 5.1818 5.79973 2.8918 9.39973C1.9918 10.8097 1.9918 13.1797 2.8918 14.5897C5.1818 18.1897 8.4718 20.2697 12.0018 20.2697Z" stroke="#BAC4C6" stroke-width="1.28571" stroke-miterlimit="10" stroke-linecap="round" stroke-linejoin="round"/>
</svg>
