<svg width="41" height="62" viewBox="0 0 41 62" fill="none" xmlns="http://www.w3.org/2000/svg">
<path fill-rule="evenodd" clip-rule="evenodd" d="M4.1174 0.393399C1.80237 1.21327 -0.000457429 3.95699 8.7061e-08 6.65977C0.000228845 8.42693 1.02986 10.4299 2.86084 12.2252C5.57528 14.8868 7.21341 15.3228 9.8606 14.0889C13.8474 12.2303 15.3922 8.23317 13.5598 4.51745C12.7112 2.7965 11.3546 1.30637 9.99991 0.607288C8.61684 -0.106438 5.81639 -0.208235 4.1174 0.393399ZM19.0823 1.54016C17.8047 2.09467 16.4829 4.49458 16.4754 6.27409C16.4639 8.92036 19.2678 10.9188 21.5488 9.89029C24.9513 8.35578 25.7872 3.90026 23.0188 2.05533C22.1385 1.46879 19.9168 1.17804 19.0823 1.54016ZM28.6833 3.71909C25.5752 5.07196 25.1478 10.1497 28.0345 11.4266C28.8878 11.8041 29.1914 11.8354 29.9675 11.6266C31.7763 11.1393 33.3985 9.10565 33.3985 7.32523C33.3985 6.05791 32.5182 4.525 31.4369 3.90964C30.4109 3.32585 29.6997 3.27667 28.6833 3.71909ZM36.0292 10.155C34.8408 10.7708 33.9127 11.8457 33.6423 12.92C33.1274 14.9646 34.1618 16.6592 35.9251 16.6592C36.5851 16.6592 37.0769 16.438 38.0102 15.7213C39.9149 14.2591 40.49 13.5033 40.49 12.4629C40.49 10.5544 37.8721 9.1999 36.0292 10.155ZM18.213 13.0117C16.2155 13.5102 14.3202 14.6482 12.5558 16.4088C10.7038 18.2564 9.81692 19.7221 9.26263 21.8505C8.02094 26.6175 10.093 31.1239 15.1591 34.6737C18.6268 37.1036 19.239 38.1227 19.3849 41.7083C19.4872 44.2198 19.2193 45.5139 17.5144 50.7442C16.3999 54.1635 16.3111 56.1816 17.1919 58.0841C18.8652 61.6999 22.0903 62.8178 26.4595 61.2968C30.2352 59.9826 32.8115 57.8412 34.3288 54.7557C35.7393 51.8882 37.9736 42.2285 37.9736 38.9982C37.9736 38.0097 37.9315 37.9125 37.6172 38.1735C36.9275 38.7458 36.1676 40.37 35.0002 43.7671C32.7691 50.2586 31.6375 51.9413 28.7023 53.1322C26.8411 53.8874 24.1918 54.1685 23.1203 53.7247C22.7463 53.5698 22.2605 53.1704 22.0406 52.8371C21.4971 52.0131 21.5707 50.0216 22.203 48.4381C24.8477 41.8167 25.7058 37.3095 24.8157 34.7147C24.6247 34.1576 23.9002 32.9951 23.2057 32.1313C21.4344 29.9284 20.9927 28.9671 20.8669 27.0424C20.7619 25.4333 20.7696 25.4054 21.5913 24.496C22.0482 23.9905 22.9614 23.3422 23.6209 23.0553C25.0772 22.4221 27.731 22.214 29.5446 22.5905C31.1603 22.9258 33.7633 24.1675 35.603 25.4804C37.1412 26.578 37.5305 26.6866 37.9807 26.1442C38.3739 25.6703 37.7778 23.5151 36.6709 21.4083C35.0002 18.2294 32.3411 16.4332 25.735 14.0214C23.2974 13.1316 22.4311 12.9227 20.9312 12.863C19.9246 12.823 18.7014 12.8898 18.213 13.0117Z" fill="white"/>
</svg>
