<?xml version="1.0" encoding="UTF-8"?>
<svg version="1.1" xmlns="http://www.w3.org/2000/svg" width="513" height="486">
<path d="M0 0 C0.66 0.33 1.32 0.66 2 1 C2.33 13.54 2.66 26.08 3 39 C4.98 39.99 6.96 40.98 9 42 C11.99884341 45.7090958 13 47.1704783 13 52 C13.78375 52.20625 14.5675 52.4125 15.375 52.625 C19.35111954 54.13318327 22.66194058 56.11697694 26.26953125 58.34375 C30.75330871 61.06352345 35.36784755 63.54333129 40 66 C40.66257812 66.44859375 41.32515625 66.8971875 42.0078125 67.359375 C42.66523438 67.57078125 43.32265625 67.7821875 44 68 C45.67272869 67.01017349 47.33851315 66.00858278 49 65 C51.51342773 64.12792969 51.51342773 64.12792969 54.18359375 63.421875 C55.18221436 63.15173584 56.18083496 62.88159668 57.2097168 62.60327148 C58.27488525 62.32169189 59.34005371 62.0401123 60.4375 61.75 C68.75349486 59.4926377 76.99598899 57.11192972 85.1875 54.4375 C93.5465622 51.71642146 101.95880188 49.32423657 110.45166016 47.05834961 C115.96819499 45.57901924 121.37361162 43.93509683 126.76953125 42.05859375 C132.12732031 40.30289746 137.56331709 38.82020254 142.98901367 37.29003906 C149.8845344 35.3380915 156.72643716 33.25272702 163.5546875 31.078125 C172.65817357 28.22941507 180.1841854 25.95105724 189.25 30 C195.42762925 33.43849175 198.70296682 37.95479165 201.4375 44.375 C202.50493274 51.25401096 202.05553808 58.17016401 198 64 C191.04199762 72.03034086 182.86324112 74.50554735 173 77.1875 C171.59439489 77.58819654 170.18944045 77.99118284 168.78515625 78.39648438 C165.94562686 79.2123025 163.10283891 80.01482861 160.2565918 80.80688477 C153.96650985 82.56172226 147.70787896 84.42272655 141.4463501 86.27633667 C138.73866586 87.07730616 136.03025011 87.87577337 133.32177734 88.67407227 C128.16542045 90.19450983 123.01068221 91.72034833 117.85668945 93.2487793 C115.721036 93.88136442 113.58495863 94.51251992 111.44848633 95.14233398 C108.32267796 96.06403152 105.19831759 96.99049575 102.07421875 97.91796875 C101.12012619 98.19819382 100.16603363 98.47841888 99.18302917 98.76713562 C98.29722672 99.03113663 97.41142426 99.29513763 96.4987793 99.56713867 C95.72398727 99.79632492 94.94919525 100.02551117 94.15092468 100.26164246 C91.98416252 101.0054366 90.02235896 101.92877543 88 103 C88.99 103.66 89.98 104.32 91 105 C91 105.66 91 106.32 91 107 C106.99352881 103.21329685 122.70760315 98.50684386 138.4375 93.7578125 C140.35733276 93.1783057 142.27717798 92.5988403 144.197052 92.01947021 C145.48088857 91.63193142 146.76464126 91.24411465 148.04830933 90.85601807 C157.29454367 88.06338379 166.57326608 85.4493157 175.90600586 82.96337891 C181.26124572 81.52164243 186.44853575 79.8582068 191.6328125 77.87890625 C200.45283804 74.60414429 210.1417591 71.5267079 219.1875 75.5625 C225.08714906 78.93714713 229.95898816 83.4148486 232 90 C232.73471264 96.67221592 232.93690829 103.40428942 229.37890625 109.29296875 C221.86081804 118.60006379 209.74750721 120.88116826 198.76171875 123.9453125 C194.89210539 125.03025082 191.03939673 126.1668431 187.1875 127.3125 C178.78598188 129.80151012 170.34826862 132.1581614 161.9050293 134.5012207 C156.23085321 136.07936933 150.58201551 137.71071311 144.95874023 139.46240234 C143 140 143 140 141 140 C141 140.66 141 141.32 141 142 C141.721875 142.28875 142.44375 142.5775 143.1875 142.875 C146 144 146 144 148.24981689 145.17164612 C151.98052233 146.29533287 154.10137216 145.50138067 157.81542969 144.37866211 C158.81431969 144.08390991 158.81431969 144.08390991 159.83338928 143.78320312 C162.03437502 143.12964132 164.22778113 142.45364782 166.421875 141.77734375 C167.96541886 141.31423006 169.50939294 140.85254808 171.05377197 140.39222717 C175.12863354 139.17354221 179.19747186 137.93583365 183.26531982 136.69396973 C187.34410786 135.45216819 191.42804904 134.22758593 195.51171875 133.00195312 C200.8498744 131.39844326 206.18627366 129.78945397 211.51915359 128.16848087 C214.30167783 127.32374484 217.08576481 126.48422479 219.86991882 125.64487839 C221.33440148 125.2015088 222.79803218 124.75531844 224.26094055 124.30678177 C226.52671043 123.61213771 228.79485219 122.92573417 231.06347656 122.24047852 C231.74164303 122.03024268 232.41980949 121.82000685 233.11852646 121.60340023 C240.9667052 119.25200974 248.11416574 118.26409832 256 121 C262.06618738 124.43369097 266.18164624 127.90942835 268.45703125 134.66015625 C270.04977606 141.52385513 269.87406835 148.08397258 266.24609375 154.22265625 C259.31664326 164.10635522 248.94649501 165.78947598 237.82299805 169.00415039 C232.35370152 170.58486154 226.92336594 172.26872663 221.5 174 C215.28821708 175.97765995 209.06545618 177.90632198 202.8125 179.75 C202.1421875 179.94851562 201.471875 180.14703125 200.78125 180.3515625 C197.63179513 181.27304629 194.48005342 182.12765812 191.29296875 182.91015625 C185.63836493 184.30237526 180.07747935 186.01768677 174.5 187.6875 C172.09645215 188.40267314 169.69280416 189.11750978 167.2890625 189.83203125 C166.07766602 190.19248535 164.86626953 190.55293945 163.61816406 190.92431641 C158.03953079 192.58284935 152.45883513 194.23406672 146.875 195.875 C145.91142578 196.16076904 144.94785156 196.44653809 143.95507812 196.7409668 C122.00905364 203.17535276 122.00905364 203.17535276 113.6640625 198.765625 C108.28737545 194.88801426 103.98437479 190.44921806 102 184 C102 182.68 102 181.36 102 180 C101.33355469 179.96261719 100.66710937 179.92523438 99.98046875 179.88671875 C93.00054498 179.38885006 86.66315639 178.11408928 80 176 C79.06929687 175.71125 78.13859375 175.4225 77.1796875 175.125 C70.71971814 172.96567877 65.42288326 170.1085585 60 166 C59.40703125 165.56042969 58.8140625 165.12085938 58.203125 164.66796875 C53.55413107 160.9679667 50.01167628 156.4892211 46.3203125 151.859375 C44.12530146 149.1544119 41.8497254 146.57077971 39.5 144 C36.36966578 140.57076234 33.40294069 137.06113604 30.5 133.4375 C16.80407696 116.73458185 1.22799468 109.68710232 -18.64501953 102.42456055 C-34.19078465 96.69566432 -49.61448109 89.94995097 -58.140625 75 C-59.55618783 71.70559924 -59.51641422 68.48076599 -59 65 C-57.18348485 60.81411727 -55.18369661 58.72537206 -51.0625 56.9375 C-44.80040435 55.15720173 -39.05850561 57.1956697 -33 59 C-32.21238281 59.2165625 -31.42476562 59.433125 -30.61328125 59.65625 C-29.06928631 60.08217964 -27.53313373 60.53649445 -26 61 C-26.350625 59.989375 -26.70125 58.97875 -27.0625 57.9375 C-28.1664966 54.01394374 -28.05255444 50.98467039 -27 47 C-24.73466753 44.13057887 -23.48277163 43.16092388 -20 42 C-16.99691062 42.00855581 -14.00804903 42.12998287 -11.0078125 42.2578125 C-7.33880567 41.9433262 -5.81141433 41.39802221 -3 39 C-2.41704992 35.97725289 -2.16476034 33.46974001 -2.109375 30.4296875 C-2.07442932 29.59285431 -2.03948364 28.75602112 -2.003479 27.89382935 C-1.89618212 25.22116425 -1.82204491 22.54882688 -1.75 19.875 C-1.6569628 17.19466552 -1.55721726 14.51469533 -1.45367432 11.83474731 C-1.39150655 10.16678008 -1.33676735 8.49851705 -1.28997803 6.83004761 C-1.10845211 1.10845211 -1.10845211 1.10845211 0 0 Z M25 91 C28.70639047 94.80356175 32.57352831 98.31827398 36.625 101.75 C37.19734375 102.24371094 37.7696875 102.73742187 38.359375 103.24609375 C40.89152172 105.3954741 42.81862261 106.93954087 46 108 C46 108.66 46 109.32 46 110 C48.1729233 111.84847311 50.35402668 113.5921349 52.625 115.3125 C53.86785997 116.26605123 55.11005302 117.22047237 56.3515625 118.17578125 C56.9590332 118.64193848 57.56650391 119.1080957 58.19238281 119.58837891 C60.84916098 121.66313463 63.42486432 123.82500079 66 126 C66.66 125.67 67.32 125.34 68 125 C66.68 122.69 65.36 120.38 64 118 C63.34 118 62.68 118 62 118 C61.79375 117.443125 61.5875 116.88625 61.375 116.3125 C58.50863154 111.4917894 54.47817056 109.08347716 49.4375 107 C44.36735234 104.88176717 41.35333136 101.98166378 38.25 97.4375 C35.09091061 94.01515317 31.36337502 92.5078072 27 91 C26.34 91 25.68 91 25 91 Z " fill="#035098" transform="translate(227,51)"/>
<path d="M0 0 C4.83806007 3.6945186 7.3265689 7.31310087 8.71875 13.3125 C9.72272314 21.62249456 8.35026538 27.27975681 3.50390625 33.99609375 C-2.7897768 41.31136014 -13.57938103 42.75066964 -22.45825195 45.31665039 C-27.92754848 46.89736154 -33.35788406 48.58122663 -38.78125 50.3125 C-44.99303292 52.29015995 -51.21579382 54.21882198 -57.46875 56.0625 C-58.1390625 56.26101562 -58.809375 56.45953125 -59.5 56.6640625 C-62.64945487 57.58554629 -65.80119658 58.44015812 -68.98828125 59.22265625 C-74.64288507 60.61487526 -80.20377065 62.33018677 -85.78125 64 C-88.18479785 64.71517314 -90.58844584 65.43000978 -92.9921875 66.14453125 C-94.20358398 66.50498535 -95.41498047 66.86543945 -96.66308594 67.23681641 C-102.24171921 68.89534935 -107.82241487 70.54656672 -113.40625 72.1875 C-114.36982422 72.47326904 -115.33339844 72.75903809 -116.32617188 73.0534668 C-138.27219636 79.48785276 -138.27219636 79.48785276 -146.6171875 75.078125 C-151.99387455 71.20051426 -156.29687521 66.76171806 -158.28125 60.3125 C-158.28125 58.9925 -158.28125 57.6725 -158.28125 56.3125 C-160.26125 56.3125 -162.24125 56.3125 -164.28125 56.3125 C-164.28125 55.9825 -164.28125 55.6525 -164.28125 55.3125 C-163.60545898 55.31773682 -162.92966797 55.32297363 -162.23339844 55.32836914 C-159.16602511 55.34918007 -156.09866667 55.36217329 -153.03125 55.375 C-151.96777344 55.38337891 -150.90429688 55.39175781 -149.80859375 55.40039062 C-148.78378906 55.40361328 -147.75898438 55.40683594 -146.703125 55.41015625 C-145.28918457 55.41801147 -145.28918457 55.41801147 -143.84667969 55.42602539 C-141.50001563 55.32218082 -139.52480522 54.97956529 -137.28125 54.3125 C-136.82599293 47.93835712 -136.82599293 47.93835712 -139.28125 42.3125 C-141.21640281 40.53689436 -143.20891305 38.93432892 -145.28125 37.3125 C-142.50791746 36.20316698 -141.33394903 36.29454437 -138.4609375 37.2734375 C-132.77160819 38.98416815 -126.85351307 38.60132197 -120.96875 38.5625 C-119.77701172 38.57023437 -118.58527344 38.57796875 -117.35742188 38.5859375 C-115.65489258 38.58207031 -115.65489258 38.58207031 -113.91796875 38.578125 C-112.88373779 38.57586914 -111.84950684 38.57361328 -110.78393555 38.57128906 C-108.10886267 38.56053014 -108.10886267 38.56053014 -106.28125 36.3125 C-106.50000731 31.39046061 -107.87529423 28.80578797 -111.28125 25.3125 C-113.88336696 23.21787048 -116.55310331 21.23941914 -119.28125 19.3125 C-116.28125 19.3125 -116.28125 19.3125 -114.00219727 20.89282227 C-110.30783418 22.82038811 -108.72590034 22.14920704 -104.74609375 21.02734375 C-104.06973373 20.84147202 -103.39337372 20.65560028 -102.69651794 20.46409607 C-100.21698839 19.77184009 -97.74962518 19.04352671 -95.28125 18.3125 C-93.76328827 17.87058319 -93.76328827 17.87058319 -92.21466064 17.41973877 C-83.74323366 14.95262912 -75.29259941 12.41815184 -66.84375 9.875 C-64.3145561 9.11619316 -61.78525983 8.3577274 -59.25585938 7.59960938 C-58.02346527 7.23016205 -56.79107117 6.86071472 -55.52133179 6.48007202 C-45.46236708 3.46494793 -45.46236708 3.46494793 -41.40509033 2.24932861 C-39.43028338 1.65709103 -37.4557585 1.06391132 -35.48162842 0.46942139 C-33.112429 -0.24376146 -30.74199243 -0.95264729 -28.37109375 -1.66015625 C-27.12062256 -2.035354 -25.87015137 -2.41055176 -24.58178711 -2.79711914 C-15.39686071 -5.27492272 -7.98927537 -5.57981137 0 0 Z " fill="#C0C0C4" transform="translate(487.28125,174.6875)"/>
<path d="M0 0 C4.80068164 3.42669345 7.4200732 7.63197892 9.703125 12.9921875 C10.77055774 19.87119846 10.32116308 26.78735151 6.265625 32.6171875 C-0.69237738 40.64752836 -8.87113388 43.12273485 -18.734375 45.8046875 C-20.13998011 46.20538404 -21.54493455 46.60837034 -22.94921875 47.01367188 C-25.78874814 47.82949 -28.63153609 48.63201611 -31.4777832 49.42407227 C-37.76786515 51.17890976 -44.02649604 53.03991405 -50.2880249 54.89352417 C-52.99570914 55.69449366 -55.70412489 56.49296087 -58.41259766 57.29125977 C-63.56895455 58.81169733 -68.72369279 60.33753583 -73.87768555 61.8659668 C-76.013339 62.49855192 -78.14941637 63.12970742 -80.28588867 63.75952148 C-83.41169704 64.68121902 -86.53605741 65.60768325 -89.66015625 66.53515625 C-91.09129509 66.95549385 -91.09129509 66.95549385 -92.55134583 67.38432312 C-93.43714828 67.64832413 -94.32295074 67.91232513 -95.2355957 68.18432617 C-96.01038773 68.41351242 -96.78517975 68.64269867 -97.58345032 68.87882996 C-99.75021248 69.6226241 -101.71201604 70.54596293 -103.734375 71.6171875 C-102.744375 72.2771875 -101.754375 72.9371875 -100.734375 73.6171875 C-101.064375 74.2771875 -101.394375 74.9371875 -101.734375 75.6171875 C-103.80048741 74.05928429 -105.86222139 72.49609073 -107.921875 70.9296875 C-108.50001953 70.49462891 -109.07816406 70.05957031 -109.67382812 69.61132812 C-113.30971829 66.83819156 -116.52619564 63.88868619 -119.734375 60.6171875 C-125.95627723 55.18735322 -132.53613087 50.17372872 -139.109375 45.1796875 C-139.78718018 44.65947021 -140.46498535 44.13925293 -141.16333008 43.60327148 C-144.56746365 41.04141517 -147.62826569 38.94097178 -151.734375 37.6171875 C-151.404375 36.9571875 -151.074375 36.2971875 -150.734375 35.6171875 C-149.744375 35.9471875 -148.754375 36.2771875 -147.734375 36.6171875 C-146.04321348 35.65919455 -144.37883805 34.65329515 -142.734375 33.6171875 C-140.22094727 32.74511719 -140.22094727 32.74511719 -137.55078125 32.0390625 C-136.55216064 31.76892334 -135.55354004 31.49878418 -134.5246582 31.22045898 C-133.45948975 30.93887939 -132.39432129 30.6572998 -131.296875 30.3671875 C-122.98088014 28.1098252 -114.73838601 25.72911722 -106.546875 23.0546875 C-98.1878128 20.33360896 -89.77557312 17.94142407 -81.28271484 15.67553711 C-75.76618001 14.19620674 -70.36076338 12.55228433 -64.96484375 10.67578125 C-59.60705469 8.92008496 -54.17105791 7.43739004 -48.74536133 5.90722656 C-41.8498406 3.955279 -35.00793784 1.86991452 -28.1796875 -0.3046875 C-17.80708377 -3.55053628 -9.9089179 -5.5153411 0 0 Z " fill="#898A91" transform="translate(418.734375,82.3828125)"/>
<path d="M0 0 C7.82589517 5.69156012 15.15805582 11.95875311 22.46069336 18.29736328 C33.12714794 27.4899778 44.35066643 36.09303883 56 44 C57.34384766 44.95132813 57.34384766 44.95132813 58.71484375 45.921875 C63.88058374 49.56515108 69.08995687 53.07776954 74.44140625 56.44140625 C75.40788086 57.04911865 76.37435547 57.65683105 77.37011719 58.28295898 C79.28719884 59.48312336 81.20825063 60.67697648 83.13378906 61.86352539 C98.31460983 71.35629086 98.31460983 71.35629086 101 78 C101.3125 81.125 101.3125 81.125 101 84 C98.00120785 85.99919476 95.40906589 86.91200025 92 88 C91.01 88.495 91.01 88.495 90 89 C86.5 89.1875 86.5 89.1875 83 89 C82.34 88.34 81.68 87.68 81 87 C79.02742233 86.43525816 79.02742233 86.43525816 76.73828125 86.10546875 C75.87372314 85.9573877 75.00916504 85.80930664 74.1184082 85.65673828 C73.1924585 85.50188965 72.26650879 85.34704102 71.3125 85.1875 C56.31885928 82.48785291 41.47718115 78.71203574 30 68 C30 67.34 30 66.68 30 66 C29.34 66 28.68 66 28 66 C26.72241211 64.53808594 26.72241211 64.53808594 25.27734375 62.484375 C24.74270508 61.73293213 24.20806641 60.98148926 23.65722656 60.20727539 C23.0897168 59.39637451 22.52220703 58.58547363 21.9375 57.75 C20.76533683 56.09693683 19.59215544 54.44459521 18.41796875 52.79296875 C17.55051025 51.569729 17.55051025 51.569729 16.66552734 50.32177734 C13.73759344 46.24018083 10.67571352 42.26356261 7.609375 38.28515625 C6 36 6 36 5 33 C3.69066264 32.2873585 2.35251636 31.62683468 1 31 C-0.37515941 29.94344188 -1.72802015 28.85749356 -3.0625 27.75 C-10.19520878 22.12816056 -18.89852936 16.60402156 -28 15 C-30.68439155 15.41561618 -31.73817326 15.75687517 -33.75 17.625 C-36.75909028 19.46388851 -38.69765463 19.16262662 -42.1015625 18.57421875 C-44.95973974 17.70970835 -46.26818505 16.39789762 -48 14 C-48.23203125 13.17628906 -48.4640625 12.35257813 -48.703125 11.50390625 C-49.81197806 8.7341919 -49.81197806 8.7341919 -52.8359375 7.69921875 C-54.00382812 7.36535156 -55.17171875 7.03148437 -56.375 6.6875 C-67.49415347 3.17027555 -77.64057107 -3.07376559 -83.375 -13.5 C-84.87531429 -19.50125718 -84.15606629 -24.01449387 -81.18359375 -29.33203125 C-67.86985084 -48.09430261 -12.60413794 -8.827559 0 0 Z " fill="#56555A" transform="translate(212,162)"/>
<path d="M0 0 C0.94875 0.78375 1.8975 1.5675 2.875 2.375 C3.48214844 2.5090625 4.08929688 2.643125 4.71484375 2.78125 C7.77276187 3.62176276 9.79390825 5.34271693 12.3125 7.25 C20.14495044 13.15429505 28.46566609 17.29092567 37.375 21.3125 C42.50756106 23.68459166 47.33328549 25.99097742 51.875 29.375 C51.875 30.695 51.875 32.015 51.875 33.375 C52.42027344 33.52195313 52.96554688 33.66890625 53.52734375 33.8203125 C59.78624692 35.68193498 64.63782704 38.5154973 69.875 42.375 C70.885625 43.1175 71.89625 43.86 72.9375 44.625 C73.576875 45.2025 74.21625 45.78 74.875 46.375 C74.875 47.035 74.875 47.695 74.875 48.375 C75.46152344 48.64570313 76.04804688 48.91640625 76.65234375 49.1953125 C81.38794679 51.70876086 86.14867 55.72420177 88.875 60.375 C88.875 61.365 88.875 62.355 88.875 63.375 C89.71933594 63.60445313 90.56367188 63.83390625 91.43359375 64.0703125 C95.471082 65.60098341 98.49510505 67.69151361 101.9375 70.25 C102.53626953 70.68441406 103.13503906 71.11882812 103.75195312 71.56640625 C113.11239012 78.39450158 113.11239012 78.39450158 116.0625 82.1875 C121.18183321 88.46383422 127.90708794 92.18871266 135.4375 94.875 C141.88037335 97.18255393 148.43830526 100.32946194 152.09375 106.3984375 C153.20097295 109.19971155 153.19201276 111.39508006 152.875 114.375 C151.32993534 116.41167615 150.15353844 117.23573078 147.875 118.375 C125.81018628 119.55802617 103.24603666 116.56663666 85.6875 102.125 C81.75901299 98.49683121 78.48324945 94.3773102 75.16015625 90.19921875 C72.97908853 87.50364274 70.71408559 84.93375624 68.375 82.375 C65.24466578 78.94576234 62.27794069 75.43613604 59.375 71.8125 C45.67907696 55.10958185 30.10299468 48.06210232 10.22998047 40.79956055 C-5.31578465 35.07066432 -20.73948109 28.32495097 -29.265625 13.375 C-30.68020439 10.08288796 -30.64779505 6.85359783 -30.125 3.375 C-28.25269965 -0.75966327 -26.62277171 -2.32080618 -22.75 -4.6875 C-15.46436125 -6.99758058 -6.02876032 -4.45320956 0 0 Z M0.875 3.375 C1.875 5.375 1.875 5.375 1.875 5.375 Z " fill="#39373D" transform="translate(198.125,112.625)"/>
<path d="M0 0 C5.05123382 3.57665004 9.02462874 7.32806219 10.88671875 13.3359375 C11.62143139 20.00815342 11.82362704 26.74022692 8.265625 32.62890625 C0.74753679 41.93600129 -11.36577404 44.21710576 -22.3515625 47.28125 C-26.22117586 48.36618832 -30.07388452 49.5027806 -33.92578125 50.6484375 C-42.32729937 53.13744762 -50.76501263 55.4940989 -59.20825195 57.8371582 C-64.88242804 59.41530683 -70.53126574 61.04665061 -76.15454102 62.79833984 C-78.11328125 63.3359375 -78.11328125 63.3359375 -80.11328125 63.3359375 C-80.11328125 63.9959375 -80.11328125 64.6559375 -80.11328125 65.3359375 C-84.09453554 63.90139464 -87.38707779 61.99606092 -90.91015625 59.66015625 C-91.45707123 59.29827713 -92.00398621 58.93639801 -92.56747437 58.56355286 C-94.33666983 57.38928718 -96.10040752 56.20716919 -97.86328125 55.0234375 C-98.46299744 54.62253906 -99.06271362 54.22164062 -99.68060303 53.80859375 C-107.34672217 48.67752694 -114.90761658 43.44102406 -122.23828125 37.8359375 C-122.9353418 37.30315186 -123.63240234 36.77036621 -124.35058594 36.22143555 C-128.97495239 32.61259521 -128.97495239 32.61259521 -130.11328125 30.3359375 C-129.23671875 30.12839844 -128.36015625 29.92085937 -127.45703125 29.70703125 C-112.37451099 26.04369554 -97.53124966 21.57878166 -82.67578125 17.09375 C-80.75594849 16.5142432 -78.83610327 15.9347778 -76.91622925 15.35540771 C-75.63239268 14.96786892 -74.34863999 14.58005215 -73.06497192 14.19195557 C-63.81873758 11.39932129 -54.54001517 8.7852532 -45.20727539 6.29931641 C-39.85203553 4.85757993 -34.6647455 3.1941443 -29.48046875 1.21484375 C-19.8036485 -2.37803505 -9.51879068 -5.4448255 0 0 Z " fill="#9C9CA4" transform="translate(448.11328125,127.6640625)"/>
<path d="M0 0 C3.90577937 0.60654456 6.32493202 2.51790969 9.4375 4.875 C17.26995044 10.77929505 25.59066609 14.91592567 34.5 18.9375 C39.63256106 21.30959166 44.45828549 23.61597742 49 27 C49 28.32 49 29.64 49 31 C49.54527344 31.14695313 50.09054688 31.29390625 50.65234375 31.4453125 C56.91124692 33.30693498 61.76282704 36.1404973 67 40 C68.010625 40.7425 69.02125 41.485 70.0625 42.25 C70.701875 42.8275 71.34125 43.405 72 44 C72 44.66 72 45.32 72 46 C72.58652344 46.27070313 73.17304688 46.54140625 73.77734375 46.8203125 C78.51294679 49.33376086 83.27367 53.34920177 86 58 C86 58.99 86 59.98 86 61 C86.84433594 61.22945312 87.68867188 61.45890625 88.55859375 61.6953125 C92.596082 63.22598341 95.62010505 65.31651361 99.0625 67.875 C99.66126953 68.30941406 100.26003906 68.74382812 100.87695312 69.19140625 C110.23739012 76.01950158 110.23739012 76.01950158 113.1875 79.8125 C118.52097117 86.39600347 125.96966848 90.38935749 133.87109375 93.078125 C136.14217351 94.06156504 137.38404861 95.15022928 139 97 C138 100 138 100 135 102 C131.96875 102.265625 131.96875 102.265625 128.5 102.25 C127.3553125 102.25515625 126.210625 102.2603125 125.03125 102.265625 C122 102 122 102 119 100 C119 99.34 119 98.68 119 98 C118.113125 98.0825 117.22625 98.165 116.3125 98.25 C112.20091805 97.93969193 111.12300893 96.60250744 108 94 C105.91089433 93.19374819 103.82465498 92.52132999 101.671875 91.90625 C100 91 100 91 99.265625 88.90625 C99.17796875 88.2771875 99.0903125 87.648125 99 87 C97.35 86.67 95.7 86.34 94 86 C94 83.69 94 81.38 94 79 C92.02 79 90.04 79 88 79 C87.67 77.68 87.34 76.36 87 75 C86.34 75 85.68 75 85 75 C85 74.34 85 73.68 85 73 C83.02 72.505 83.02 72.505 81 72 C81 70.68 81 69.36 81 68 C80.236875 68.103125 79.47375 68.20625 78.6875 68.3125 C77.800625 68.209375 76.91375 68.10625 76 68 C74.3125 65.5625 74.3125 65.5625 73 63 C72.34 62.67 71.68 62.34 71 62 C71 61.34 71 60.68 71 60 C70.34 60 69.68 60 69 60 C68.505 58.02 68.505 58.02 68 56 C67.34 56 66.68 56 66 56 C65.67 55.34 65.34 54.68 65 54 C63.515 53.505 63.515 53.505 62 53 C62 52.34 62 51.68 62 51 C60.35 50.34 58.7 49.68 57 49 C57.33 48.01 57.66 47.02 58 46 C56.35 46 54.7 46 53 46 C52.67 45.01 52.34 44.02 52 43 C51.278125 42.9175 50.55625 42.835 49.8125 42.75 C46.41750362 41.84466763 44.63347166 40.28696223 42 38 C41.01 37.34 40.02 36.68 39 36 C39 35.34 39 34.68 39 34 C38.01 34 37.02 34 36 34 C36 32.68 36 31.36 36 30 C34.68 29.67 33.36 29.34 32 29 C31.06576355 25.98968256 30.95550089 25.13349732 32 22 C30.35 21.67 28.7 21.34 27 21 C27 20.34 27 19.68 27 19 C26.34 18.67 25.68 18.34 25 18 C25 18.66 25 19.32 25 20 C20.31479085 18.78184562 16.29456388 17.30440013 12 15 C12 14.01 12 13.02 12 12 C11.278125 11.87625 10.55625 11.7525 9.8125 11.625 C7.04278106 11.0095069 4.6029646 10.11555626 2 9 C2 8.34 2 7.68 2 7 C0.68 6.34 -0.64 5.68 -2 5 C-1.34 3.35 -0.68 1.7 0 0 Z " fill="#07070A" transform="translate(201,115)"/>
<path d="M0 0 C0.33 0.66 0.66 1.32 1 2 C2.94603274 2.59070014 2.94603274 2.59070014 5 3 C5.66 3.33 6.32 3.66 7 4 C7 4.66 7 5.32 7 6 C8.32 6.33 9.64 6.66 11 7 C11 7.66 11 8.32 11 9 C11.66 9 12.32 9 13 9 C13.33 8.34 13.66 7.68 14 7 C14 8.98 14 10.96 14 13 C14.66 13 15.32 13 16 13 C16 13.66 16 14.32 16 15 C16.9590625 15.37125 16.9590625 15.37125 17.9375 15.75 C20 17 20 17 20.75 19.125 C20.87375 20.053125 20.87375 20.053125 21 21 C21.99 21 22.98 21 24 21 C24.02712066 22.43739513 24.04645067 23.87493863 24.0625 25.3125 C24.07410156 26.11300781 24.08570313 26.91351563 24.09765625 27.73828125 C24 30 24 30 23 33 C24.71420246 37.67509761 27.909008 41.272672 32 44 C32 45.32 32 46.64 32 48 C32.99 48 33.98 48 35 48 C36.6875 49.3125 36.6875 49.3125 38 51 C38 51.99 38 52.98 38 54 C36.02 54.495 36.02 54.495 34 55 C34.33 55.66 34.66 56.32 35 57 C27.34296522 53.39571248 22.51997052 47.38097998 17.3203125 40.859375 C15.12530146 38.1544119 12.8497254 35.57077971 10.5 33 C7.33167812 29.52809327 4.32218494 25.97400265 1.375 22.3125 C-2.17261336 17.92318575 -5.89337804 13.86893966 -10 10 C-9.34 9.67 -8.68 9.34 -8 9 C-7.34 9.33 -6.68 9.66 -6 10 C-6.33 8.68 -6.66 7.36 -7 6 C-5.68 6 -4.36 6 -3 6 C-2.814375 5.071875 -2.814375 5.071875 -2.625 4.125 C-2 2 -2 2 0 0 Z " fill="#3C3B3F" transform="translate(256,162)"/>
<path d="M0 0 C0.27199219 0.58265625 0.54398438 1.1653125 0.82421875 1.765625 C7.58936115 14.62164312 22.29201832 20.5699313 35 26 C35.886875 26.38027344 36.77375 26.76054687 37.6875 27.15234375 C42.73095248 29.24064829 47.78966757 30.88961542 53.06640625 32.2890625 C55 33 55 33 56 35 C55.34 35 54.68 35 54 35 C54.495 37.475 54.495 37.475 55 40 C47.97977177 39.68305967 41.83181405 38.1561787 35.16796875 35.96875 C32.36679871 35.11216533 29.69729624 34.53348714 26.8125 34.0625 C16.54522567 32.13530935 7.58850829 25.94147047 0.5625 18.375 C-2.60668481 13.55783909 -3.52780588 9.80586463 -3 4 C-1.5 1.5625 -1.5 1.5625 0 0 Z " fill="#36343B" transform="translate(131,135)"/>
<path d="M0 0 C2.51404431 1.48308456 4.73961766 2.95335549 7.0625 4.6875 C11.86166392 8.14641949 16.69424849 11.47781678 21.72265625 14.59765625 C22.70032959 15.20456299 23.67800293 15.81146973 24.68530273 16.43676758 C26.60528907 17.62103288 28.53039888 18.79704267 30.46118164 19.96362305 C35.73471432 23.23558547 40.75200423 26.56157329 44 32 C44 32.99 44 33.98 44 35 C42.68 34.34 41.36 33.68 40 33 C40.33 33.66 40.66 34.32 41 35 C40.30232558 40.69767442 40.30232558 40.69767442 39 42 C30.61832061 42.41221374 30.61832061 42.41221374 27 40 C27.75 33.25 27.75 33.25 30 31 C31.98821313 30.60235737 33.98944339 30.26224651 36 30 C35.16855469 29.80664062 34.33710938 29.61328125 33.48046875 29.4140625 C32.39378906 29.15367187 31.30710937 28.89328125 30.1875 28.625 C29.10855469 28.36976563 28.02960938 28.11453125 26.91796875 27.8515625 C24 27 24 27 21 25 C19.0103005 24.60986284 17.00980131 24.26797351 15 24 C15 23.34 15 22.68 15 22 C14.236875 21.896875 13.47375 21.79375 12.6875 21.6875 C9.63008735 20.90537118 9.15941212 20.18446331 7 18 C4.15910864 15.97138696 1.28358598 14.00023769 -1.6015625 12.03515625 C-4.16909226 9.85651944 -4.38948137 9.14077915 -5 6 C-5.99 5.67 -6.98 5.34 -8 5 C-8.33 3.35 -8.66 1.7 -9 0 C-5.78096713 -1.60951643 -3.45637674 -0.77476613 0 0 Z " fill="#565458" transform="translate(265,204)"/>
<path d="M0 0 C3.90577937 0.60654456 6.32493202 2.51790969 9.4375 4.875 C17.26995044 10.77929505 25.59066609 14.91592567 34.5 18.9375 C36.67072933 19.94966565 38.83770018 20.96994921 41 22 C41.85078125 22.40089844 42.7015625 22.80179688 43.578125 23.21484375 C48.60280645 25.89889122 48.60280645 25.89889122 49.703125 28.94921875 C50.17191326 32.28625097 50 35.63406177 50 39 C53.224768 42.44780671 57.29302418 44.57209311 62 45 C61.01 45.495 61.01 45.495 60 46 C60 46.66 60 47.32 60 48 C61.65 48.33 63.3 48.66 65 49 C65 49.99 65 50.98 65 52 C65.66 52 66.32 52 67 52 C67.495 53.98 67.495 53.98 68 56 C67.34 56 66.68 56 66 56 C65.67 55.34 65.34 54.68 65 54 C63.515 53.505 63.515 53.505 62 53 C62 52.34 62 51.68 62 51 C60.35 50.34 58.7 49.68 57 49 C57.33 48.01 57.66 47.02 58 46 C56.35 46 54.7 46 53 46 C52.67 45.01 52.34 44.02 52 43 C51.278125 42.9175 50.55625 42.835 49.8125 42.75 C46.41750362 41.84466763 44.63347166 40.28696223 42 38 C41.01 37.34 40.02 36.68 39 36 C39 35.34 39 34.68 39 34 C38.01 34 37.02 34 36 34 C36 32.68 36 31.36 36 30 C34.68 29.67 33.36 29.34 32 29 C31.06576355 25.98968256 30.95550089 25.13349732 32 22 C30.35 21.67 28.7 21.34 27 21 C27 20.34 27 19.68 27 19 C26.34 18.67 25.68 18.34 25 18 C25 18.66 25 19.32 25 20 C20.31479085 18.78184562 16.29456388 17.30440013 12 15 C12 14.01 12 13.02 12 12 C11.278125 11.87625 10.55625 11.7525 9.8125 11.625 C7.04278106 11.0095069 4.6029646 10.11555626 2 9 C2 8.34 2 7.68 2 7 C0.68 6.34 -0.64 5.68 -2 5 C-1.34 3.35 -0.68 1.7 0 0 Z " fill="#110E11" transform="translate(201,115)"/>
<path d="M0 0 C1.7325 0.4640625 1.7325 0.4640625 3.5 0.9375 C6.42154242 1.67824568 9.25298593 2.19015832 12.25 2.5 C15.53944068 2.93859209 17.2273338 3.37464395 20 5 C20.825 5.28875 21.65 5.5775 22.5 5.875 C25.34393202 7.15476941 26.81029805 8.81029805 29 11 C30.3303125 11.495 30.3303125 11.495 31.6875 12 C32.450625 12.33 33.21375 12.66 34 13 C34.8125 15.125 34.8125 15.125 35 17 C35.94875 17.0825 36.8975 17.165 37.875 17.25 C38.90625 17.4975 39.9375 17.745 41 18 C42.125 19.875 42.125 19.875 43 22 C44.32392972 23.01241685 45.65599167 24.01439389 47 25 C47 25.66 47 26.32 47 27 C47.99 27.33 48.98 27.66 50 28 C51.6875 29.4375 51.6875 29.4375 53 31 C53 31.66 53 32.32 53 33 C54.32 33 55.64 33 57 33 C57.2475 34.03125 57.495 35.0625 57.75 36.125 C59.52216632 42.25942188 62.85394932 46.28340784 68 50 C67.67 51.32 67.34 52.64 67 54 C66.51644043 53.65219482 66.03288086 53.30438965 65.53466797 52.94604492 C63.31792412 51.35542655 61.09652519 49.77143284 58.875 48.1875 C58.11445313 47.64029297 57.35390625 47.09308594 56.5703125 46.52929688 C53.28784242 44.19478152 50.18774194 42.09216423 46.5625 40.3125 C43.1497817 38.56452233 42.39307499 36.48268748 41 33 C44.5786304 34.65167557 47.74820188 36.78286492 51 39 C50.505 38.21625 50.01 37.4325 49.5 36.625 C48 34 48 34 48 32 C47.34 32 46.68 32 46 32 C45.12617828 30.94905226 44.30056977 29.85776514 43.5 28.75 C40.29446217 24.83735823 37.0833708 23.61012333 32.3984375 21.95703125 C27.02567811 19.81317775 23.29104417 15.68340901 20 11 C20 10.34 20 9.68 20 9 C19.2575 8.855625 18.515 8.71125 17.75 8.5625 C15.48735322 8.09968589 13.2405393 7.56013482 11 7 C13.64 8.98 16.28 10.96 19 13 C14.53326743 13 10.94859496 10.97429748 7 9 C6.9175 8.401875 6.835 7.80375 6.75 7.1875 C5.59194011 3.80982532 2.94506578 2.81716824 0 1 C0 0.67 0 0.34 0 0 Z " fill="#0E4481" transform="translate(243,137)"/>
<path d="M0 0 C5.72004603 0.70298108 11.12461828 2.04201158 16.65820312 3.62695312 C19.95342627 4.54397241 22.54035288 5 26 5 C26 3.68 26 2.36 26 1 C29.3142353 -0.13440269 30.92102947 0.06516358 34.0625 1.5625 C35.22265625 2.11357422 35.22265625 2.11357422 36.40625 2.67578125 C40.99289545 5.01745716 45.50845337 7.48137572 50 10 C49.19921875 11.9375 49.19921875 11.9375 48 14 C43.65063782 15.36450578 41.702209 15.36410837 37.625 13.25 C37.05394531 12.88003906 36.48289063 12.51007813 35.89453125 12.12890625 C32.07573052 9.85337345 27.3298431 7.65031288 22.83984375 8.32421875 C20.86576765 8.91494634 20.86576765 8.91494634 19.25 10.625 C16.24090972 12.46388851 14.30234537 12.16262662 10.8984375 11.57421875 C8.04026026 10.70970835 6.73181495 9.39789762 5 7 C4.32650839 5.33607955 3.6590841 3.66967972 3 2 C2.01 1.34 1.02 0.68 0 0 Z " fill="#4E4D52" transform="translate(159,169)"/>
<path d="M0 0 C0.66 0 1.32 0 2 0 C2.495 0.804375 2.99 1.60875 3.5 2.4375 C7.17117928 6.20045877 10.92674328 5.89350034 16 6 C16 8.31 16 10.62 16 13 C16.99 13 17.98 13 19 13 C21 13 23 13 25 13 C25.12375 13.556875 25.2475 14.11375 25.375 14.6875 C26.99148624 20.66849909 28.85872824 23.57248549 34 27 C34 28.32 34 29.64 34 31 C34.99 31 35.98 31 37 31 C38.6875 32.3125 38.6875 32.3125 40 34 C40 34.99 40 35.98 40 37 C38.02 37.495 38.02 37.495 36 38 C36.33 38.66 36.66 39.32 37 40 C29.34488006 36.39661382 24.5215973 30.38427064 19.32421875 23.86328125 C17.10906133 21.13435623 14.80969092 18.53016993 12.4375 15.9375 C0 2.27376761 0 2.27376761 0 0 Z " fill="#4D4D52" transform="translate(254,179)"/>
<path d="M0 0 C0.66 0.33 1.32 0.66 2 1 C2.33 13.54 2.66 26.08 3 39 C4.98 39.99 6.96 40.98 9 42 C11.99884341 45.7090958 13 47.1704783 13 52 C13.99 52.495 13.99 52.495 15 53 C14.01 53 13.02 53 12 53 C12 52.01 12 51.02 12 50 C11.05125 50.020625 10.1025 50.04125 9.125 50.0625 C6 50 6 50 4 49 C4 48.34 4 47.68 4 47 C3.01 47 2.02 47 1 47 C1 46.34 1 45.68 1 45 C0.31897217 45 -0.36205566 45 -1.0637207 45 C-9.04248047 45 -17.02124023 45 -25 45 C-20.12540334 41.55910824 -16.70697893 41.8342666 -10.9375 42.1875 C-7.27679307 41.95383786 -5.80048404 41.38946199 -3 39 C-2.41704992 35.97725289 -2.16476034 33.46974001 -2.109375 30.4296875 C-2.07442932 29.59285431 -2.03948364 28.75602112 -2.003479 27.89382935 C-1.89618212 25.22116425 -1.82204491 22.54882688 -1.75 19.875 C-1.6569628 17.19466552 -1.55721726 14.51469533 -1.45367432 11.83474731 C-1.39150655 10.16678008 -1.33676735 8.49851705 -1.28997803 6.83004761 C-1.10845211 1.10845211 -1.10845211 1.10845211 0 0 Z " fill="#DBD8D6" transform="translate(227,51)"/>
<path d="M0 0 C1.87890625 0.45703125 1.87890625 0.45703125 4.62890625 1.64453125 C4.95890625 2.63453125 5.28890625 3.62453125 5.62890625 4.64453125 C5.29890625 4.97453125 4.96890625 5.30453125 4.62890625 5.64453125 C4.58826793 7.3107024 4.58618525 8.9784122 4.62890625 10.64453125 C6.60890625 10.64453125 8.58890625 10.64453125 10.62890625 10.64453125 C10.62890625 8.99453125 10.62890625 7.34453125 10.62890625 5.64453125 C12.93890625 6.63453125 15.24890625 7.62453125 17.62890625 8.64453125 C16.66331069 13.15064386 15.87863088 15.80169371 11.94140625 18.45703125 C7.90944362 19.90245182 5.74542543 19.7672183 1.62890625 18.64453125 C-1.07677001 16.82114073 -2.90838093 15.56995689 -4.37109375 12.64453125 C-4.51450448 8.19879853 -4.45536243 4.98160597 -3.37109375 0.64453125 C-9.31109375 1.13953125 -9.31109375 1.13953125 -15.37109375 1.64453125 C-15.70109375 2.96453125 -16.03109375 4.28453125 -16.37109375 5.64453125 C-17.02618878 7.64835134 -17.69083738 9.64911257 -18.37109375 11.64453125 C-18.70109375 11.64453125 -19.03109375 11.64453125 -19.37109375 11.64453125 C-19.85940085 4.31992469 -19.85940085 4.31992469 -17.75 1.40234375 C-12.8554909 -2.21428859 -5.77233324 -0.86537451 0 0 Z " fill="#0E4881" transform="translate(220.37109375,95.35546875)"/>
<path d="M0 0 C1.06927734 0.48919922 1.06927734 0.48919922 2.16015625 0.98828125 C3.11792969 1.42527344 4.07570313 1.86226562 5.0625 2.3125 C6.56103516 2.99892578 6.56103516 2.99892578 8.08984375 3.69921875 C10.41829609 4.73999006 12.7506036 5.69804358 15.125 6.625 C16.07375 7.07875 17.0225 7.5325 18 8 C18.495 9.485 18.495 9.485 19 11 C16.6963704 13.86397193 15.57134096 14.91583242 11.87109375 15.4609375 C10.73800781 15.43257812 9.60492188 15.40421875 8.4375 15.375 C7.30183594 15.36210937 6.16617187 15.34921875 4.99609375 15.3359375 C2 15 2 15 -1 13 C-1 12.34 -1 11.68 -1 11 C-2.3303125 11.12375 -2.3303125 11.12375 -3.6875 11.25 C-7.76194581 10.94249466 -8.97333676 9.63862949 -12 7 C-14.6794645 5.75983331 -14.6794645 5.75983331 -17 5 C-14.21084611 3.60542306 -12.09726736 3.8178078 -9 4 C-6.125 5 -6.125 5 -4 6 C-3.67 5.34 -3.34 4.68 -3 4 C-1.68 4 -0.36 4 1 4 C1.33 3.34 1.66 2.68 2 2 C1.34 2 0.68 2 0 2 C0 1.34 0 0.68 0 0 Z " fill="#0D0F16" transform="translate(321,202)"/>
<path d="M0 0 C3.90577937 0.60654456 6.32493202 2.51790969 9.4375 4.875 C18.2819378 11.54215617 27.89419736 15.9953442 37.94921875 20.53515625 C40.74925023 21.87960158 43.36818287 23.35450394 46 25 C45.34 25.66 44.68 26.32 44 27 C44 26.34 44 25.68 44 25 C42.68 25 41.36 25 40 25 C40 24.34 40 23.68 40 23 C35.71 22.34 31.42 21.68 27 21 C27 20.34 27 19.68 27 19 C26.34 18.67 25.68 18.34 25 18 C25 18.66 25 19.32 25 20 C20.31479085 18.78184562 16.29456388 17.30440013 12 15 C12 14.01 12 13.02 12 12 C11.278125 11.87625 10.55625 11.7525 9.8125 11.625 C7.04278106 11.0095069 4.6029646 10.11555626 2 9 C2 8.34 2 7.68 2 7 C0.68 6.34 -0.64 5.68 -2 5 C-1.34 3.35 -0.68 1.7 0 0 Z " fill="#1F1F29" transform="translate(201,115)"/>
<path d="M0 0 C0.26296875 0.5775 0.5259375 1.155 0.796875 1.75 C4.06532906 7.86243357 9.07542865 12.53195824 15 16 C13.90931332 19.77545388 13.0916909 22.47043472 10 25 C4.72985034 23.60496038 2.07492759 20.26402346 -1 16 C-3.20563822 11.98974869 -3.41319184 8.5451102 -3 4 C-1.5 1.5625 -1.5 1.5625 0 0 Z " fill="#121213" transform="translate(131,135)"/>
<path d="M0 0 C4.78981552 2.39490776 9.08925538 5.65175538 12.875 9.4375 C12.875 10.4275 12.875 11.4175 12.875 12.4375 C11.555 11.7775 10.235 11.1175 8.875 10.4375 C9.205 11.0975 9.535 11.7575 9.875 12.4375 C9.17732558 18.13517442 9.17732558 18.13517442 7.875 19.4375 C-0.50667939 19.84971374 -0.50667939 19.84971374 -4.125 17.4375 C-3.375 10.6875 -3.375 10.6875 -1.125 8.4375 C0.86321313 8.03985737 2.86444339 7.69974651 4.875 7.4375 C3.204375 7.004375 3.204375 7.004375 1.5 6.5625 C-2.125 5.4375 -2.125 5.4375 -4.125 3.4375 C-4.125 2.4475 -4.125 1.4575 -4.125 0.4375 C-2.125 -0.5625 -2.125 -0.5625 0 0 Z " fill="#4F4C53" transform="translate(296.125,226.5625)"/>
<path d="M0 0 C4.75 0.875 4.75 0.875 7 2 C7 2.66 7 3.32 7 4 C8.32 4 9.64 4 11 4 C11.2475 5.03125 11.495 6.0625 11.75 7.125 C13.52216632 13.25942188 16.85394932 17.28340784 22 21 C21.67 22.32 21.34 23.64 21 25 C20.51644043 24.65219482 20.03288086 24.30438965 19.53466797 23.94604492 C17.31792412 22.35542655 15.09652519 20.77143284 12.875 19.1875 C11.73417969 18.36668945 11.73417969 18.36668945 10.5703125 17.52929688 C7.28784242 15.19478152 4.18774194 13.09216423 0.5625 11.3125 C-2.8502183 9.56452233 -3.60692501 7.48268748 -5 4 C-1.4213696 5.65167557 1.74820188 7.78286492 5 10 C4.505 9.21625 4.01 8.4325 3.5 7.625 C2 5 2 5 2 3 C1.34 3 0.68 3 0 3 C0 2.01 0 1.02 0 0 Z " fill="#05498F" transform="translate(289,166)"/>
<path d="M0 0 C1.68998716 0.70979461 3.37858308 1.42315443 5.05859375 2.15625 C6.75947933 2.89546788 8.47261352 3.60637027 10.1875 4.3125 C13.62247185 6.37348311 14.99835811 8.56861391 17 12 C17.99 13.485 17.99 13.485 19 15 C14.65635558 16.44788147 11.2653797 15.48234661 7 14 C3.92612835 12.19258892 1.51730063 10.25630152 0.125 6.875 C-0.02788187 4.58177195 0 2.29740362 0 0 Z " fill="#060606" transform="translate(249,145)"/>
<path d="M0 0 C0.91007812 0.00902344 1.82015625 0.01804687 2.7578125 0.02734375 C3.80582031 0.04474609 3.80582031 0.04474609 4.875 0.0625 C4.875 0.3925 4.875 0.7225 4.875 1.0625 C3.616875 1.124375 2.35875 1.18625 1.0625 1.25 C-1.12837977 1.44770288 -1.12837977 1.44770288 -3.125 2.0625 C-5.18954002 4.46993101 -5.18954002 4.46993101 -6.125 7.0625 C-5.465 7.0625 -4.805 7.0625 -4.125 7.0625 C-4.25519531 7.79855469 -4.38539063 8.53460938 -4.51953125 9.29296875 C-5.51711866 14.76545146 -5.51711866 14.76545146 -4.078125 19.90625 C-2.57444034 21.42739223 -2.57444034 21.42739223 -0.125 23.0625 C-0.455 23.7225 -0.785 24.3825 -1.125 25.0625 C-1.58390625 24.7015625 -2.0428125 24.340625 -2.515625 23.96875 C-3.43601563 23.27265625 -3.43601563 23.27265625 -4.375 22.5625 C-5.27992188 21.86640625 -5.27992188 21.86640625 -6.203125 21.15625 C-8.33585595 19.73275581 -8.33585595 19.73275581 -12.125 20.0625 C-13.875 18.0625 -13.875 18.0625 -15.125 16.0625 C-13.805 16.0625 -12.485 16.0625 -11.125 16.0625 C-11.475625 15.051875 -11.82625 14.04125 -12.1875 13 C-13.30095205 9.12265988 -13.07245481 6.01022836 -12.125 2.0625 C-11.465 1.7325 -10.805 1.4025 -10.125 1.0625 C-10.125 2.7125 -10.125 4.3625 -10.125 6.0625 C-9.444375 4.8559375 -9.444375 4.8559375 -8.75 3.625 C-6.25066001 -0.3162669 -4.42402404 -0.05671826 0 0 Z " fill="#0C458C" transform="translate(212.125,95.9375)"/>
<path d="M0 0 C6.09707732 2.81937744 13.59846703 7.48155337 16 14 C15.76271993 17.4010144 15.430466 18.569534 13 21 C10.49731445 21.25878906 10.49731445 21.25878906 7.36328125 21.265625 C5.66075195 21.26949219 5.66075195 21.26949219 3.92382812 21.2734375 C2.73208984 21.26570313 1.54035156 21.25796875 0.3125 21.25 C-0.85990234 21.25773437 -2.03230469 21.26546875 -3.24023438 21.2734375 C-9.24361592 21.2598782 -14.32899774 20.97319805 -20 19 C-22.79244045 18.83071457 -22.79244045 18.83071457 -25 19 C-25.33 18.34 -25.66 17.68 -26 17 C-24.18757948 16.97312721 -22.37504767 16.95366285 -20.5625 16.9375 C-19.55316406 16.92589844 -18.54382813 16.91429687 -17.50390625 16.90234375 C-15 17 -15 17 -14 18 C-12.15840977 18.09959621 -10.31303033 18.13080411 -8.46875 18.1328125 C-6.78845703 18.13474609 -6.78845703 18.13474609 -5.07421875 18.13671875 C-3.30498047 18.13091797 -3.30498047 18.13091797 -1.5 18.125 C-0.32050781 18.12886719 0.85898437 18.13273437 2.07421875 18.13671875 C3.19441406 18.13542969 4.31460937 18.13414062 5.46875 18.1328125 C7.02239258 18.13112061 7.02239258 18.13112061 8.60742188 18.12939453 C10.95297823 18.26965153 10.95297823 18.26965153 12 17 C12.58637211 14.67977243 12.58637211 14.67977243 12 12 C10.02522085 10.03991414 8.20837904 8.45634971 6 6.8125 C3.95448265 5.24841635 1.97274381 3.65863133 0 2 C0 1.34 0 0.68 0 0 Z " fill="#0C4E8C" transform="translate(366,193)"/>
<path d="M0 0 C5.66419943 0.66145685 10.96270761 1.98755972 16.4375 3.5625 C17.26443359 3.79646484 18.09136719 4.03042969 18.94335938 4.27148438 C20.96338426 4.84363015 22.98185676 5.42125204 25 6 C17.57739308 12.01832994 17.57739308 12.01832994 13.0625 11.875 C10.18032156 11.42019753 9.03811588 11.02808539 6.625 9.25 C4.93412761 6.90879208 4.05518193 4.67312756 3 2 C2.01 1.34 1.02 0.68 0 0 Z " fill="#C3B8B8" transform="translate(159,169)"/>
<path d="M0 0 C4.38855677 1.72407587 6.91486937 4.82973873 9 9 C9.25 12 9.25 12 9 15 C6.00120785 16.99919476 3.40906589 17.91200025 0 19 C-0.66 19.33 -1.32 19.66 -2 20 C-5.5 20.1875 -5.5 20.1875 -9 20 C-9.66 19.34 -10.32 18.68 -11 18 C-13.42715206 17.32059533 -13.42715206 17.32059533 -16.125 16.875 C-17.03507812 16.70742187 -17.94515625 16.53984375 -18.8828125 16.3671875 C-19.58148438 16.24601562 -20.28015625 16.12484375 -21 16 C-21 15.67 -21 15.34 -21 15 C-13.08 15 -5.16 15 3 15 C2.28642918 12.1457167 1.60292811 9.88488094 0.4375 7.25 C-0.036875 6.1775 -0.51125 5.105 -1 4 C1 4 1 4 3.125 6 C3.74375 6.66 4.3625 7.32 5 8 C3.38731308 5.28775382 1.75098126 2.62647188 0 0 Z " fill="#7D7D7F" transform="translate(304,231)"/>
<path d="M0 0 C3.3 0.33 6.6 0.66 10 1 C10 1.66 10 2.32 10 3 C10.99 3 11.98 3 13 3 C13 3.66 13 4.32 13 5 C15.64 5.33 18.28 5.66 21 6 C21 6.99 21 7.98 21 9 C22.010625 9.0825 23.02125 9.165 24.0625 9.25 C28.37786916 9.84006068 31.34738197 11.68916002 35 14 C31.75782936 15.62108532 29.87514564 14.96276274 26.4375 13.9375 C23.17160162 12.636368 23.17160162 12.636368 21 14 C20.34 12.35 19.68 10.7 19 9 C18.01 9 17.02 9 16 9 C16 8.34 16 7.68 16 7 C15.34 7 14.68 7 14 7 C13.67 8.32 13.34 9.64 13 11 C11.0085944 11.38133299 9.00720923 11.71325582 7 12 C6 11 6 11 5.875 8.6875 C5.98652681 6.28967362 6.32116892 4.29105488 7 2 C4.69 1.67 2.38 1.34 0 1 C0 0.67 0 0.34 0 0 Z " fill="#4A7591" transform="translate(218,95)"/>
<path d="M0 0 C7.96215257 5.19455943 7.96215257 5.19455943 9 9 C9.25 12.125 9.25 12.125 9 15 C8.34 15.66 7.68 16.32 7 17 C4.375 16.625 4.375 16.625 2 16 C1.957279 14.33388095 1.95936168 12.66617115 2 11 C2.33 10.67 2.66 10.34 3 10 C0.03 10 -2.94 10 -6 10 C-6.33 9.34 -6.66 8.68 -7 8 C-6.21625 7.236875 -5.4325 6.47375 -4.625 5.6875 C-1.92742283 3.09108195 -1.92742283 3.09108195 0 0 Z " fill="#3C3C45" transform="translate(342,212)"/>
<path d="M0 0 C4.75 1.875 4.75 1.875 7 3 C7 3.66 7 4.32 7 5 C6.34 5 5.68 5 5 5 C5 5.66 5 6.32 5 7 C5.66 7 6.32 7 7 7 C6.67 9.31 6.34 11.62 6 14 C6.99 14.33 7.98 14.66 9 15 C8.01 15.495 8.01 15.495 7 16 C1.71836201 13.98488028 -3.38216587 11.44006916 -7 7 C-5.68 6.67 -4.36 6.34 -3 6 C-2.814375 5.071875 -2.814375 5.071875 -2.625 4.125 C-2 2 -2 2 0 0 Z " fill="#28272A" transform="translate(146,152)"/>
<path d="M0 0 C2.18900441 1.17319191 4.00845818 2.49420009 6 4 C4.97407374 7.07777878 4.24530756 7.84450474 2 10 C1.01 11.485 1.01 11.485 0 13 C-1.70884005 11.37660195 -3.37446717 9.70680947 -5 8 C-5 7.34 -5 6.68 -5 6 C-5.99 5.67 -6.98 5.34 -8 5 C-8.33 3.35 -8.66 1.7 -9 0 C-5.81011624 -1.59494188 -3.42171253 -0.74137105 0 0 Z " fill="#504D51" transform="translate(265,204)"/>
<path d="M0 0 C7.6438582 1.62901896 7.6438582 1.62901896 9.5 3.5625 C11.41172828 5.39457294 12.52443633 5.30520041 15.125 5.5625 C16.40375 5.706875 17.6825 5.85125 19 6 C19.33 6.66 19.66 7.32 20 8 C23.71888239 7.49287967 26.73454239 6.88391785 30 5 C30 4.01 30 3.02 30 2 C32.4375 2.8125 32.4375 2.8125 35 4 C35.495 5.485 35.495 5.485 36 7 C33.6963704 9.86397193 32.57134096 10.91583242 28.87109375 11.4609375 C27.73800781 11.43257812 26.60492188 11.40421875 25.4375 11.375 C24.30183594 11.36210937 23.16617187 11.34921875 21.99609375 11.3359375 C19 11 19 11 16 9 C16 8.34 16 7.68 16 7 C15.113125 7.0825 14.22625 7.165 13.3125 7.25 C9.23805419 6.94249466 8.02666324 5.63862949 5 3 C2.3205355 1.75983331 2.3205355 1.75983331 0 1 C0 0.67 0 0.34 0 0 Z " fill="#21232A" transform="translate(304,206)"/>
<path d="M0 0 C0.66 0.33 1.32 0.66 2 1 C2.33 13.87 2.66 26.74 3 40 C0.36 40.33 -2.28 40.66 -5 41 C-4.34 40.34 -3.68 39.68 -3 39 C-2.69602436 36.15142676 -2.50817255 33.38461576 -2.40234375 30.52734375 C-2.36315323 29.68909561 -2.32396271 28.85084747 -2.28358459 27.98719788 C-2.15928534 25.30427952 -2.04760484 22.6210355 -1.9375 19.9375 C-1.82219615 17.2505127 -1.70419018 14.56371444 -1.58070374 11.87709045 C-1.5042824 10.20352062 -1.4329114 8.5297115 -1.3669281 6.85569763 C-1.11173191 1.11173191 -1.11173191 1.11173191 0 0 Z " fill="#FDFDFD" transform="translate(227,51)"/>
<path d="M0 0 C2.04119788 1.61594832 4.04072937 3.2856382 6 5 C6 5.66 6 6.32 6 7 C7.98 6.34 9.96 5.68 12 5 C12 6.65 12 8.3 12 10 C10.68 10.33 9.36 10.66 8 11 C8 12.98 8 14.96 8 17 C3.2367688 12.48746518 3.2367688 12.48746518 1.9375 9.8125 C0.71281361 7.44477298 -0.64027874 7.14410728 -3 6 C-4.75 3.875 -4.75 3.875 -6 2 C-5.38125 2.33 -4.7625 2.66 -4.125 3 C-2.08981656 4.14193235 -2.08981656 4.14193235 0 4 C0 2.68 0 1.36 0 0 Z " fill="#616067" transform="translate(216,187)"/>
<path d="M0 0 C0.33 0.66 0.66 1.32 1 2 C1.66 2 2.32 2 3 2 C3 2.66 3 3.32 3 4 C3.62648438 4.06058594 4.25296875 4.12117187 4.8984375 4.18359375 C5.71570313 4.26738281 6.53296875 4.35117188 7.375 4.4375 C8.59316406 4.55931641 8.59316406 4.55931641 9.8359375 4.68359375 C12 5 12 5 14 6 C10.25 9 10.25 9 8 9 C8.33 10.98 8.66 12.96 9 15 C6.42262834 13.96905133 5.23715753 13.4891374 4 10.9375 C3.67 10.298125 3.34 9.65875 3 9 C1.01954441 8.33820153 1.01954441 8.33820153 -1 8 C-1.66 7.34 -2.32 6.68 -3 6 C-2.63318342 3.06546739 -2.13562754 2.13562754 0 0 Z " fill="#515055" transform="translate(253,170)"/>
<path d="M0 0 C0.78503906 0.26296875 1.57007813 0.5259375 2.37890625 0.796875 C3.16136719 1.04953125 3.94382813 1.3021875 4.75 1.5625 C7.03379624 2.58837638 8.30672871 3.67566856 9.94140625 5.546875 C7.96140625 6.866875 5.98140625 8.186875 3.94140625 9.546875 C4.60140625 9.546875 5.26140625 9.546875 5.94140625 9.546875 C5.94140625 10.206875 5.94140625 10.866875 5.94140625 11.546875 C0.31640625 11.796875 0.31640625 11.796875 -3.05859375 9.546875 C-2.72859375 7.236875 -2.39859375 4.926875 -2.05859375 2.546875 C-2.71859375 2.546875 -3.37859375 2.546875 -4.05859375 2.546875 C-4.05859375 1.886875 -4.05859375 1.226875 -4.05859375 0.546875 C-2.05859375 -0.453125 -2.05859375 -0.453125 0 0 Z " fill="#232227" transform="translate(155.05859375,156.453125)"/>
<path d="M0 0 C0.33 0 0.66 0 1 0 C1 13.2 1 26.4 1 40 C0.01 40 -0.98 40 -2 40 C-2 40.66 -2 41.32 -2 42 C-1.34 42.33 -0.68 42.66 0 43 C-8.33333333 43 -16.66666667 43 -25 43 C-21.16525056 40.31005671 -18.77805857 39.68973974 -14.125 39.9375 C-8.89053326 40.20400679 -6.44889159 39.55682617 -1 38 C-0.67 25.46 -0.34 12.92 0 0 Z " fill="#BFC6CC" transform="translate(227,53)"/>
<path d="M0 0 C1.32 0 2.64 0 4 0 C4 0.66 4 1.32 4 2 C4.85078125 2.17402344 4.85078125 2.17402344 5.71875 2.3515625 C8.23094946 3.06564659 10.22798342 4.09115502 12.5 5.375 C13.62921875 6.00535156 13.62921875 6.00535156 14.78125 6.6484375 C17 8 17 8 19.109375 9.62109375 C21.37208077 11.27137296 23.25313932 11.61849157 26 12 C25.01 12.495 25.01 12.495 24 13 C24 13.66 24 14.32 24 15 C26.475 15.495 26.475 15.495 29 16 C29 16.99 29 17.98 29 19 C29.66 19 30.32 19 31 19 C31.33 20.32 31.66 21.64 32 23 C31.34 23 30.68 23 30 23 C29.67 22.34 29.34 21.68 29 21 C28.01 20.67 27.02 20.34 26 20 C26 19.34 26 18.68 26 18 C24.35 17.34 22.7 16.68 21 16 C21.33 15.01 21.66 14.02 22 13 C20.35 13 18.7 13 17 13 C16.67 12.01 16.34 11.02 16 10 C15.278125 9.9175 14.55625 9.835 13.8125 9.75 C10.41750362 8.84466763 8.63347166 7.28696223 6 5 C5.01 4.34 4.02 3.68 3 3 C3 2.34 3 1.68 3 1 C2.01 0.67 1.02 0.34 0 0 Z " fill="#181818" transform="translate(237,148)"/>
<path d="M0 0 C0.25523437 0.57234375 0.51046875 1.1446875 0.7734375 1.734375 C2.13087159 4.24173733 3.71974104 6.1330456 5.625 8.25 C6.25664062 8.95640625 6.88828125 9.6628125 7.5390625 10.390625 C8.02117187 10.92171875 8.50328125 11.4528125 9 12 C8.01 13.485 8.01 13.485 7 15 C7.32550502 16.66821323 7.65846063 18.33499557 8 20 C7.34 20.66 6.68 21.32 6 22 C1.07692308 16.70769231 1.07692308 16.70769231 0.6875 13.125 C0.790625 12.42375 0.89375 11.7225 1 11 C1.99 11 2.98 11 4 11 C3.34 10.67 2.68 10.34 2 10 C1.01 10.33 0.02 10.66 -1 11 C-2.26264601 6.70700357 -1.62950412 4.12168689 0 0 Z " fill="#0C0C0E" transform="translate(131,135)"/>
<path d="M0 0 C0.66 0 1.32 0 2 0 C2.495 0.804375 2.99 1.60875 3.5 2.4375 C7.17117928 6.20045877 10.92674328 5.89350034 16 6 C15.93489583 7.98567708 15.86979167 9.97135417 15.8046875 11.95703125 C15.86745538 14.31359719 15.86745538 14.31359719 18 17 C17.625 19.1875 17.625 19.1875 17 21 C0 2.50462963 0 2.50462963 0 0 Z " fill="#515053" transform="translate(254,179)"/>
<path d="M0 0 C1.7325 0.4640625 1.7325 0.4640625 3.5 0.9375 C7.65413062 1.98345074 11.7431059 2.5439042 16 3 C16.103125 3.639375 16.20625 4.27875 16.3125 4.9375 C16.6528125 5.9584375 16.6528125 5.9584375 17 7 C17.99 7.33 18.98 7.66 20 8 C15.82412255 9.39195915 13.86525224 7.82323219 10 6 C12.97 8.31 15.94 10.62 19 13 C14.53326743 13 10.94859496 10.97429748 7 9 C6.9175 8.401875 6.835 7.80375 6.75 7.1875 C5.59194011 3.80982532 2.94506578 2.81716824 0 1 C0 0.67 0 0.34 0 0 Z " fill="#7092B6" transform="translate(243,137)"/>
<path d="M0 0 C7.625 0.875 7.625 0.875 11 2 C12.55266653 2.1464714 14.10995662 2.24694074 15.66796875 2.31640625 C17.00698242 2.37924805 17.00698242 2.37924805 18.37304688 2.44335938 C19.76620117 2.50233398 19.76620117 2.50233398 21.1875 2.5625 C22.12787109 2.60568359 23.06824219 2.64886719 24.03710938 2.69335938 C26.35792854 2.79938665 28.67885325 2.90145029 31 3 C31 3.33 31 3.66 31 4 C20.605 4.495 20.605 4.495 10 5 C10.33 8.3 10.66 11.6 11 15 C10.01 15.495 10.01 15.495 9 16 C8.773125 14.783125 8.54625 13.56625 8.3125 12.3125 C7.25609741 8.01088946 5.35014417 5.93137615 2 3 C1.34 2.01 0.68 1.02 0 0 Z " fill="#939FB1" transform="translate(342,211)"/>
<path d="M0 0 C1.79275866 3.11910856 2.34290718 5.67682428 2.625 9.25 C2.69976562 10.14203125 2.77453125 11.0340625 2.8515625 11.953125 C2.90054687 12.62859375 2.94953125 13.3040625 3 14 C2.67 13.34 2.34 12.68 2 12 C0.6078125 12.3403125 0.6078125 12.3403125 -0.8125 12.6875 C-4 13 -4 13 -5.875 11.8125 C-7 10 -7 10 -7 6 C-4.625 4.4375 -4.625 4.4375 -2 3 C-1.34 2.01 -0.68 1.02 0 0 Z " fill="#4A494D" transform="translate(268,173)"/>
<path d="M0 0 C9.00736095 4.09590256 15.0588426 9.0588426 22 16 C22.763125 16.556875 23.52625 17.11375 24.3125 17.6875 C24.869375 18.120625 25.42625 18.55375 26 19 C26 19.66 26 20.32 26 21 C26.99 21 27.98 21 29 21 C30.6875 22.5 30.6875 22.5 32 24 C31.67 24.66 31.34 25.32 31 26 C26.13923245 22.2674106 21.34386818 18.47338932 16.625 14.5625 C11.91583617 10.67261078 7.0404288 7.10491225 2.01953125 3.62890625 C1.35308594 3.09136719 0.68664062 2.55382812 0 2 C0 1.34 0 0.68 0 0 Z " fill="#6E839A" transform="translate(272,120)"/>
<path d="M0 0 C0 0.33 0 0.66 0 1 C-4.455 1.495 -4.455 1.495 -9 2 C-9 2.66 -9 3.32 -9 4 C-9.99 4.495 -9.99 4.495 -11 5 C-11.72888424 9.37330544 -12.13869913 13.5616278 -12 18 C-14 16 -14 16 -14.125 12.375 C-14.08375 11.26125 -14.0425 10.1475 -14 9 C-14.99 9.33 -15.98 9.66 -17 10 C-17 12.64 -17 15.28 -17 18 C-19 16 -19 16 -19.375 12.25 C-19.23005849 7.81317919 -18.07572341 5.30640266 -15 2 C-9.87727306 -1.04474443 -5.71188897 -1.30897456 0 0 Z " fill="#6F6E71" transform="translate(187,108)"/>
<path d="M0 0 C3.53191322 3.43153914 6.7137505 6.97375062 9.8125 10.8125 C10.60269531 11.78832031 11.39289063 12.76414063 12.20703125 13.76953125 C12.79871094 14.50558594 13.39039063 15.24164063 14 16 C10.44206755 16 9.5367133 15.20999856 6.6875 13.1875 C3.98994873 11.30579351 1.64863488 9.84383773 -1.375 8.5 C-4.73978677 6.5772647 -5.58547691 4.53630772 -7 1 C-3.4213696 2.65167557 -0.25179812 4.78286492 3 7 C2.505 6.21625 2.01 5.4325 1.5 4.625 C0 2 0 2 0 0 Z " fill="#7C797C" transform="translate(291,169)"/>
<path d="M0 0 C0.33 0 0.66 0 1 0 C1.66 2.31 2.32 4.62 3 7 C3.66 6.34 4.32 5.68 5 5 C8.125 4.875 8.125 4.875 11 5 C11 3.35 11 1.7 11 0 C11.99 0.33 12.98 0.66 14 1 C14.89063845 3.91481676 15.25805827 5.4193689 14 8.25 C11.0513468 10.83007155 8.87316191 11 5 11 C2.0625 9.5 2.0625 9.5 0 7 C-0.3125 3.25 -0.3125 3.25 0 0 Z " fill="#17568E" transform="translate(220,101)"/>
<path d="M0 0 C4.08218297 -0.24012841 7.21531279 0.45171887 11 2 C11.33 2.66 11.66 3.32 12 4 C14.66425626 4.72251017 17.31219313 5.38200061 20 6 C23.4375 6.875 23.4375 6.875 26 8 C26.66015625 10.0703125 26.66015625 10.0703125 27 12 C21.50989447 11.0341481 16.83051495 9.65529249 11.91796875 7.0078125 C10.04111709 6.02160532 8.1559158 5.22156499 6.1875 4.4375 C3.41000694 3.18490509 1.88317463 2.32627454 0 0 Z " fill="#144178" transform="translate(224,128)"/>
<path d="M0 0 C3.15330554 0.60694155 5.18888867 1.6416665 7.75 3.5625 C8.67039063 4.24505859 8.67039063 4.24505859 9.609375 4.94140625 C10.29773438 5.46541016 10.29773438 5.46541016 11 6 C9.3125 8.0625 9.3125 8.0625 7 10 C4.25 9.75 4.25 9.75 2 9 C2 8.34 2 7.68 2 7 C0.68 6.34 -0.64 5.68 -2 5 C-1.34 3.35 -0.68 1.7 0 0 Z " fill="#2B262B" transform="translate(201,115)"/>
<path d="M0 0 C5 2 5 2 7.1875 3.3125 C11.13159931 4.27661316 13.85369232 3.00765414 17.59765625 1.62890625 C20 1 20 1 24 2 C20.37 3.32 16.74 4.64 13 6 C13.33 7.98 13.66 9.96 14 12 C14.66 12 15.32 12 16 12 C16 13.98 16 15.96 16 18 C15.34 18.33 14.68 18.66 14 19 C13.91105469 18.45472656 13.82210938 17.90945312 13.73046875 17.34765625 C12.02678884 10.17749261 8.08647199 7.07238374 2.30078125 2.75 C1.54152344 2.1725 0.78226562 1.595 0 1 C0 0.67 0 0.34 0 0 Z " fill="#C8D3E0" transform="translate(368,193)"/>
<path d="M0 0 C3.96 1.98 3.96 1.98 8 4 C7.01 4.495 7.01 4.495 6 5 C6 5.66 6 6.32 6 7 C8.97 7.495 8.97 7.495 12 8 C12.33 9.32 12.66 10.64 13 12 C13.99 11.67 14.98 11.34 16 11 C16 11.66 16 12.32 16 13 C17.0828125 13.0928125 17.0828125 13.0928125 18.1875 13.1875 C21.84657625 14.24456647 23.49211602 16.20550071 26 19 C25.67 19.66 25.34 20.32 25 21 C24.59910156 20.61328125 24.19820313 20.2265625 23.78515625 19.828125 C19.79792241 16.17542098 16.05576849 13.98098768 11.07421875 11.92578125 C6.2486234 9.77198445 3.01987742 6.25019785 0 2 C0 1.34 0 0.68 0 0 Z " fill="#A1A9B1" transform="translate(263,146)"/>
<path d="M0 0 C3.09945936 1.05835198 4.53565149 2.32267224 6.5625 4.875 C6.5625 5.865 6.5625 6.855 6.5625 7.875 C5.5415625 7.6584375 5.5415625 7.6584375 4.5 7.4375 C1.19976918 6.80554091 -2.10894426 6.33186059 -5.4375 5.875 C-5.4375 4.555 -5.4375 3.235 -5.4375 1.875 C-2.4375 -0.125 -2.4375 -0.125 0 0 Z " fill="#2C292F" transform="translate(173.4375,164.125)"/>
<path d="M0 0 C6.09707732 2.81937744 13.59846703 7.48155337 16 14 C15.76271993 17.4010144 15.430466 18.569534 13 21 C12.01 21 11.02 21 10 21 C10.33 20.443125 10.66 19.88625 11 19.3125 C12.22692765 16.47522981 12.50126381 15.07024084 12 12 C10.02522085 10.03991414 8.20837904 8.45634971 6 6.8125 C3.95448265 5.24841635 1.97274381 3.65863133 0 2 C0 1.34 0 0.68 0 0 Z " fill="#245789" transform="translate(366,193)"/>
<path d="M0 0 C9.57 0 19.14 0 29 0 C26.52620632 2.47379368 24.3071065 2.96652922 21 4 C20.01 4.495 20.01 4.495 19 5 C15.5 5.1875 15.5 5.1875 12 5 C11.34 4.34 10.68 3.68 10 3 C7.57284794 2.32059533 7.57284794 2.32059533 4.875 1.875 C3.96492188 1.70742187 3.05484375 1.53984375 2.1171875 1.3671875 C1.41851562 1.24601563 0.71984375 1.12484375 0 1 C0 0.67 0 0.34 0 0 Z " fill="#B1ADB0" transform="translate(283,246)"/>
<path d="M0 0 C0 0.66 0 1.32 0 2 C3.465 1.505 3.465 1.505 7 1 C4.57869669 3.42130331 3.19888623 3.52840504 -0.125 4.125 C-1.03507812 4.29257813 -1.94515625 4.46015625 -2.8828125 4.6328125 C-3.58148438 4.75398437 -4.28015625 4.87515625 -5 5 C-5 5.66 -5 6.32 -5 7 C-5.99 6.67 -6.98 6.34 -8 6 C-8 5.01 -8 4.02 -8 3 C-8.66 2.67 -9.32 2.34 -10 2 C-6.82020798 -2.76968803 -4.78499148 -2.1985096 0 0 Z " fill="#B0B2B7" transform="translate(373,186)"/>
<path d="M0 0 C6.11987083 1.19997467 8.4549418 2.84355171 12 8 C12 8.66 12 9.32 12 10 C12.5775 10.2475 13.155 10.495 13.75 10.75 C16.3002997 12.16683317 18.01785701 13.87627537 20 16 C18.33333333 16 16.66666667 16 15 16 C14.67 15.01 14.34 14.02 14 13 C10.99152582 11.77479736 10.99152582 11.77479736 8 11 C8.33 10.01 8.66 9.02 9 8 C8.0925 7.5875 7.185 7.175 6.25 6.75 C3.20334382 5.10949282 1.28873194 3.55281639 -1 1 C-0.67 0.67 -0.34 0.34 0 0 Z " fill="#25517E" transform="translate(261,142)"/>
<path d="M0 0 C0.33 0.66 0.66 1.32 1 2 C2.32 2.66 3.64 3.32 5 4 C1.7 5.32 -1.6 6.64 -5 8 C-4.01 8.66 -3.02 9.32 -2 10 C-2.33 10.66 -2.66 11.32 -3 12 C-4.98 10.35 -6.96 8.7 -9 7 C-8.34 6.67 -7.68 6.34 -7 6 C-7.33 4.35 -7.66 2.7 -8 1 C-5.29120665 -0.35439668 -2.99066732 -0.06501451 0 0 Z " fill="#ACB1B8" transform="translate(320,146)"/>
<path d="M0 0 C8.80566729 3.74709247 17.4698238 7.65477454 26 12 C26 12.99 26 13.98 26 15 C25.67 14.34 25.34 13.68 25 13 C23.68 13 22.36 13 21 13 C21 12.34 21 11.68 21 11 C16.71 10.34 12.42 9.68 8 9 C7.67 8.01 7.34 7.02 7 6 C5.37051936 4.77554716 5.37051936 4.77554716 3.4375 3.8125 C2.303125 3.214375 1.16875 2.61625 0 2 C0 1.34 0 0.68 0 0 Z " fill="#101E2E" transform="translate(220,127)"/>
<path d="M0 0 C1.65 0 3.3 0 5 0 C4.67 1.98 4.34 3.96 4 6 C5.65 6.33 7.3 6.66 9 7 C9 7.66 9 8.32 9 9 C7.02 8.34 5.04 7.68 3 7 C3 7.99 3 8.98 3 10 C3.99 10.33 4.98 10.66 6 11 C5.01 11.495 5.01 11.495 4 12 C1.8359375 11.00390625 1.8359375 11.00390625 -0.625 9.5625 C-1.44226563 9.08941406 -2.25953125 8.61632812 -3.1015625 8.12890625 C-3.72804687 7.75636719 -4.35453125 7.38382813 -5 7 C-4.38125 6.87625 -3.7625 6.7525 -3.125 6.625 C-0.80879168 6.12802644 -0.80879168 6.12802644 1 4 C0.34 3.67 -0.32 3.34 -1 3 C-0.67 2.01 -0.34 1.02 0 0 Z " fill="#4A484C" transform="translate(235,155)"/>
<path d="M0 0 C3.94976703 0.22570097 4.91594733 0.90594106 7.625 3.9375 C8.40875 4.948125 9.1925 5.95875 10 7 C10.99 7.66 11.98 8.32 13 9 C12.34 10.32 11.68 11.64 11 13 C6.33500366 10.66750183 2.86656935 7.33433166 0 3 C0 2.01 0 1.02 0 0 Z " fill="#504F55" transform="translate(275,197)"/>
<path d="M0 0 C0.66 0.33 1.32 0.66 2 1 C1.1875 2.9375 1.1875 2.9375 0 5 C-2.76565382 5.92188461 -4.38283702 6.11785222 -7.23046875 6.09765625 C-8.03291016 6.09443359 -8.83535156 6.09121094 -9.66210938 6.08789062 C-10.49548828 6.07951172 -11.32886719 6.07113281 -12.1875 6.0625 C-13.03248047 6.05798828 -13.87746094 6.05347656 -14.74804688 6.04882812 C-16.83206155 6.03705403 -18.91603977 6.0191189 -21 6 C-21 5.34 -21 4.68 -21 4 C-20.43490723 3.9498877 -19.86981445 3.89977539 -19.28759766 3.84814453 C-16.73246147 3.61633728 -14.17882238 3.3708421 -11.625 3.125 C-10.73554688 3.04636719 -9.84609375 2.96773437 -8.9296875 2.88671875 C-8.07890625 2.80292969 -7.228125 2.71914062 -6.3515625 2.6328125 C-5.17327881 2.52283936 -5.17327881 2.52283936 -3.97119141 2.41064453 C-1.77579774 2.14115409 -1.77579774 2.14115409 0 0 Z " fill="#A5B2C1" transform="translate(381,211)"/>
<path d="M0 0 C1.32 1.65 2.64 3.3 4 5 C3.0925 5.4125 2.185 5.825 1.25 6.25 C-2.04059127 7.73962183 -2.04059127 7.73962183 -3.75 10.25 C-6.48570534 12.37777082 -7.4807106 12.24994583 -10.875 12.0625 C-15.97309268 11.35359362 -18.45108859 9.64230381 -22 6 C-21.67 5.01 -21.34 4.02 -21 3 C-19.9790625 4.2065625 -19.9790625 4.2065625 -18.9375 5.4375 C-15.42027853 8.50571448 -13.63189461 9 -9 9 C-4.80093293 7.62722807 -3.37973141 6.64554339 -1.125 2.8125 C-0.75375 1.884375 -0.3825 0.95625 0 0 Z " fill="#165999" transform="translate(238,105)"/>
<path d="M0 0 C4.33094958 0 6.27034861 0.96564469 10 3 C9.3125 4.9375 9.3125 4.9375 8 7 C5.375 7.75 5.375 7.75 3 8 C0.37613513 4.93882432 0 4.26826873 0 0 Z " fill="#3F3E46" transform="translate(199,176)"/>
<path d="M0 0 C2.875 0.6875 2.875 0.6875 6 2 C7.375 4.625 7.375 4.625 8 7 C8.66 7 9.32 7 10 7 C10 7.66 10 8.32 10 9 C11.32 9 12.64 9 14 9 C14 9.66 14 10.32 14 11 C14.66 11 15.32 11 16 11 C16 12.32 16 13.64 16 15 C14.68 14.67 13.36 14.34 12 14 C12 12.68 12 11.36 12 10 C10.8553125 10.1546875 10.8553125 10.1546875 9.6875 10.3125 C8.3571875 10.1578125 8.3571875 10.1578125 7 10 C5.3125 7.5625 5.3125 7.5625 4 5 C3.34 4.67 2.68 4.34 2 4 C2 3.34 2 2.68 2 2 C1.34 2 0.68 2 0 2 C0 1.34 0 0.68 0 0 Z " fill="#1C1C1D" transform="translate(270,173)"/>
<path d="M0 0 C-1.2065625 0.37125 -1.2065625 0.37125 -2.4375 0.75 C-5.171081 1.72238859 -5.171081 1.72238859 -5.8125 4.125 C-5.9053125 5.053125 -5.9053125 5.053125 -6 6 C-6.94875 5.814375 -7.8975 5.62875 -8.875 5.4375 C-11.89868793 4.71313368 -11.89868793 4.71313368 -14 6 C-14 5.34 -14 4.68 -14 4 C-14.37125 4.515625 -14.7425 5.03125 -15.125 5.5625 C-17 7 -17 7 -20.1875 6.6875 C-21.115625 6.460625 -22.04375 6.23375 -23 6 C-19.31193524 3.54129016 -15.72194714 2.54948117 -11.5 1.3125 C-10.34177734 0.95575195 -10.34177734 0.95575195 -9.16015625 0.59179688 C-8.41636719 0.37201172 -7.67257812 0.15222656 -6.90625 -0.07421875 C-6.22884766 -0.27619873 -5.55144531 -0.47817871 -4.85351562 -0.6862793 C-3 -1 -3 -1 0 0 Z " fill="#DBDBDD" transform="translate(432,183)"/>
<path d="M0 0 C1 2 1 2 0.9375 5.5 C0.59587188 9.05878466 0.59587188 9.05878466 3 11 C3.8563027 13.63233792 4.38929927 16.29546818 5 19 C2.1875 19.25 2.1875 19.25 -1 19 C-2.875 17 -2.875 17 -4 15 C-2.68 15 -1.36 15 0 15 C-0.350625 13.989375 -0.70125 12.97875 -1.0625 11.9375 C-2.18203405 8.06643509 -1.86907313 4.95033241 -1 1 C-0.67 0.67 -0.34 0.34 0 0 Z " fill="#8C9CB3" transform="translate(201,97)"/>
<path d="M0 0 C2.79948531 2.67776856 3.93811033 4.00976527 4.1875 8 C4 11 4 11 2 13 C-0.625 12.625 -0.625 12.625 -3 12 C-3.1875 9.6875 -3.1875 9.6875 -3 7 C-2.0206121 5.97980427 -1.02104551 4.97850195 0 4 C0 2.68 0 1.36 0 0 Z " fill="#5F606D" transform="translate(347,216)"/>
<path d="M0 0 C2.54190395 1.21043045 4.5593543 2.3373651 6.625 4.25 C6.625 5.24 6.625 6.23 6.625 7.25 C-0.80647208 6.64086294 -0.80647208 6.64086294 -3.375 4.875 C-4.375 3.25 -4.375 3.25 -4.375 0.25 C-2.375 -0.75 -2.375 -0.75 0 0 Z " fill="#434246" transform="translate(296.375,226.75)"/>
<path d="M0 0 C0.66666667 2.66666667 1.33333333 5.33333333 2 8 C2.99 7.67 3.98 7.34 5 7 C5.99 8.485 5.99 8.485 7 10 C6.01 10.33 5.02 10.66 4 11 C4.44469329 16.03985731 6.71343362 18.37634988 10 22 C5.02953812 20.15908819 2.13685884 16.11130927 -0.3125 11.5625 C-1.35439586 7.67906999 -1.83583328 3.67166656 0 0 Z " fill="#7C7C7D" transform="translate(129,137)"/>
<path d="M0 0 C4.56283954 1.35651986 5.69091874 2.95910779 8 7 C10.57183314 9.27537692 10.57183314 9.27537692 13 11 C12.67 12.32 12.34 13.64 12 15 C7.5585738 12.39307592 5.68753531 10.82152945 4 6 C2.68612831 4.64748503 1.35573748 3.31054623 0 2 C0 1.34 0 0.68 0 0 Z " fill="#194A7E" transform="translate(298,176)"/>
<path d="M0 0 C0.89203125 0.00902344 1.7840625 0.01804688 2.703125 0.02734375 C3.37859375 0.03894531 4.0540625 0.05054688 4.75 0.0625 C4.75 0.3925 4.75 0.7225 4.75 1.0625 C1.78 1.0625 -1.19 1.0625 -4.25 1.0625 C-4.435625 2.2690625 -4.435625 2.2690625 -4.625 3.5 C-4.83125 4.345625 -5.0375 5.19125 -5.25 6.0625 C-6.24 6.5575 -6.24 6.5575 -7.25 7.0625 C-7.58 8.0525 -7.91 9.0425 -8.25 10.0625 C-8.91 10.0625 -9.57 10.0625 -10.25 10.0625 C-11.4375 7.8125 -11.4375 7.8125 -12.25 5.0625 C-11.00321065 2.5689213 -10.13321075 1.3614032 -7.4609375 0.45703125 C-4.93068863 0.00552041 -2.5689854 -0.03380244 0 0 Z " fill="#838388" transform="translate(142.25,128.9375)"/>
<path d="M0 0 C2.86724686 0.57344937 3.8614515 0.8614515 6 3 C5.625 5.625 5.625 5.625 5 8 C1.21213403 7.4739075 -1.17152224 6.61896089 -4 4 C-4 3.34 -4 2.68 -4 2 C-2.68 2 -1.36 2 0 2 C0 1.34 0 0.68 0 0 Z " fill="#798491" transform="translate(308,144)"/>
<path d="M0 0 C5.66715082 2.15926553 10.12408897 5.02666237 14.9375 8.6875 C15.62134766 9.19861328 16.30519531 9.70972656 17.00976562 10.23632812 C18.6779413 11.48454349 20.33965566 12.74138634 22 14 C21.01 14.495 21.01 14.495 20 15 C14.6851346 12.41311861 9.32302145 9.03482002 5 5 C5 4.34 5 3.68 5 3 C3.35 2.67 1.7 2.34 0 2 C0 1.34 0 0.68 0 0 Z " fill="#1C4F83" transform="translate(266,119)"/>
<path d="M0 0 C0.99 0 1.98 0 3 0 C3 0.99 3 1.98 3 3 C4.010625 3.0825 5.02125 3.165 6.0625 3.25 C10.37786916 3.84006068 13.34738197 5.68916002 17 8 C13.75782936 9.62108532 11.87514564 8.96276274 8.4375 7.9375 C5.17160162 6.636368 5.17160162 6.636368 3 8 C2.01 5.36 1.02 2.72 0 0 Z " fill="#5A83A9" transform="translate(236,101)"/>
<path d="M0 0 C4.51045941 2.46025059 8.18504423 5.60282037 12 9 C10.35 10.65 8.7 12.3 7 14 C5.4375 12.8125 5.4375 12.8125 4 11 C4.3125 8.3125 4.3125 8.3125 5 6 C4.175 5.38125 3.35 4.7625 2.5 4.125 C1.675 3.42375 0.85 2.7225 0 2 C0 1.34 0 0.68 0 0 Z " fill="#78777A" transform="translate(227,175)"/>
<path d="M0 0 C1.32 0 2.64 0 4 0 C4 0.66 4 1.32 4 2 C4.84691406 2.17789063 4.84691406 2.17789063 5.7109375 2.359375 C9.83083509 3.51238388 13.51397014 5.53726657 17 8 C18.5625 10.8125 18.5625 10.8125 19 13 C18.01 12.67 17.02 12.34 16 12 C16 11.34 16 10.68 16 10 C15.278125 9.9175 14.55625 9.835 13.8125 9.75 C10.41750362 8.84466763 8.63347166 7.28696223 6 5 C5.01 4.34 4.02 3.68 3 3 C3 2.34 3 1.68 3 1 C2.01 0.67 1.02 0.34 0 0 Z " fill="#212022" transform="translate(237,148)"/>
<path d="M0 0 C4.95 0.99 4.95 0.99 10 2 C10 2.66 10 3.32 10 4 C10.99 4.33 11.98 4.66 13 5 C12.34 6.32 11.68 7.64 11 9 C9.16136495 7.88368586 7.32920277 6.75670373 5.5 5.625 C4.4790625 4.99851563 3.458125 4.37203125 2.40625 3.7265625 C1.6121875 3.15679687 0.818125 2.58703125 0 2 C0 1.34 0 0.68 0 0 Z " fill="#444347" transform="translate(217,173)"/>
<path d="M0 0 C4.42769017 1.47589672 8.6336865 3.73069841 12 7 C12 7.99 12 8.98 12 10 C6.80333579 8.6389689 3.7862749 6.69612549 0 3 C0 2.01 0 1.02 0 0 Z " fill="#272527" transform="translate(238,162)"/>
<path d="M0 0 C2.3431213 0.25561323 4.67843403 0.59270772 7 1 C7.33 1.66 7.66 2.32 8 3 C7.34 3 6.68 3 6 3 C6.33 4.65 6.66 6.3 7 8 C5.35 8 3.7 8 2 8 C2 7.34 2 6.68 2 6 C1.01 5.67 0.02 5.34 -1 5 C-0.34 5 0.32 5 1 5 C0.67 3.35 0.34 1.7 0 0 Z " fill="#333137" transform="translate(179,167)"/>
<path d="M0 0 C4.75109895 1.40085688 6.80698538 3.76717527 9.8125 7.625 C10.60269531 8.62789062 11.39289063 9.63078125 12.20703125 10.6640625 C12.79871094 11.43492187 13.39039063 12.20578125 14 13 C10.06830895 13 8.83572772 11.60580385 6 9 C6 8.34 6 7.68 6 7 C5.34 7 4.68 7 4 7 C2.02 3.535 2.02 3.535 0 0 Z " fill="#717174" transform="translate(236,221)"/>
<path d="M0 0 C0.33 0.66 0.66 1.32 1 2 C1.66 2 2.32 2 3 2 C3.66 5.3 4.32 8.6 5 12 C4.34 12 3.68 12 3 12 C2.01 13.485 2.01 13.485 1 15 C-0.66251802 9.42567486 -1.18609365 5.6932495 0 0 Z " fill="#404041" transform="translate(170,115)"/>
<path d="M0 0 C7.32804179 -0.31183157 14.17876272 0.20372098 20 5 C6.3667426 4.40546697 6.3667426 4.40546697 0 1 C0 0.67 0 0.34 0 0 Z " fill="#151419" transform="translate(306,224)"/>
<path d="M0 0 C4.94213417 2.70027661 9.38974154 5.64665787 13.8125 9.125 C14.38419922 9.56714844 14.95589844 10.00929687 15.54492188 10.46484375 C17.80769371 12.22507284 19.97095166 13.97095166 22 16 C17.55026389 15.49145873 15.37506334 13.85582283 12 11 C11.34 10.690625 10.68 10.38125 10 10.0625 C7.15156873 8.54927089 5.24017298 6.29761331 3 4 C2.01 3.34 1.02 2.68 0 2 C0 1.34 0 0.68 0 0 Z " fill="#1B5086" transform="translate(320,161)"/>
<path d="M0 0 C4.17973149 2.22048235 7.49180269 5.08292517 10.99609375 8.21484375 C13.61076306 10.54409107 16.29909832 12.77175612 19 15 C18.01 15.33 17.02 15.66 16 16 C15.31292969 15.37351563 14.62585938 14.74703125 13.91796875 14.1015625 C13.01691406 13.28429687 12.11585938 12.46703125 11.1875 11.625 C10.29417969 10.81289062 9.40085937 10.00078125 8.48046875 9.1640625 C6.00367326 6.90927093 6.00367326 6.90927093 3 5 C3 4.34 3 3.68 3 3 C2.01 2.67 1.02 2.34 0 2 C0 1.34 0 0.68 0 0 Z " fill="#18507E" transform="translate(288,134)"/>
<path d="M0 0 C6.93 0 13.86 0 21 0 C18 3 18 3 14.20703125 3.29296875 C12.74190067 3.2730801 11.27691633 3.23737968 9.8125 3.1875 C9.06291016 3.17396484 8.31332031 3.16042969 7.54101562 3.14648438 C5.69370233 3.11118539 3.84675934 3.05737917 2 3 C2 2.34 2 1.68 2 1 C1.34 0.67 0.68 0.34 0 0 Z " fill="#13131A" transform="translate(328,228)"/>
<path d="M0 0 C1.65 0 3.3 0 5 0 C4.67 0.99 4.34 1.98 4 3 C4.66 3.66 5.32 4.32 6 5 C6.99 4.67 7.98 4.34 9 4 C10.07637127 7.87493656 9.94566951 9.52452927 8 13 C6.66094733 11.2126038 5.32890934 9.41995047 4 7.625 C3.2575 6.62726563 2.515 5.62953125 1.75 4.6015625 C0 2 0 2 0 0 Z " fill="#707072" transform="translate(224,204)"/>
<path d="M0 0 C2.31 0.33 4.62 0.66 7 1 C6.01 2.485 6.01 2.485 5 4 C5 5.65 5 7.3 5 9 C1.7 8.01 -1.6 7.02 -5 6 C-3.68 5.67 -2.36 5.34 -1 5 C-0.67 4.67 -0.34 4.34 0 4 C-0.33 3.34 -0.66 2.68 -1 2 C-0.67 1.34 -0.34 0.68 0 0 Z " fill="#3C393D" transform="translate(207,145)"/>
<path d="M0 0 C0.99 0.33 1.98 0.66 3 1 C3 1.99 3 2.98 3 4 C2.34 4 1.68 4 1 4 C1.66 5.65 2.32 7.3 3 9 C-0.99500618 7.6302836 -3.80009492 5.74277578 -7 3 C-6.21625 3.061875 -5.4325 3.12375 -4.625 3.1875 C-3.75875 3.125625 -2.8925 3.06375 -2 3 C-1.34 2.01 -0.68 1.02 0 0 Z " fill="#8796A9" transform="translate(356,178)"/>
<path d="M0 0 C1.32 0 2.64 0 4 0 C4 0.66 4 1.32 4 2 C4.99 2.33 5.98 2.66 7 3 C7 3.66 7 4.32 7 5 C8.11375 5.226875 9.2275 5.45375 10.375 5.6875 C14 7 14 7 15.4375 9.625 C15.623125 10.40875 15.80875 11.1925 16 12 C12.21751528 10.31991577 9.0307578 7.92161446 5.75 5.4375 C5.19570313 5.02564453 4.64140625 4.61378906 4.0703125 4.18945312 C2.69298825 3.15306751 1.3437077 2.07961421 0 1 C0 0.67 0 0.34 0 0 Z " fill="#8095AE" transform="translate(319,159)"/>
<path d="M0 0 C1.58294782 -0.05437607 3.16644256 -0.09296271 4.75 -0.125 C5.63171875 -0.14820313 6.5134375 -0.17140625 7.421875 -0.1953125 C10.1135858 0.00860498 11.69904974 0.63448279 14 2 C13.01 2.495 13.01 2.495 12 3 C14.475 3.99 14.475 3.99 17 5 C12.92320841 6.6852084 10.16924407 5.16939007 6.25 3.5625 C5.07953125 3.08941406 3.9090625 2.61632812 2.703125 2.12890625 C1.81109375 1.75636719 0.9190625 1.38382813 0 1 C0 0.67 0 0.34 0 0 Z " fill="#6C6B70" transform="translate(296,222)"/>
<path d="M0 0 C1.15941038 3.47823115 0.70820884 5.45895578 0 9 C-0.99 9 -1.98 9 -3 9 C-4.68798827 10.43750191 -4.68798827 10.43750191 -6 12 C-6.99 10.68 -7.98 9.36 -9 8 C-7.68 8.33 -6.36 8.66 -5 9 C-5.33 7.68 -5.66 6.36 -6 5 C-4.68 5 -3.36 5 -2 5 C-1.855625 4.360625 -1.71125 3.72125 -1.5625 3.0625 C-1 1 -1 1 0 0 Z " fill="#555457" transform="translate(255,163)"/>
<path d="M0 0 C3.875 1.75 3.875 1.75 5 4 C4.01 4 3.02 4 2 4 C2.33 4.99 2.66 5.98 3 7 C3.66 7 4.32 7 5 7 C5.33 6.34 5.66 5.68 6 5 C6.33 5.99 6.66 6.98 7 8 C1.25 8.125 1.25 8.125 -1 7 C-1 6.34 -1 5.68 -1 5 C-1.99 5 -2.98 5 -4 5 C-4 4.34 -4 3.68 -4 3 C-2.68 2.34 -1.36 1.68 0 1 C0 0.67 0 0.34 0 0 Z " fill="#B8B8BE" transform="translate(232,93)"/>
<path d="M0 0 C0.598125 0.165 1.19625 0.33 1.8125 0.5 C4.11344336 1.1114124 4.11344336 1.1114124 7 1 C7.33 2.65 7.66 4.3 8 6 C6.68 6.33 5.36 6.66 4 7 C4.33 7.66 4.66 8.32 5 9 C1.125 7.25 1.125 7.25 0 5 C0.66 5 1.32 5 2 5 C1.34 3.35 0.68 1.7 0 0 Z " fill="#4E4E54" transform="translate(286,210)"/>
<path d="M0 0 C7.6438582 1.62901896 7.6438582 1.62901896 9.5 3.5625 C12.09907306 6.05327835 15.51111423 5.71402576 19 6 C19.33 6.99 19.66 7.98 20 9 C18.68 9 17.36 9 16 9 C16 8.34 16 7.68 16 7 C15.113125 7.0825 14.22625 7.165 13.3125 7.25 C9.23805419 6.94249466 8.02666324 5.63862949 5 3 C2.3205355 1.75983331 2.3205355 1.75983331 0 1 C0 0.67 0 0.34 0 0 Z " fill="#1B1B21" transform="translate(304,206)"/>
<path d="M0 0 C0.99 0.33 1.98 0.66 3 1 C3 1.66 3 2.32 3 3 C3.66 3 4.32 3 5 3 C5 3.66 5 4.32 5 5 C5.5775 5.0825 6.155 5.165 6.75 5.25 C9.65433187 6.21811062 10.95255172 7.75441157 13 10 C13.5775 10.5775 14.155 11.155 14.75 11.75 C15.1625 12.1625 15.575 12.575 16 13 C12.10296856 13 11.00422996 11.73108394 8 9.3125 C7.13375 8.62800781 6.2675 7.94351563 5.375 7.23828125 C2.9891296 4.98975537 1.53341703 2.88020107 0 0 Z " fill="#19457B" transform="translate(311,191)"/>
<path d="M0 0 C0.66 0 1.32 0 2 0 C3.33333333 1.33333333 4.66666667 2.66666667 6 4 C6.66 4 7.32 4 8 4 C9.6875 6.25 9.6875 6.25 11 9 C10.58203125 11.171875 10.58203125 11.171875 10 13 C8.51511559 11.40112446 7.03726855 9.79571095 5.5625 8.1875 C4.32693359 6.84751953 4.32693359 6.84751953 3.06640625 5.48046875 C1 3 1 3 0 0 Z " fill="#747377" transform="translate(261,187)"/>
<path d="M0 0 C1.07765625 0.03609375 2.1553125 0.0721875 3.265625 0.109375 C4.49539062 0.17898437 4.49539062 0.17898437 5.75 0.25 C5.75 0.58 5.75 0.91 5.75 1.25 C-0.19 1.745 -0.19 1.745 -6.25 2.25 C-6.58 3.57 -6.91 4.89 -7.25 6.25 C-7.90509503 8.25382009 -8.56974363 10.25458132 -9.25 12.25 C-9.58 12.25 -9.91 12.25 -10.25 12.25 C-10.73826291 4.92605634 -10.73826291 4.92605634 -8.625 2 C-5.55608729 -0.26130411 -3.76857668 -0.16385116 0 0 Z " fill="#123C70" transform="translate(211.25,94.75)"/>
<path d="M0 0 C0.99 0.66 1.98 1.32 3 2 C1.55746343 5.36591866 -0.33264727 7.51047079 -3 10 C-3 9.34 -3 8.68 -3 8 C-6.96 8 -10.92 8 -15 8 C-15 7.67 -15 7.34 -15 7 C-14.16855469 6.93941406 -13.33710938 6.87882813 -12.48046875 6.81640625 C-11.39378906 6.73261719 -10.30710937 6.64882812 -9.1875 6.5625 C-8.10855469 6.48128906 -7.02960938 6.40007812 -5.91796875 6.31640625 C-2.94010095 6.09787539 -2.94010095 6.09787539 0 5 C0 3.35 0 1.7 0 0 Z " fill="#2E2F3A" transform="translate(339,210)"/>
<path d="M0 0 C5.23518706 1.43967644 9.63026009 3.81696611 14 7 C14 7.33 14 7.66 14 8 C12.35 8 10.7 8 9 8 C9 7.34 9 6.68 9 6 C7.6078125 5.9071875 7.6078125 5.9071875 6.1875 5.8125 C3 5 3 5 1.125 2.4375 C0.75375 1.633125 0.3825 0.82875 0 0 Z " fill="#7194B4" transform="translate(253,110)"/>
<path d="M0 0 C3.35503332 2.59252575 4.47293628 5.9190209 5 10 C4.87234127 13.36822652 4.49619008 16.66748016 4 20 C3.67 20 3.34 20 3 20 C2.95101563 19.20335938 2.90203125 18.40671875 2.8515625 17.5859375 C2.46329078 12.08319008 2.0438849 7.17784174 0 2 C0 1.34 0 0.68 0 0 Z " fill="#D8D8D9" transform="translate(424,89)"/>
<path d="M0 0 C0.99 0 1.98 0 3 0 C4.65 2.97 6.3 5.94 8 9 C7.01 9.495 7.01 9.495 6 10 C6 9.34 6 8.68 6 8 C4.68 7.67 3.36 7.34 2 7 C1.34 4.69 0.68 2.38 0 0 Z " fill="#3D3D3F" transform="translate(232,213)"/>
<path d="M0 0 C-0.66 1.65 -1.32 3.3 -2 5 C-3.65 5 -5.3 5 -7 5 C-7 4.34 -7 3.68 -7 3 C-8.65 3 -10.3 3 -12 3 C-12 2.67 -12 2.34 -12 2 C-10.7625 1.67 -9.525 1.34 -8.25 1 C-7.55390625 0.814375 -6.8578125 0.62875 -6.140625 0.4375 C-4 0 -4 0 0 0 Z " fill="#BCBFC2" transform="translate(330,156)"/>
<path d="M0 0 C2.475 0.495 2.475 0.495 5 1 C5.0825 1.61875 5.165 2.2375 5.25 2.875 C5.81258459 5.18437567 5.81258459 5.18437567 8.0625 6.25 C8.701875 6.4975 9.34125 6.745 10 7 C10 7.66 10 8.32 10 9 C10.66 9 11.32 9 12 9 C11.67 9.66 11.34 10.32 11 11 C9.72799029 9.89718873 8.45744147 8.79269231 7.1875 7.6875 C6.47980469 7.07261719 5.77210938 6.45773438 5.04296875 5.82421875 C3.29590233 4.26421871 1.5946095 2.71533703 0 1 C0 0.67 0 0.34 0 0 Z " fill="#19477C" transform="translate(272,149)"/>
<path d="M0 0 C0.66 0 1.32 0 2 0 C1.38722388 2.96175123 0.74627478 4.38058783 -1 7 C-1.38218767 8.65614657 -1.71395102 10.32457024 -2 12 C-2.32483418 13.33542939 -2.6550855 14.66961551 -3 16 C-4.60564871 12.78870258 -4.48378603 9.48325944 -4 6 C-2.125 2.5 -2.125 2.5 0 0 Z " fill="#AAAAAA" transform="translate(172,110)"/>
<path d="M0 0 C1.77049689 -0.05410687 3.54146849 -0.09284119 5.3125 -0.125 C6.29863281 -0.14820313 7.28476562 -0.17140625 8.30078125 -0.1953125 C11 0 11 0 14 2 C16.32387947 2.39387788 18.65793749 2.73486085 21 3 C21 3.33 21 3.66 21 4 C15.46756872 4.1941204 11.34441987 3.61340977 6 2 C3.20755955 1.83071457 3.20755955 1.83071457 1 2 C0.67 1.34 0.34 0.68 0 0 Z " fill="#285E8E" transform="translate(340,210)"/>
<path d="M0 0 C5.1588796 2.79725916 10.17342499 5.658525 15 9 C13.68 9.33 12.36 9.66 11 10 C11 9.34 11 8.68 11 8 C9.35 7.67 7.7 7.34 6 7 C6 6.34 6 5.68 6 5 C5.195625 4.731875 4.39125 4.46375 3.5625 4.1875 C2.716875 3.795625 1.87125 3.40375 1 3 C0.67 2.01 0.34 1.02 0 0 Z " fill="#1C5086" transform="translate(342,177)"/>
<path d="M0 0 C0.33 0.66 0.66 1.32 1 2 C1.598125 2.0825 2.19625 2.165 2.8125 2.25 C6.20803549 3.4141836 7.22274002 6.01674218 9 9 C4.32894208 7.44298069 0.91294315 4.91552627 -3 2 C-2.01 1.34 -1.02 0.68 0 0 Z " fill="#6A7787" transform="translate(296,177)"/>
<path d="M0 0 C3.8373228 2.49872182 7.45960866 5.0843836 11 8 C10.67 8.66 10.34 9.32 10 10 C5.45115605 8.03572648 2.76309442 6.14464164 0 2 C0 1.34 0 0.68 0 0 Z " fill="#7B7C81" transform="translate(262,151)"/>
<path d="M0 0 C4.2026393 2.63886654 7.56638098 5.36440339 11 9 C8.33333333 8.33333333 5.66666667 7.66666667 3 7 C3 6.34 3 5.68 3 5 C2.34 5 1.68 5 1 5 C0.67 3.35 0.34 1.7 0 0 Z " fill="#21548D" transform="translate(307,150)"/>
<path d="M0 0 C8.415 1.98 8.415 1.98 17 4 C17 4.33 17 4.66 17 5 C10.81056603 5.33157682 6.66033778 4.58190846 1 2 C0.67 1.34 0.34 0.68 0 0 Z " fill="#948A8B" transform="translate(164,170)"/>
<path d="M0 0 C12.66970387 0.59453303 12.66970387 0.59453303 18 4 C18 4.33 18 4.66 18 5 C11.80759538 4.31195504 5.98044406 2.71951285 0 1 C0 0.67 0 0.34 0 0 Z " fill="#50494D" transform="translate(163,169)"/>
<path d="M0 0 C4.92127034 -0.16682272 8.50343896 -0.24828052 13 2 C12.67 2.99 12.34 3.98 12 5 C10.56068883 4.54738642 9.12361001 4.08767021 7.6875 3.625 C6.88699219 3.36976563 6.08648437 3.11453125 5.26171875 2.8515625 C3 2 3 2 0 0 Z " fill="#636365" transform="translate(218,156)"/>
<path d="M0 0 C5.1596937 1.92223883 8.25572134 3.80186938 12 8 C10.56068883 7.54738642 9.12361001 7.08767021 7.6875 6.625 C6.88699219 6.36976563 6.08648437 6.11453125 5.26171875 5.8515625 C3 5 3 5 0 3 C0 2.01 0 1.02 0 0 Z " fill="#696866" transform="translate(250,143)"/>
<path d="M0 0 C5.90184049 3.34969325 5.90184049 3.34969325 8 6 C8 6.99 8 7.98 8 9 C4.20620942 7.50958227 2.31656242 5.30937488 0 2 C0 1.34 0 0.68 0 0 Z " fill="#111114" transform="translate(280,206)"/>
<path d="M0 0 C2.78211944 0.37596209 4.5879284 0.67318459 6.8125 2.4375 C8 4 8 4 8 6 C8.66 6 9.32 6 10 6 C9.67 6.66 9.34 7.32 9 8 C7.49460339 7.05016642 5.99579653 6.08988109 4.5 5.125 C3.6646875 4.59132812 2.829375 4.05765625 1.96875 3.5078125 C1.3190625 3.01023438 0.669375 2.51265625 0 2 C0 1.34 0 0.68 0 0 Z " fill="#7C94AC" transform="translate(336,171)"/>
<path d="M0 0 C2.99220268 1.36370299 5.29026529 2.94908083 7.75 5.125 C8.67039062 5.93324219 8.67039062 5.93324219 9.609375 6.7578125 C10.06828125 7.16773438 10.5271875 7.57765625 11 8 C7.26664281 8 5.23937154 6.79199277 2 5 C1.34 4.34 0.68 3.68 0 3 C0 2.01 0 1.02 0 0 Z " fill="#747276" transform="translate(273,161)"/>
<path d="M0 0 C0.66 0.33 1.32 0.66 2 1 C2 2.32 2 3.64 2 5 C-3.94 5 -9.88 5 -16 5 C-16 4.67 -16 4.34 -16 4 C-15.01257813 3.96261719 -14.02515625 3.92523438 -13.0078125 3.88671875 C-11.72648437 3.82097656 -10.44515625 3.75523437 -9.125 3.6875 C-7.84882813 3.62949219 -6.57265625 3.57148438 -5.2578125 3.51171875 C-4.18273437 3.34285156 -3.10765625 3.17398438 -2 3 C-1.34 2.01 -0.68 1.02 0 0 Z " fill="#676367" transform="translate(306,242)"/>
<path d="M0 0 C1.65 0.33 3.3 0.66 5 1 C2.95995603 4.06006595 2.30730675 4.77157178 -1 6 C-3.75 6.125 -3.75 6.125 -6 6 C-5.38125 5.566875 -4.7625 5.13375 -4.125 4.6875 C-1.7802755 3.00259517 -1.7802755 3.00259517 0 0 Z " fill="#D4D4D4" transform="translate(483,209)"/>
<path d="M0 0 C5.78461538 4.43076923 5.78461538 4.43076923 6.875 7.3125 C6.936875 8.1478125 6.936875 8.1478125 7 9 C4.37812506 7.95125002 3.20628639 7.35068687 1.75 4.875 C1.5025 4.25625 1.255 3.6375 1 3 C0.34 3 -0.32 3 -1 3 C-0.67 2.01 -0.34 1.02 0 0 Z " fill="#0F0F12" transform="translate(255,176)"/>
<path d="M0 0 C4.85437999 0.45157023 7.49174013 1.59197613 11 5 C11.33 5.99 11.66 6.98 12 8 C10.35 7.67 8.7 7.34 7 7 C6.67 6.01 6.34 5.02 6 4 C2.99152582 2.77479736 2.99152582 2.77479736 0 2 C0 1.34 0 0.68 0 0 Z " fill="#68778C" transform="translate(269,151)"/>
<path d="M0 0 C-2.07914664 0.70005949 -4.16351586 1.38462244 -6.25 2.0625 C-7.41015625 2.44535156 -8.5703125 2.82820312 -9.765625 3.22265625 C-12.80077085 3.95211763 -14.15703213 4.11889082 -17 3 C-16.01 3 -15.02 3 -14 3 C-14.33 2.01 -14.66 1.02 -15 0 C-12.02148438 0.04882812 -12.02148438 0.04882812 -9.04296875 0.09765625 C-0.93427835 -0.28994845 -0.93427835 -0.28994845 0 0 Z " fill="#C9C9CD" transform="translate(369,137)"/>
<path d="M0 0 C0.99 0.33 1.98 0.66 3 1 C2.6875 3.875 2.6875 3.875 2 7 C-1 9 -1 9 -4 9 C-4 8.34 -4 7.68 -4 7 C-3.01 7 -2.02 7 -1 7 C-0.67 4.69 -0.34 2.38 0 0 Z " fill="#0A4A7C" transform="translate(231,101)"/>
<path d="M0 0 C0.99 0.33 1.98 0.66 3 1 C2.979375 1.9075 2.95875 2.815 2.9375 3.75 C2.9889755 6.42672588 3.2215017 8.46988052 4 11 C0.77195053 8.18847304 -0.6588327 6.32145242 -1 2 C-0.67 1.34 -0.34 0.68 0 0 Z " fill="#5E5D62" transform="translate(235,208)"/>
<path d="M0 0 C2.0625 0.4375 2.0625 0.4375 4 1 C3.67 3.31 3.34 5.62 3 8 C0 6 0 6 -0.75 3.4375 C-0.8325 2.633125 -0.915 1.82875 -1 1 C-0.67 0.67 -0.34 0.34 0 0 Z " fill="#45434B" transform="translate(213,185)"/>
<path d="M0 0 C1.32 0 2.64 0 4 0 C5.625 2.375 5.625 2.375 7 5 C7.66 5.66 8.32 6.32 9 7 C8.67 7.99 8.34 8.98 8 10 C6.79557292 8.47005208 5.59114583 6.94010417 4.38671875 5.41015625 C2.94316909 3.72844923 2.94316909 3.72844923 0 3 C0 2.01 0 1.02 0 0 Z " fill="#345D8C" transform="translate(289,166)"/>
<path d="M0 0 C0.99 0.33 1.98 0.66 3 1 C3 2.32 3 3.64 3 5 C3.99 5.33 4.98 5.66 6 6 C5.01 6.495 5.01 6.495 4 7 C1.8359375 6.00390625 1.8359375 6.00390625 -0.625 4.5625 C-1.44226563 4.08941406 -2.25953125 3.61632812 -3.1015625 3.12890625 C-3.72804687 2.75636719 -4.35453125 2.38382813 -5 2 C-4.360625 1.855625 -3.72125 1.71125 -3.0625 1.5625 C-1.02454854 1.18992819 -1.02454854 1.18992819 0 0 Z " fill="#717073" transform="translate(235,160)"/>
<path d="M0 0 C1.32 0 2.64 0 4 0 C4 0.66 4 1.32 4 2 C3.34 2 2.68 2 2 2 C2 3.65 2 5.3 2 7 C1.01 7.33 0.02 7.66 -1 8 C-1.125 2.25 -1.125 2.25 0 0 Z " fill="#043F7B" transform="translate(217,98)"/>
<path d="M0 0 C4.43090471 1.20842856 6.98112756 2.51668565 10 6 C6.6875 5.8125 6.6875 5.8125 3 5 C1.0625 2.4375 1.0625 2.4375 0 0 Z " fill="#0D0C0F" transform="translate(199,145)"/>
<path d="M0 0 C3.78496138 1.51398455 4.0072198 2.0144396 6 6 C3.03 5.01 0.06 4.02 -3 3 C-2.01 2.01 -1.02 1.02 0 0 Z " fill="#565657" transform="translate(196,144)"/>
<path d="M0 0 C1.65 0.33 3.3 0.66 5 1 C4.34 2.65 3.68 4.3 3 6 C1.68 5.34 0.36 4.68 -1 4 C-0.67 2.68 -0.34 1.36 0 0 Z " fill="#2F2C30" transform="translate(195,113)"/>
<path d="M0 0 C3.28788824 3.11016455 5.83735988 6.01618925 8 10 C5.03 9.505 5.03 9.505 2 9 C2.33 8.34 2.66 7.68 3 7 C2.03114628 5.31503702 1.03013277 3.64821244 0 2 C0 1.34 0 0.68 0 0 Z " fill="#9AB0C5" transform="translate(291,169)"/>
<path d="M0 0 C2.71675995 0.36712972 4.61063713 0.72744599 6.875 2.3125 C8 4 8 4 7.6875 6.1875 C7.460625 6.785625 7.23375 7.38375 7 8 C7 7.34 7 6.68 7 6 C5.68 5.67 4.36 5.34 3 5 C3 4.01 3 3.02 3 2 C2.01 2 1.02 2 0 2 C0 1.34 0 0.68 0 0 Z " fill="#060606" transform="translate(261,161)"/>
<path d="M0 0 C3.3 0.33 6.6 0.66 10 1 C10.33 2.32 10.66 3.64 11 5 C9.53890937 4.74445946 8.08111904 4.46999628 6.625 4.1875 C5.81289062 4.03667969 5.00078125 3.88585937 4.1640625 3.73046875 C2 3 2 3 0 0 Z " fill="#1F4F84" transform="translate(240,135)"/>
<path d="M0 0 C0.66 0 1.32 0 2 0 C2.33 2.97 2.66 5.94 3 9 C1.68 8.34 0.36 7.68 -1 7 C-0.67 4.69 -0.34 2.38 0 0 Z " fill="#08467B" transform="translate(222,100)"/>
<path d="M0 0 C2.475 0.495 2.475 0.495 5 1 C5 2.32 5 3.64 5 5 C3.35 4.67 1.7 4.34 0 4 C0 2.68 0 1.36 0 0 Z " fill="#3C778C" transform="translate(224,102)"/>
<path d="M0 0 C-4.50332676 3.00221784 -8.57767579 4.31896025 -14 4 C-9.57391359 -0.5688634 -5.97980322 -0.46900417 0 0 Z " fill="#E2E2E2" transform="translate(414,234)"/>
<path d="M0 0 C0.66 0 1.32 0 2 0 C2.33 1.32 2.66 2.64 3 4 C0 6 0 6 -2.1875 5.625 C-2.785625 5.41875 -3.38375 5.2125 -4 5 C-2.71937515 3.2925002 -1.38232443 1.62626404 0 0 Z " fill="#454A59" transform="translate(345,216)"/>
<path d="M0 0 C2.4375 0.8125 2.4375 0.8125 5 2 C5.33 2.99 5.66 3.98 6 5 C4.68 6.32 3.36 7.64 2 9 C1.34 8.67 0.68 8.34 0 8 C0.99 6.68 1.98 5.36 3 4 C2.2575 3.2884375 2.2575 3.2884375 1.5 2.5625 C0 1 0 1 0 0 Z " fill="#1E2736" transform="translate(334,208)"/>
<path d="M0 0 C0.66 0.33 1.32 0.66 2 1 C2.625 4.0625 2.625 4.0625 3 7 C-0.37503669 5.8141763 -2.64722731 4.72426311 -5 2 C-2.625 0.9375 -2.625 0.9375 0 0 Z " fill="#7F7E85" transform="translate(207,182)"/>
<path d="M0 0 C2.25 0.0625 2.25 0.0625 5 1 C7.0898813 3.65742095 9 6.53550551 9 10 C8.34 10 7.68 10 7 10 C6.61908203 9.16855469 6.61908203 9.16855469 6.23046875 8.3203125 C5.88628906 7.59585938 5.54210937 6.87140625 5.1875 6.125 C4.85105469 5.40570313 4.51460937 4.68640625 4.16796875 3.9453125 C3.00532903 1.69457194 3.00532903 1.69457194 0 0 Z " fill="#CCC7C8" transform="translate(159,169)"/>
<path d="M0 0 C0.99 0.33 1.98 0.66 3 1 C1.515 2.485 1.515 2.485 0 4 C0.66 4.33 1.32 4.66 2 5 C1.67 6.32 1.34 7.64 1 9 C0.34 9 -0.32 9 -1 9 C-2.1875 6.75 -2.1875 6.75 -3 4 C-1.625 1.6875 -1.625 1.6875 0 0 Z " fill="#939295" transform="translate(133,130)"/>
<path d="M0 0 C3.26954202 0.56371414 4.82575883 1.49962266 7 4 C6.67 4.66 6.34 5.32 6 6 C3.5625 5.25 3.5625 5.25 1 4 C0.1875 1.875 0.1875 1.875 0 0 Z " fill="#18181E" transform="translate(220,129)"/>
<path d="M0 0 C4.08718695 -0.24042276 7.17679443 0.57741188 11 2 C11 2.66 11 3.32 11 4 C3.49230769 3.38461538 3.49230769 3.38461538 1 1.4375 C0.67 0.963125 0.34 0.48875 0 0 Z " fill="#134A88" transform="translate(224,128)"/>
<path d="M0 0 C1.32 1.32 2.64 2.64 4 4 C3.67 4.99 3.34 5.98 3 7 C2.01 6.67 1.02 6.34 0 6 C-0.75 4.0625 -0.75 4.0625 -1 2 C-0.67 1.34 -0.34 0.68 0 0 Z " fill="#353439" transform="translate(224,198)"/>
<path d="M0 0 C0.99 0.33 1.98 0.66 3 1 C3 2.32 3 3.64 3 5 C2.34 5 1.68 5 1 5 C0.67 5.66 0.34 6.32 0 7 C-0.66 5.68 -1.32 4.36 -2 3 C-1.34 2.01 -0.68 1.02 0 0 Z " fill="#454348" transform="translate(236,184)"/>
<path d="M0 0 C1.32 0 2.64 0 4 0 C4 0.66 4 1.32 4 2 C4.66 2 5.32 2 6 2 C6 3.32 6 4.64 6 6 C4.68 5.67 3.36 5.34 2 5 C2 3.68 2 2.36 2 1 C1.34 0.67 0.68 0.34 0 0 Z " fill="#141417" transform="translate(280,182)"/>
<path d="M0 0 C1.32 0.66 2.64 1.32 4 2 C3.67 3.65 3.34 5.3 3 7 C1.68 6.01 0.36 5.02 -1 4 C-0.67 2.68 -0.34 1.36 0 0 Z " fill="#363638" transform="translate(251,172)"/>
<path d="M0 0 C1.32 0.33 2.64 0.66 4 1 C4 1.99 4 2.98 4 4 C4.66 4 5.32 4 6 4 C5.67 4.66 5.34 5.32 5 6 C3.35 5.67 1.7 5.34 0 5 C0 3.35 0 1.7 0 0 Z " fill="#515260" transform="translate(344,223)"/>
<path d="M0 0 C3.77545388 1.09068668 6.47043472 1.9083091 9 5 C5.625 4.75 5.625 4.75 2 4 C0.5625 1.9375 0.5625 1.9375 0 0 Z " fill="#0C0B11" transform="translate(294,218)"/>
<path d="M0 0 C1.9375 0.75 1.9375 0.75 4 2 C4.75 4.125 4.75 4.125 5 6 C3.35 6 1.7 6 0 6 C-0.38218767 4.34385343 -0.71395102 2.67542976 -1 1 C-0.67 0.67 -0.34 0.34 0 0 Z " fill="#0F5192" transform="translate(362,190)"/>
<path d="M0 0 C2.33524782 2.25740623 4.18705073 4.2805761 6 7 C4.35 7 2.7 7 1 7 C1 6.34 1 5.68 1 5 C0.01 4.67 -0.98 4.34 -2 4 C-1.34 4 -0.68 4 0 4 C0 2.68 0 1.36 0 0 Z " fill="#3C393D" transform="translate(180,168)"/>
<path d="M0 0 C1.67542976 0.28604898 3.34385343 0.61781233 5 1 C5 2.32 5 3.64 5 5 C3.02 5 1.04 5 -1 5 C-0.34 4.67 0.32 4.34 1 4 C1 3.34 1 2.68 1 2 C0.34 1.67 -0.32 1.34 -1 1 C-0.67 0.67 -0.34 0.34 0 0 Z " fill="#434146" transform="translate(194,154)"/>
<path d="M0 0 C2.64 0.33 5.28 0.66 8 1 C7.67 1.66 7.34 2.32 7 3 C6.34 3 5.68 3 5 3 C4.67 3.66 4.34 4.32 4 5 C2.68 3.35 1.36 1.7 0 0 Z " fill="#8599AA" transform="translate(342,211)"/>
<path d="M0 0 C0.99 0.495 0.99 0.495 2 1 C2 1.66 2 2.32 2 3 C2.66 3 3.32 3 4 3 C4.33 2.34 4.66 1.68 5 1 C5 2.98 5 4.96 5 7 C4.67 6.34 4.34 5.68 4 5 C3.01 5.33 2.02 5.66 1 6 C0.67 4.02 0.34 2.04 0 0 Z " fill="#2C2C2C" transform="translate(265,168)"/>
<path d="M0 0 C0 1.65 0 3.3 0 5 C0.99 5.33 1.98 5.66 3 6 C2.01 6.495 2.01 6.495 1 7 C-1.03144641 6.06553465 -3.03533587 5.06775224 -5 4 C-1.125 0 -1.125 0 0 0 Z " fill="#7E7E7F" transform="translate(152,161)"/>
<path d="M0 0 C3.465 1.98 3.465 1.98 7 4 C6.67 4.66 6.34 5.32 6 6 C3.5625 5.25 3.5625 5.25 1 4 C0.1875 1.875 0.1875 1.875 0 0 Z " fill="#09090B" transform="translate(184,137)"/>
<path d="M0 0 C0.99 0.33 1.98 0.66 3 1 C3 2.65 3 4.3 3 6 C2.34 6 1.68 6 1 6 C1 5.34 1 4.68 1 4 C-0.32 3.67 -1.64 3.34 -3 3 C-2.01 2.01 -1.02 1.02 0 0 Z " fill="#45444A" transform="translate(164,137)"/>
<path d="M0 0 C3.32901247 2.21934164 3.75023244 3.34683329 5 7 C2.50638429 5.79618552 0.31856917 4.54571278 -2 3 C-2 2.34 -2 1.68 -2 1 C-1.34 0.67 -0.68 0.34 0 0 Z " fill="#5C5C5D" transform="translate(178,133)"/>
<path d="M0 0 C0.99 0.33 1.98 0.66 3 1 C3 2.98 3 4.96 3 7 C2.01 7.495 2.01 7.495 1 8 C0.34 7.34 -0.32 6.68 -1 6 C-0.34 6 0.32 6 1 6 C0.34 4.35 -0.32 2.7 -1 1 C-0.67 0.67 -0.34 0.34 0 0 Z " fill="#2E2D30" transform="translate(181,128)"/>
<path d="M0 0 C2.97 0 5.94 0 9 0 C9.33 1.32 9.66 2.64 10 4 C6.7 3.01 3.4 2.02 0 1 C0 0.67 0 0.34 0 0 Z " fill="#737275" transform="translate(202,150)"/>
<path d="M0 0 C3.96 1.98 3.96 1.98 8 4 C6.68 4.99 5.36 5.98 4 7 C0 2.25 0 2.25 0 0 Z " fill="#97A3B4" transform="translate(263,146)"/>
<path d="M0 0 C3.53600465 1.91135386 5.78972846 3.62642766 8 7 C4.21388773 6.45912682 2.44599233 4.88277668 0 2 C0 1.34 0 0.68 0 0 Z " fill="#205286" transform="translate(299,143)"/>
<path d="M0 0 C5.41538462 -0.36923077 5.41538462 -0.36923077 8.375 1.5 C8.91125 1.995 9.4475 2.49 10 3 C8.5199159 2.88637738 7.04089926 2.75877092 5.5625 2.625 C4.73878906 2.55539063 3.91507812 2.48578125 3.06640625 2.4140625 C2.38449219 2.27742187 1.70257813 2.14078125 1 2 C0.67 1.34 0.34 0.68 0 0 Z " fill="#07070D" transform="translate(316,226)"/>
<path d="M0 0 C2.31 0.66 4.62 1.32 7 2 C7 2.66 7 3.32 7 4 C2.44615385 4.36923077 2.44615385 4.36923077 0.1875 2.5 C-0.4003125 1.7575 -0.4003125 1.7575 -1 1 C-0.67 0.67 -0.34 0.34 0 0 Z " fill="#0D4681" transform="translate(261,142)"/>
<path d="M0 0 C6.875 3.75 6.875 3.75 8 6 C2.25 4.125 2.25 4.125 0 3 C0 2.01 0 1.02 0 0 Z " fill="#162944" transform="translate(204,116)"/>
</svg>
