<svg width="50" height="50" viewBox="0 0 50 50" fill="none" xmlns="http://www.w3.org/2000/svg">
<g clip-path="url(#clip0_8931_1622)">
<path d="M49.9993 19.6237V10.484C49.9993 9.59316 49.2771 8.87109 48.3864 8.87109H1.61221L0.748047 10.484V19.6237L2.41836 21.7743H47.5801L49.9993 19.6237Z" fill="#5D5360"/>
<path d="M0 10.484V19.6237L1.61289 21.0576V8.87109C0.722168 8.87109 0 9.59316 0 10.484Z" fill="#4B3F4E"/>
<path d="M0.763672 30.3767V38.8171C0.763672 39.7079 1.48584 40.43 2.37656 40.43H48.3874L50.0003 39.5164V30.3767L47.5813 28.2261H2.41963L0.763672 30.3767Z" fill="#FFE07D"/>
<path d="M1.61289 34.6776V28.9429L0 30.3766V39.5163C0 40.4071 0.722168 41.1292 1.61289 41.1292H48.3871C49.2778 41.1292 50 40.4071 50 39.5163H6.45166C3.7793 39.5163 1.61289 37.35 1.61289 34.6776Z" fill="#FFD064"/>
<path d="M0.845703 29.0038L1.61221 30.3762H49.9993V19.6235H1.61221L0.845703 21.3215V29.0038Z" fill="#E5646E"/>
<path d="M0 19.6235H1.61289V30.3762H0V19.6235Z" fill="#DB4655"/>
</g>
<defs>
<clipPath id="clip0_8931_1622">
<rect width="50" height="50" fill="white"/>
</clipPath>
</defs>
</svg>
