<svg width="20" height="20" viewBox="0 0 20 20" fill="none" xmlns="http://www.w3.org/2000/svg">
<path d="M10.0013 17.5357C14.6037 17.5357 18.3346 14.0352 18.3346 9.71707C18.3346 5.39896 14.6037 1.89844 10.0013 1.89844C5.39893 1.89844 1.66797 5.39896 1.66797 9.71707C1.66797 14.0352 5.39893 17.5357 10.0013 17.5357Z" stroke="white" stroke-width="1.5" stroke-linecap="#62A07B" stroke-linejoin="round"/>
<path d="M6.66667 2.67969H7.5C5.875 7.24577 5.875 12.1871 7.5 16.7532H6.66667" stroke="#ffffff" stroke-width="1.5" stroke-linecap="round" stroke-linejoin="round"/>
<path d="M12.5 2.67969C14.125 7.24577 14.125 12.1871 12.5 16.7532" stroke="white" stroke-width="1.5" stroke-linecap="round" stroke-linejoin="round"/>
<path d="M2.5 12.8444V12.0625C7.36667 13.5871 12.6333 13.5871 17.5 12.0625V12.8444" stroke="#62A07B" stroke-width="1.5" stroke-linecap="round" stroke-linejoin="round"/>
<path d="M2.5 7.37004C7.36667 5.8454 12.6333 5.8454 17.5 7.37004" stroke="#62A07B" stroke-width="1.5" stroke-linecap="round" stroke-linejoin="round"/>
</svg>
