<svg width="28" height="28" viewBox="0 0 28 28" fill="none" xmlns="http://www.w3.org/2000/svg">
<g clip-path="url(#clip0_68_1738)">
<path d="M27.9837 14.2586C27.9837 13.1115 27.8884 12.2744 27.6823 11.4062H14.2773V16.5839H22.1457C21.9872 17.8706 21.1305 19.8084 19.2268 21.1105L19.2001 21.2838L23.4385 24.4924L23.7322 24.521C26.429 22.0872 27.9837 18.5062 27.9837 14.2586Z" fill="#4285F4"/>
<path d="M14.278 27.9035C18.1329 27.9035 21.369 26.6632 23.7328 24.524L19.2275 21.1135C18.0218 21.9351 16.4037 22.5087 14.278 22.5087C10.5024 22.5087 7.29796 20.0749 6.15565 16.7109L5.98822 16.7248L1.58107 20.0578L1.52344 20.2144C3.87126 24.772 8.69388 27.9035 14.278 27.9035Z" fill="#34A853"/>
<path d="M6.1551 16.7152C5.85369 15.8471 5.67926 14.9169 5.67926 13.9558C5.67926 12.9946 5.85369 12.0645 6.13924 11.1964L6.13126 11.0115L1.66889 7.625L1.52289 7.69286C0.55524 9.58415 0 11.708 0 13.9558C0 16.2036 0.55524 18.3273 1.52289 20.2186L6.1551 16.7152Z" fill="#FBBC05"/>
<path d="M14.278 5.3947C16.9589 5.3947 18.7674 6.52635 19.7986 7.47204L23.8279 3.6275C21.3533 1.37969 18.1328 0 14.278 0C8.69387 0 3.87126 3.1314 1.52344 7.68899L6.13979 11.1925C7.29795 7.82856 10.5024 5.3947 14.278 5.3947Z" fill="#EB4335"/>
</g>
<defs>
<clipPath id="clip0_68_1738">
<rect width="28" height="28" fill="white"/>
</clipPath>
</defs>
</svg>
