<?xml version="1.0" encoding="UTF-8"?>
<svg version="1.1" xmlns="http://www.w3.org/2000/svg" width="754" height="331">
<path d="M0 0 C0.02888146 3.31248187 0.04675799 6.62493167 0.0625 9.9375 C0.07087891 10.88302734 0.07925781 11.82855469 0.08789062 12.80273438 C0.09111328 13.70185547 0.09433594 14.60097656 0.09765625 15.52734375 C0.10289307 16.35999756 0.10812988 17.19265137 0.11352539 18.05053711 C0 20 0 20 -1 21 C-2.4674896 21.09565123 -3.93956884 21.12188309 -5.41017151 21.12025452 C-6.36234558 21.12162918 -7.31451965 21.12300385 -8.29554749 21.12442017 C-9.34858566 21.12082489 -10.40162384 21.11722961 -11.48657227 21.11352539 C-12.58887177 21.11367142 -13.69117126 21.11381744 -14.82687378 21.1139679 C-18.49007092 21.11326821 -22.15321794 21.10547324 -25.81640625 21.09765625 C-28.34846468 21.09579227 -30.88052348 21.09436827 -33.4125824 21.09336853 C-39.40848249 21.08993346 -45.40436089 21.08204269 -51.40025228 21.07201904 C-58.22481058 21.06085677 -65.04936972 21.05534717 -71.87393486 21.05032361 C-85.91596664 21.03986004 -99.95798233 21.0222613 -114 21 C-113.505 24.96 -113.505 24.96 -113 29 C-112.4297793 29.00423194 -111.8595586 29.00846388 -111.27205849 29.01282406 C-97.40993039 29.11604024 -83.54785453 29.22472698 -69.68581581 29.33933926 C-62.98229349 29.39466372 -56.27876584 29.44814444 -49.57519531 29.49731445 C-43.11074288 29.54491442 -36.64634491 29.59725559 -30.18195724 29.65294075 C-27.71072107 29.67338413 -25.23946995 29.69209387 -22.76820755 29.70907402 C-19.31758447 29.73307415 -15.86706509 29.7631347 -12.41650391 29.79467773 C-11.38576248 29.8004332 -10.35502106 29.80618866 -9.29304504 29.81211853 C-8.35632462 29.82190735 -7.41960419 29.83169617 -6.45449829 29.84178162 C-5.63778971 29.84823417 -4.82108112 29.85468672 -3.97962379 29.8613348 C-2 30 -2 30 0 31 C0 37.6 0 44.2 0 51 C-3.69673482 52.84836741 -4.76992455 53.24937805 -8.61907959 53.24050903 C-10.00304176 53.24463303 -10.00304176 53.24463303 -11.41496277 53.24884033 C-12.41981216 53.24164978 -13.42466156 53.23445923 -14.45996094 53.22705078 C-15.52368423 53.22734283 -16.58740753 53.22763489 -17.68336487 53.22793579 C-21.20045113 53.2265421 -24.71732573 53.21097882 -28.234375 53.1953125 C-30.67246383 53.19158252 -33.11055416 53.18873547 -35.54864502 53.18673706 C-41.96677791 53.17909948 -48.38482034 53.15944982 -54.80291748 53.1373291 C-61.35167212 53.11687342 -67.90044137 53.10773593 -74.44921875 53.09765625 C-87.29951777 53.07620414 -100.14975407 53.04245085 -113 53 C-113 55.64 -113 58.28 -113 61 C-112.43585483 60.99815641 -111.87170965 60.99631283 -111.29046917 60.99441338 C-97.56992037 60.95026395 -83.849384 60.91728548 -70.12877941 60.89637566 C-63.4936223 60.88592482 -56.85851634 60.87174189 -50.22338867 60.84912109 C-43.82380481 60.82743911 -37.42427023 60.81544117 -31.02465248 60.81024551 C-28.57934098 60.8065414 -26.13403228 60.79930851 -23.68874168 60.78853989 C-20.27184528 60.77408679 -16.85515432 60.77201947 -13.43823242 60.77294922 C-12.42043701 60.76575867 -11.4026416 60.75856812 -10.35400391 60.75115967 C-9.42432297 60.753909 -8.49464203 60.75665833 -7.53678894 60.75949097 C-6.72837649 60.75764738 -5.91996405 60.75580379 -5.08705425 60.75390434 C-3 61 -3 61 0 63 C0.70052461 65.663063 0.77744818 68.24035737 1 71 C9.46671392 60.81947994 17.0559884 49.98085982 24.70703125 39.18359375 C29.07638934 33.02172197 33.52361404 26.94974137 38.1628418 20.98779297 C42.02040699 16.01710329 45.73323103 10.94502445 49.42163086 5.84790039 C51.18210585 3.42478015 52.87831627 1.12168373 55 -1 C57.66778564 -1.28761292 57.66778564 -1.28761292 61.09863281 -1.33813477 C62.38046448 -1.36057755 63.66229614 -1.38302032 64.98297119 -1.40614319 C66.38967801 -1.41916033 67.79639732 -1.43088252 69.203125 -1.44140625 C69.9109185 -1.44830915 70.61871201 -1.45521206 71.3479538 -1.46232414 C75.09606659 -1.49818686 78.84402838 -1.52170933 82.59228516 -1.53540039 C86.45767221 -1.55192737 90.3212227 -1.61030769 94.18599319 -1.67854404 C97.16296554 -1.72341264 100.13950169 -1.73690094 103.11678314 -1.74201775 C104.54097552 -1.74989711 105.96515476 -1.76950019 107.3890152 -1.80124092 C118.48431685 -2.03219645 118.48431685 -2.03219645 122.11300659 0.4389801 C123.66060029 2.21274997 124.83212177 3.96084565 126 6 C126.65822754 6.83668213 127.31645508 7.67336426 127.99462891 8.53540039 C128.56616699 9.29844482 129.13770508 10.06148926 129.7265625 10.84765625 C130.3659375 11.70037109 131.0053125 12.55308594 131.6640625 13.43164062 C132.31117188 14.29982422 132.95828125 15.16800781 133.625 16.0625 C134.60726562 17.37057617 134.60726562 17.37057617 135.609375 18.70507812 C145 31.26076196 145 31.26076196 145 34 C145.66 34 146.32 34 147 34 C148.44963959 35.90374355 149.81184323 37.87467159 151.125 39.875 C151.84945313 40.96554688 152.57390625 42.05609375 153.3203125 43.1796875 C155 46 155 46 155 48 C155.66 48 156.32 48 157 48 C157 48.99 157 49.98 157 51 C157.66 51 158.32 51 159 51 C160.79826445 53.25814848 162.4746801 55.51277739 164.125 57.875 C164.59292969 58.52597656 165.06085938 59.17695313 165.54296875 59.84765625 C169 64.73587828 169 64.73587828 169 67 C169.66 67 170.32 67 171 67 C171.66 68.65 172.32 70.3 173 72 C173.66 72 174.32 72 175 72 C175 48.24 175 24.48 175 0 C178.60033263 -1.80016631 179.58598904 -2.24997828 183.29226685 -2.24723816 C184.14367752 -2.25143265 184.9950882 -2.25562714 185.87229919 -2.25994873 C187.2621981 -2.25151947 187.2621981 -2.25151947 188.68017578 -2.24291992 C189.66312119 -2.24481827 190.64606659 -2.24671661 191.65879822 -2.24867249 C194.92105001 -2.25238632 198.18308029 -2.24165078 201.4453125 -2.23046875 C203.73143488 -2.22927508 206.01755775 -2.22882418 208.30368042 -2.2290802 C213.11394291 -2.22751325 217.92413121 -2.21921993 222.734375 -2.20581055 C228.82324846 -2.18903125 234.91203883 -2.18499029 241.00093269 -2.18575573 C245.73724119 -2.1854798 250.47353241 -2.17992881 255.20983505 -2.17275429 C257.4491246 -2.16962362 259.68841606 -2.16761372 261.92770767 -2.16686058 C273.94165011 -2.15841414 285.95127971 -2.02745627 297.96044922 -1.67700195 C299.01884066 -1.65517192 300.07723209 -1.63334188 301.167696 -1.61085033 C313.42159994 -1.19023392 322.70575673 2.01037037 331.328125 10.95703125 C340.40024784 22.04282622 341.05143174 36.30442758 340 50 C338.31495208 60.74218048 333.7245917 71.22624868 325 78 C318.06000956 82.36658176 310.81694009 84.23410432 302.62411499 84.31211853 C301.91520729 84.32143876 301.20629958 84.33075899 300.47590983 84.34036165 C298.11854149 84.36889992 295.76130139 84.38360727 293.40380859 84.39819336 C291.70646881 84.41569045 290.00913695 84.4339705 288.31181335 84.45297241 C283.71498235 84.50154331 279.11814016 84.53731866 274.52116728 84.5693748 C271.6484475 84.58984368 268.77575865 84.61282079 265.90306473 84.6366291 C255.87976707 84.71931781 245.85645336 84.79070178 235.83300781 84.8527832 C226.4901855 84.91098524 217.14784291 84.99546825 207.80534303 85.09178251 C199.77980443 85.17324788 191.75426339 85.23541685 183.72845137 85.28275019 C178.93662142 85.31139568 174.14517759 85.34808883 169.3535881 85.40458488 C164.85063973 85.45708848 160.34817149 85.48563892 155.84493446 85.49572372 C154.19247984 85.5035293 152.54004015 85.51993748 150.88776588 85.54556847 C148.63188105 85.57923366 146.378 85.58188049 144.12191772 85.57676697 C142.85985693 85.58615264 141.59779613 85.59553831 140.29749107 85.6052084 C136.10519286 84.83577066 134.65068985 83.25952687 132 80 C131.3855868 78.60501539 130.80760403 77.19296295 130.28051758 75.76269531 C129.09674349 73.57184466 129.09674349 73.57184466 127 72 C121.20309167 70.68869595 115.43266428 70.77502272 109.51171875 70.796875 C107.76681391 70.78131704 106.02192413 70.76397625 104.27705383 70.74493408 C100.62080801 70.71510751 96.96610687 70.71622639 93.30981445 70.73730469 C88.63705827 70.76046027 83.97065801 70.69285726 79.29895306 70.59992599 C75.69449801 70.54080206 72.09155798 70.53751079 68.48670387 70.5499649 C66.76550536 70.54791938 65.04421794 70.52710189 63.32349205 70.48671722 C57.97646795 70.37664598 53.14693599 70.4502328 48 72 C45.06064261 74.92944955 43.33603697 77.61291183 41.51179504 81.32843018 C40 84 40 84 38.38402462 84.65945721 C35.03607523 85.13769054 31.71765548 85.13383329 28.34381104 85.12025452 C27.56860194 85.12110894 26.79339284 85.12196337 25.99469256 85.12284368 C23.39520128 85.12449176 20.79577441 85.11898808 18.19628906 85.11352539 C16.33365378 85.11324335 14.47101839 85.11340159 12.60838318 85.1139679 C7.54885434 85.1142552 2.48934913 85.10836918 -2.57017422 85.10139394 C-7.8566164 85.09514937 -13.1430591 85.09455572 -18.42950439 85.09336853 C-28.44147037 85.09025848 -38.45342545 85.08204946 -48.46538663 85.07201904 C-59.86308452 85.06084781 -71.26078293 85.0553449 -82.65848494 85.05032361 C-106.10566267 85.0398666 -129.55283072 85.02227344 -153 85 C-154.93971427 80.53994544 -155.2428689 76.80746221 -155.13525391 71.99682617 C-155.12579239 71.20605682 -155.11633087 70.41528748 -155.10658264 69.60055542 C-155.07301816 66.99778551 -155.02487242 64.39550321 -154.9765625 61.79296875 C-154.95038367 59.98408771 -154.92511761 58.17519325 -154.90072632 56.36628723 C-154.83419 51.61340301 -154.75527241 46.86080224 -154.67376709 42.1081543 C-154.59273504 37.25515594 -154.52342466 32.40199171 -154.453125 27.54882812 C-154.31354916 18.03235326 -154.16089152 8.51613668 -154 -1 C-134.5116049 -1.17724376 -115.0231443 -1.34291703 -95.53453445 -1.49477577 C-86.48585736 -1.56555515 -77.43724129 -1.64013584 -68.38867188 -1.72363281 C-60.50293067 -1.79639001 -52.61716798 -1.86204819 -44.73129725 -1.91914403 C-40.5549004 -1.94963122 -36.37860132 -1.98369856 -32.20230865 -2.02626419 C-28.27245234 -2.06620601 -24.34263725 -2.09666422 -20.41264725 -2.11981392 C-18.96944655 -2.12999339 -17.52626561 -2.14365347 -16.0831337 -2.16103554 C-14.11404322 -2.18423426 -12.14480561 -2.19374505 -10.17559814 -2.20254517 C-9.07313374 -2.2117631 -7.97066933 -2.22098103 -6.83479691 -2.23047829 C-4.02111467 -2.00171669 -2.38541765 -1.4592217 0 0 Z M74.16796875 35.21289062 C72.07981307 38.40797834 69.61390545 41.29706786 67.1796875 44.23046875 C65.7226499 46.06157317 65.7226499 46.06157317 66 49 C80.19 49 94.38 49 109 49 C107.81506262 44.26025047 105.61695559 41.60144561 102.64257812 37.79980469 C100.00626875 34.39991748 97.72959099 30.92411474 95.5 27.25 C93.22218954 24.04535632 91.64526015 22.19312787 87.6875 21.5 C80.88739883 22.25299246 77.49469368 29.93211852 74.16796875 35.21289062 Z M216 28 C216 36.91 216 45.82 216 55 C226.34432868 55.11298628 236.68824718 55.20470749 247.0330534 55.25906086 C251.83664065 55.28514854 256.63978366 55.32053133 261.44311523 55.37719727 C266.07913894 55.43154682 270.71473552 55.46142677 275.35105324 55.47438622 C277.11932919 55.48362084 278.8875819 55.50165429 280.65567589 55.52865028 C283.13383766 55.56498111 285.61023757 55.56994387 288.08862305 55.56762695 C289.1837471 55.59459152 289.1837471 55.59459152 290.30099487 55.62210083 C294.24094545 55.58227683 295.84606981 55.12655186 298.93196106 52.58952332 C302.02950192 48.71089506 302.18294102 46.62192325 302.25 41.6875 C302.27578125 40.55699219 302.3015625 39.42648438 302.328125 38.26171875 C301.96114293 34.61374222 301.30743144 32.83412774 299 30 C294.82855345 27.79851697 290.88308978 27.7263431 286.2722168 27.77294922 C285.51070816 27.77265717 284.74919952 27.77236511 283.96461487 27.77206421 C281.45936502 27.77345232 278.95441634 27.78898888 276.44921875 27.8046875 C274.70758731 27.80841948 272.96595376 27.81126558 271.22431946 27.81326294 C266.64910038 27.82088484 262.07400907 27.84052092 257.49884033 27.8626709 C252.82671843 27.88316044 248.1545758 27.8922713 243.48242188 27.90234375 C234.32154953 27.9237682 225.1608054 27.95893857 216 28 Z " fill="#FAFAFA" transform="translate(372,83)"/>
<path d="M0 0 C1.18579147 -0.0049926 1.18579147 -0.0049926 2.39553833 -0.01008606 C4.07179175 -0.0151591 5.74805531 -0.01749427 7.42431641 -0.01733398 C9.99007858 -0.01951617 12.55540799 -0.03765564 15.12109375 -0.05664062 C16.74739436 -0.05957532 18.37369702 -0.06155961 20 -0.0625 C21.15325272 -0.07327827 21.15325272 -0.07327827 22.32980347 -0.08427429 C26.13754474 -0.06794204 27.88642832 0.00371263 31.1328125 2.16796875 C31.1328125 10.41796875 31.1328125 18.66796875 31.1328125 27.16796875 C67.7628125 27.66296875 67.7628125 27.66296875 105.1328125 28.16796875 C105.1328125 19.58796875 105.1328125 11.00796875 105.1328125 2.16796875 C107.18280238 0.11797887 111.39428614 0.83893381 114.21875 0.74609375 C115.03147369 0.71819763 115.84419739 0.69030151 116.68154907 0.66156006 C118.40479724 0.60506554 120.12814213 0.55145998 121.8515625 0.50048828 C124.49030929 0.41851251 127.12766861 0.31497653 129.765625 0.2109375 C131.43745875 0.15881601 133.10933357 0.10799208 134.78125 0.05859375 C135.57195892 0.02437317 136.36266785 -0.00984741 137.17733765 -0.04510498 C142.57468144 -0.16969366 142.57468144 -0.16969366 144.84112549 1.20147705 C146.83948047 4.24381505 146.54981602 7.37550634 146.52099609 10.89648438 C146.52888153 12.074972 146.52888153 12.074972 146.53692627 13.27726746 C146.55013916 15.87645296 146.54138384 18.47502693 146.53125 21.07421875 C146.53327037 22.87878538 146.5361815 24.68335121 146.53994751 26.48791504 C146.5443726 30.27083099 146.53793389 34.05353451 146.52392578 37.83642578 C146.50683375 42.68903767 146.51667394 47.54115181 146.53464317 52.39374542 C146.54547603 56.12033855 146.54203697 59.84681338 146.5342598 63.57341003 C146.53225641 65.36280882 146.53472192 67.1522183 146.54169846 68.94160461 C146.54930482 71.44117748 146.53772071 73.93994067 146.52099609 76.43945312 C146.52706879 77.18136398 146.53314148 77.92327484 146.53939819 78.68766785 C146.50330631 81.5945469 146.46515557 83.66609334 144.83439636 86.12872314 C141.83926477 87.95800551 138.43820285 87.55096752 135.03515625 87.49609375 C134.24508682 87.49422058 133.4550174 87.49234741 132.64100647 87.49041748 C130.97246067 87.48369982 129.30393054 87.46979089 127.63549805 87.44921875 C125.0765119 87.41804427 122.51814165 87.40824553 119.95898438 87.40234375 C118.33853413 87.39317436 116.71809016 87.38279879 115.09765625 87.37109375 C114.32993393 87.36684387 113.56221161 87.36259399 112.77122498 87.35821533 C107.36724278 87.28518389 107.36724278 87.28518389 105.1328125 86.16796875 C104.8028125 75.60796875 104.4728125 65.04796875 104.1328125 54.16796875 C80.3728125 54.16796875 56.6128125 54.16796875 32.1328125 54.16796875 C30.99364032 57.58548528 31.01942769 60.20284812 31.03515625 63.8046875 C31.03837891 65.10341797 31.04160156 66.40214844 31.04492188 67.74023438 C31.05327719 69.11197983 31.06174213 70.48372462 31.0703125 71.85546875 C31.07532915 73.2389307 31.07989177 74.62239438 31.08398438 76.00585938 C31.09578721 79.3932727 31.11225231 82.78059908 31.1328125 86.16796875 C27.19327447 87.45997813 23.2175688 87.31195975 19.12109375 87.30078125 C17.96784859 87.30221634 17.96784859 87.30221634 16.79130554 87.30368042 C15.17166054 87.30435931 13.55201278 87.30252538 11.93237305 87.29833984 C9.44378628 87.29296545 6.9553782 87.29830589 4.46679688 87.3046875 C2.89322877 87.3040271 1.31966077 87.30274672 -0.25390625 87.30078125 C-1.37571541 87.3038176 -1.37571541 87.3038176 -2.52018738 87.30691528 C-7.75222127 87.28293498 -7.75222127 87.28293498 -8.8671875 86.16796875 C-8.96762021 83.52596814 -9.003356 80.91008285 -8.99658203 78.26757812 C-8.99833435 77.43998489 -9.00008667 76.61239166 -9.00189209 75.75971985 C-9.00631143 73.01036513 -9.00337233 70.26107418 -9 67.51171875 C-9.00067302 65.60982246 -9.00164302 63.70792626 -9.00289917 61.80603027 C-9.00437625 57.8145262 -9.00222125 53.82304446 -8.99755859 49.83154297 C-8.9918613 44.70306368 -8.99514025 39.57463673 -9.00113106 34.44615936 C-9.00473639 30.51722821 -9.00359822 26.58830957 -9.00100327 22.65937805 C-9.00033392 20.76784763 -9.00116269 18.8763161 -9.00348282 16.98478699 C-9.00600888 14.34594698 -9.00216941 11.70719294 -8.99658203 9.06835938 C-8.99860626 8.27871292 -9.00063049 7.48906647 -9.00271606 6.67549133 C-8.9726905 -0.93925948 -6.88971214 0.00992004 0 0 Z " fill="#FCFCFC" transform="translate(56.8671875,80.83203125)"/>
<path d="M0 0 C0.70098417 1.31561522 1.36989191 2.64900554 2 4 C2.99 4.33 3.98 4.66 5 5 C6.51708428 14.41002278 6.51708428 14.41002278 4 19 C3.34 19 2.68 19 2 19 C1.7628125 19.63292969 1.525625 20.26585938 1.28125 20.91796875 C0 23 0 23 -2.09375 23.86328125 C-2.8878125 24.01152344 -3.681875 24.15976563 -4.5 24.3125 C-5.2940625 24.47363281 -6.088125 24.63476562 -6.90625 24.80078125 C-9 25 -9 25 -11 24 C-11 24.66 -11 25.32 -11 26 C-14.00148136 25.67841271 -14.98205792 25.01846979 -17.125 22.8125 C-20.51144447 17.7328333 -21.66480072 13.09400658 -21 7 C-19.125 4.0625 -19.125 4.0625 -17 2 C-16.34 2 -15.68 2 -15 2 C-15 1.34 -15 0.68 -15 0 C-9.85625655 -2.37403544 -5.14553521 -2.3669462 0 0 Z M-14 6 C-13 8 -13 8 -13 8 Z M-14 10 C-14.33 11.32 -14.66 12.64 -15 14 C-14.34 14 -13.68 14 -13 14 C-13.33 12.68 -13.66 11.36 -14 10 Z M-1 11 C0 13 0 13 0 13 Z " fill="#D3D3D9" transform="translate(709,59)"/>
<path d="M0 0 C0.33 0 0.66 0 1 0 C1 8.91 1 17.82 1 27 C11.36187019 26.95969226 21.72327645 26.90265345 32.08486557 26.81609726 C36.89610922 26.77657644 41.70716859 26.74441063 46.51855469 26.72900391 C51.16125719 26.71386755 55.80345321 26.67947611 60.44593048 26.63169098 C62.21771087 26.61684591 63.98956356 26.6089572 65.76140594 26.60811615 C68.24220369 26.60575406 70.72159304 26.57873769 73.20214844 26.54589844 C74.30266541 26.55344398 74.30266541 26.55344398 75.42541504 26.56114197 C78.87260879 26.49047005 80.67911308 26.25263716 83.42486572 24.09088135 C86.14268502 20.483165 86.25458431 17.86177154 86.5625 13.375 C86.68818359 11.59222656 86.68818359 11.59222656 86.81640625 9.7734375 C86.87699219 8.85820313 86.93757812 7.94296875 87 7 C87.33 7 87.66 7 88 7 C88 10.3 88 13.6 88 17 C88.66 17.33 89.32 17.66 90 18 C89.36999209 22.7250593 88.77410089 25.6180118 84.85975647 28.66720581 C81.2638571 30.3430806 78.1272595 30.3918725 74.24389648 30.32470703 C73.47905945 30.32353882 72.71422241 30.32237061 71.9262085 30.32116699 C69.40755746 30.3140012 66.88959184 30.28580745 64.37109375 30.2578125 C62.61662908 30.24967237 60.86215698 30.24301055 59.10768127 30.23776245 C54.49445453 30.22066296 49.8815227 30.18642191 45.26843262 30.14770508 C37.88145556 30.08845892 30.4943287 30.05462337 23.1071949 30.02193832 C20.52797054 30.00798495 17.94889585 29.98639176 15.36973572 29.96365356 C13.78872786 29.95362928 12.20771898 29.94376356 10.62670898 29.93408203 C9.91023697 29.92577362 9.19376495 29.91746521 8.45558167 29.90890503 C5.15256227 29.89415426 2.15748256 29.97216483 -1 31 C-1.33 29.68 -1.66 28.36 -2 27 C-1.34 27 -0.68 27 0 27 C0 18.09 0 9.18 0 0 Z " fill="#D4D2D3" transform="translate(587,111)"/>
<path d="M0 0 C0.33 0 0.66 0 1 0 C1.02886751 4.14581887 1.04675327 8.29161216 1.0625 12.4375 C1.07087891 13.62150391 1.07925781 14.80550781 1.08789062 16.02539062 C1.09111328 17.15009766 1.09433594 18.27480469 1.09765625 19.43359375 C1.10289307 20.47572021 1.10812988 21.51784668 1.11352539 22.59155273 C1 25 1 25 0 26 C-2.17805719 26.09429342 -4.3592128 26.11742538 -6.53930664 26.11352539 C-7.22220261 26.11367142 -7.90509857 26.11381744 -8.60868835 26.1139679 C-10.87587614 26.11326876 -13.14298274 26.1054764 -15.41015625 26.09765625 C-16.97814387 26.09579207 -18.54613207 26.09436817 -20.11412048 26.09336853 C-24.24876503 26.08954334 -28.38337466 26.07971306 -32.51800537 26.06866455 C-36.73400398 26.05845044 -40.95000822 26.05387091 -45.16601562 26.04882812 C-53.44402647 26.03809079 -61.7220089 26.02101436 -70 26 C-70 25.67 -70 25.34 -70 25 C-72.31 24.67 -74.62 24.34 -77 24 C-77 23.67 -77 23.34 -77 23 C-51.92 23 -26.84 23 -1 23 C-1 15.74 -1 8.48 -1 1 C-0.67 0.67 -0.34 0.34 0 0 Z " fill="#C8C6C6" transform="translate(164,86)"/>
<path d="M0 0 C0.33 0 0.66 0 1 0 C1.0694474 10.50923367 1.12278448 21.01841294 1.15543652 31.52782917 C1.17110624 36.40755112 1.19236831 41.28711632 1.22631836 46.16674805 C1.25886528 50.87405632 1.27684317 55.58121363 1.28463173 60.28862572 C1.29018364 62.08642136 1.30102494 63.88420854 1.31719017 65.68194008 C1.33890262 68.19610204 1.34196956 70.70963664 1.34057617 73.22387695 C1.35675491 74.34381294 1.35675491 74.34381294 1.3732605 75.4863739 C1.34279011 80.55249454 1.34279011 80.55249454 -0.52128601 82.98600769 C-1.00926163 83.32062515 -1.49723724 83.65524261 -2 84 C-3.98 83.34 -5.96 82.68 -8 82 C-8 81.67 -8 81.34 -8 81 C-6.35 81 -4.7 81 -3 81 C-3.00222061 80.3927861 -3.00444122 79.7855722 -3.00672913 79.15995789 C-3.02882312 72.84989001 -3.04392387 66.53983309 -3.05493164 60.22973633 C-3.05996575 57.873612 -3.06679346 55.5174908 -3.07543945 53.16137695 C-3.0875453 49.7781497 -3.09323749 46.39496368 -3.09765625 43.01171875 C-3.10281754 41.95538742 -3.10797882 40.89905609 -3.11329651 39.81071472 C-3.11337204 38.82992447 -3.11344757 37.84913422 -3.11352539 36.83862305 C-3.115746 35.97480515 -3.11796661 35.11098724 -3.12025452 34.22099304 C-3 32 -3 32 -2 29 C-1.34 29 -0.68 29 0 29 C0 19.43 0 9.86 0 0 Z " fill="#929292" transform="translate(202,84)"/>
<path d="M0 0 C1.09692169 0.04543945 1.09692169 0.04543945 2.21600342 0.09179688 C20.69324699 0.82461538 39.14914099 1.08877113 57.640625 1.0625 C59.25469994 1.06033981 59.25469994 1.06033981 60.90138245 1.05813599 C68.68427734 1.04590687 76.46713335 1.0238523 84.25 1 C92.11111944 0.97618267 99.97221916 0.95594239 107.83336639 0.94406128 C110.93127801 0.93767391 114.02912361 0.92518924 117.12701416 0.91235352 C126.80584998 0.88742185 136.36307391 0.99225401 146 2 C146 2.33 146 2.66 146 3 C97.82 3.33 49.64 3.66 0 4 C0 2.68 0 1.36 0 0 Z " fill="#EDECF0" transform="translate(219,164)"/>
<path d="M0 0 C6.57746996 -0.08375477 6.57746996 -0.08375477 9.76423645 2.04075623 C7.01106058 2.81692909 4.57192365 3.16483067 1.71461487 3.16101074 C0.91818573 3.16238541 0.12175659 3.16376007 -0.69880676 3.16517639 C-1.56339508 3.16158112 -2.4279834 3.15798584 -3.31877136 3.15428162 C-4.69490097 3.15450066 -4.69490097 3.15450066 -6.09883118 3.15472412 C-9.12887442 3.15402789 -12.15885606 3.14624898 -15.18888855 3.13841248 C-17.2906745 3.13654727 -19.39246089 3.13512385 -21.49424744 3.13412476 C-27.02459413 3.13030766 -32.55491454 3.12048424 -38.08525085 3.10942078 C-43.72916814 3.09918931 -49.37308967 3.09462341 -55.01701355 3.08958435 C-66.08994176 3.07886127 -77.16285047 3.06179451 -88.23576355 3.04075623 C-88.23576355 2.38075623 -88.23576355 1.72075623 -88.23576355 1.04075623 C-77.16092819 0.90982014 -66.08608698 0.77939176 -55.0112381 0.6496048 C-49.86830352 0.58931856 -44.72537109 0.52885992 -39.58244324 0.46800232 C-34.61577828 0.40923691 -29.64910812 0.35093085 -24.68243408 0.29293823 C-22.79110524 0.27077466 -20.89977829 0.24844783 -19.00845337 0.22595215 C-16.35180647 0.19438199 -13.69515329 0.16340148 -11.03849792 0.1325531 C-10.26309662 0.12320236 -9.48769531 0.11385162 -8.688797 0.10421753 C-7.23850708 0.08760615 -5.78819264 0.07298031 -4.33786011 0.06063843 C-2.89183015 0.04696148 -1.44585443 0.0263568 0 0 Z " fill="#EDECEC" transform="translate(676.2357635498047,163.95924377441406)"/>
<path d="M0 0 C0.33 0 0.66 0 1 0 C1 1.65 1 3.3 1 5 C1.66 5 2.32 5 3 5 C3.33 5.66 3.66 6.32 4 7 C4.33 5.02 4.66 3.04 5 1 C6.32 1 7.64 1 9 1 C9 2.98 9 4.96 9 7 C9.99 7 10.98 7 12 7 C12.33 5.35 12.66 3.7 13 2 C14.32 2 15.64 2 17 2 C16.85892253 3.45880109 16.71197585 4.91703551 16.5625 6.375 C16.48128906 7.18710938 16.40007813 7.99921875 16.31640625 8.8359375 C16 11 16 11 15 13 C14.34 13 13.68 13 13 13 C12.34 14.32 11.68 15.64 11 17 C9.68 17 8.36 17 7 17 C7.33 15.02 7.66 13.04 8 11 C7.1028125 11.3403125 7.1028125 11.3403125 6.1875 11.6875 C5.465625 11.790625 4.74375 11.89375 4 12 C2.25 10.5625 2.25 10.5625 1 9 C0.67 9.66 0.34 10.32 0 11 C-0.99 10.01 -1.98 9.02 -3 8 C-2.34 8 -1.68 8 -1 8 C-1.020625 7.05125 -1.04125 6.1025 -1.0625 5.125 C-1 2 -1 2 0 0 Z " fill="#E4E5E7" transform="translate(698,65)"/>
<path d="M0 0 C2.875 0.25 2.875 0.25 6 1 C7.1875 3 7.1875 3 8 5 C8.99 5.33 9.98 5.66 11 6 C11 6.99 11 7.98 11 9 C10.01 9.33 9.02 9.66 8 10 C7.67 10.66 7.34 11.32 7 12 C6.67 12.66 6.34 13.32 6 14 C5.01 14.33 4.02 14.66 3 15 C3.33 12.69 3.66 10.38 4 8 C0.67098753 10.21934164 0.24976756 11.34683329 -1 15 C-1.33 14.01 -1.66 13.02 -2 12 C-2.66 12 -3.32 12 -4 12 C-4.33 11.67 -4.66 11.34 -5 11 C-5.66 12.32 -6.32 13.64 -7 15 C-8.5625 13.1875 -8.5625 13.1875 -10 11 C-8.97071908 7.91215725 -8.33130719 6.25359695 -6 4 C-0.04477612 3.47761194 -0.04477612 3.47761194 3 5 C3 4.01 3 3.02 3 2 C2.01 2 1.02 2 0 2 C0 1.34 0 0.68 0 0 Z " fill="#BBBBBB" transform="translate(703,58)"/>
<path d="M0 0 C0.84816788 -0.00095673 1.69633575 -0.00191345 2.57020569 -0.00289917 C4.34408646 -0.00357417 6.1179698 -0.00176785 7.8918457 0.00244141 C10.61480148 0.00784653 13.33759583 0.0024495 16.06054688 -0.00390625 C17.79036495 -0.00324626 19.52018292 -0.00196675 21.25 0 C22.06452133 -0.00202423 22.87904266 -0.00404846 23.71824646 -0.00613403 C29.4301735 0.01782112 29.4301735 0.01782112 31.66015625 1.1328125 C31.66015625 1.7928125 31.66015625 2.4528125 31.66015625 3.1328125 C15.16015625 3.1328125 -1.33984375 3.1328125 -18.33984375 3.1328125 C-18.33984375 2.4728125 -18.33984375 1.8128125 -18.33984375 1.1328125 C-12.1862761 0.36021196 -6.1981461 -0.01567621 0 0 Z " fill="#EAEAEA" transform="translate(118.33984375,130.8671875)"/>
<path d="M0 0 C0 0.66 0 1.32 0 2 C0.99 2 1.98 2 3 2 C3 2.99 3 3.98 3 5 C2.07767578 4.93039063 2.07767578 4.93039063 1.13671875 4.859375 C-3.86500896 4.46633654 -3.86500896 4.46633654 -8.0625 6.75 C-9.25641026 9.20913462 -9.25641026 9.20913462 -9 13 C-11 14.75 -11 14.75 -13 16 C-14.25 12.875 -14.25 12.875 -15 9 C-13.25 5.5625 -13.25 5.5625 -11 3 C-10.34 3 -9.68 3 -9 3 C-9 2.34 -9 1.68 -9 1 C-3.375 -1.125 -3.375 -1.125 0 0 Z " fill="#E3E3E1" transform="translate(703,58)"/>
<path d="M0 0 C0.99 0.33 1.98 0.66 3 1 C2.25 3.4375 2.25 3.4375 1 6 C-2.73246106 7.56857422 -6.86256466 7.02717705 -10.828125 6.87890625 C-11.57713074 6.85529526 -12.32613647 6.83168427 -13.09783936 6.80735779 C-15.48209888 6.73099344 -17.86601105 6.64685283 -20.25 6.5625 C-21.86977486 6.50925201 -23.48956651 6.4565118 -25.109375 6.40429688 C-29.07313521 6.27541537 -33.03660201 6.13956072 -37 6 C-34.13231454 3.13231454 -31.21347695 3.64651855 -27.3671875 3.5859375 C-26.61535187 3.56657135 -25.86351624 3.5472052 -25.08889771 3.5272522 C-22.68438101 3.46740853 -20.27981656 3.42105274 -17.875 3.375 C-16.24607272 3.33682454 -14.61716572 3.29777307 -12.98828125 3.2578125 C-8.99235194 3.16170334 -4.99632813 3.07769059 -1 3 C-0.67 2.01 -0.34 1.02 0 0 Z " fill="#EBEBED" transform="translate(411,161)"/>
<path d="M0 0 C0 0.33 0 0.66 0 1 C33.165 1.495 33.165 1.495 67 2 C67 2.33 67 2.66 67 3 C57.55108138 3.04633574 48.10220186 3.0818755 38.65319443 3.10362434 C34.26566302 3.11406257 29.87820933 3.12822249 25.49072266 3.15087891 C21.25673915 3.17260589 17.02283042 3.18456834 12.78879547 3.18975449 C11.17325921 3.1934505 9.55772704 3.20066785 7.9422226 3.21146011 C5.67981617 3.22597318 3.41771891 3.22797803 1.15527344 3.22705078 C-0.13268127 3.231492 -1.42063599 3.23593323 -2.74761963 3.24050903 C-5.78696318 3.01575378 -7.46112546 2.61183256 -10 1 C-6.78548731 -0.60725635 -3.56387464 -0.05748185 0 0 Z " fill="#EFEEEE" transform="translate(96,110)"/>
<path d="M0 0 C0.66 0.33 1.32 0.66 2 1 C2 10.24 2 19.48 2 29 C1.34 29 0.68 29 0 29 C-0.33 29.99 -0.66 30.98 -1 32 C-1.02469321 27.7641643 -1.04285671 23.52836658 -1.05493164 19.29248047 C-1.05996474 17.8510668 -1.06679173 16.40965824 -1.07543945 14.96826172 C-1.08754983 12.89809915 -1.09323847 10.82800399 -1.09765625 8.7578125 C-1.10289307 7.5114502 -1.10812988 6.26508789 -1.11352539 4.98095703 C-1 2 -1 2 0 0 Z " fill="#EBEBEB" transform="translate(200,84)"/>
<path d="M0 0 C0.99 0.33 1.98 0.66 3 1 C3 12.22 3 23.44 3 35 C2.01 34.67 1.02 34.34 0 34 C0 22.78 0 11.56 0 0 Z " fill="#E7E6E6" transform="translate(162,133)"/>
<path d="M0 0 C2.875 0.25 2.875 0.25 6 1 C7.1875 3 7.1875 3 8 5 C8.99 5.33 9.98 5.66 11 6 C11 6.99 11 7.98 11 9 C10.01 9.33 9.02 9.66 8 10 C7.67 10.66 7.34 11.32 7 12 C6.67 12.66 6.34 13.32 6 14 C5.01 14.33 4.02 14.66 3 15 C3 10.71 3 6.42 3 2 C2.01 2 1.02 2 0 2 C0 1.34 0 0.68 0 0 Z " fill="#CCCCCD" transform="translate(703,58)"/>
<path d="M0 0 C3.43816147 0.1098283 6.87522348 0.24046863 10.3125 0.375 C11.28896484 0.4059375 12.26542969 0.436875 13.27148438 0.46875 C14.20927734 0.50742188 15.14707031 0.54609375 16.11328125 0.5859375 C16.97735596 0.6173584 17.84143066 0.6487793 18.73168945 0.68115234 C21 1 21 1 24 3 C16.08 3.33 8.16 3.66 0 4 C0 2.68 0 1.36 0 0 Z " fill="#DDDDDD" transform="translate(219,164)"/>
<path d="M0 0 C0.66 0.33 1.32 0.66 2 1 C0.76769603 7.9457133 -1.26524771 13.96693861 -5 20 C-5.66 20.33 -6.32 20.66 -7 21 C-7.75 19.3125 -7.75 19.3125 -8 17 C-6.72641268 15.28724465 -5.38576923 13.62332967 -4 12 C-2.75983331 9.3205355 -2.75983331 9.3205355 -2 7 C-1.34 7 -0.68 7 0 7 C-0.185625 6.030625 -0.37125 5.06125 -0.5625 4.0625 C-0.706875 3.051875 -0.85125 2.04125 -1 1 C-0.67 0.67 -0.34 0.34 0 0 Z " fill="#D9D9D9" transform="translate(709,134)"/>
<path d="M0 0 C0.33 0 0.66 0 1 0 C1 3.3 1 6.6 1 10 C1.66 10.33 2.32 10.66 3 11 C2.5020163 14.73487777 2.12508244 16.81237635 0 20 C-3.125 20.1875 -3.125 20.1875 -6 20 C-5.360625 19.21625 -4.72125 18.4325 -4.0625 17.625 C-0.98067659 13.7026793 -0.7775541 11.33007402 -0.4375 6.375 C-0.31181641 4.59222656 -0.31181641 4.59222656 -0.18359375 2.7734375 C-0.12300781 1.85820313 -0.06242188 0.94296875 0 0 Z " fill="#C0C0C0" transform="translate(674,118)"/>
<path d="M0 0 C0.33 0 0.66 0 1 0 C0.85892253 1.45880109 0.71197585 2.91703551 0.5625 4.375 C0.48128906 5.18710938 0.40007813 5.99921875 0.31640625 6.8359375 C0 9 0 9 -1 11 C-1.66 11 -2.32 11 -3 11 C-3.33 11.99 -3.66 12.98 -4 14 C-4.99 13.67 -5.98 13.34 -7 13 C-7 12.34 -7 11.68 -7 11 C-6.01 11 -5.02 11 -4 11 C-4.99 10.34 -5.98 9.68 -7 9 C-5.37660195 7.29115995 -3.70680947 5.62553283 -2 4 C-1.34 4 -0.68 4 0 4 C0 2.68 0 1.36 0 0 Z " fill="#D6D9DB" transform="translate(714,67)"/>
<path d="M0 0 C0.66 0.33 1.32 0.66 2 1 C2 4.96 2 8.92 2 13 C1.01 13 0.02 13 -1 13 C-1.02708567 11.39592672 -1.04643483 9.7917215 -1.0625 8.1875 C-1.07410156 7.29417969 -1.08570313 6.40085938 -1.09765625 5.48046875 C-1 3 -1 3 0 0 Z " fill="#F3F3F4" transform="translate(585,125)"/>
<path d="M0 0 C0.33 0 0.66 0 1 0 C1 1.65 1 3.3 1 5 C1.66 5 2.32 5 3 5 C5 7 5 7 5.125 9.625 C5.08375 10.40875 5.0425 11.1925 5 12 C3.68 11.01 2.36 10.02 1 9 C0.67 9.66 0.34 10.32 0 11 C-0.99 10.01 -1.98 9.02 -3 8 C-2.34 8 -1.68 8 -1 8 C-1.020625 7.05125 -1.04125 6.1025 -1.0625 5.125 C-1 2 -1 2 0 0 Z " fill="#F3F3F5" transform="translate(698,65)"/>
<path d="M0 0 C0.84755859 0.00966797 1.69511719 0.01933594 2.56835938 0.02929688 C3.44943359 0.05443359 4.33050781 0.07957031 5.23828125 0.10546875 C6.13095703 0.11900391 7.02363281 0.13253906 7.94335938 0.14648438 C10.14644291 0.18182796 12.34830707 0.23116382 14.55078125 0.29296875 C14.55078125 0.62296875 14.55078125 0.95296875 14.55078125 1.29296875 C13.56335938 1.35355469 12.5759375 1.41414062 11.55859375 1.4765625 C10.27726562 1.56035156 8.9959375 1.64414063 7.67578125 1.73046875 C6.39960938 1.81167969 5.1234375 1.89289063 3.80859375 1.9765625 C0.66777973 2.08502902 0.66777973 2.08502902 -1.44921875 3.29296875 C-3.44881887 3.33296075 -5.44969117 3.33643674 -7.44921875 3.29296875 C-5.08036651 0.42052834 -3.69085058 -0.07431243 0 0 Z " fill="#F3F2F7" transform="translate(375.44921875,163.70703125)"/>
<path d="M0 0 C4.29 0 8.58 0 13 0 C13 0.66 13 1.32 13 2 C8.38 2.33 3.76 2.66 -1 3 C-0.67 2.01 -0.34 1.02 0 0 Z " fill="#D5D5D9" transform="translate(54,165)"/>
<path d="M0 0 C0.33 0 0.66 0 1 0 C1 4.62 1 9.24 1 14 C0.01 13.67 -0.98 13.34 -2 13 C-1.85966889 11.02043559 -1.7125877 9.04134859 -1.5625 7.0625 C-1.48128906 5.96035156 -1.40007812 4.85820312 -1.31640625 3.72265625 C-1 1 -1 1 0 0 Z " fill="#D7D6D7" transform="translate(164,154)"/>
<path d="M0 0 C1.65 0 3.3 0 5 0 C5.33 1.65 5.66 3.3 6 5 C4.68 4.67 3.36 4.34 2 4 C2 4.66 2 5.32 2 6 C1.01 5.67 0.02 5.34 -1 5 C-0.67 3.35 -0.34 1.7 0 0 Z " fill="#EBEBF1" transform="translate(696,79)"/>
<path d="M0 0 C0.99 0.33 1.98 0.66 3 1 C2.25 3.4375 2.25 3.4375 1 6 C-1 6.875 -1 6.875 -3 7 C-3.66 6.67 -4.32 6.34 -5 6 C-5 5.34 -5 4.68 -5 4 C-4.0409375 3.8453125 -4.0409375 3.8453125 -3.0625 3.6875 C-2.381875 3.460625 -1.70125 3.23375 -1 3 C-0.67 2.01 -0.34 1.02 0 0 Z " fill="#CFCFD0" transform="translate(411,161)"/>
<path d="M0 0 C0.33 0.66 0.66 1.32 1 2 C1.66 2 2.32 2 3 2 C3 2.99 3 3.98 3 5 C3.66 5 4.32 5 5 5 C6.625 7.5 6.625 7.5 8 10 C6.68 10.33 5.36 10.66 4 11 C1.55160412 7.32740617 0 4.45351799 0 0 Z " fill="#D4D4D4" transform="translate(526,129)"/>
<path d="M0 0 C0.99 0.66 1.98 1.32 3 2 C2.67 2.99 2.34 3.98 2 5 C2 5.99 2 6.98 2 8 C0.35 7.67 -1.3 7.34 -3 7 C-2.67 5.68 -2.34 4.36 -2 3 C-1.34 3 -0.68 3 0 3 C0 2.01 0 1.02 0 0 Z " fill="#E9E9EA" transform="translate(435,127)"/>
<path d="M0 0 C0 0.66 0 1.32 0 2 C-1.43534841 2.2226746 -2.87345525 2.42761906 -4.3125 2.625 C-5.11300781 2.74101562 -5.91351563 2.85703125 -6.73828125 2.9765625 C-9 3 -9 3 -12 1 C-8.00439392 -1.83022097 -4.57262677 -0.76210446 0 0 Z " fill="#F4F4F4" transform="translate(100,132)"/>
<path d="M0 0 C-0.33 1.98 -0.66 3.96 -1 6 C-0.34 6.33 0.32 6.66 1 7 C-0.98 7 -2.96 7 -5 7 C-4.625 4.0625 -4.625 4.0625 -4 1 C-2 0 -2 0 0 0 Z " fill="#DDDEE0" transform="translate(706,76)"/>
<path d="M0 0 C1.98 0 3.96 0 6 0 C5.01 2.64 4.02 5.28 3 8 C2.67 7.01 2.34 6.02 2 5 C1.34 5 0.68 5 0 5 C0 3.35 0 1.7 0 0 Z " fill="#C5C6C5" transform="translate(699,65)"/>
<path d="M0 0 C0.66 1.65 1.32 3.3 2 5 C0.68 5 -0.64 5 -2 5 C-2.66 5.66 -3.32 6.32 -4 7 C-4.66 5.35 -5.32 3.7 -6 2 C-2.25 0 -2.25 0 0 0 Z " fill="#CAC9CD" transform="translate(694,71)"/>
<path d="M0 0 C0.99 0.66 1.98 1.32 3 2 C1.5437455 2.67119549 0.08492133 3.33681807 -1.375 4 C-2.59316406 4.556875 -2.59316406 4.556875 -3.8359375 5.125 C-6 6 -6 6 -8 6 C-8 5.34 -8 4.68 -8 4 C-7.34 4 -6.68 4 -6 4 C-6 3.34 -6 2.68 -6 2 C-3.1875 0.875 -3.1875 0.875 0 0 Z " fill="#F0F0EE" transform="translate(700,57)"/>
<path d="M0 0 C0.99 0 1.98 0 3 0 C3.125 3.375 3.125 3.375 3 7 C2.34 7.66 1.68 8.32 1 9 C-1.125 2.25 -1.125 2.25 0 0 Z " fill="#EFEEEF" transform="translate(689,65)"/>
<path d="M0 0 C0 0.99 0 1.98 0 3 C-2.97 2.67 -5.94 2.34 -9 2 C-9 1.34 -9 0.68 -9 0 C-5.67465243 -1.10844919 -3.37817425 -0.84454356 0 0 Z " fill="#B1B2AF" transform="translate(707,63)"/>
<path d="M0 0 C0.66 0 1.32 0 2 0 C1.6875 2.875 1.6875 2.875 1 6 C0.01 6.66 -0.98 7.32 -2 8 C-2.6875 6.25 -2.6875 6.25 -3 4 C-1.6875 1.75 -1.6875 1.75 0 0 Z " fill="#E1E1E1" transform="translate(704,147)"/>
<path d="M0 0 C0.99 0.33 1.98 0.66 3 1 C2.67 2.98 2.34 4.96 2 7 C0.68 5.68 -0.64 4.36 -2 3 C-1.34 2.01 -0.68 1.02 0 0 Z " fill="#ECEBEE" transform="translate(692,75)"/>
<path d="M0 0 C0.99 0 1.98 0 3 0 C3.66 1.98 4.32 3.96 5 6 C2.69 5.34 0.38 4.68 -2 4 C-1.34 2.68 -0.68 1.36 0 0 Z " fill="#F3F3F3" transform="translate(483,130)"/>
<path d="M0 0 C1 3 1 3 0.25 5 C-1.00251155 7.00401848 -2.18584684 8.4882057 -4 10 C-4.66 10 -5.32 10 -6 10 C-4.6302836 6.00499382 -2.74277578 3.19990508 0 0 Z " fill="#D8D8D8" transform="translate(416,96)"/>
<path d="M0 0 C0.99 0 1.98 0 3 0 C3 1.32 3 2.64 3 4 C2.01 4.66 1.02 5.32 0 6 C-0.99 5.67 -1.98 5.34 -3 5 C-2.34 5 -1.68 5 -1 5 C-0.67 3.35 -0.34 1.7 0 0 Z " fill="#EFF2F4" transform="translate(711,67)"/>
<path d="M0 0 C0 0.66 0 1.32 0 2 C-2.60582371 2.93065133 -3.64198224 3.14917407 -6.25 2.0625 C-6.8275 1.711875 -7.405 1.36125 -8 1 C-8 0.67 -8 0.34 -8 0 C-4.71303767 -0.79953138 -3.28976808 -1.09658936 0 0 Z " fill="#C6C6C7" transform="translate(202,165)"/>
<path d="M0 0 C1.32 0 2.64 0 4 0 C3.38722388 2.96175123 2.74627478 4.38058783 1 7 C0 2.25 0 2.25 0 0 Z " fill="#ECECED" transform="translate(703,66)"/>
<path d="M0 0 C2.31 0.33 4.62 0.66 7 1 C3.5980513 3.09350689 0.94727588 3.17942163 -3 3 C-2.01 2.67 -1.02 2.34 0 2 C0 1.34 0 0.68 0 0 Z " fill="#A4A4A4" transform="translate(679,164)"/>
<path d="M0 0 C0.66 0.99 1.32 1.98 2 3 C-0.64738916 4.4606285 -1.89448334 5 -5 5 C-5 4.34 -5 3.68 -5 3 C-2.5 1.375 -2.5 1.375 0 0 Z " fill="#C3C3C3" transform="translate(691,160)"/>
<path d="M0 0 C2.83374881 3.20336822 3.5205537 5.78087253 4 10 C3.67 9.01 3.34 8.02 3 7 C2.01 6.67 1.02 6.34 0 6 C0.33 5.01 0.66 4.02 1 3 C0.34 2.67 -0.32 2.34 -1 2 C-0.67 1.34 -0.34 0.68 0 0 Z " fill="#CBCBCB" transform="translate(706,100)"/>
</svg>
