<svg width="153" height="46" viewBox="0 0 153 46" fill="none" xmlns="http://www.w3.org/2000/svg">
<path d="M145.846 4.26888C145.45 1.81796 144.945 1.3494 142.422 1.3494H134.349C132.438 1.3494 131.862 1.49358 131.033 2.97134L130.925 3.15155C130.853 3.25968 130.78 3.40386 130.672 3.62012L114.165 33.2114L108.109 23.696L121.95 6.10708C122.779 5.06183 123.103 4.59328 123.175 3.80033C123.211 3.15156 123.031 2.57487 122.635 2.1784C121.95 1.45754 120.833 1.3494 119.787 1.3494H112.363C110.957 1.3494 110.632 1.6738 109.767 2.71904L98.8464 16.5956L100.901 5.09788L100.937 4.9537C100.937 4.73744 100.973 4.52119 101.009 4.34097C101.045 4.16076 101.045 3.98055 101.081 3.83638C101.081 3.54803 101.153 2.71904 100.54 2.10631C99.9277 1.45753 98.9906 1.3494 97.7651 1.3494H91.9622C89.3671 1.3494 88.7904 1.81797 88.3579 4.37702L86.772 13.2075C85.907 10.8287 84.6095 8.70217 82.8794 6.86398C78.9868 2.75509 73.1118 0.484375 66.3357 0.484375C57.2889 0.484375 49.7199 4.1968 45.1064 10.3601L46.0435 5.13391L46.1516 4.55723C46.2237 4.19681 46.2237 4.16075 46.2598 3.87241C46.2598 3.58407 46.3318 2.75508 45.7191 2.14235C45.1064 1.49358 44.1693 1.38545 42.9438 1.38545H37.0688C34.4737 1.38545 33.897 1.854 33.4645 4.41305L31.2659 16.5956H17.966L20.0205 5.16996V5.02579C20.0205 4.80953 20.0565 4.59327 20.0926 4.41305C20.1286 4.23284 20.1286 4.05263 20.1647 3.90845C20.1647 3.62011 20.2368 2.79113 19.624 2.1784C19.0113 1.52962 18.0742 1.42149 16.8487 1.42149H11.0098C8.41467 1.42149 7.83798 1.89005 7.40546 4.4491L0.773561 41.4292C0.593346 42.3302 0.593346 42.3663 0.557303 42.6907C0.557303 42.979 0.485217 43.808 1.09795 44.4207C1.71068 45.0695 2.64779 45.1776 3.87325 45.1776H9.74825C12.3433 45.1776 12.92 44.7091 13.3525 42.15L15.9116 27.841H29.1033L26.6884 41.4292L26.6164 41.8617C26.5082 42.3663 26.5082 42.4023 26.5082 42.6907C26.5082 42.979 26.4361 43.808 27.0489 44.4207C27.6616 45.0695 28.5987 45.1776 29.8242 45.1776H35.6992C38.2943 45.1776 38.871 44.7091 39.3035 42.15L41.1777 31.7697C42.0427 34.6171 43.4845 37.1761 45.5389 39.3387C49.6118 43.6278 55.7751 46.0066 62.9476 46.0066C71.0573 46.0066 77.9415 42.6546 82.4469 37.068L81.69 41.3931C81.5098 42.2221 81.5098 42.3302 81.4737 42.6907C81.4737 42.979 81.4016 43.808 82.0144 44.4207C82.6271 45.0695 83.5642 45.1776 84.7897 45.1776H90.6647C93.2598 45.1776 93.8364 44.7091 94.269 42.15L96.6838 28.742C97.1524 29.6431 97.657 30.5802 98.1256 31.3371L105.478 43.3034L105.659 43.5917C106.524 44.9614 106.92 45.1776 108.542 45.1776H112.543H116.327H119.247C121.229 45.1776 121.842 44.9974 122.635 43.4836L122.743 43.2674V43.2313C122.815 43.1232 122.887 43.0151 122.923 42.8709L125.698 37.5005H138.638L139.503 42.3302C139.971 44.7091 140.512 45.1416 142.927 45.1416H149.307C150.388 45.1416 152.622 45.1416 152.767 42.8348C152.803 42.4023 152.767 42.2942 152.586 41.249L145.846 4.26888ZM94.8096 21.8939C94.7736 21.8939 92.7912 23.2275 91.4216 23.7681C90.1601 24.2367 88.466 24.6332 87.4208 24.8134C87.0604 24.8855 86.0151 25.0296 85.2582 25.1377C84.8978 25.1738 84.6455 25.2098 84.5734 25.2459H84.5374C83.9607 25.354 83.2759 25.4261 82.4469 25.5703H82.3388C81.3656 25.7144 80.1401 25.8947 78.5903 26.147L78.0857 26.219H78.0136C76.0312 26.5434 75.022 26.7236 73.9768 27.012C72.2828 31.1569 68.246 33.8601 63.1999 33.8601C60.0282 33.8601 57.4331 32.8509 55.6309 30.9767C53.8648 29.1385 53.0358 26.5434 53.216 23.4798C53.2521 23.0473 53.2881 22.6508 53.3602 22.2543C52.7475 21.8218 51.9906 21.3172 50.8733 20.5963L50.4768 20.344C49.1792 19.5151 48.134 18.8663 47.305 18.3617L47.1248 18.2536C46.4039 17.821 45.8272 17.4606 45.3226 17.1362L45.1064 16.9921C44.1693 16.4154 43.1961 15.8387 42.8717 15.5864C42.4032 15.262 40.7452 14.1447 39.6279 13.0273C38.5826 12.0181 37.249 9.99972 37.249 9.96368C36.7444 9.17073 36.9967 8.12548 37.8257 7.4767C38.1861 7.2244 38.6547 7.0442 39.0872 7.0442C39.1953 7.0442 39.3395 7.0442 39.4476 7.08024C39.8441 7.15233 40.1685 7.33254 40.4208 7.62088L40.4568 7.65692L40.4929 7.69296C40.565 7.76505 40.6371 7.83714 40.7091 7.98131C40.9975 8.34174 41.8986 9.42302 42.5113 9.99971C43.0159 10.5043 44.0611 11.3694 45.9714 12.4867L46.0795 12.5588C46.1516 12.5948 46.2237 12.6669 46.2598 12.6669C46.44 12.8111 47.4492 13.3157 47.9177 13.568C48.963 14.1086 50.2966 14.6493 51.486 15.1178L51.5581 15.1539C52.8917 15.6585 54.1532 16.127 55.1984 16.6316L55.3426 16.7037C55.4507 16.7758 55.5949 16.8479 55.7391 16.8839C57.8656 14.2167 61.2176 12.5948 65.1102 12.5948C68.1739 12.5948 70.7329 13.568 72.463 15.4062C73.7966 16.8118 74.6256 18.7221 74.8418 20.9207C75.0941 20.8847 75.3104 20.8847 75.5266 20.8847H75.7068C76.0312 20.8486 76.3556 20.8486 76.7521 20.8486C77.7253 20.8486 78.7705 20.9207 79.7076 20.9568C80.2843 20.9928 80.861 20.9928 81.4737 20.9928C82.1946 20.9928 82.9515 20.9568 83.6003 20.9207C84.1409 20.8847 85.2222 20.7766 85.4384 20.7405H85.5105C85.5826 20.7405 85.6907 20.7045 85.8349 20.7045H85.871C86.5918 20.5963 88.5742 20.3801 89.9799 19.8034C90.8088 19.479 92.0703 18.8302 92.4668 18.65C92.647 18.5419 92.7912 18.5058 92.8272 18.4698L92.9714 18.3977C93.1516 18.3256 93.3679 18.2896 93.5841 18.2896C93.6923 18.2896 93.8364 18.2896 93.9446 18.3256C94.6294 18.4698 95.098 18.9384 95.3142 19.3709C95.7828 20.308 95.5665 21.3893 94.8096 21.8939ZM130.744 27.4805L134.853 19.5151C135.07 19.0465 135.322 18.614 135.538 18.1454C135.646 18.8302 135.754 19.6232 135.935 20.7045L136.98 27.5166H130.744V27.4805Z" fill="white" fill-opacity="0.06"/>
</svg>
