<svg width="153" height="46" viewBox="0 0 153 46" fill="none" xmlns="http://www.w3.org/2000/svg">
<path d="M93.5246 19.5158C93.4886 19.5158 93.4165 19.5158 93.3804 19.5158C93.3444 19.5519 93.2002 19.5879 93.02 19.696C92.4433 19.9844 91.2539 20.5971 90.461 20.9215C88.839 21.5703 86.7485 21.8226 85.9556 21.9307C85.8114 21.9307 85.7033 21.9667 85.6673 21.9667C85.3429 22.0388 84.1174 22.147 83.6128 22.183C82.3513 22.2551 80.8735 22.2551 79.54 22.183C78.1343 22.1109 76.8007 22.0388 75.6834 22.1109H75.5031C73.9533 22.1469 71.2501 22.7236 70.6013 22.9039C69.5561 23.1922 66.6366 23.4445 65.7715 23.5166C65.5192 23.5526 65.0146 23.5526 64.3298 23.4445C63.6811 23.3003 63.1765 23.0841 62.9602 22.9399C62.2033 22.5434 59.6442 21.1377 58.7792 20.4529C58.2386 20.0204 56.0039 18.4345 54.5982 17.7858L54.4541 17.7137C53.4809 17.2451 52.2194 16.7405 50.8858 16.272C49.6604 15.8034 48.2907 15.2267 47.1734 14.65C46.7409 14.4338 45.6596 13.8571 45.3712 13.6769C45.3352 13.6408 45.2271 13.6048 45.1189 13.5327C44.4341 13.1362 42.5959 12.0549 41.3705 10.8295C40.7577 10.2167 39.8927 9.1715 39.4962 8.70294C39.3521 8.55877 39.28 8.45063 39.2439 8.37854C39.2079 8.3425 39.1719 8.30646 39.1358 8.30646C38.9916 8.27042 38.8114 8.3425 38.7393 8.41459C38.5952 8.52272 38.451 8.73898 38.5231 8.88315C38.5952 9.02732 39.7846 10.7934 40.6496 11.6585C41.5146 12.5235 42.8122 13.4606 43.6772 14.0373C44.1458 14.3256 46.0921 15.5511 46.1281 15.5511C46.6327 15.8755 47.1734 16.2359 47.8942 16.6684C48.7593 17.2091 49.8406 17.8578 51.2462 18.7589L51.6788 19.0473C54.6343 20.9575 55.247 21.39 57.3375 23.4085C58.3827 24.3816 58.9234 25.0664 59.2838 25.4989L59.3919 25.6071C59.5001 25.7873 59.7163 26.0396 59.9686 26.4C60.4372 27.0488 61.2662 28.1301 61.987 28.9951C62.3114 29.3555 62.4916 29.5357 63.1044 29.6439C63.6811 29.752 63.9334 29.6799 64.3659 29.4637C65.3751 28.9951 66.5285 28.3103 67.2493 27.8778C67.6097 27.6615 67.9341 27.4813 68.1143 27.3732L68.2585 27.3011C68.7631 27.0488 69.52 26.6523 70.8896 26.1477C73.6289 25.1385 74.3498 24.9943 77.8099 24.4177L78.3145 24.3456C79.9725 24.0572 81.1979 23.877 82.2071 23.7689C83.0361 23.6608 83.6849 23.5526 84.2616 23.4805C84.2976 23.4805 86.5683 23.1562 87.109 23.048C88.1182 22.8678 89.7041 22.5074 90.8214 22.0749C91.9387 21.6423 93.7409 20.489 93.885 20.3808C94.0292 20.3088 93.9571 20.0204 93.885 19.8762C93.813 19.66 93.6688 19.5158 93.5246 19.5158Z" fill="white" fill-opacity="0.06"/>
<path d="M145.784 3.90951C145.387 1.45859 144.883 0.990029 142.36 0.990029H134.286C132.376 0.990029 131.799 1.1342 130.97 2.61196L130.862 2.79218C130.79 2.9003 130.718 3.04448 130.61 3.26074L114.102 32.852L108.047 23.3367L121.887 5.7477C122.716 4.70246 123.041 4.2339 123.113 3.44096C123.149 2.79218 122.969 2.2155 122.572 1.81902C121.887 1.09816 120.77 0.990029 119.725 0.990029H112.3C110.894 0.990029 110.57 1.31442 109.705 2.35967L98.7839 16.2362L100.838 4.7385L100.874 4.59432C100.874 4.37807 100.91 4.16181 100.946 3.9816C100.983 3.80138 100.983 3.62117 101.019 3.477C101.019 3.18866 101.091 2.35966 100.478 1.74693C99.8652 1.09816 98.9281 0.990029 97.7026 0.990029H91.8997C89.3046 0.990029 88.7279 1.4586 88.2954 4.01764L86.7095 12.8482C85.8445 10.4693 84.547 8.3428 82.8169 6.50461C78.9243 2.39571 73.0493 0.125 66.2732 0.125C57.2264 0.125 49.6574 3.83742 45.0439 10.0008L45.981 4.77454L46.0891 4.19786C46.1612 3.83743 46.1612 3.80138 46.1973 3.51303C46.1973 3.22469 46.2693 2.39571 45.6566 1.78298C45.0439 1.1342 44.1068 1.02607 42.8813 1.02607H37.0063C34.4112 1.02607 33.8345 1.49463 33.402 4.05368L31.2034 16.2362H17.9035L19.958 4.81058V4.66641C19.958 4.45016 19.994 4.23389 20.0301 4.05368C20.0661 3.87346 20.0661 3.69325 20.1022 3.54908C20.1022 3.26074 20.1743 2.43175 19.5615 1.81902C18.9488 1.17025 18.0117 1.06212 16.7862 1.06212H10.9473C8.35217 1.06212 7.77548 1.53067 7.34296 4.08972L0.711061 41.0698C0.530846 41.9709 0.530846 42.0069 0.494803 42.3313C0.494803 42.6196 0.422717 43.4486 1.03545 44.0613C1.64818 44.7101 2.58529 44.8183 3.81075 44.8183H9.68575C12.2808 44.8183 12.8575 44.3497 13.29 41.7906L15.8491 27.4816H29.0408L26.6259 41.0698L26.5539 41.5023C26.4457 42.0069 26.4457 42.0429 26.4457 42.3313C26.4457 42.6196 26.3736 43.4486 26.9864 44.0613C27.5991 44.7101 28.5362 44.8183 29.7617 44.8183H35.6367C38.2318 44.8183 38.8085 44.3497 39.241 41.7906L41.1152 31.4103C41.9802 34.2577 43.422 36.8167 45.4764 38.9793C49.5493 43.2684 55.7126 45.6472 62.8851 45.6472C70.9948 45.6472 77.879 42.2952 82.3844 36.7086L81.6275 41.0337C81.4473 41.8627 81.4473 41.9709 81.4112 42.3313C81.4112 42.6196 81.3391 43.4486 81.9519 44.0613C82.5646 44.7101 83.5017 44.8183 84.7272 44.8183H90.6022C93.1973 44.8183 93.7739 44.3497 94.2065 41.7906L96.6213 28.3827C97.0899 29.2837 97.5945 30.2209 98.0631 30.9778L105.416 42.944L105.596 43.2324C106.461 44.602 106.858 44.8183 108.479 44.8183H112.48H116.265H119.184C121.167 44.8183 121.779 44.638 122.572 43.1242L122.68 42.908V42.8719C122.752 42.7638 122.825 42.6557 122.861 42.5115L125.636 37.1411H138.575L139.44 41.9709C139.909 44.3497 140.45 44.7822 142.864 44.7822H149.244C150.325 44.7822 152.56 44.7822 152.704 42.4755C152.74 42.0429 152.704 41.9348 152.524 40.8896L145.784 3.90951ZM94.7471 21.5345C94.7111 21.5345 92.7287 22.8681 91.3591 23.4087C90.0976 23.8773 88.4035 24.2738 87.3583 24.454C86.9979 24.5261 85.9526 24.6702 85.1957 24.7784C84.8353 24.8144 84.583 24.8505 84.5109 24.8865H84.4749C83.8982 24.9946 83.2134 25.0667 82.3844 25.2109H82.2763C81.3031 25.3551 80.0776 25.5353 78.5278 25.7876L78.0232 25.8597H77.9511C75.9687 26.184 74.9595 26.3643 73.9143 26.6526C72.2203 30.7976 68.1835 33.5008 63.1374 33.5008C59.9657 33.5008 57.3706 32.4916 55.5684 30.6173C53.8023 28.7791 52.9733 26.1841 53.1535 23.1204C53.1896 22.6879 53.2256 22.2914 53.2977 21.8949C52.685 21.4624 51.9281 20.9578 50.8108 20.237L50.4143 19.9847C49.1167 19.1557 48.0715 18.5069 47.2425 18.0023L47.0623 17.8942C46.3414 17.4617 45.7647 17.1012 45.2601 16.7768L45.0439 16.6327C44.1068 16.056 43.1336 15.4793 42.8092 15.227C42.3407 14.9026 40.6827 13.7853 39.5654 12.668C38.5201 11.6587 37.1865 9.64034 37.1865 9.6043C36.6819 8.81136 36.9342 7.7661 37.7632 7.11733C38.1236 6.86503 38.5922 6.68482 39.0247 6.68482C39.1328 6.68482 39.277 6.68482 39.3851 6.72087C39.7816 6.79295 40.106 6.97317 40.3583 7.26151L40.3943 7.29754L40.4304 7.33359C40.5025 7.40568 40.5746 7.47777 40.6466 7.62194C40.935 7.98237 41.8361 9.06365 42.4488 9.64034C42.9534 10.1449 43.9986 11.01 45.9089 12.1273L46.017 12.1994C46.0891 12.2354 46.1612 12.3075 46.1973 12.3075C46.3775 12.4517 47.3867 12.9563 47.8552 13.2086C48.9005 13.7492 50.2341 14.2899 51.4235 14.7584L51.4956 14.7945C52.8292 15.2991 54.0907 15.7676 55.1359 16.2722L55.2801 16.3443C55.3882 16.4164 55.5324 16.4885 55.6766 16.5245C57.8031 13.8574 61.1551 12.2354 65.0477 12.2354C68.1114 12.2354 70.6704 13.2086 72.4005 15.0468C73.7341 16.4525 74.5631 18.3627 74.7793 20.5614C75.0316 20.5253 75.2479 20.5253 75.4641 20.5253H75.6443C75.9687 20.4893 76.2931 20.4893 76.6896 20.4893C77.6628 20.4893 78.708 20.5614 79.6451 20.5974C80.2218 20.6334 80.7985 20.6334 81.4112 20.6334C82.1321 20.6334 82.889 20.5974 83.5378 20.5614C84.0784 20.5253 85.1597 20.4172 85.3759 20.3811H85.448C85.5201 20.3811 85.6282 20.3451 85.7724 20.3451H85.8085C86.5293 20.237 88.5117 20.0207 89.9174 19.444C90.7463 19.1196 92.0078 18.4709 92.4043 18.2906C92.5845 18.1825 92.7287 18.1465 92.7647 18.1104L92.9089 18.0383C93.0891 17.9663 93.3054 17.9302 93.5216 17.9302C93.6298 17.9302 93.7739 17.9302 93.8821 17.9663C94.5669 18.1104 95.0355 18.579 95.2517 19.0115C95.7203 19.9486 95.504 21.0299 94.7471 21.5345ZM130.682 27.1212L134.791 19.1557C135.007 18.6871 135.259 18.2546 135.476 17.786C135.584 18.4709 135.692 19.2638 135.872 20.3451L136.917 27.1572H130.682V27.1212Z" fill="white" fill-opacity="0.06"/>
</svg>
