<svg width="14" height="15" viewBox="0 0 14 15" fill="none" xmlns="http://www.w3.org/2000/svg">
<path d="M7 0.75C7.23734 0.75 7.42904 0.815576 7.60156 0.944336L7.60547 0.947266L12.8555 4.80469L12.8623 4.80957C12.9828 4.89614 13.0759 5.00365 13.1465 5.1416C13.2166 5.27864 13.2503 5.41804 13.25 5.56934V13.2861C13.2499 13.5515 13.1627 13.7632 12.9609 13.9609C12.7585 14.1592 12.5353 14.2503 12.251 14.25H9.625C9.56158 14.25 9.54601 14.2371 9.52734 14.2188C9.51075 14.2024 9.50779 14.1927 9.50684 14.1904L9.5 14.1406V9.85742C9.5 9.42032 9.33955 9.02045 9.02148 8.70996C8.74539 8.44058 8.4061 8.29165 8.03711 8.25781L7.87695 8.25H6.125C5.69271 8.25 5.29269 8.40127 4.97656 8.71191C4.70041 8.98337 4.54331 9.32198 4.50781 9.69434L4.5 9.85547V14.1426C4.5 14.175 4.49435 14.1885 4.49316 14.1914C4.49242 14.1932 4.48967 14.202 4.47363 14.2178C4.45413 14.2369 4.43856 14.2501 4.37695 14.25H1.75C1.4641 14.25 1.24067 14.1584 1.03906 13.9609C0.863272 13.7887 0.773737 13.6049 0.753906 13.3828L0.75 13.2852V5.57129C0.75002 5.41931 0.78408 5.27923 0.854492 5.1416C0.925364 5.00314 1.01855 4.89511 1.13867 4.80859L1.14453 4.80469L6.39453 0.947266L6.39844 0.944336C6.57096 0.815576 6.76266 0.75 7 0.75Z" stroke="white" stroke-width="1.5"/>
</svg>
