<svg width="18" height="18" viewBox="0 0 18 18" fill="none" xmlns="http://www.w3.org/2000/svg">
<path d="M9.77143 1.5C10.6152 1.50225 11.0434 1.50675 11.4132 1.51725L11.5587 1.5225C11.7267 1.5285 11.8924 1.536 12.0927 1.545C12.8907 1.5825 13.4352 1.7085 13.9129 1.89375C14.4079 2.08425 14.8249 2.34225 15.2419 2.7585C15.6234 3.1333 15.9186 3.58685 16.1067 4.0875C16.2919 4.56525 16.4179 5.10975 16.4554 5.9085C16.4644 6.108 16.4719 6.27375 16.4779 6.4425L16.4824 6.588C16.4937 6.957 16.4982 7.38525 16.4997 8.229L16.5004 8.7885V9.771C16.5023 10.3181 16.4965 10.8651 16.4832 11.412L16.4787 11.5575C16.4727 11.7262 16.4652 11.892 16.4562 12.0915C16.4187 12.8903 16.2912 13.434 16.1067 13.9125C15.9186 14.4131 15.6234 14.8667 15.2419 15.2415C14.8671 15.623 14.4136 15.9181 13.9129 16.1063C13.4352 16.2915 12.8907 16.4175 12.0927 16.455L11.5587 16.4775L11.4132 16.482C11.0434 16.4925 10.6152 16.4978 9.77143 16.4993L9.21193 16.5H8.23018C7.68287 16.5019 7.13557 16.4962 6.58843 16.4827L6.44293 16.4783C6.26488 16.4715 6.08688 16.4638 5.90893 16.455C5.11093 16.4175 4.56643 16.2915 4.08793 16.1063C3.58755 15.918 3.13426 15.6229 2.75968 15.2415C2.37789 14.8668 2.08251 14.4132 1.89418 13.9125C1.70893 13.4347 1.58293 12.8903 1.54543 12.0915L1.52293 11.5575L1.51918 11.412C1.50535 10.8651 1.4991 10.3181 1.50043 9.771V8.229C1.49835 7.68195 1.50385 7.1349 1.51693 6.588L1.52218 6.4425C1.52818 6.27375 1.53568 6.108 1.54468 5.9085C1.58218 5.10975 1.70818 4.566 1.89343 4.0875C2.0822 3.58665 2.37809 3.13308 2.76043 2.7585C3.13479 2.37716 3.58782 2.08206 4.08793 1.89375C4.56643 1.7085 5.11018 1.5825 5.90893 1.545C6.10843 1.536 6.27493 1.5285 6.44293 1.5225L6.58843 1.518C7.13532 1.50467 7.68237 1.49892 8.22943 1.50075L9.77143 1.5ZM9.00043 5.25C8.00586 5.25 7.05204 5.64509 6.34878 6.34835C5.64551 7.05161 5.25043 8.00544 5.25043 9C5.25043 9.99456 5.64551 10.9484 6.34878 11.6517C7.05204 12.3549 8.00586 12.75 9.00043 12.75C9.99499 12.75 10.9488 12.3549 11.6521 11.6517C12.3553 10.9484 12.7504 9.99456 12.7504 9C12.7504 8.00544 12.3553 7.05161 11.6521 6.34835C10.9488 5.64509 9.99499 5.25 9.00043 5.25ZM9.00043 6.75C9.2959 6.74995 9.58849 6.8081 9.86149 6.92113C10.1345 7.03416 10.3826 7.19985 10.5915 7.40874C10.8005 7.61764 10.9663 7.86565 11.0794 8.13862C11.1925 8.41158 11.2508 8.70415 11.2508 8.99963C11.2509 9.2951 11.1927 9.58769 11.0797 9.86069C10.9666 10.1337 10.801 10.3818 10.5921 10.5907C10.3832 10.7997 10.1351 10.9655 9.86219 11.0786C9.58922 11.1917 9.29665 11.25 9.00118 11.25C8.40444 11.25 7.83214 11.0129 7.41019 10.591C6.98823 10.169 6.75118 9.59674 6.75118 9C6.75118 8.40326 6.98823 7.83097 7.41019 7.40901C7.83214 6.98705 8.40444 6.75 9.00118 6.75M12.9387 4.125C12.69 4.125 12.4516 4.22377 12.2758 4.39959C12.0999 4.5754 12.0012 4.81386 12.0012 5.0625C12.0012 5.31114 12.0999 5.5496 12.2758 5.72541C12.4516 5.90123 12.69 6 12.9387 6C13.1873 6 13.4258 5.90123 13.6016 5.72541C13.7774 5.5496 13.8762 5.31114 13.8762 5.0625C13.8762 4.81386 13.7774 4.5754 13.6016 4.39959C13.4258 4.22377 13.1873 4.125 12.9387 4.125Z" fill="#62A07B"/>
</svg>
