<?xml version="1.0" encoding="UTF-8"?>
<svg version="1.1" xmlns="http://www.w3.org/2000/svg" width="275" height="180">
<path d="M0 0 C0 3.49171353 -0.75346491 4.59553821 -2.5703125 7.5234375 C-3.39257324 8.8532666 -3.39257324 8.8532666 -4.23144531 10.20996094 C-7.07983248 14.70352369 -9.96046273 19.17406639 -12.875 23.625 C-13.76445312 24.98818359 -13.76445312 24.98818359 -14.671875 26.37890625 C-16.11295319 28.58700993 -17.55567617 30.79401852 -19 33 C-15.92243278 31.97414426 -13.35185141 30.65099691 -10.49609375 29.11328125 C-9.37468994 28.51088623 -8.25328613 27.90849121 -7.09790039 27.2878418 C-6.50123566 26.96584808 -5.90457092 26.64385437 -5.28982544 26.31210327 C-3.42282704 25.30458177 -1.55425733 24.30003008 0.31469727 23.29614258 C6.09399927 20.19008052 11.86755223 17.07344933 17.63679504 13.94874573 C19.42992366 12.97773209 21.22356615 12.00767398 23.01733398 11.0378418 C25.25781563 9.82572028 27.49696369 8.61112978 29.73461914 7.39379883 C30.74903076 6.8448999 31.76344238 6.29600098 32.80859375 5.73046875 C34.13588501 5.00960083 34.13588501 5.00960083 35.48999023 4.27416992 C43.46021384 0.22820192 52.3623619 -0.78108149 60.9921875 1.9453125 C63.47436213 3.14490449 65.71832535 4.45600964 68 6 C69.093125 6.721875 70.18625 7.44375 71.3125 8.1875 C77.66472061 14.83517273 80.39288161 22.96957366 80.2734375 32.0234375 C79.4852831 40.60306108 75.26698951 47.28499492 69 53 C60.98191057 58.50667915 52.0315144 62.78010357 43.4375 67.3125 C41.37440604 68.40189636 39.31175411 69.49209856 37.2502594 70.58451843 C35.97806982 71.25856926 34.70493883 71.93084695 33.43077087 72.60115051 C30.52971873 74.03339986 30.52971873 74.03339986 28 76 C40.87 76.495 40.87 76.495 54 77 C53.34 78.65 52.68 80.3 52 82 C51.75644775 82.79317627 51.51289551 83.58635254 51.26196289 84.40356445 C48.91869305 91.70589777 45.82447951 98.0838987 39 102 C25.37903919 105.34055475 9.81927779 103.17242453 -4 102 C-4.07447267 97.41019186 -4.12875322 92.82073986 -4.16479492 88.23046875 C-4.17982869 86.67083606 -4.20026135 85.11124528 -4.22631836 83.55175781 C-4.26294211 81.30262884 -4.27978021 79.05406153 -4.29296875 76.8046875 C-4.30845261 76.1138205 -4.32393646 75.42295349 -4.33988953 74.71115112 C-4.34149139 70.04373808 -3.5427737 66.91467432 -1 63 C2.32772155 59.88260927 5.9597353 57.7978449 9.98046875 55.6796875 C11.13683838 55.06633545 12.29320801 54.4529834 13.48461914 53.82104492 C14.08984406 53.50299896 14.69506897 53.184953 15.31863403 52.85726929 C18.47063998 51.2005862 21.61354729 49.52678189 24.7578125 47.85546875 C25.37993118 47.52539322 26.00204987 47.19531769 26.64302063 46.85523987 C31.98015201 44.02048718 37.28223926 41.12661294 42.5625 38.1875 C43.28655029 37.7857959 44.01060059 37.3840918 44.7565918 36.97021484 C47.57593888 35.39667386 50.31194902 33.79203398 53 32 C53.72965366 29.43717258 53.72965366 29.43717258 54 27 C48.8109175 27.5054434 45.09528437 28.68619058 40.52734375 31.17578125 C39.63190857 31.65803162 39.63190857 31.65803162 38.71838379 32.15002441 C36.78573391 33.19406801 34.86169847 34.25297432 32.9375 35.3125 C31.60019559 36.03893469 30.26238124 36.76443136 28.92407227 37.48901367 C25.57474218 39.30537735 22.23216059 41.13378903 18.89111328 42.96533203 C16.03628984 44.52726616 13.17435074 46.07598855 10.3125 47.625 C1.07894724 52.55881765 1.07894724 52.55881765 -7.96484375 57.82421875 C-10 59 -10 59 -12 59 C-12 73.19 -12 87.38 -12 102 C-20.91 102 -29.82 102 -39 102 C-39.33 89.79 -39.66 77.58 -40 65 C-42.041875 68.3103125 -42.041875 68.3103125 -44.125 71.6875 C-45.06913075 73.14139309 -46.01432173 74.59459866 -46.9609375 76.046875 C-49.16486358 79.5015256 -50.98509991 82.99549497 -52.7265625 86.703125 C-58.5357249 98.16062243 -58.5357249 98.16062243 -64 102 C-73.69260554 104.7810792 -84.07166006 103.94687832 -94 103 C-92.85742832 100.01129319 -91.67156464 97.24844748 -89.96875 94.5390625 C-89.5756665 93.9107251 -89.18258301 93.2823877 -88.77758789 92.63500977 C-88.35598389 91.97170654 -87.93437988 91.30840332 -87.5 90.625 C-86.8356897 89.57107056 -86.8356897 89.57107056 -86.15795898 88.49584961 C-82.78846125 83.17675036 -79.32196708 77.9263505 -75.8112793 72.69970703 C-72.29953936 67.46905211 -68.8685477 62.18946249 -65.45507812 56.89428711 C-62.77985518 52.74648565 -60.09287547 48.60681993 -57.390625 44.4765625 C-50.8225135 34.43747033 -44.28601251 24.38542927 -37.94360352 14.20166016 C-37.05790095 12.78574651 -36.15664063 11.37941234 -35.23803711 9.98461914 C-33.9619312 8.03758789 -33.9619312 8.03758789 -33.07641602 5.95092773 C-31.91504981 3.68653666 -31.08377583 2.48676362 -29 1 C-24.07746532 -0.01000829 -19.19096158 0.01889815 -14.1875 0.0625 C-12.81311726 0.04938288 -11.43876059 0.03313891 -10.06445312 0.01367188 C-6.70861507 -0.02165274 -3.35584181 -0.02506017 0 0 Z " fill="#FDFDFD" transform="translate(145,40)"/>
</svg>
