<svg width="20" height="20" viewBox="0 0 20 20" fill="none" xmlns="http://www.w3.org/2000/svg">
<path d="M6 7.5H6.5V13.5H6C5.8175 13.5 5.68031 13.4414 5.59766 13.375C5.51427 13.308 5.50015 13.2486 5.5 13.2227V7.77734C5.50015 7.75138 5.51427 7.692 5.59766 7.625C5.68031 7.55863 5.8175 7.5 6 7.5Z" stroke="#62A07B"/>
<path d="M10.1934 5.5C10.363 5.5 10.4365 5.62065 10.4365 5.69238V7.07715C10.4366 7.74546 10.9871 8.26939 11.6436 8.26953H14.2568C14.4494 8.26953 14.5121 8.41539 14.498 8.48926L13.5742 13.335C13.5609 13.4042 13.4809 13.5 13.334 13.5H8.5V7.48535L10.0596 5.5H10.1934Z" stroke="#62A07B"/>
<path d="M8.54395 1.09473C9.35273 0.302315 10.6473 0.302315 11.4561 1.09473C11.9135 1.54274 12.5722 1.71897 13.1924 1.55957C14.2889 1.27783 15.4097 1.92507 15.7139 3.01562C15.886 3.63227 16.3677 4.11399 16.9844 4.28613C18.075 4.59031 18.7222 5.71111 18.4404 6.80762C18.281 7.4278 18.4573 8.08647 18.9053 8.54395C19.6977 9.35273 19.6977 10.6473 18.9053 11.4561C18.4573 11.9135 18.281 12.5722 18.4404 13.1924C18.7222 14.2889 18.075 15.4097 16.9844 15.7139C16.3677 15.886 15.886 16.3677 15.7139 16.9844C15.4097 18.075 14.2889 18.7222 13.1924 18.4404C12.5722 18.281 11.9135 18.4573 11.4561 18.9053C10.6473 19.6977 9.35273 19.6977 8.54395 18.9053C8.08647 18.4573 7.4278 18.281 6.80762 18.4404C5.71111 18.7222 4.59031 18.075 4.28613 16.9844C4.11399 16.3677 3.63227 15.886 3.01562 15.7139C1.92507 15.4097 1.27783 14.2889 1.55957 13.1924C1.71897 12.5722 1.54274 11.9135 1.09473 11.4561C0.302315 10.6473 0.302315 9.35273 1.09473 8.54395C1.54272 8.08646 1.71896 7.42779 1.55957 6.80762C1.27785 5.71112 1.92507 4.59031 3.01562 4.28613C3.63227 4.114 4.114 3.63227 4.28613 3.01562C4.59031 1.92507 5.71112 1.27785 6.80762 1.55957C7.42779 1.71896 8.08646 1.54272 8.54395 1.09473ZM9.48633 3.25C9.137 3.25 8.8067 3.41256 8.59375 3.68945L7.00977 5.75H6.28125C4.98021 5.75024 3.87501 6.78594 3.875 8.125V12.5C3.875 13.8391 4.9802 14.8748 6.28125 14.875H12.9023C14.0432 14.875 15.0557 14.0764 15.2695 12.9297L16.085 8.55469C16.3636 7.05997 15.1848 5.75 13.7178 5.75H12.5332V5.625C12.5332 4.2858 11.4282 3.25007 10.127 3.25H9.48633Z" stroke="#62A07B"/>
</svg>
