<svg width="54" height="54" viewBox="0 0 54 54" fill="none" xmlns="http://www.w3.org/2000/svg">
<path fill-rule="evenodd" clip-rule="evenodd" d="M34.7854 31.9391H25.8678C25.7388 31.9393 25.6112 31.9119 25.4937 31.8588C25.3761 31.8057 25.2713 31.7281 25.1862 31.6312C25.1011 31.5343 25.0377 31.4203 25.0003 31.2969C24.9628 31.1734 24.9522 31.0434 24.9691 30.9156C25.0358 30.0421 25.1865 29.0453 25.3494 27.9673C25.6114 26.2335 25.9062 24.2827 25.9062 22.4799C25.9062 19.431 24.9999 16.7525 21.3022 16.4056C20.9502 21.2972 20.1605 24.6479 18.4627 27.3756C16.735 30.151 14.1195 32.2053 10.12 34.5058L12.3463 49.8406C14.1814 50.915 15.187 51.5973 17.153 51.8776C19.1007 52.1552 22.151 52.1541 28.3616 52.1521C34.066 52.1501 20.8624 52.1482 30.1231 52.1482C34.1517 52.1482 33.3464 49.6567 32.5813 49.4521C32.369 49.3955 32.1845 49.2636 32.0624 49.081C31.9402 48.8984 31.8886 48.6776 31.9171 48.4598C31.9457 48.242 32.0526 48.042 32.2177 47.8971C32.3829 47.7522 32.5951 47.6724 32.8148 47.6725V47.6714C35.7262 47.6714 36.2092 44.4112 34.2843 43.8289C33.2904 43.5283 33.5147 42.0553 34.5462 42.0554C38.3451 42.0554 38.2368 38.1989 36.0212 37.8727C35.037 37.728 34.945 36.2734 36.0341 36.0796C36.4984 35.983 36.9176 35.7351 37.2259 35.3748C37.4288 35.1327 37.5728 34.8469 37.6467 34.5398C36.5434 33.8531 35.574 32.972 34.7854 31.9391ZM47.5945 21.5189C47.7654 21.3538 47.9944 21.2625 48.232 21.2645C48.4696 21.2666 48.6969 21.3619 48.8649 21.5299C49.033 21.698 49.1283 21.9253 49.1303 22.1629C49.1324 22.4005 49.041 22.6294 48.876 22.8003L42.2688 29.4075C42.0989 29.5774 41.8684 29.6728 41.6281 29.6728C41.3878 29.6728 41.1573 29.5774 40.9874 29.4075L37.6838 26.1039C37.5981 26.0201 37.5299 25.9202 37.4831 25.8098C37.4363 25.6995 37.4118 25.5809 37.4111 25.4611C37.4105 25.3412 37.4336 25.2224 37.4792 25.1115C37.5247 25.0007 37.5918 24.8999 37.6766 24.8152C37.7613 24.7304 37.8621 24.6633 37.9729 24.6178C38.0838 24.5722 38.2026 24.5491 38.3225 24.5498C38.4423 24.5504 38.5609 24.5749 38.6712 24.6217C38.7816 24.6685 38.8815 24.7367 38.9653 24.8224L41.6281 27.4852L47.5945 21.5189ZM39.2813 35.3702C39.0608 35.9874 38.6847 36.5372 38.1895 36.9665C40.1564 38.7643 39.6779 42.3487 36.6977 43.4976C37.9414 45.4549 36.9907 48.1988 34.6953 49.1345C34.9625 49.6713 35.0659 50.2748 34.9927 50.87C34.9195 51.4652 34.6729 52.0257 34.2835 52.4817C33.5578 53.3278 32.2445 53.9606 30.1231 53.9606C19.6347 53.9606 32.9438 53.9558 28.3616 53.9574C22.047 53.9595 18.9457 53.9605 16.8981 53.6687C15.1007 53.4124 14.1259 52.956 12.6779 52.1244L12.7815 52.8926C12.7815 53.1329 12.686 53.3634 12.5161 53.5334C12.3461 53.7034 12.1156 53.7988 11.8753 53.7988H0.945312C0.70496 53.7988 0.474452 53.7034 0.304497 53.5334C0.134542 53.3634 0.0390625 53.1329 0.0390625 52.8926V31.0328C0.0390625 30.7925 0.134542 30.562 0.304497 30.392C0.474452 30.222 0.70496 30.1266 0.945312 30.1266H8.70157V30.1282C8.91941 30.1282 9.12992 30.2068 9.29444 30.3496C9.45897 30.4924 9.56646 30.6897 9.59717 30.9054L9.83948 32.5745C13.2294 30.5706 15.4696 28.7594 16.9262 26.4198C18.54 23.8273 19.2485 20.5028 19.5518 15.4655C19.551 15.3461 19.5739 15.2277 19.6192 15.1172C19.6644 15.0067 19.7311 14.9062 19.8153 14.8216C19.8996 14.737 19.9997 14.6699 20.11 14.6242C20.2203 14.5785 20.3386 14.5551 20.458 14.5553C29.1467 14.5553 27.986 22.6418 27.1406 28.2368C27.0386 28.9086 26.9425 29.548 26.8701 30.127H33.6682C32.5818 27.8851 32.3141 25.3337 32.9115 22.9151C33.5088 20.4965 34.9335 18.3631 36.9387 16.8847C38.9439 15.4063 41.4032 14.6761 43.8903 14.8206C46.3774 14.9651 48.7355 15.9753 50.556 17.676C52.3765 19.3767 53.5445 21.6607 53.8577 24.1322C54.1709 26.6037 53.6095 29.1069 52.2707 31.208C50.932 33.309 48.9004 34.8754 46.528 35.6357C44.1555 36.396 41.5919 36.3023 39.2813 35.3708V35.3702ZM43.2801 16.5947C45.0341 16.5947 46.7488 17.1148 48.2072 18.0893C49.6656 19.0638 50.8023 20.4489 51.4736 22.0694C52.1448 23.6899 52.3205 25.4731 51.9783 27.1934C51.6361 28.9137 50.7914 30.494 49.5511 31.7342C48.3108 32.9745 46.7306 33.8192 45.0103 34.1614C43.2899 34.5036 41.5068 34.328 39.8862 33.6567C38.2657 32.9855 36.8806 31.8488 35.9062 30.3903C34.9317 28.9319 34.4115 27.2173 34.4115 25.4632C34.4115 24.2986 34.6409 23.1453 35.0866 22.0693C35.5322 20.9933 36.1855 20.0157 37.009 19.1921C37.8325 18.3686 38.8102 17.7154 39.8862 17.2697C40.9622 16.824 42.1155 16.5946 43.2801 16.5947ZM20.8156 0.945312C20.8156 0.70496 20.9111 0.474452 21.0811 0.304497C21.251 0.134542 21.4815 0.0390625 21.7219 0.0390625C21.9622 0.0390625 22.1927 0.134542 22.3627 0.304497C22.5327 0.474452 22.6281 0.70496 22.6281 0.945312V4.99285C22.6281 5.2332 22.5327 5.46371 22.3627 5.63367C22.1927 5.80362 21.9622 5.8991 21.7219 5.8991C21.4815 5.8991 21.251 5.80362 21.0811 5.63367C20.9111 5.46371 20.8156 5.2332 20.8156 4.99285V0.945312ZM6.05158 10.8934C5.94791 10.8344 5.85694 10.7555 5.78393 10.6611C5.71091 10.5668 5.65728 10.4589 5.62614 10.3438C5.595 10.2286 5.58695 10.1084 5.60246 9.99017C5.61798 9.87189 5.65675 9.75784 5.71654 9.65462C5.77633 9.55139 5.85596 9.46101 5.95084 9.3887C6.04572 9.31639 6.15397 9.26357 6.26935 9.23328C6.38474 9.20299 6.50497 9.19584 6.62314 9.21224C6.7413 9.22863 6.85505 9.26825 6.95783 9.3288L10.4627 11.3523C10.6702 11.4725 10.8215 11.6702 10.8833 11.9019C10.945 12.1336 10.9122 12.3804 10.792 12.5878C10.6718 12.7953 10.4741 12.9466 10.2424 13.0084C10.0107 13.0701 9.764 13.0373 9.5565 12.9171L6.05158 10.8934ZM12.1035 3.94285C11.9833 3.73535 11.9505 3.48861 12.0123 3.25691C12.074 3.0252 12.2253 2.82752 12.4328 2.70735C12.6403 2.58717 12.887 2.55434 13.1187 2.61609C13.3504 2.67784 13.5481 2.8291 13.6683 3.0366L15.6912 6.54141C15.7518 6.64419 15.7914 6.75794 15.8078 6.8761C15.8242 6.99426 15.8171 7.1145 15.7868 7.22988C15.7565 7.34527 15.7037 7.45352 15.6314 7.5484C15.559 7.64327 15.4687 7.7229 15.3654 7.78269C15.2622 7.84248 15.1482 7.88125 15.0299 7.89677C14.9116 7.91228 14.7914 7.90424 14.6763 7.8731C14.5611 7.84195 14.4533 7.78833 14.3589 7.71531C14.2646 7.64229 14.1856 7.55133 14.1266 7.44766L12.1035 3.94285ZM36.8148 8.75911C36.9176 8.69856 37.0313 8.65894 37.1495 8.64254C37.2677 8.62615 37.3879 8.6333 37.5033 8.66359C37.6187 8.69387 37.7269 8.7467 37.8218 8.81901C37.9167 8.89132 37.9963 8.9817 38.0561 9.08493C38.1159 9.18815 38.1546 9.30219 38.1702 9.42048C38.1857 9.53876 38.1776 9.65894 38.1465 9.77409C38.1153 9.88925 38.0617 9.9971 37.9887 10.0914C37.9157 10.1858 37.8247 10.2647 37.7211 10.3238L34.216 12.3473C34.0087 12.4654 33.763 12.4966 33.5327 12.4343C33.3023 12.3721 33.106 12.2212 32.9864 12.0147C32.8668 11.8083 32.8337 11.5629 32.8942 11.3321C32.9548 11.1013 33.1042 10.9038 33.3098 10.7827L36.8146 8.75911H36.8148ZM29.8642 2.70763C29.9237 2.60489 30.0029 2.51487 30.0972 2.44272C30.1915 2.37057 30.299 2.3177 30.4138 2.28712C30.5285 2.25655 30.6481 2.24887 30.7658 2.26453C30.8835 2.28019 30.997 2.31887 31.0997 2.37838C31.2024 2.43788 31.2925 2.51704 31.3646 2.61134C31.4368 2.70563 31.4896 2.81321 31.5202 2.92794C31.5508 3.04266 31.5585 3.16229 31.5428 3.27998C31.5271 3.39768 31.4885 3.51114 31.429 3.61388L29.4053 7.11914C29.3463 7.22281 29.2673 7.31378 29.173 7.38679C29.0787 7.45981 28.9708 7.51344 28.8556 7.54458C28.7405 7.57572 28.6203 7.58377 28.502 7.56825C28.3837 7.55274 28.2697 7.51397 28.1665 7.45418C28.0632 7.39439 27.9729 7.31476 27.9006 7.21988C27.8282 7.125 27.7754 7.01675 27.7451 6.90137C27.7148 6.78598 27.7077 6.66574 27.7241 6.54758C27.7405 6.42942 27.7801 6.31567 27.8407 6.21289L29.8642 2.70797V2.70763ZM10.6186 50.5327L10.8297 51.9863H1.85156V31.9391H7.91902L10.6186 50.5327Z" fill="#62A07B" stroke="#62A07B" />
</svg>
