<svg width="24" height="24" viewBox="0 0 24 24" fill="none" xmlns="http://www.w3.org/2000/svg">
<path d="M6 10.0005V8.00049C6 4.69049 7 2.00049 12 2.00049C17 2.00049 18 4.69049 18 8.00049V10.0005" stroke="white" stroke-width="1.39286" stroke-linecap="round" stroke-linejoin="round"/>
<path d="M12 18.4995C13.3807 18.4995 14.5 17.3802 14.5 15.9995C14.5 14.6188 13.3807 13.4995 12 13.4995C10.6193 13.4995 9.5 14.6188 9.5 15.9995C9.5 17.3802 10.6193 18.4995 12 18.4995Z" stroke="#62A07B" stroke-width="1.39286" stroke-linecap="round" stroke-linejoin="round"/>
<path d="M16.998 22.0005H6.99805C2.99805 22.0005 1.99805 21.0005 1.99805 17.0005V15.0005C1.99805 11.0005 2.99805 10.0005 6.99805 10.0005H16.998C20.998 10.0005 21.998 11.0005 21.998 15.0005V17.0005C21.998 21.0005 20.998 22.0005 16.998 22.0005Z" stroke="white" stroke-width="1.39286" stroke-linecap="round" stroke-linejoin="round"/>
</svg>
