<svg width="50" height="50" viewBox="0 0 50 50" fill="none" xmlns="http://www.w3.org/2000/svg">
<path d="M25 4.00488C30.9836 4.00488 34.0046 5.88748 35.6123 8.1748C37.2914 10.5639 37.6621 13.7056 37.6621 16.667V20.834C37.662 20.8671 37.6489 20.9077 37.6113 20.9453C37.5736 20.9829 37.5331 20.9961 37.5 20.9961C37.4669 20.9961 37.4264 20.9829 37.3887 20.9453C37.3511 20.9077 37.338 20.8671 37.3379 20.834V16.667C37.3379 13.3227 36.8817 10.1532 34.9492 7.83984C32.9687 5.46912 29.7342 4.3291 25 4.3291C20.2658 4.3291 17.0313 5.46911 15.0508 7.83984C13.1183 10.1532 12.6621 13.3227 12.6621 16.667V20.834C12.662 20.8671 12.6489 20.9077 12.6113 20.9453C12.5736 20.9829 12.5331 20.9961 12.5 20.9961C12.4669 20.9961 12.4264 20.9829 12.3887 20.9453C12.3511 20.9077 12.338 20.8671 12.3379 20.834V16.667C12.3379 13.7056 12.7086 10.5639 14.3877 8.1748C15.9954 5.88748 19.0164 4.00488 25 4.00488Z" fill="#62A07B" stroke="#62A07B" stroke-width="2.8"/>
<path d="M14.583 20.6709H35.416C39.9616 20.6709 42.4408 21.3842 43.8613 22.8047C45.2817 24.2252 45.9951 26.7046 45.9951 31.25V35.416C45.9951 39.9614 45.2817 42.4408 43.8613 43.8613C42.4408 45.2818 39.9616 45.9951 35.416 45.9951H14.583C10.0375 45.9951 7.55819 45.2818 6.1377 43.8613C4.7172 42.4408 4.00391 39.9616 4.00391 35.416V31.25C4.00391 26.7045 4.7172 24.2252 6.1377 22.8047C7.55819 21.3842 10.0375 20.6709 14.583 20.6709ZM14.583 20.9951C12.6938 20.9951 11.0898 21.0834 9.76367 21.3633C8.42193 21.6465 7.26409 22.1472 6.36816 23.0449C5.47238 23.9425 4.97463 25.1013 4.69336 26.4414C4.4154 27.766 4.32812 29.3667 4.32812 31.25V35.416C4.32812 37.2994 4.4154 38.9001 4.69336 40.2246C4.97463 41.5647 5.47238 42.7235 6.36816 43.6211C7.26409 44.5188 8.42193 45.0195 9.76367 45.3027C11.0898 45.5827 12.6938 45.6709 14.583 45.6709H35.416C37.3053 45.6709 38.9092 45.5827 40.2354 45.3027C41.577 45.0195 42.735 44.5188 43.6309 43.6211C44.5266 42.7235 45.0244 41.5646 45.3057 40.2246C45.5836 38.9001 45.6699 37.2993 45.6699 35.416V31.25C45.6699 29.3667 45.5836 27.7659 45.3057 26.4414C45.0244 25.1014 44.5266 23.9425 43.6309 23.0449C42.735 22.1472 41.577 21.6465 40.2354 21.3633C38.9092 21.0833 37.3053 20.9951 35.416 20.9951H14.583Z" fill="#62A07B" stroke="#62A07B" stroke-width="2.8"/>
<path d="M16.4463 32.6958C16.6413 32.6092 16.9456 32.6545 17.1357 32.8257C17.2058 32.9097 17.2576 32.9934 17.2939 33.0806C17.3383 33.1871 17.3525 33.275 17.3525 33.3335C17.3525 33.4837 17.284 33.6703 17.1553 33.8198C17.0058 33.9484 16.819 34.0171 16.6689 34.0171C16.6104 34.017 16.5225 34.0019 16.416 33.9575L16.3984 33.9507L16.3799 33.9438L16.2744 33.8892C16.2451 33.87 16.2138 33.843 16.1738 33.8091C16.0472 33.6594 15.9863 33.493 15.9863 33.3335C15.9863 33.275 16.0005 33.1871 16.0449 33.0806L16.0527 33.062L16.0596 33.0444C16.0808 32.9894 16.1106 32.9369 16.1826 32.8501C16.2715 32.7759 16.3241 32.7446 16.3799 32.7231L16.4131 32.7104L16.4463 32.6958Z" fill="#62A07B" stroke="#62A07B" stroke-width="2.8"/>
<path d="M24.9974 35.4171C24.4557 35.4171 23.9141 35.1879 23.5182 34.8129C23.1432 34.417 22.9141 33.8962 22.9141 33.3337C22.9141 33.0629 22.9557 32.792 23.0807 32.542C23.1849 32.292 23.3307 32.0629 23.5182 31.8546C23.9974 31.3754 24.7266 31.1462 25.3932 31.292C25.5391 31.3129 25.6641 31.3545 25.7891 31.417C25.9141 31.4587 26.0391 31.5212 26.1641 31.6046C26.2682 31.6671 26.3724 31.7712 26.4765 31.8546C26.664 32.0629 26.8099 32.292 26.9141 32.542C27.0183 32.792 27.0807 33.0629 27.0807 33.3337C27.0807 33.8962 26.8515 34.417 26.4765 34.8129C26.3724 34.8962 26.2682 34.9795 26.1641 35.0629C26.0391 35.1462 25.9141 35.2088 25.7891 35.2504C25.6641 35.3129 25.5391 35.3546 25.3932 35.3754C25.2682 35.3962 25.1224 35.4171 24.9974 35.4171Z" fill="#62A07B"/>
<path d="M33.3314 35.4171C32.7689 35.4171 32.2481 35.1879 31.8522 34.8129C31.6647 34.6045 31.5189 34.3754 31.4147 34.1254C31.3105 33.8754 31.248 33.6046 31.248 33.3337C31.248 32.7921 31.4772 32.2504 31.8522 31.8546C31.9564 31.7712 32.0606 31.6879 32.1647 31.6046C32.2897 31.5212 32.4147 31.4587 32.5397 31.417C32.6647 31.3545 32.7897 31.3129 32.9147 31.292C33.6022 31.1462 34.3105 31.3754 34.8105 31.8546C35.1855 32.2504 35.4147 32.7712 35.4147 33.3337C35.4147 33.6046 35.3522 33.8754 35.2481 34.1254C35.1439 34.3962 34.998 34.6045 34.8105 34.8129C34.4147 35.1879 33.873 35.4171 33.3314 35.4171Z" fill="#62A07B"/>
</svg>
