<svg width="58" height="58" viewBox="0 0 58 58" fill="none" xmlns="http://www.w3.org/2000/svg">
<path stroke="white" d="M28.0192 54.6766H12.8915C8.78026 54.6766 5.44452 51.3285 5.44452 47.2296V10.7704C5.44452 6.65917 8.79257 3.32343 12.8915 3.32343H28.2654C29.1886 3.32343 29.9271 2.58489 29.9271 1.66171C29.9271 0.73854 29.1886 0 28.2654 0H12.8915C6.94622 0 2.12109 4.83744 2.12109 10.7704V47.2296C2.12109 53.1749 6.95853 58 12.8915 58H28.0192C28.9424 58 29.6809 57.2615 29.6809 56.3383C29.6809 55.4151 28.9301 54.6766 28.0192 54.6766Z" fill="#white"/>
<path stroke="white" d="M55.3941 27.8317L44.833 17.2705C44.1806 16.6182 43.1343 16.6182 42.4819 17.2705C41.8296 17.9229 41.8296 18.9692 42.4819 19.6216L50.212 27.3516H16.4977C15.5745 27.3516 14.8359 28.0901 14.8359 29.0133C14.8359 29.9365 15.5745 30.675 16.4977 30.675H50.212L42.4819 38.4051C41.8296 39.0575 41.8296 40.1037 42.4819 40.7561C42.802 41.0761 43.2328 41.2485 43.6513 41.2485C44.0698 41.2485 44.5006 41.0884 44.8207 40.7561L55.3818 30.195C56.0465 29.5303 56.0465 28.4717 55.3941 27.8317Z" fill="#white"/>
</svg>
