<svg width="24" height="25" viewBox="0 0 24 25" fill="none" xmlns="http://www.w3.org/2000/svg">
<path d="M14.5 5.3125C14.5 6.69321 13.3807 7.8125 12 7.8125C10.6193 7.8125 9.5 6.69321 9.5 5.3125C9.5 3.93179 10.6193 2.8125 12 2.8125C13.3807 2.8125 14.5 3.93179 14.5 5.3125Z" stroke="#62A07B" stroke-width="1.5"/>
<path d="M21 17.8154L19.8423 17.4255C19.6151 17.3489 19.399 17.2421 19.1998 17.1079L19.0985 17.0397C18.4122 16.5774 18 15.7991 18 14.9656C18 12.5285 16.2563 10.4486 13.8772 10.0479L12.9864 9.89788C12.5 9.81529 11.5 9.81543 11.0136 9.89788L10.1228 10.0479C7.74373 10.4486 6 12.5285 6 14.9656C6 15.7991 5.58776 16.5774 4.90145 17.0397L4.80022 17.1079C4.60096 17.2421 4.38488 17.3489 4.1577 17.4255L3 17.8154" stroke="#62A07B" stroke-width="1.5" stroke-linecap="round" stroke-linejoin="round"/>
<path d="M9.5 16.8125L8.57549 18.0452C8.42794 18.2419 8.35416 18.3403 8.27135 18.4269C8.06638 18.6412 7.81632 18.8072 7.53929 18.9129C7.42736 18.9557 7.30805 18.9855 7.06948 19.0451L5.27607 19.4935C4.52611 19.681 4 20.3548 4 21.1278C4 22.0583 4.75425 22.8125 5.68466 22.8125H6.36842C8.07661 22.8125 9.73871 22.2585 11.1053 21.2336L13 19.8125M14.5 16.8125L15.2267 17.7814C15.5701 18.2394 15.7419 18.4683 15.9648 18.6375C16.0318 18.6884 16.102 18.735 16.1749 18.777C16.4174 18.9168 16.695 18.9863 17.2503 19.1251L18.7239 19.4935C19.4739 19.681 20 20.3548 20 21.1278C20 22.0583 19.2458 22.8125 18.3153 22.8125H17.3776C16.8153 22.8125 16.5342 22.8125 16.2554 22.7969C15.4319 22.7509 14.6172 22.6032 13.83 22.3571C13.5635 22.2738 13.3003 22.1751 12.7738 21.9777L11 21.3125" stroke="#62A07B" stroke-width="1.5" stroke-linecap="round" stroke-linejoin="round"/>
</svg>
