<svg width="24" height="24" viewBox="0 0 24 24" fill="none" xmlns="http://www.w3.org/2000/svg">
<path d="M8.49805 19.0005H7.99805C3.99805 19.0005 1.99805 18.0005 1.99805 13.0005V8.00049C1.99805 4.00049 3.99805 2.00049 7.99805 2.00049H15.998C19.998 2.00049 21.998 4.00049 21.998 8.00049V13.0005C21.998 17.0005 19.998 19.0005 15.998 19.0005H15.498C15.188 19.0005 14.888 19.1505 14.698 19.4005L13.198 21.4005C12.538 22.2805 11.458 22.2805 10.798 21.4005L9.29805 19.4005C9.13805 19.1805 8.76805 19.0005 8.49805 19.0005Z" stroke="white" stroke-width="1.39286" stroke-miterlimit="10" stroke-linecap="round" stroke-linejoin="round"/>
<path d="M15.9965 11H16.0054" stroke="#62A07B" stroke-width="2" stroke-linecap="round" stroke-linejoin="round"/>
<path d="M11.9965 11H12.0054" stroke="#62A07B" stroke-width="2" stroke-linecap="round" stroke-linejoin="round"/>
<path d="M7.99646 11H8.00544" stroke="#62A07B" stroke-width="2" stroke-linecap="round" stroke-linejoin="round"/>
</svg>
