<svg width="124" height="28" viewBox="0 0 124 28" fill="none" xmlns="http://www.w3.org/2000/svg">
<mask id="mask0_3_8" style="mask-type:luminance" maskUnits="userSpaceOnUse" x="-18" y="-13" width="159" height="61">
<path d="M-18 48H141V-13H-18V48Z" fill="white"/>
</mask>
<g mask="url(#mask0_3_8)">
<path d="M12.2136 0.78403C10.9767 0.247876 9.64666 -0.0191886 8.30603 -0.000606256H1.44299C1.06499 -0.0167945 0.69471 0.113414 0.404238 0.364666C0.277761 0.469963 0.175735 0.603383 0.105707 0.755059C0.0356778 0.906735 -0.000562851 1.07279 -0.000336381 1.24094V25.3948C-0.0073949 25.5973 0.0440488 25.7975 0.147406 25.9696C0.250764 26.1417 0.40133 26.2779 0.57982 26.3608C0.97756 26.5705 1.41854 26.6769 1.86476 26.6707C2.31098 26.6769 2.75196 26.5705 3.1497 26.3608C3.32819 26.2779 3.47875 26.1417 3.58211 25.9696C3.68547 25.7975 3.73691 25.5973 3.72985 25.3948V16.3819H8.09607C9.47275 16.4027 10.8388 16.1296 12.1093 15.5795C13.2968 15.0537 14.2944 14.1535 14.9603 13.0067C15.7244 11.5753 16.09 9.95205 16.0163 8.31794V8.02648C16.0889 6.39685 15.7362 4.77708 14.9953 3.33776C14.3578 2.19808 13.3821 1.30237 12.2136 0.78403ZM12.2842 8.57439C12.2842 10.1789 11.9159 11.3706 11.1792 12.1495C10.7697 12.5524 10.2847 12.8639 9.75444 13.0647C9.22413 13.2656 8.6597 13.3515 8.09607 13.3172H3.73108V3.43003H8.09607C8.65756 3.39557 9.21998 3.47929 9.74942 3.67615C10.2789 3.87301 10.7644 4.17893 11.1767 4.57548C11.9134 5.34209 12.2818 6.52806 12.2818 8.13339L12.2842 8.57439Z" fill="#868688"/>
<path d="M32.1379 9.74103C31.7439 9.48203 31.2827 9.35475 30.8167 9.37639C30.3581 9.36679 29.9065 9.49354 29.5152 9.74166C29.3547 9.82265 29.218 9.94644 29.1189 10.1003C29.0199 10.2542 28.9621 10.4326 28.9516 10.6173V19.7752C28.9494 20.4157 28.7856 21.0445 28.4764 21.599C28.1665 22.1748 27.7253 22.6633 27.1915 23.0219C26.6586 23.3845 26.0338 23.5749 25.3964 23.5692C24.7471 23.5788 24.1097 23.3883 23.5651 23.0219C23.034 22.6674 22.5932 22.1855 22.2801 21.6168C21.966 21.0566 21.8019 20.4194 21.8049 19.7714V10.6536C21.7903 10.4726 21.733 10.298 21.638 10.1454C21.5431 9.99268 21.4134 9.86651 21.2604 9.77793C20.8722 9.50324 20.4103 9.3627 19.9405 9.37639C19.4819 9.36603 19.0319 9.50686 18.6555 9.77857C18.5022 9.86695 18.3722 9.99314 18.2771 10.146C18.182 10.2988 18.1248 10.4736 18.1104 10.6548V19.7752C18.1109 21.0212 18.4514 22.2416 19.0926 23.2956C19.748 24.4013 20.6621 25.3176 21.7503 25.9594C22.8678 26.6291 24.1382 26.9754 25.4289 26.9623C26.6888 26.9707 27.9281 26.6309 29.0191 25.9778C30.0976 25.3451 31.0053 24.4416 31.659 23.3503C32.3094 22.2803 32.6515 21.0399 32.645 19.7752V10.6173C32.6391 10.4386 32.5894 10.2645 32.5007 10.1112C32.412 9.9579 32.2871 9.83052 32.1379 9.74103Z" fill="#868688"/>
<path d="M58.044 23.4973H50.5455L58.114 12.2973C58.4656 11.8546 58.6638 11.3025 58.6769 10.7293C58.6925 10.5413 58.6675 10.352 58.6038 10.1753C58.5401 9.99852 58.4392 9.83865 58.3086 9.70726C58.0708 9.49184 57.7649 9.37473 57.4491 9.37826H39.1063V2.69962C39.0979 2.50721 39.0372 2.32119 38.9311 2.163C38.8251 2.00481 38.6782 1.88089 38.5071 1.80553C38.1208 1.57842 37.6841 1.45934 37.24 1.45999C36.8015 1.45799 36.3705 1.57727 35.9913 1.80553C35.8239 1.88382 35.6809 2.00899 35.5784 2.16695C35.4759 2.32491 35.418 2.50939 35.4111 2.69962V20.9798C35.4111 22.9508 35.9391 24.392 36.9951 25.3033C38.051 26.2145 39.576 26.6706 41.57 26.6714H42.7678C42.9942 26.6889 43.2215 26.6521 43.432 26.5638C43.6424 26.4755 43.8305 26.3381 43.9815 26.1623C44.2424 25.8474 44.3861 25.4461 44.3867 25.0309C44.3922 24.6092 44.248 24.2002 43.9815 23.8816C43.8277 23.7106 43.6387 23.5775 43.4287 23.4923C43.2186 23.407 42.9927 23.3717 42.7678 23.3891H41.5718C40.889 23.4622 40.2045 23.2669 39.6539 22.8418C39.4484 22.5844 39.2942 22.2873 39.2002 21.9677C39.1062 21.648 39.0743 21.3123 39.1063 20.9798V12.5543H50.0341H53.9258L46.393 23.7543C46.218 23.9641 46.0702 24.1966 45.9534 24.4461C45.8252 24.7064 45.7585 24.9945 45.7588 25.2867C45.76 25.6305 45.8717 25.9642 46.0762 26.2349C46.1996 26.3878 46.3568 26.5075 46.5345 26.5837C46.7122 26.66 46.905 26.6905 47.0965 26.6727H58.044C58.2121 26.6752 58.3779 26.6329 58.5257 26.5499C58.6735 26.4668 58.7983 26.3459 58.8881 26.1986C59.1015 25.877 59.2125 25.4943 59.2055 25.1041C59.2196 24.6915 59.0951 24.2866 58.8531 23.9586C58.7622 23.8222 58.6415 23.7097 58.501 23.6304C58.3605 23.551 58.2039 23.5069 58.044 23.5017" fill="#868688"/>
<path d="M72.018 19.0461C72.5375 19.0482 73.0561 18.9994 73.5669 18.9004C74.0527 18.8074 74.4831 18.5183 74.7634 18.0967C75.122 17.4299 75.2812 16.6677 75.2208 15.907C75.2404 14.6665 74.9034 13.4481 74.2526 12.407C73.6166 11.3933 72.7368 10.5689 71.6999 10.0149C70.6235 9.43861 69.4274 9.14432 68.2159 9.15768C66.9353 9.14322 65.6734 9.47671 64.5557 10.125C63.4796 10.7435 62.5669 11.6271 61.8981 12.6978C61.2342 13.7492 60.8849 14.9806 60.8943 16.2372V19.7035C60.8641 21.0561 61.2324 22.386 61.9502 23.516C62.6732 24.6161 63.6704 25.4924 64.8357 26.0519C66.159 26.6827 67.6031 26.9945 69.0595 26.9638C70.1094 26.9858 71.1559 26.832 72.1585 26.5081C72.897 26.2765 73.585 25.8985 74.1845 25.3951C74.3783 25.2569 74.5425 25.0785 74.6666 24.8713C74.7908 24.6641 74.8722 24.4325 74.9058 24.1911C74.8977 23.9376 74.8374 23.6887 74.729 23.4612C74.6144 23.1968 74.447 22.9606 74.2379 22.7682C74.0248 22.5728 73.7481 22.4686 73.4637 22.4768C73.1124 22.4915 72.7716 22.605 72.4778 22.8051C72.0565 23.0614 71.6215 23.2927 71.175 23.4981C70.5385 23.7649 69.8549 23.8894 69.1687 23.8634C67.9838 23.9143 66.819 23.5334 65.8769 22.7867C65.4579 22.4416 65.1232 21.9992 64.8997 21.4952C64.6763 20.9912 64.5704 20.4398 64.5907 19.8855V19.0461H72.018ZM64.5907 15.5073C64.577 14.8738 64.7481 14.2507 65.0819 13.7198C65.4101 13.2087 65.8598 12.7938 66.3877 12.5151C66.9419 12.2195 67.5576 12.0691 68.1809 12.0773C68.8179 12.067 69.4471 12.224 70.0098 12.5336C70.5398 12.8276 70.9793 13.2702 71.2782 13.8108C71.5807 14.3474 71.7389 14.9583 71.7362 15.5799C71.7563 15.7371 71.743 15.897 71.6973 16.0483C71.6516 16.1997 71.5746 16.3389 71.4716 16.4561C71.1551 16.6365 70.7933 16.7128 70.434 16.675H64.5907V15.5073Z" fill="#868688"/>
<path d="M88.3145 9.6509C88.1954 9.49855 88.0452 9.3754 87.8747 9.29025C87.7043 9.2051 87.5178 9.16006 87.3286 9.15835H86.2033C85.5431 9.1527 84.891 9.30882 84.3001 9.61399C83.7296 9.90464 83.2107 10.2932 82.7653 10.7633C82.3544 11.1954 82.0064 11.6871 81.7321 12.2231V10.6175C81.7317 10.4372 81.6862 10.2601 81.6002 10.1034C81.5141 9.9467 81.3903 9.8158 81.2409 9.72344C80.885 9.48358 80.4669 9.36192 80.0425 9.37472C79.5911 9.35691 79.1446 9.47732 78.7588 9.7209C78.6051 9.80995 78.4769 9.93958 78.3872 10.0966C78.2975 10.2536 78.2495 10.4325 78.248 10.615V25.3952C78.2596 25.5727 78.312 25.7448 78.4009 25.897C78.4897 26.0492 78.6125 26.1772 78.7588 26.2702C79.1315 26.5488 79.5834 26.69 80.0425 26.6711C80.524 26.6898 80.9987 26.5494 81.3981 26.2702C81.5516 26.1821 81.6817 26.0562 81.777 25.9036C81.8723 25.751 81.9298 25.5763 81.9445 25.3952V17.9141C81.916 16.9214 82.127 15.9371 82.5584 15.0504C82.9306 14.303 83.4822 13.6674 84.1601 13.205C84.765 12.7851 85.4753 12.5579 86.2033 12.5514H87.3286C87.5193 12.5492 87.7071 12.5022 87.8778 12.414C88.0486 12.3258 88.1979 12.1988 88.3145 12.0424C88.5939 11.7088 88.7445 11.28 88.7375 10.8384C88.7468 10.4013 88.5956 9.97683 88.3145 9.6509Z" fill="#868688"/>
<path d="M119.333 25.4548C119.344 25.5331 119.339 25.6131 119.317 25.689C119.294 25.7648 119.256 25.8346 119.205 25.8932C119.139 25.9551 119.061 26.0018 118.976 26.0304C118.892 26.0591 118.802 26.0689 118.714 26.0593C118.367 26.0593 118.207 25.9072 118.207 25.6673C118.207 25.4083 118.367 25.2689 118.698 25.2689H119.333V25.4548ZM120.167 26.7313V24.4512C120.167 23.6405 119.685 23.2288 118.743 23.2288C118.52 23.205 118.294 23.2374 118.085 23.3231C117.877 23.4089 117.691 23.5454 117.544 23.7213L118.07 24.259C118.145 24.1578 118.242 24.0774 118.354 24.0251C118.466 23.9729 118.589 23.9505 118.711 23.9599C119.154 23.9599 119.333 24.126 119.333 24.5053V24.6771H118.558C117.769 24.6771 117.404 25.1296 117.404 25.6807C117.396 25.9669 117.494 26.2455 117.679 26.4583C117.794 26.5658 117.929 26.6482 118.076 26.7007C118.223 26.7532 118.378 26.7746 118.532 26.7638C118.685 26.7759 118.837 26.7524 118.979 26.695C119.121 26.6377 119.249 26.5478 119.353 26.4322V26.7313H120.167ZM116.718 21.9732H115.866V22.6777H116.718V21.9732ZM116.712 23.3681H115.878V26.73H116.712V23.3681ZM114.109 24.9966C114.109 25.5547 114.038 25.9931 113.538 25.9931C113.038 25.9931 112.973 25.5547 112.973 24.9966C112.973 24.4385 113.035 24.0064 113.538 24.0064C114.042 24.0064 114.109 24.4385 114.109 24.9966ZM114.942 26.7313V21.9999H114.109V23.5724C114.008 23.4546 113.881 23.3624 113.74 23.3029C113.599 23.2433 113.447 23.218 113.294 23.2288C113.147 23.2223 112.999 23.2467 112.86 23.3003C112.721 23.354 112.594 23.4359 112.487 23.5412C112.197 23.963 112.073 24.4835 112.141 24.9966C112.072 25.5123 112.196 26.0358 112.487 26.4602C112.596 26.5654 112.724 26.6471 112.864 26.7006C113.004 26.7541 113.152 26.7784 113.301 26.772C113.457 26.7822 113.614 26.7543 113.757 26.6905C113.901 26.6267 114.029 26.5289 114.129 26.4048V26.7313H114.942ZM110.691 24.6771H109.422C109.421 24.5488 109.447 24.4218 109.5 24.3055C109.547 24.1943 109.625 24.1005 109.725 24.0365C109.824 23.9724 109.94 23.9411 110.057 23.9466C110.174 23.9411 110.29 23.9724 110.39 24.0365C110.489 24.1005 110.568 24.1943 110.615 24.3055C110.667 24.4218 110.693 24.5488 110.691 24.6771ZM111.512 25.2689V24.9037C111.538 24.6915 111.519 24.476 111.458 24.272C111.396 24.0679 111.293 23.88 111.155 23.7211C111.016 23.5622 110.847 23.4359 110.658 23.351C110.468 23.266 110.264 23.2243 110.057 23.2288C109.192 23.2288 108.602 23.8651 108.602 24.9966C108.602 26.3966 109.358 26.7708 110.147 26.7708C110.384 26.7855 110.622 26.7441 110.842 26.6497C111.062 26.5554 111.258 26.4105 111.416 26.226L110.909 25.7138C110.815 25.8235 110.698 25.9098 110.567 25.9661C110.436 26.0225 110.295 26.0473 110.153 26.0389C110.054 26.0465 109.955 26.0316 109.862 25.9954C109.769 25.9592 109.685 25.9025 109.616 25.8292C109.546 25.7559 109.493 25.6679 109.46 25.5711C109.426 25.4744 109.414 25.3713 109.422 25.2689H111.512ZM107.14 24.9966C107.14 25.5547 107.079 25.9931 106.576 25.9931C106.074 25.9931 106.013 25.5547 106.013 24.9966C106.013 24.4385 106.074 24.0064 106.576 24.0064C107.079 24.0064 107.14 24.4385 107.14 24.9966ZM107.974 24.9966C108.042 24.4836 107.918 23.9632 107.627 23.5418C107.52 23.4368 107.393 23.3551 107.254 23.3013C107.115 23.2476 106.968 23.2229 106.82 23.2288C106.663 23.2183 106.506 23.2458 106.362 23.3092C106.217 23.3726 106.088 23.4701 105.986 23.594V23.2688H105.179V28.0002H106.013V26.4252C106.112 26.5437 106.237 26.6366 106.377 26.6965C106.517 26.7565 106.669 26.7819 106.82 26.7708C106.968 26.7766 107.115 26.7521 107.254 26.6985C107.392 26.645 107.519 26.5636 107.627 26.4589C107.918 26.0344 108.042 25.5111 107.974 24.9953M103.553 24.9953C103.595 25.292 103.526 25.594 103.361 25.8398C103.309 25.8914 103.247 25.9315 103.18 25.9576C103.113 25.9838 103.041 25.9954 102.97 25.9918C102.899 25.9948 102.828 25.9829 102.762 25.9567C102.696 25.9306 102.636 25.8908 102.585 25.8398C102.419 25.5946 102.349 25.2931 102.39 24.9966C102.349 24.7024 102.418 24.403 102.583 24.1598C102.633 24.1083 102.694 24.0682 102.76 24.0418C102.826 24.0155 102.896 24.0034 102.967 24.0064C103.039 24.0028 103.111 24.0145 103.178 24.0409C103.245 24.0673 103.307 24.1077 103.358 24.1598C103.523 24.403 103.592 24.7024 103.551 24.9966M104.384 24.9966C104.413 24.758 104.394 24.5157 104.329 24.2849C104.264 24.0541 104.154 23.8395 104.006 23.6545C103.871 23.512 103.709 23.4004 103.53 23.3271C103.351 23.2537 103.159 23.2202 102.967 23.2288C102.776 23.2217 102.586 23.2559 102.408 23.3292C102.231 23.4025 102.07 23.5132 101.936 23.6545C101.788 23.8395 101.678 24.0541 101.612 24.2849C101.547 24.5157 101.529 24.758 101.558 24.9966C101.529 25.2363 101.548 25.4795 101.613 25.7114C101.678 25.9433 101.788 26.1591 101.936 26.3457C102.07 26.4868 102.231 26.5975 102.408 26.6707C102.586 26.7439 102.776 26.778 102.967 26.7708C103.159 26.7779 103.351 26.7438 103.529 26.6707C103.708 26.5975 103.87 26.4869 104.006 26.3457C104.156 26.1603 104.267 25.9446 104.332 25.7123C104.397 25.4801 104.415 25.2363 104.384 24.9966ZM100.974 26.7313V26.0001H100.673C100.474 26.0001 100.384 25.8868 100.384 25.6877V24.0268H100.974V23.3681H100.384V22.3455H99.5506V23.3681H99.1982V24.0268H99.5506V25.7405C99.5432 25.8737 99.5633 26.007 99.6095 26.1315C99.6557 26.2561 99.727 26.369 99.8186 26.4627C99.9102 26.5565 100.02 26.6289 100.141 26.6752C100.261 26.7215 100.39 26.7406 100.519 26.7313H100.974ZM98.9993 23.5546C98.8987 23.4442 98.776 23.3579 98.6398 23.3017C98.5037 23.2455 98.3573 23.2209 98.211 23.2294C98.0538 23.2275 97.898 23.2596 97.7534 23.3236C97.6088 23.3876 97.4786 23.4821 97.3712 23.601V23.2695H96.5565V26.7313H97.3902V24.6447C97.3817 24.5655 97.3891 24.4854 97.4122 24.4094C97.4352 24.3334 97.4732 24.2632 97.5239 24.2033C97.5746 24.1434 97.6367 24.0951 97.7064 24.0616C97.7761 24.028 97.8518 24.0098 97.9286 24.0083C98.0127 24.0055 98.0962 24.0226 98.173 24.0583C98.2497 24.0941 98.3175 24.1475 98.3713 24.2145L98.9993 23.5546ZM94.8197 24.3653C94.8197 25.2689 94.7614 25.4872 94.5956 25.687C94.5242 25.7704 94.4361 25.8367 94.3376 25.8814C94.239 25.9261 94.1323 25.9482 94.0247 25.946C93.9163 25.9475 93.8089 25.9252 93.7094 25.8806C93.6099 25.8359 93.5207 25.77 93.4476 25.687C93.2812 25.4872 93.2297 25.2683 93.2297 24.3653C93.2297 23.4623 93.2819 23.2351 93.4476 23.0359C93.5209 22.9536 93.6103 22.8883 93.7098 22.8444C93.8093 22.8005 93.9166 22.7791 94.0247 22.7814C94.132 22.7784 94.2386 22.7996 94.3372 22.8436C94.4358 22.8875 94.524 22.9531 94.5956 23.0359C94.762 23.2345 94.8197 23.461 94.8197 24.3653ZM95.7105 24.3653C95.7105 23.461 95.6982 22.9297 95.2427 22.4562C95.0842 22.29 94.894 22.1598 94.6843 22.0739C94.4746 21.988 94.25 21.9483 94.0247 21.9573C93.7985 21.9483 93.5729 21.988 93.3622 22.0739C93.1515 22.1598 92.9603 22.2899 92.8005 22.4562C92.345 22.9278 92.3389 23.4591 92.3389 24.3653C92.3389 25.2715 92.345 25.8003 92.8005 26.2744C92.9605 26.4403 93.1518 26.5701 93.3625 26.6558C93.5731 26.7414 93.7986 26.781 94.0247 26.772C94.2499 26.781 94.4744 26.7414 94.6841 26.6557C94.8938 26.57 95.084 26.4402 95.2427 26.2744C95.6982 25.8022 95.7105 25.2708 95.7105 24.3653Z" fill="#595B60"/>
<path d="M123.18 15.9923H121.91C121.908 15.864 121.935 15.7369 121.987 15.6207C122.038 15.5128 122.118 15.422 122.216 15.3585C122.315 15.295 122.429 15.2613 122.545 15.2613C122.661 15.2613 122.775 15.295 122.873 15.3585C122.972 15.422 123.052 15.5128 123.103 15.6207C123.155 15.7369 123.182 15.864 123.18 15.9923ZM124.001 16.5841V16.2188C124.026 16.0065 124.008 15.791 123.946 15.5868C123.884 15.3827 123.781 15.1947 123.642 15.0358C123.504 14.8768 123.335 14.7506 123.145 14.6658C122.956 14.5809 122.751 14.5393 122.544 14.5439C121.679 14.5439 121.09 15.1803 121.09 16.3117C121.09 17.7117 121.846 18.0859 122.635 18.0859C122.872 18.1008 123.11 18.0594 123.33 17.9649C123.55 17.8704 123.747 17.7253 123.905 17.5406L123.398 17.0315C123.304 17.141 123.187 17.2271 123.056 17.2833C122.925 17.3396 122.783 17.3647 122.642 17.3567C122.543 17.3644 122.443 17.3497 122.35 17.3134C122.257 17.2771 122.173 17.2202 122.103 17.1466C122.033 17.0731 121.98 16.9846 121.947 16.8874C121.913 16.7903 121.901 16.6868 121.91 16.5841H124.001ZM120.334 13.2877H119.481V13.9922H120.334V13.2877ZM120.326 14.6833H119.493V18.0458H120.326V14.6833ZM117.724 16.3117C117.724 16.8698 117.654 17.3083 117.153 17.3083C116.653 17.3083 116.59 16.8698 116.59 16.3117C116.59 15.7537 116.651 15.3216 117.153 15.3216C117.656 15.3216 117.724 15.7537 117.724 16.3117ZM118.558 18.0458V13.3151H117.724V14.8914C117.623 14.7729 117.497 14.68 117.356 14.6197C117.215 14.5595 117.062 14.5336 116.91 14.5439C116.762 14.5374 116.614 14.5617 116.475 14.6155C116.337 14.6693 116.21 14.7514 116.102 14.857C115.813 15.2785 115.689 15.7988 115.756 16.3117C115.687 16.8276 115.811 17.3512 116.102 17.7754C116.211 17.8809 116.34 17.9629 116.479 18.0165C116.619 18.0702 116.768 18.0944 116.917 18.0878C117.073 18.098 117.229 18.0703 117.372 18.0069C117.516 17.9434 117.643 17.8461 117.744 17.7226V18.0477L118.558 18.0458ZM113.333 13.1885H112.622V14.0189H113.333V13.1885ZM114.75 13.1885H114.038V14.0189H114.75V13.1885ZM114.167 16.7699C114.178 16.8483 114.172 16.9282 114.15 17.0041C114.128 17.0799 114.09 17.1496 114.038 17.2084C113.972 17.2702 113.895 17.317 113.81 17.3456C113.725 17.3742 113.636 17.3841 113.547 17.3745C113.201 17.3745 113.041 17.2211 113.041 16.9825C113.041 16.7235 113.201 16.5841 113.532 16.5841H114.167V16.7699ZM115 18.0427V15.7664C115 14.955 114.519 14.5439 113.577 14.5439C113.354 14.5202 113.128 14.5525 112.919 14.638C112.711 14.7235 112.525 14.8597 112.378 15.0352L112.904 15.5742C112.978 15.4726 113.076 15.3918 113.187 15.3393C113.299 15.2867 113.422 15.264 113.545 15.2732C113.987 15.2732 114.167 15.4412 114.167 15.8192V15.9923H113.391C112.602 15.9923 112.237 16.4447 112.237 16.9958C112.229 17.282 112.327 17.5604 112.512 17.7728C112.627 17.8806 112.762 17.9632 112.909 18.0158C113.055 18.0684 113.211 18.0899 113.366 18.0789C113.518 18.0908 113.67 18.0671 113.812 18.0096C113.954 17.9521 114.082 17.8623 114.186 17.7467V18.0458L115 18.0427ZM110.846 16.3117C110.846 16.8698 110.785 17.3083 110.282 17.3083C109.78 17.3083 109.718 16.8698 109.718 16.3117C109.718 15.7537 109.779 15.3216 110.282 15.3216C110.786 15.3216 110.846 15.7537 110.846 16.3117ZM111.68 16.3117C111.747 15.7987 111.623 15.2784 111.333 14.857C111.225 14.7521 111.098 14.6703 110.96 14.6166C110.821 14.5628 110.673 14.5381 110.526 14.5439C110.369 14.5333 110.212 14.5609 110.067 14.6244C109.923 14.688 109.795 14.7857 109.693 14.9098V14.584H108.885V19.3154H109.718V17.7404C109.817 17.8587 109.942 17.9515 110.083 18.0114C110.223 18.0714 110.374 18.0969 110.526 18.0859C110.673 18.0918 110.821 18.0672 110.959 18.0136C111.098 17.9599 111.225 17.8783 111.333 17.7735C111.623 17.3489 111.747 16.8256 111.679 16.3098M107.255 16.3098C107.297 16.6065 107.228 16.9085 107.062 17.1543C107.011 17.2059 106.95 17.246 106.882 17.2721C106.815 17.2983 106.744 17.3099 106.672 17.3064C106.601 17.3092 106.531 17.2972 106.465 17.2711C106.398 17.2449 106.338 17.2052 106.287 17.1543C106.122 16.9081 106.054 16.6063 106.096 16.3098C106.055 16.016 106.124 15.7172 106.288 15.4737C106.339 15.4227 106.399 15.383 106.465 15.3569C106.531 15.3308 106.602 15.3187 106.673 15.3216C106.744 15.318 106.816 15.3297 106.883 15.3558C106.95 15.382 107.011 15.4221 107.063 15.4737C107.228 15.7173 107.297 16.0167 107.256 16.3111M108.09 16.3111C108.118 16.0724 108.099 15.8302 108.034 15.5993C107.969 15.3684 107.859 15.1537 107.711 14.9684C107.577 14.8262 107.414 14.7149 107.235 14.6418C107.057 14.5687 106.865 14.5353 106.673 14.5439C106.482 14.5372 106.292 14.5715 106.114 14.6446C105.937 14.7178 105.776 14.8282 105.641 14.969C105.493 15.1544 105.383 15.369 105.318 15.5999C105.253 15.8308 105.235 16.073 105.263 16.3117C105.235 16.5514 105.253 16.7946 105.318 17.0266C105.383 17.2585 105.493 17.4743 105.641 17.6608C105.776 17.8018 105.937 17.9123 106.115 17.9855C106.292 18.0586 106.483 18.0928 106.674 18.0859C106.866 18.0928 107.057 18.0586 107.236 17.9854C107.415 17.9123 107.577 17.8018 107.713 17.6608C107.862 17.4754 107.973 17.2597 108.038 17.0275C108.104 16.7952 108.121 16.5515 108.091 16.3117M104.507 18.0458V15.8332C104.52 15.6538 104.497 15.4734 104.438 15.304C104.38 15.1345 104.288 14.9796 104.168 14.8494C104.062 14.7467 103.938 14.6668 103.803 14.6143C103.668 14.5619 103.523 14.5379 103.379 14.5439C103.226 14.5401 103.075 14.5701 102.935 14.632C102.794 14.6939 102.668 14.7863 102.565 14.9028V13.3119H101.731V18.0458H102.564V15.9522C102.554 15.8712 102.562 15.789 102.586 15.7112C102.609 15.6335 102.65 15.5621 102.703 15.502C102.756 15.442 102.821 15.3947 102.894 15.3635C102.967 15.3324 103.045 15.318 103.124 15.3216C103.202 15.3185 103.28 15.3332 103.352 15.3647C103.425 15.3961 103.489 15.4436 103.542 15.5036C103.595 15.5637 103.634 15.635 103.657 15.7125C103.68 15.79 103.687 15.8718 103.677 15.9522V18.0458H104.507ZM100.975 18.0458V17.3153H100.673C100.474 17.3153 100.385 17.202 100.385 17.0028V15.3419H100.975V14.6833H100.385V13.6607H99.5511V14.6833H99.1987V15.3419H99.5511V17.055C99.5437 17.1882 99.5638 17.3214 99.61 17.4458C99.6562 17.5703 99.7274 17.6831 99.8189 17.7768C99.9105 17.8705 100.02 17.9429 100.141 17.9892C100.262 18.0355 100.39 18.0546 100.519 18.0452L100.975 18.0458ZM98.9998 14.8697C98.8993 14.7595 98.7768 14.6733 98.6409 14.617C98.505 14.5607 98.3589 14.5358 98.2128 14.5439C98.0556 14.542 97.8999 14.5741 97.7554 14.6381C97.6109 14.7021 97.4808 14.7966 97.3735 14.9156V14.584H96.5552V18.0458H97.3883V15.9598C97.3797 15.8806 97.3872 15.8004 97.4103 15.7244C97.4333 15.6483 97.4714 15.5781 97.5222 15.5182C97.5729 15.4583 97.6351 15.4101 97.7049 15.3765C97.7747 15.343 97.8504 15.3249 97.9273 15.3235C98.0115 15.3201 98.0953 15.3368 98.1724 15.3722C98.2494 15.4076 98.3176 15.4608 98.3718 15.5277L98.9998 14.8697ZM94.8196 15.6798C94.8196 16.5841 94.7625 16.803 94.5955 17.0028C94.5243 17.0862 94.4365 17.1525 94.3381 17.1973C94.2398 17.242 94.1332 17.264 94.0258 17.2618C93.9174 17.2633 93.81 17.241 93.7105 17.1964C93.6111 17.1517 93.5218 17.0858 93.4487 17.0028C93.2817 16.803 93.2308 16.5841 93.2308 15.6798C93.2308 14.7756 93.2817 14.5503 93.4487 14.3517C93.5221 14.2694 93.6114 14.2041 93.7109 14.1602C93.8104 14.1164 93.9177 14.0949 94.0258 14.0972C94.1329 14.0941 94.2394 14.1153 94.3378 14.1593C94.4362 14.2032 94.5241 14.2689 94.5955 14.3517C94.7625 14.5503 94.8196 14.7768 94.8196 15.6798ZM95.7116 15.6798C95.7116 14.7762 95.6988 14.2448 95.2438 13.7707C95.085 13.605 94.8948 13.4752 94.6852 13.3895C94.4755 13.3039 94.251 13.2642 94.0258 13.2731C93.7991 13.2637 93.573 13.3031 93.3617 13.3888C93.1503 13.4744 92.9584 13.6045 92.798 13.7707C92.3431 14.2429 92.3369 14.7743 92.3369 15.6798C92.3369 16.5854 92.3431 17.1155 92.798 17.5889C92.9582 17.7556 93.1501 17.8859 93.3614 17.9718C93.5728 18.0577 93.799 18.0972 94.0258 18.0878C94.2511 18.0967 94.4757 18.057 94.6854 17.9711C94.8951 17.8852 95.0853 17.7551 95.2438 17.5889C95.6988 17.1174 95.7116 16.586 95.7116 15.6798Z" fill="#595B60"/>
</g>
</svg>
