<svg width="51" height="50" viewBox="0 0 51 50" fill="none" xmlns="http://www.w3.org/2000/svg">
<path d="M16.1279 9.2124H23.3359C23.3691 9.2124 23.4095 9.22544 23.4473 9.26318C23.485 9.30092 23.498 9.34135 23.498 9.37451C23.498 9.40767 23.485 9.4481 23.4473 9.48584C23.4095 9.52358 23.3691 9.53662 23.3359 9.53662H16.1279C15.0354 9.53662 14.1645 9.57309 13.4229 9.63916L12.748 9.71143C10.574 9.94704 8.60547 10.4431 7.35352 12.23C6.19627 13.8817 5.87305 16.3587 5.87305 19.7915V30.2075C5.87305 33.6412 6.19651 36.1098 7.34277 37.7573C8.58353 39.5405 10.5331 40.0392 12.6758 40.2856C13.6415 40.4207 14.7121 40.4624 16.1279 40.4624H23.4609C23.4941 40.4624 23.5345 40.4754 23.5723 40.5132C23.61 40.5509 23.623 40.5913 23.623 40.6245C23.623 40.6577 23.61 40.6981 23.5723 40.7358C23.5345 40.7736 23.4941 40.7866 23.4609 40.7866H16.1279C14.5969 40.7866 13.5281 40.7255 12.6465 40.5942L12.6201 40.5903L12.5947 40.5874L12.0156 40.5122C9.2099 40.097 7.74484 39.0651 6.88965 37.6558C5.90059 36.0257 5.54883 33.6223 5.54883 30.2075V19.7915C5.54883 16.3787 5.90532 13.9703 6.90332 12.3354C7.82527 10.8254 9.44799 9.74547 12.6562 9.39111L12.6738 9.38916L12.6914 9.38623C13.5201 9.27323 14.5966 9.2124 16.1279 9.2124Z" fill="#62A07B" stroke="#62A07B" stroke-width="2.8"/>
<path d="M31.791 9.2124H34.874C36.4051 9.2124 37.4738 9.27349 38.3555 9.40479L38.3818 9.40869L38.4072 9.41162C41.5941 9.76571 43.2001 10.84 44.1123 12.3433C45.1014 13.9733 45.4531 16.3768 45.4531 19.7915V30.2075C45.4531 33.6203 45.0966 36.0287 44.0986 37.6636C43.1767 39.1737 41.554 40.2536 38.3457 40.6079L38.3281 40.6099L38.3105 40.6128C37.4819 40.7258 36.4054 40.7866 34.874 40.7866H31.791C31.7579 40.7866 31.7174 40.7736 31.6797 40.7358C31.6419 40.6981 31.6289 40.6577 31.6289 40.6245C31.6289 40.5913 31.6419 40.5509 31.6797 40.5132C31.7174 40.4754 31.7579 40.4624 31.791 40.4624H34.874C36.3153 40.4624 37.3707 40.3982 38.2529 40.2866L38.2539 40.2876C40.428 40.052 42.3965 39.5559 43.6484 37.769C44.8057 36.1173 45.1289 33.6403 45.1289 30.2075V19.7915C45.1289 16.3578 44.8054 13.8892 43.6592 12.2417C42.4184 10.4585 40.468 9.95882 38.3252 9.7124C37.3598 9.57743 36.2893 9.53662 34.874 9.53662H31.791C31.7579 9.53662 31.7174 9.52358 31.6797 9.48584C31.6419 9.4481 31.6289 9.40767 31.6289 9.37451C31.6289 9.34135 31.6419 9.30092 31.6797 9.26318C31.7174 9.22544 31.7579 9.2124 31.791 9.2124Z" fill="#62A07B" stroke="#62A07B" stroke-width="2.8"/>
<path d="M31.752 4.00488C31.7851 4.00488 31.8255 4.01792 31.8633 4.05566C31.901 4.0934 31.9141 4.13383 31.9141 4.16699V45.834C31.914 45.8671 31.9009 45.9077 31.8633 45.9453C31.8256 45.9829 31.7851 45.9961 31.752 45.9961C31.7188 45.9961 31.6783 45.9829 31.6406 45.9453C31.603 45.9077 31.5899 45.8671 31.5898 45.834V4.16699C31.5898 4.13383 31.6029 4.0934 31.6406 4.05566C31.6784 4.01792 31.7188 4.00488 31.752 4.00488Z" fill="#62A07B" stroke="#62A07B" stroke-width="2.8"/>
<path d="M14.4564 27.0835C14.1855 27.0835 13.9147 27.021 13.6647 26.9168C13.4147 26.8127 13.1855 26.6668 12.9772 26.4793C12.7897 26.271 12.623 26.0418 12.5189 25.7918C12.4147 25.5418 12.373 25.271 12.373 25.0002C12.373 24.4585 12.6022 23.9168 12.9772 23.521C13.748 22.7502 15.1439 22.7502 15.9355 23.521C16.3105 23.9168 16.5397 24.4585 16.5397 25.0002C16.5397 25.271 16.4772 25.5418 16.373 25.7918C16.2689 26.0418 16.123 26.271 15.9355 26.4793C15.7272 26.6668 15.498 26.8127 15.248 26.9168C14.998 27.021 14.7272 27.0835 14.4564 27.0835Z" fill="#62A07B"/>
<path d="M22.7904 27.0835C22.5195 27.0835 22.2487 27.021 21.9987 26.9168C21.7487 26.8127 21.5195 26.6668 21.3112 26.4793C21.1237 26.271 20.9779 26.0418 20.8529 25.7918C20.7695 25.5418 20.707 25.271 20.707 25.0002C20.707 24.4585 20.9362 23.9168 21.3112 23.521C22.082 22.7502 23.4987 22.7502 24.2695 23.521C24.6445 23.9168 24.8737 24.4585 24.8737 25.0002C24.8737 25.271 24.8112 25.5418 24.707 25.7918C24.6029 26.0418 24.457 26.271 24.2695 26.4793C24.0612 26.6668 23.832 26.8127 23.582 26.9168C23.332 27.021 23.0612 27.0835 22.7904 27.0835Z" fill="#62A07B"/>
</svg>
