<svg width="24" height="24" viewBox="0 0 24 24" fill="none" xmlns="http://www.w3.org/2000/svg">
<path d="M12.1586 10.8705C12.0586 10.8605 11.9386 10.8605 11.8286 10.8705C9.44859 10.7905 7.55859 8.84049 7.55859 6.44049C7.55859 3.99049 9.53859 2.00049 11.9986 2.00049C14.4486 2.00049 16.4386 3.99049 16.4386 6.44049C16.4286 8.84049 14.5386 10.7905 12.1586 10.8705Z" stroke="white" stroke-width="1.39286" stroke-linecap="round" stroke-linejoin="round"/>
<path d="M7.1607 14.56C4.7407 16.18 4.7407 18.82 7.1607 20.43C9.9107 22.27 14.4207 22.27 17.1707 20.43C19.5907 18.81 19.5907 16.17 17.1707 14.56C14.4307 12.73 9.9207 12.73 7.1607 14.56Z" stroke="#62A07B" stroke-width="1.39286" stroke-linecap="round" stroke-linejoin="round"/>
</svg>
