<svg width="24" height="25" viewBox="0 0 24 25" fill="none" xmlns="http://www.w3.org/2000/svg">
<path d="M3.67981 12.1458H2.92981H3.67981ZM3.67981 13.8125L3.15157 14.3449C3.44398 14.635 3.91565 14.635 4.20805 14.3449L3.67981 13.8125ZM5.88787 12.6782C6.18191 12.3865 6.18377 11.9116 5.89203 11.6176C5.60029 11.3235 5.12542 11.3217 4.83138 11.6134L5.35962 12.1458L5.88787 12.6782ZM2.52824 11.6134C2.2342 11.3217 1.75933 11.3235 1.46759 11.6176C1.17585 11.9116 1.17772 12.3865 1.47176 12.6782L2 12.1458L2.52824 11.6134ZM18.6156 8.20529C18.8325 8.55815 19.2944 8.66835 19.6473 8.45142C20.0001 8.23449 20.1103 7.77257 19.8934 7.41971L19.2545 7.8125L18.6156 8.20529ZM12.0789 3.8125V3.0625C7.03155 3.0625 2.92981 7.1237 2.92981 12.1458H3.67981H4.42981C4.42981 7.96322 7.84884 4.5625 12.0789 4.5625V3.8125ZM3.67981 12.1458H2.92981L2.92981 13.8125H3.67981H4.42981L4.42981 12.1458H3.67981ZM3.67981 13.8125L4.20805 14.3449L5.88787 12.6782L5.35962 12.1458L4.83138 11.6134L3.15157 13.2801L3.67981 13.8125ZM3.67981 13.8125L4.20805 13.2801L2.52824 11.6134L2 12.1458L1.47176 12.6782L3.15157 14.3449L3.67981 13.8125ZM19.2545 7.8125L19.8934 7.41971C18.287 4.80677 15.3873 3.0625 12.0789 3.0625V3.8125V4.5625C14.8484 4.5625 17.2727 6.02095 18.6156 8.20529L19.2545 7.8125Z" fill="#62A07B"/>
<path d="M20.3139 11.8125L20.8411 11.2791C20.549 10.9903 20.0788 10.9903 19.7867 11.2791L20.3139 11.8125ZM18.1004 12.9458C17.8058 13.2369 17.8031 13.7118 18.0942 14.0064C18.3854 14.301 18.8603 14.3038 19.1549 14.0126L18.6277 13.4792L18.1004 12.9458ZM21.4729 14.0126C21.7675 14.3038 22.2424 14.301 22.5335 14.0064C22.8247 13.7118 22.822 13.2369 22.5274 12.9457L22.0001 13.4792L21.4729 14.0126ZM5.31794 17.4186C5.1004 17.0661 4.6383 16.9567 4.28581 17.1743C3.93331 17.3918 3.82391 17.8539 4.04144 18.2064L4.67969 17.8125L5.31794 17.4186ZM11.8827 21.8125V22.5625C16.9451 22.5625 21.0639 18.504 21.0639 13.4792H20.3139H19.5639C19.5639 17.6591 16.1332 21.0625 11.8827 21.0625V21.8125ZM20.3139 13.4792H21.0639V11.8125H20.3139H19.5639V13.4792H20.3139ZM20.3139 11.8125L19.7867 11.2791L18.1004 12.9458L18.6277 13.4792L19.1549 14.0126L20.8411 12.3459L20.3139 11.8125ZM20.3139 11.8125L19.7867 12.3459L21.4729 14.0126L22.0001 13.4792L22.5274 12.9457L20.8411 11.2791L20.3139 11.8125ZM4.67969 17.8125L4.04144 18.2064C5.65405 20.8195 8.56403 22.5625 11.8827 22.5625V21.8125V21.0625C9.10023 21.0625 6.66584 19.6028 5.31794 17.4186L4.67969 17.8125Z" fill="#62A07B"/>
</svg>
