<svg width="24" height="24" viewBox="0 0 24 24" fill="none" xmlns="http://www.w3.org/2000/svg">
<g clip-path="url(#clip0_7258_1461)">
<path d="M21.6788 11.608C21.4096 11.554 21.1336 11.5072 20.8436 11.4584C18.9636 11.1384 16.6216 10.7448 11.8656 7.69517C11.6766 7.48768 11.4596 7.30755 11.2208 7.15997L9.73844 5.58317C9.60366 5.44003 9.43608 5.33184 9.25015 5.26794C9.06422 5.20403 8.86554 5.18634 8.67124 5.21637C8.48397 5.24296 8.30612 5.31526 8.15341 5.42688C8.0007 5.5385 7.87783 5.68601 7.79564 5.85637C7.583 6.24566 7.4829 6.68645 7.50657 7.12939C7.53024 7.57234 7.67673 7.99996 7.92964 8.36437C7.68452 8.74905 7.34876 9.06772 6.9518 9.29242C6.55485 9.51712 6.10882 9.64099 5.65284 9.65317C5.18309 9.62059 4.7292 9.46976 4.33337 9.21471C3.93754 8.95966 3.61263 8.60867 3.38884 8.19437C2.98244 7.51757 2.53644 6.91437 2.01604 7.05517C1.44564 7.21317 1.44564 8.05517 1.44564 8.80037C1.48521 9.82937 1.36003 10.8581 1.07484 11.8476L0.17044 13.6568C0.0276914 13.9403 -0.0272452 14.2599 0.0126579 14.5748C0.0525611 14.8896 0.18549 15.1855 0.394441 15.4244C0.998841 16.0972 2.29124 16.9512 5.04564 17.2H17.3444C18.1548 17.2018 18.9607 17.0787 19.7336 16.8352C20.992 16.436 23.9988 15.3224 23.9988 14C23.9988 13.3332 23.5136 11.9752 21.6788 11.608ZM8.51484 6.20637C8.54085 6.15267 8.5798 6.10628 8.62819 6.07137C8.67658 6.03646 8.73288 6.01412 8.79204 6.00637C8.85816 5.99605 8.92579 6.00195 8.98913 6.02355C9.05246 6.04514 9.1096 6.0818 9.15564 6.13037L9.82804 6.84517C9.28534 6.95318 8.79794 7.2487 8.45124 7.67997C8.34449 7.44683 8.2946 7.19169 8.30565 6.93551C8.31671 6.67934 8.3884 6.42944 8.51484 6.20637ZM2.24564 8.79997C2.24158 8.5293 2.25266 8.25861 2.27884 7.98917C2.43627 8.18323 2.57805 8.38948 2.70284 8.60597C2.99569 9.13627 3.41812 9.58373 3.93069 9.90661C4.44326 10.2295 5.02927 10.4172 5.63404 10.4524H5.70844C6.87164 10.4524 7.94244 9.80437 8.73164 8.62077C9.16044 7.97757 9.60924 7.64037 10.0664 7.62077C10.4698 7.63081 10.8528 7.7999 11.132 8.09117L10.4788 8.95997C10.4152 9.04484 10.3879 9.15152 10.4029 9.25654C10.4179 9.36156 10.474 9.45632 10.5588 9.51997C10.6437 9.58362 10.7504 9.61095 10.8554 9.59595C10.9604 9.58095 11.0552 9.52484 11.1188 9.43997L11.7664 8.57717C12.048 8.7545 12.3219 8.92304 12.588 9.08277L12.0788 9.75997C12.0473 9.80199 12.0244 9.84981 12.0114 9.9007C11.9983 9.95158 11.9954 10.0045 12.0029 10.0565C12.0103 10.1085 12.0279 10.1586 12.0547 10.2038C12.0814 10.249 12.1168 10.2885 12.1588 10.32C12.2009 10.3515 12.2487 10.3744 12.2996 10.3875C12.3505 10.4005 12.4034 10.4034 12.4554 10.3959C12.5074 10.3885 12.5574 10.3709 12.6026 10.3442C12.6478 10.3174 12.6873 10.282 12.7188 10.24L13.2824 9.49077C13.5744 9.65797 13.8556 9.81357 14.1284 9.95957L13.6788 10.56C13.6473 10.602 13.6244 10.6498 13.6114 10.7007C13.5983 10.7516 13.5954 10.8045 13.6029 10.8565C13.6103 10.9085 13.6279 10.9586 13.6547 11.0038C13.6814 11.049 13.7168 11.0885 13.7588 11.12C13.8009 11.1515 13.8487 11.1744 13.8996 11.1875C13.9505 11.2005 14.0034 11.2034 14.0554 11.196C14.1074 11.1885 14.1574 11.1709 14.2026 11.1442C14.2478 11.1174 14.2873 11.082 14.3188 11.04L14.8476 10.3336C15.1552 10.488 15.4496 10.628 15.7324 10.7568L15.2788 11.36C15.2152 11.4448 15.1879 11.5515 15.2029 11.6565C15.2179 11.7616 15.274 11.8563 15.3588 11.92C15.4437 11.9836 15.5504 12.011 15.6554 11.996C15.7604 11.9809 15.8552 11.9248 15.9188 11.84L16.4876 11.0836C17.8418 11.643 19.2596 12.0337 20.7092 12.2468C20.9892 12.2944 21.2592 12.3396 21.5208 12.3916C21.814 12.4299 22.0955 12.5309 22.3462 12.6878C22.5968 12.8447 22.8107 13.0538 22.9732 13.3008C21.5016 14.1596 19.1888 14.8964 16.1088 14.0152C11.4904 12.6952 10.0216 12.9856 8.16044 13.3524C7.72244 13.4392 7.26964 13.5284 6.74284 13.6036C4.83404 13.8772 2.66524 12.9312 1.67884 12.4284C1.71204 12.2644 2.24564 11.8684 2.24564 8.79997ZM19.4912 16.0728C18.7967 16.2915 18.0726 16.4019 17.3444 16.4H5.08204C2.62244 16.1764 1.49884 15.4544 0.99004 14.888C0.88752 14.769 0.822851 14.6222 0.804322 14.4663C0.785793 14.3103 0.814248 14.1524 0.88604 14.0128L1.32084 13.1428C2.48484 13.7388 4.75084 14.6944 6.85564 14.3944C7.40324 14.3144 7.86684 14.2244 8.31484 14.1364C10.1396 13.7764 11.4564 13.5168 15.8888 14.7828C16.8439 15.0628 17.8335 15.2077 18.8288 15.2132C20.3207 15.219 21.7902 14.8506 23.1028 14.1416C22.7144 14.76 21.4084 15.4644 19.4912 16.0728Z" fill="white" stroke="#ffffff" stroke-width="0.3"/>
</g>
<defs>
<clipPath id="clip0_7258_1461">
<rect width="24" height="24" fill="white"/>
</clipPath>
</defs>
</svg>
