<svg width="20" height="20" viewBox="0 0 20 20" fill="none" xmlns="http://www.w3.org/2000/svg">
<path d="M1.66797 7.49984V5.4165C1.66797 3.3415 3.34297 1.6665 5.41797 1.6665H7.5013" stroke="#FFFFFF" stroke-width="1.5" stroke-linecap="round" stroke-linejoin="round"/>
<path d="M12.5 1.6665H14.5833C16.6583 1.6665 18.3333 3.3415 18.3333 5.4165V7.49984" stroke="#FFFFFF" stroke-width="1.5" stroke-linecap="round" stroke-linejoin="round"/>
<path d="M18.332 13.3335V14.5835C18.332 16.6585 16.657 18.3335 14.582 18.3335H13.332" stroke="#FFFFFF" stroke-width="1.5" stroke-linecap="round" stroke-linejoin="round"/>
<path d="M7.5013 18.3333H5.41797C3.34297 18.3333 1.66797 16.6583 1.66797 14.5833V12.5" stroke="#FFFFFF" stroke-width="1.5" stroke-linecap="round" stroke-linejoin="round"/>
<path d="M14.1654 7.9165V12.0832C14.1654 13.7498 13.332 14.5832 11.6654 14.5832H8.33203C6.66536 14.5832 5.83203 13.7498 5.83203 12.0832V7.9165C5.83203 6.24984 6.66536 5.4165 8.33203 5.4165H11.6654C13.332 5.4165 14.1654 6.24984 14.1654 7.9165Z" stroke="#ffffff" stroke-width="1.5" stroke-linecap="round" stroke-linejoin="round"/>
<path d="M15.8346 10H4.16797" stroke="#ffffff" stroke-width="1.5" stroke-linecap="round" stroke-linejoin="round"/>
</svg>
