<svg width="51" height="50" viewBox="0 0 51 50" fill="none" xmlns="http://www.w3.org/2000/svg">
<path d="M25.4814 4.01025C26.6956 4.01025 27.8476 4.18898 28.6787 4.49951L39.0957 8.39502L39.0977 8.396C41.5666 9.31568 43.5604 12.2062 43.5605 14.8335V30.313C43.5605 31.5229 43.1745 32.9691 42.4863 34.3384C41.7982 35.7074 40.8671 36.8818 39.8945 37.6069V37.6079L30.9355 44.2954L30.9248 44.3032C29.4524 45.425 27.5123 46.017 25.5029 46.0171C23.6204 46.0171 21.7895 45.4978 20.3311 44.5161L20.0449 44.313L11.0898 37.6284L10.9072 37.4868C10.0012 36.7552 9.14307 35.6423 8.49805 34.3589C7.80988 32.9896 7.42383 31.5434 7.42383 30.3335V14.8335C7.42399 12.2062 9.41774 9.31568 11.8867 8.396L11.8896 8.39502L22.2832 4.49854L22.2842 4.49951C23.1152 4.18893 24.2672 4.01029 25.4814 4.01025ZM25.4961 4.33252C24.4498 4.33539 23.3167 4.47536 22.4092 4.81396L22.4072 4.81494L12.0146 8.70947C10.7847 9.16711 9.73596 10.1167 9.00391 11.1714C8.27177 12.2262 7.74805 13.5413 7.74805 14.855V30.3335C7.74805 31.6109 8.18534 33.0176 8.79004 34.2241C9.39442 35.43 10.2571 36.6166 11.2695 37.3726L20.2275 44.0601C21.7164 45.1731 23.6434 45.6821 25.4922 45.6821C27.341 45.6821 29.2679 45.1731 30.7568 44.0601L39.7148 37.3726L39.7178 37.3706C40.7393 36.6045 41.601 35.4135 42.2031 34.2065C42.8051 32.9996 43.2363 31.5987 43.2363 30.3335V14.8335C43.2362 13.5274 42.7105 12.2173 41.9805 11.1655C41.2496 10.1127 40.2051 9.16269 38.9834 8.69385L38.9727 8.68994L28.5771 4.79346L28.5645 4.78857L28.2188 4.67529C27.3888 4.43146 26.4116 4.33001 25.4961 4.33252Z" fill="#62A07B" stroke="#62A07B" stroke-width="2.8"/>
<path d="M25.501 17.5469C27.8943 17.5471 29.8301 19.4826 29.8301 21.876C29.8299 24.2692 27.8942 26.2049 25.501 26.2051C23.1076 26.2051 21.1721 24.2693 21.1719 21.876C21.1719 19.4825 23.1075 17.5469 25.501 17.5469ZM25.501 17.8711C23.2903 17.8711 21.4961 19.6653 21.4961 21.876C21.4963 24.0865 23.2904 25.8799 25.501 25.8799C27.7114 25.8797 29.5047 24.0864 29.5049 21.876C29.5049 19.6654 27.7115 17.8713 25.501 17.8711Z" fill="#62A07B" stroke="#62A07B" stroke-width="2.8"/>
<path d="M25.502 25.8799C25.5351 25.8799 25.5755 25.8929 25.6133 25.9307C25.651 25.9684 25.6641 26.0088 25.6641 26.042V32.292C25.6641 32.3252 25.651 32.3656 25.6133 32.4033C25.5755 32.4411 25.5351 32.4541 25.502 32.4541C25.4688 32.4541 25.4284 32.4411 25.3906 32.4033C25.3529 32.3656 25.3398 32.3252 25.3398 32.292V26.042C25.3398 26.0088 25.3529 25.9684 25.3906 25.9307C25.4284 25.8929 25.4688 25.8799 25.502 25.8799Z" fill="#62A07B" stroke="#62A07B" stroke-width="2.8"/>
</svg>
