<svg width="58" height="58" viewBox="0 0 58 58" fill="none" xmlns="http://www.w3.org/2000/svg">
<path d="M28.0068 1.58398C28.5413 1.11987 29.3155 1.09094 29.8799 1.49707L29.9902 1.58398L29.9912 1.58496C29.9916 1.58425 37.4843 7.89361 52.7744 4.95605C53.2241 4.86302 53.6798 4.98929 54.0215 5.27148C54.3702 5.55954 54.5653 5.98412 54.5654 6.43164V26.0889C54.5654 33.8397 51.8702 40.9876 46.9521 46.1934V46.1943C42.5662 50.8296 36.6736 54.3562 29.4658 56.71L29.459 56.7129L29.4521 56.7148C29.3216 56.754 29.1617 56.7852 28.998 56.7852C28.8345 56.7851 28.6753 56.754 28.5449 56.7148L28.5381 56.7129L28.5312 56.71C21.3234 54.3562 15.4309 50.8295 11.0449 46.1943V46.1934C6.12685 40.9876 3.43169 33.8397 3.43164 26.0889V6.43164C3.43178 5.98412 3.62688 5.55954 3.97559 5.27148C4.31725 4.98936 4.77306 4.86304 5.22266 4.95605H5.22168C20.4696 7.88576 27.9628 1.61928 28.0049 1.58496L28.0068 1.58398ZM28.998 4.58496C26.4446 6.30153 19.0439 10.1814 6.44336 8.22363V26.0889C6.4434 33.1018 8.8607 39.501 13.2393 44.127C17.1536 48.2612 22.445 51.4813 28.998 53.6934C35.3448 51.5511 40.5078 48.4637 44.3828 44.5156L44.7578 44.127C49.1363 39.501 51.5527 33.1017 51.5527 26.0889V8.22363C38.9517 10.1812 31.5509 6.30132 28.998 4.58496Z" fill="#62A07B" stroke="#62A07B" stroke-width="1.2"/>
<path d="M39.0801 21.2324C39.6687 20.6438 40.6213 20.6438 41.21 21.2324C41.7983 21.8211 41.7984 22.7737 41.21 23.3623L29.7061 34.8662C29.4126 35.1597 29.0256 35.3076 28.6406 35.3076C28.2558 35.3076 27.8696 35.1595 27.5762 34.8662L19.7324 27.0225C19.1438 26.4338 19.1438 25.4812 19.7324 24.8926C20.3211 24.304 21.2737 24.304 21.8623 24.8926L28.6406 31.6709L39.0801 21.2324Z" fill="#62A07B" stroke="#62A07B" stroke-width="1.2"/>
</svg>
