<svg width="18" height="11" viewBox="0 0 18 11" fill="none" xmlns="http://www.w3.org/2000/svg">
<g clip-path="url(#clip0_5958_34012)">
<path d="M15.2613 5.03705H15.052C14.2698 5.03705 13.5079 4.73706 12.9067 4.19228L8.76484 0.439414C8.45209 0.15604 8.05577 0 7.64887 0C6.68696 0 5.90439 0.85196 5.90439 1.89915V2.34258C5.90439 3.20648 5.25878 3.90937 4.4652 3.90937C3.90818 3.90937 3.3962 3.55423 3.16083 3.00463L3.04618 2.73691C2.78483 2.12668 2.21636 1.73239 1.59792 1.73239C0.716836 1.73239 0 2.51274 0 3.47198V8.01852C0 9.66251 1.22857 11 2.73867 11H15.2613C16.7714 11 18 9.66251 18 8.01852C18 6.37454 16.7714 5.03705 15.2613 5.03705ZM15.2613 9.85181H2.73867C2.11187 9.85181 1.56435 9.47677 1.27441 8.92227H16.7256C16.4357 9.47677 15.8881 9.85181 15.2613 9.85181ZM1.05469 7.77415V3.47198C1.05469 3.14586 1.29839 2.88059 1.59792 2.88059C1.80816 2.88059 2.00145 3.01466 2.09029 3.2221L2.20493 3.48978C2.61278 4.44217 3.49998 5.05756 4.46523 5.05756C5.84037 5.05756 6.95911 3.83964 6.95911 2.34258V1.89915C6.95911 1.48507 7.26855 1.14819 7.64891 1.14819C7.80979 1.14819 7.96651 1.20989 8.09019 1.32195L9.10624 2.24261L7.94855 3.50295L8.69432 4.31483L9.92029 2.98021L10.3784 3.39532L9.27295 4.59878L10.0187 5.41067L11.1924 4.13292L11.6506 4.54803L10.5974 5.69462L11.3431 6.50651L12.4722 5.27736C13.2204 5.86486 14.1254 6.18532 15.052 6.18532H15.2614C16.1138 6.18532 16.8198 6.87852 16.9299 7.77415H1.05469Z" fill="white"/>
</g>
<defs>
<clipPath id="clip0_5958_34012">
<rect width="18" height="11" fill="white"/>
</clipPath>
</defs>
</svg>
