<svg width="24" height="24" viewBox="0 0 24 24" fill="none" xmlns="http://www.w3.org/2000/svg">
<g clip-path="url(#clip0_5961_34052)">
<path d="M8.70605 2.26855C8.76034 2.19293 8.89587 2.14407 9.02051 2.18652L9.07324 2.21094L13.2158 4.63477L13.4844 4.79199L13.7441 4.62012L14.5332 4.09668C15.1634 3.74415 15.7536 3.56235 16.1621 3.61035V3.61133C16.5025 3.65304 16.8366 3.81723 17.167 4.19434L17.1689 4.19727C18.032 5.16955 18.5796 6.43832 19.0957 7.93457L19.1562 8.10938L19.3164 8.20312L21.4561 9.45508L21.5977 9.53809L21.7617 9.52051L22.4365 9.44922C23.0453 9.42709 23.2013 9.94807 23.0723 10.1855L23.0078 10.3047L23.0117 10.4404C23.0124 10.4603 23.0073 10.4868 22.9873 10.5146H22.9863C22.9248 10.6004 22.7593 10.6511 22.623 10.5742L22.5664 10.54L22.4238 10.4551L22.2588 10.4717L20.2373 10.6729H20.2363C20.0937 10.6874 19.9567 10.7039 19.8301 10.7197C19.7013 10.7358 19.5841 10.7506 19.4727 10.7617C19.2475 10.7843 19.0739 10.7897 18.9287 10.7695C18.7921 10.7505 18.685 10.7091 18.5879 10.6377C18.4891 10.565 18.3749 10.4418 18.2549 10.2207L17.0068 7.39551L16.9414 7.24707L16.6367 7.06934L16.375 6.91797L16.1191 7.07812L12.3994 9.41602L12.3574 9.44238L12.3223 9.47656C12.1651 9.62491 11.9954 9.84322 11.9727 10.1328C11.9482 10.4448 12.1027 10.6931 12.2871 10.8672L12.3193 10.8975L12.3564 10.9219L15.2188 12.8008L15.2344 12.8105C15.4485 12.9405 15.5633 13.0055 15.6523 13.0879C15.7104 13.1417 15.7464 13.1952 15.7666 13.2871C15.7664 13.2882 15.7668 13.2898 15.7666 13.291C15.7607 13.3224 15.7479 13.3718 15.7246 13.4414C15.6778 13.5811 15.6006 13.7662 15.4951 13.9912C15.2849 14.4398 14.9818 15.0052 14.6426 15.6045C13.9655 16.8007 13.1629 18.0991 12.7197 18.8037L12.416 19.2881L12.9355 19.5254L17.9395 21.8105L17.9512 21.8164L17.9639 21.8213C18.8314 22.1612 19.6211 22.3306 20.2861 22.2471C20.8515 22.1779 21.3177 21.8883 21.6611 21.4111L21.6621 21.4121C21.8732 21.1197 22.3466 21.009 22.7129 21.2207V21.2217C23.0092 21.3959 23.0913 21.6948 22.9824 21.9404L22.9238 22.042C22.324 22.8762 21.5202 23.3407 20.4941 23.4668C19.605 23.5764 18.5572 23.4057 17.3398 22.9287L17.3271 22.9238L17.3135 22.9199L17.2334 22.8877L17.2266 22.8848L0.887695 15.4219H0.886719C0.512967 15.2519 0.420724 14.8885 0.569336 14.623V14.6221C0.727206 14.3396 1.13535 14.1801 1.51074 14.3096L1.58496 14.3398L10.1953 18.2734L10.5967 18.4561L10.8291 18.082L13.1289 14.3672L13.4092 13.915L12.9404 13.6631C12.297 13.3174 11.6741 12.9718 11.0752 12.627H11.0742C10.1062 12.0723 9.0148 11.1756 8.46973 10.2402C8.20068 9.77843 8.08842 9.34881 8.14062 8.96582C8.19091 8.59763 8.40365 8.19234 8.94727 7.78613L12.4619 5.46582L13.1328 5.02344L12.4395 4.61719L8.77148 2.4707H8.77051C8.71222 2.43651 8.69043 2.39422 8.68359 2.36523C8.6772 2.33769 8.67983 2.30528 8.70605 2.26855ZM21.3428 0.5C22.5834 0.5 23.501 1.39738 23.501 2.39844C23.501 3.3995 22.5834 4.29688 21.3428 4.29688C20.1023 4.2967 19.1855 3.3994 19.1855 2.39844C19.1855 1.39747 20.1023 0.500174 21.3428 0.5Z" stroke="white"/>
</g>
<defs>
<clipPath id="clip0_5961_34052">
<rect width="24" height="24" fill="white"/>
</clipPath>
</defs>
</svg>
