<svg width="24" height="24" viewBox="0 0 24 24" fill="none" xmlns="http://www.w3.org/2000/svg">
<g clip-path="url(#clip0_7258_1466)">
<path d="M3.87891 5.71143C3.94352 6.22829 4.1952 6.70359 4.5864 7.04751C4.97759 7.39144 5.48121 7.58018 6.00209 7.57807" stroke="#ffffff" stroke-width="1.3" stroke-linecap="round" stroke-linejoin="round"/>
<path d="M0.5 17C1.75 18.25 3.22006 18.2231 4.91067 18.2231H20.394C20.9693 18.2554 21.5448 18.1628 22.0809 17.9517C22.6171 17.7406 23.1012 17.4159 23.5 17" stroke="#ffffff" stroke-width="1.3" stroke-linecap="round" stroke-linejoin="round"/>
<path d="M3.83203 18.0704C4.70014 17.6693 7.79472 16.3242 10.2538 16.3242C12.9373 16.3242 20.3301 18.182 20.3301 18.182" stroke="#ffffff" stroke-width="1.3" stroke-linecap="round" stroke-linejoin="round"/>
<path d="M8.08594 23.5V20.25" stroke="#ffffff" stroke-width="1.3" stroke-linecap="round" stroke-linejoin="round"/>
<path d="M6.58594 21.75L8.08594 20.25L9.58594 21.75" stroke="#ffffff" stroke-width="1.3" stroke-linecap="round" stroke-linejoin="round"/>
<path d="M1.19141 0.75C1.44223 2.93247 1.66507 5.12176 1.66507 6.01208L1.37201 10.8343C1.32439 11.1299 1.30045 11.4287 1.30045 11.7281C1.30045 11.814 1.30242 11.9 1.30637 11.986C1.41973 12.7326 1.79692 13.4138 2.36953 13.9062C2.94214 14.3985 3.67224 14.6693 4.4274 14.6695C4.44245 14.6695 4.45751 14.6694 4.4726 14.6692C5.74856 14.584 7.01739 14.4135 8.27057 14.1588C9.12204 14.0074 9.98565 13.9346 10.8505 13.9415C11.9198 13.939 12.9872 14.0344 14.0392 14.2263L15.3955 14.4847C16.0396 14.6074 16.6939 14.6692 17.3495 14.6692H18.4991" stroke="#ffffff" stroke-width="1.3" stroke-linecap="round" stroke-linejoin="round"/>
<path d="M20.2355 14.6692H21.2009C21.5538 14.6692 21.8922 14.529 22.1417 14.2795C22.3912 14.03 22.5314 13.6915 22.5314 13.3387V12.6713L19.5976 12.1991L13.6704 9.47721C11.9593 8.73516 10.4961 7.5193 9.45337 5.973C8.41062 4.4267 7.83179 2.61446 7.78516 0.75" stroke="#ffffff" stroke-width="1.3" stroke-linecap="round" stroke-linejoin="round"/>
<path d="M13.0859 23.5V20.25" stroke="#ffffff" stroke-width="1.3" stroke-linecap="round" stroke-linejoin="round"/>
<path d="M11.5859 21.75L13.0859 20.25L14.5859 21.75" stroke="#ffffff" stroke-width="1.3" stroke-linecap="round" stroke-linejoin="round"/>
<path d="M18.0859 23.5V20.25" stroke="#ffffff" stroke-width="1.3" stroke-linecap="round" stroke-linejoin="round"/>
<path d="M16.5859 21.75L18.0859 20.25L19.5859 21.75" stroke="#ffffff" stroke-width="1.3" stroke-linecap="round" stroke-linejoin="round"/>
</g>
<defs>
<clipPath id="clip0_7258_1466">
<rect width="24" height="24" fill="white"/>
</clipPath>
</defs>
</svg>
