<svg width="100" height="58" viewBox="0 0 100 58" fill="none" xmlns="http://www.w3.org/2000/svg">
<g opacity="0.08" clip-path="url(#clip0_596_3705)">
<path d="M96.6491 6.16406C96.1527 6.16407 95.6775 6.28994 95.2214 6.5386C94.7653 6.78477 94.4049 7.13836 94.1429 7.60054C93.8833 8.06272 93.7539 8.54535 93.7539 9.05023C93.7539 9.55261 93.884 10.034 94.1385 10.4911C94.3955 10.9458 94.7521 11.3012 95.2081 11.5575C95.6667 11.8112 96.1452 11.9364 96.6491 11.9364C97.1531 11.9364 97.634 11.8112 98.0901 11.5575C98.5487 11.3012 98.9053 10.9458 99.1598 10.4911C99.4168 10.034 99.5443 9.55261 99.5443 9.05023C99.5443 8.54535 99.413 8.06272 99.1509 7.60054C98.8914 7.13836 98.5329 6.78477 98.0768 6.5386C97.6208 6.28994 97.1455 6.16407 96.6491 6.16406ZM96.6712 6.69283C97.9764 6.69283 99.0316 7.74932 99.0316 9.05023C99.0316 10.3512 97.9764 11.4032 96.6712 11.4032C95.3662 11.4032 94.3064 10.3512 94.3064 9.05023C94.3064 7.74932 95.3662 6.69283 96.6712 6.69283Z" fill="black"/>
<path d="M95.3398 7.53125V10.5937H95.9631V9.33786H96.1266C96.3005 9.33786 96.4464 9.38214 96.5598 9.47005C96.6732 9.55546 96.8147 9.76609 96.9886 10.1002L97.2449 10.5937H98.0185L97.656 9.97678C97.5275 9.75825 97.4488 9.63679 97.4262 9.60665C97.338 9.49111 97.2688 9.4133 97.2184 9.37311C97.168 9.33041 97.0995 9.28931 97.0063 9.25414C97.2683 9.21646 97.4682 9.11906 97.6118 8.96332C97.758 8.80508 97.8328 8.61594 97.8328 8.3949C97.8328 8.23414 97.7916 8.08929 97.7135 7.95867C97.6379 7.82554 97.5421 7.72624 97.4262 7.66344C97.3128 7.59814 97.1554 7.55765 96.9488 7.54006C96.8782 7.53506 96.5477 7.53125 95.9631 7.53125H95.3398ZM95.9631 8.02036H96.2195C96.5747 8.02036 96.7962 8.03427 96.8869 8.06442C96.9776 8.09205 97.0468 8.13761 97.0947 8.20542C97.1451 8.27074 97.1698 8.34915 97.1698 8.43456C97.1698 8.52247 97.1451 8.60217 97.0947 8.6725C97.0443 8.74032 96.9751 8.78587 96.8869 8.8135C96.8012 8.84113 96.5798 8.85316 96.2195 8.85316H95.9631V8.02036Z" fill="black"/>
<path d="M26.0458 57.5769H73.5994L99.5442 40.1764V17.8302L73.5994 0.429688H26.0458L0.453125 17.8357V40.1709L26.0458 57.5769Z" fill="white"/>
<path d="M26.4586 1.75781L1.78516 18.5373V39.4675L26.4586 56.2469H73.1931L98.2114 39.4675V18.5373L73.1931 1.75781H26.4586ZM26.8697 3.08854H72.7865L96.8765 19.2467V38.7625L72.7865 54.9162H26.8697L3.12005 38.7669V19.2423L26.8697 3.08854Z" fill="black" stroke="black" stroke-width="0.0686111" stroke-linecap="round" stroke-linejoin="round"/>
<path d="M35.3975 22.9453C32.0055 22.9453 29.2578 25.6843 29.2578 29.0658C29.2578 32.4471 32.0055 35.1906 35.3975 35.1906C38.7895 35.1906 41.5415 32.4471 41.5415 29.0658C41.5415 25.6843 38.7895 22.9453 35.3975 22.9453ZM35.3975 23.831C38.2985 23.831 40.653 26.1738 40.653 29.0658C40.653 31.9576 38.2985 34.3049 35.3975 34.3049C32.4965 34.3049 30.1463 31.9576 30.1463 29.0658C30.1463 26.1738 32.4965 23.831 35.3975 23.831Z" fill="black" stroke="black" stroke-width="0.0686111" stroke-linecap="round" stroke-linejoin="round"/>
<path d="M65.042 22.9453C61.65 22.9453 58.9023 25.6843 58.9023 29.0658C58.9023 32.4471 61.65 35.1906 65.042 35.1906C68.434 35.1906 71.186 32.4471 71.186 29.0658C71.186 25.6843 68.434 22.9453 65.042 22.9453ZM65.042 23.831C67.943 23.831 70.2976 26.1738 70.2976 29.0658C70.2976 31.9576 67.943 34.3049 65.042 34.3049C62.1411 34.3049 59.7908 31.9576 59.7908 29.0658C59.7908 26.1738 62.1411 23.831 65.042 23.831Z" fill="black" stroke="black" stroke-width="0.0686111" stroke-linecap="round" stroke-linejoin="round"/>
<path d="M28.3666 14.4062C27.3845 14.4062 26.5897 15.203 26.5897 16.182V29.5245L23.8624 32.2432V21.8222C23.8624 20.8431 23.0676 20.0508 22.0855 20.0508C21.1034 20.0508 20.3086 20.8431 20.3086 21.8222V36.5262C20.3086 37.2433 20.7403 37.8866 21.4048 38.161C22.0693 38.4353 22.8323 38.2845 23.3408 37.7776L26.5897 34.5389V36.5262C26.5897 37.5053 27.3845 38.2976 28.3666 38.2976C29.3487 38.2976 30.1479 37.5053 30.1479 36.5262V36.112C33.0681 38.2742 37.0205 38.4249 40.0977 36.491C43.1749 34.5571 44.743 30.9375 44.045 27.3786L45.7423 25.8364V36.5262C45.7423 37.5053 46.5416 38.2976 47.5236 38.2976C48.5058 38.2976 49.3005 37.5053 49.3005 36.5262V27.8809L52.8632 24.3294L56.3242 27.7796C55.8036 31.2936 57.4614 34.777 60.519 36.6011C63.5763 38.4251 67.4316 38.23 70.292 36.112V36.5262C70.292 37.2707 70.7618 37.9364 71.4633 38.1918C72.1647 38.4473 72.9489 38.2365 73.4303 37.6675L75.6448 35.0501V36.5262C75.6448 37.1596 75.9832 37.7431 76.5333 38.0596C77.0836 38.3763 77.7601 38.3763 78.3102 38.0596C78.8603 37.7431 79.1986 37.1596 79.1986 36.5262V30.8464L82.7304 26.6736V36.5262C82.7304 37.5053 83.5252 38.2976 84.5073 38.2976C85.4894 38.2976 86.2886 37.5053 86.2886 36.5262V30.9081L89.8734 26.6736V36.5262C89.8734 37.2433 90.305 37.8866 90.9696 38.161C91.634 38.4353 92.3971 38.2845 92.9056 37.7776L96.2738 34.42C96.9683 33.7277 96.9683 32.605 96.2738 31.9127C95.5794 31.2205 94.4532 31.2205 93.7587 31.9127L93.4272 32.2432V21.8222C93.4272 21.0777 92.9616 20.412 92.2603 20.1566C91.5588 19.901 90.7704 20.1118 90.2889 20.6809L86.2886 25.4089V21.8222C86.2886 21.0777 85.8231 20.412 85.1217 20.1566C84.4202 19.901 83.6319 20.1118 83.1503 20.6809L79.1986 25.3473V21.8222C79.1986 20.8431 78.4039 20.0508 77.4217 20.0508C76.4395 20.0508 75.6448 20.8431 75.6448 21.8222V29.5509L73.8502 31.6748V21.8222C73.8502 20.8431 73.0554 20.0508 72.0733 20.0508C71.0912 20.0508 70.292 20.8431 70.292 21.8222V22.016C68.3587 20.5845 65.9248 20.0013 63.5512 20.4077C61.1776 20.8141 59.0733 22.1738 57.7298 24.1664L54.123 20.5708C53.7896 20.2383 53.3348 20.0508 52.8632 20.0508C52.3915 20.0508 51.9413 20.2383 51.6079 20.5708L49.3005 22.8665V21.8222C49.3005 21.1202 48.8839 20.4843 48.2397 20.2006C47.5955 19.917 46.8464 20.0406 46.3258 20.5135L42.5509 23.9372C41.1733 22.0267 39.0837 20.7474 36.7517 20.3857C34.4196 20.024 32.0426 20.6131 30.1479 22.016V16.182C30.1479 15.203 29.3487 14.4062 28.3666 14.4062ZM28.3666 15.2963C28.8576 15.2963 29.2595 15.6925 29.2595 16.182V24.0782C30.9285 22.0346 33.5097 20.9586 36.1417 21.2053C38.7737 21.4518 41.1074 22.9897 42.3653 25.3076L46.9225 21.1656C47.1827 20.9292 47.5597 20.8696 47.8817 21.0114C48.2038 21.1532 48.4121 21.4711 48.4121 21.8222V25.008L52.2355 21.1965C52.5828 20.8503 53.1437 20.8503 53.4909 21.1965L57.9199 25.6072C59.1033 23.1836 61.4443 21.5326 64.1303 21.2229C66.8162 20.9132 69.4777 21.988 71.1849 24.0782V21.8222C71.1849 21.3326 71.5822 20.9365 72.0733 20.9365C72.5644 20.9365 72.9618 21.3326 72.9618 21.8222V34.0983L76.5333 29.877V21.8222C76.5333 21.3326 76.9307 20.9365 77.4217 20.9365C77.9126 20.9365 78.3102 21.3326 78.3102 21.8222V27.7752L83.831 21.2493C84.0717 20.9648 84.4659 20.8616 84.8167 20.9894C85.1674 21.1171 85.4002 21.4499 85.4002 21.8222V27.8369L90.9696 21.2493C91.2103 20.9648 91.6044 20.8616 91.9553 20.9894C92.3058 21.1171 92.5388 21.4499 92.5388 21.8222V34.3847L94.3908 32.5384C94.738 32.1923 95.2989 32.1923 95.6461 32.5384C95.9934 32.8846 95.9934 33.4481 95.6461 33.7943L92.278 37.1519C92.0238 37.4053 91.6423 37.483 91.3099 37.3458C90.9777 37.2086 90.7618 36.8847 90.7618 36.5262V24.2501L85.4002 30.5864V36.5262C85.4002 37.0157 84.9983 37.4119 84.5073 37.4119C84.0162 37.4119 83.6188 37.0157 83.6188 36.5262V24.2501L78.3102 30.5247V36.5262C78.3102 37.0157 77.9126 37.4119 77.4217 37.4119C76.9307 37.4119 76.5333 37.0157 76.5333 36.5262V32.6266L72.7496 37.0946C72.5089 37.3791 72.119 37.4867 71.7683 37.359C71.4177 37.2313 71.1849 36.8985 71.1849 36.5262V34.0498C68.8822 36.8692 64.946 37.7575 61.6505 36.2001C58.3551 34.6428 56.5517 31.0415 57.2834 27.4799L52.8632 23.078L48.4121 27.5152V36.5262C48.4121 37.0157 48.0147 37.4119 47.5236 37.4119C47.0326 37.4119 46.6352 37.0157 46.6352 36.5262V23.8271L43.0637 27.0701C44.0037 30.664 42.3024 34.4284 38.9794 36.1076C35.6565 37.787 31.6117 36.9298 29.2595 34.0498V36.5262C29.2595 37.0157 28.8576 37.4119 28.3666 37.4119C27.8755 37.4119 27.4781 37.0157 27.4781 36.5262V32.4019L22.7132 37.1519C22.4588 37.4053 22.0774 37.483 21.7452 37.3458C21.4129 37.2086 21.197 36.8847 21.197 36.5262V21.8222C21.197 21.3326 21.5945 20.9365 22.0855 20.9365C22.5766 20.9365 22.974 21.3326 22.974 21.8222V34.3847L27.4781 29.8946V16.182C27.4781 15.6925 27.8755 15.2963 28.3666 15.2963Z" fill="black" stroke="black" stroke-width="0.0686111" stroke-linecap="round" stroke-linejoin="round"/>
<path d="M4.85607 20.0474C4.62518 20.0528 4.39471 20.1054 4.17094 20.206C3.27576 20.6084 2.87472 21.6577 3.27806 22.5502L9.92601 37.2498C10.2139 37.8868 10.8474 38.3001 11.5482 38.2985C12.2491 38.297 12.8854 37.8836 13.1704 37.2454L19.7344 22.5414C19.9928 21.9629 19.9221 21.2912 19.5487 20.7788C19.1754 20.2665 18.5584 19.9943 17.9265 20.0606C17.2948 20.1268 16.7439 20.5219 16.4856 21.1005L11.5394 32.1781L6.52247 21.0917C6.21958 20.4225 5.54872 20.0311 4.85607 20.0474ZM4.87817 20.933C5.2245 20.9249 5.55771 21.1229 5.70916 21.4574L11.5438 34.346L17.2989 21.4618C17.428 21.1725 17.7034 20.975 18.0194 20.9419C18.3352 20.9088 18.6459 21.0426 18.8327 21.2988C19.0194 21.555 19.0547 21.8907 18.9255 22.18L12.3571 36.8841C12.2146 37.2032 11.8986 37.407 11.5482 37.4084C11.1977 37.4084 10.8789 37.2071 10.7349 36.8885L4.09137 22.1845C3.8897 21.7382 4.08584 21.2136 4.53339 21.0124C4.64528 20.9621 4.76272 20.9358 4.87817 20.933Z" fill="black"/>
<path d="M22.0899 14.4062C21.1078 14.4062 20.3086 15.1986 20.3086 16.1776C20.3086 17.1566 21.1078 17.949 22.0899 17.949C23.072 17.949 23.8668 17.1566 23.8668 16.1776C23.8668 15.1986 23.072 14.4062 22.0899 14.4062ZM22.0899 15.2919C22.581 15.2919 22.9784 15.6881 22.9784 16.1776C22.9784 16.6671 22.581 17.0633 22.0899 17.0633C21.5989 17.0633 21.2015 16.6671 21.2015 16.1776C21.2015 15.6881 21.5989 15.2919 22.0899 15.2919Z" fill="black"/>
</g>
<defs>
<clipPath id="clip0_596_3705">
<rect width="100" height="58" fill="white"/>
</clipPath>
</defs>
</svg>
