<svg width="24" height="24" viewBox="0 0 24 24" fill="none" xmlns="http://www.w3.org/2000/svg">
<mask id="path-1-inside-1_5961_34017" fill="white">
<path d="M5.73172 7.41673L6.11572 8.28956L6.12403 8.30908L6.10327 8.31885L4.64615 9.0628L4.62539 9.07452L4.61294 9.05499L4.12723 8.32861C4.02552 8.36376 3.91344 8.39891 3.78682 8.43991C3.60001 8.50044 3.37999 8.57074 3.13714 8.6547C2.84862 8.75429 2.57671 8.85778 2.33801 8.96517C2.19686 9.02766 2.06609 9.09405 1.9457 9.16434C2.19686 9.70718 2.48123 10.2168 2.80088 10.6972C3.15582 11.2322 3.5502 11.7243 3.97986 12.1753C4.34518 12.56 4.68974 12.8607 5.01562 13.1106C5.33942 13.3586 5.6487 13.5578 5.94344 13.7355C7.8323 14.8778 8.43009 15.8033 9.10469 16.8421C9.5219 17.4865 9.97024 18.1777 10.8047 18.9959C11.5581 19.734 12.3469 20.2905 13.1813 20.6752C14.0095 21.0579 14.8896 21.2707 15.8319 21.3293C17.2392 21.4152 19.0762 21.2395 20.8405 21.0716C21.6583 20.9934 22.4616 20.9173 23.2006 20.8665L23.1985 20.8568C23.157 20.6224 23.103 20.4174 23.0304 20.2417C22.9639 20.0816 22.883 19.9507 22.7813 19.8472C22.3205 19.3806 21.5338 19.4079 20.7284 19.4352C20.1286 19.4548 19.5183 19.4762 18.9454 19.32C17.8557 19.0213 17.0462 18.2441 16.4609 17.2502C16.0623 17.5334 15.6721 17.7247 15.2757 17.8067C14.8003 17.9063 14.3437 17.8477 13.8912 17.6076C13.6213 17.4631 13.5279 17.1409 13.6795 16.887C13.8331 16.6332 14.1755 16.5453 14.4454 16.6879C14.6405 16.7914 14.8335 16.8167 15.0328 16.7757C15.2798 16.725 15.5538 16.5766 15.861 16.3481C15.8984 16.3208 15.9378 16.2973 15.9793 16.2798C15.915 16.1236 15.8548 15.9654 15.7966 15.8053C15.4604 16.022 15.1283 16.1704 14.7941 16.2388C14.3188 16.3383 13.8621 16.2798 13.4096 16.0396C13.1398 15.8951 13.0464 15.5729 13.1979 15.3191C13.3515 15.0652 13.694 14.9774 13.9638 15.1199C14.1589 15.2234 14.352 15.2488 14.5512 15.2078C14.7982 15.157 15.0722 15.0086 15.3794 14.7801C15.4106 14.7567 15.4417 14.7372 15.477 14.7216C15.4168 14.4736 15.3649 14.2256 15.3192 13.9815C14.983 14.1983 14.6509 14.3467 14.3146 14.4169C13.8393 14.5165 13.3826 14.458 12.9301 14.2178C12.6603 14.0733 12.5669 13.7511 12.7184 13.4973C12.872 13.2434 13.2145 13.1555 13.4843 13.2981C13.6795 13.4016 13.8725 13.427 14.0718 13.386C14.3188 13.3352 14.5928 13.1868 14.9 12.9583C14.9768 12.8997 15.066 12.8646 15.1553 12.8509C15.1283 12.5873 15.1096 12.3315 15.0971 12.0894L15.0951 12.0777L15.0785 11.8941C15.0286 11.3318 14.9954 10.9471 14.7775 10.7499C14.381 10.3886 13.75 10.4668 13.1315 10.5449C12.8575 10.58 12.5835 10.6132 12.3095 10.6171C11.3942 10.6269 10.566 10.4472 9.85816 10.002C9.15865 9.56073 8.592 8.86559 8.19554 7.84045C7.86344 7.19608 7.53548 6.87584 7.18262 6.81726C6.81938 6.75673 6.37103 6.9559 5.8189 7.35619L5.81683 7.35815L5.73172 7.41673ZM5.37471 6.8075C6.07421 6.30177 6.69068 6.04988 7.26772 6.12993L11.8674 0.143133C11.9857 -0.0111257 12.212 -0.0462732 12.3759 0.0650274C12.5399 0.176328 12.5773 0.389166 12.459 0.543425L7.95684 6.40526C8.28687 6.63762 8.58369 7.01448 8.85976 7.55536C8.86599 7.56708 8.87014 7.57879 8.87429 7.59051C9.21262 8.47506 9.68587 9.06476 10.2629 9.42795C10.8379 9.79114 11.5291 9.93563 12.3012 9.92782C12.5275 9.92587 12.7807 9.89463 13.036 9.86143C13.476 9.80676 13.9202 9.75013 14.3395 9.81457L22.2541 1.28348C22.3869 1.14093 22.6173 1.12726 22.7688 1.25028C22.9203 1.3733 22.9349 1.59199 22.8041 1.73454C22.6733 1.87708 15.0619 10.0801 15.0619 10.0801C15.1387 10.1309 15.2134 10.1895 15.2881 10.2559C15.7032 10.6347 15.7468 11.1228 15.8091 11.8356C15.8133 11.8766 15.8174 11.9195 15.8257 12.0172C15.8278 12.0308 15.8278 12.0445 15.8278 12.0582C15.8921 13.4231 16.2014 15.2039 16.9237 16.6C17.4385 17.5978 18.1608 18.3886 19.1489 18.66C19.6096 18.785 20.1618 18.7674 20.7035 18.7499C21.6791 18.7167 22.6297 18.6854 23.3168 19.3806C23.4849 19.5504 23.6136 19.7555 23.7132 19.9937C23.8046 20.2143 23.871 20.4682 23.9208 20.7494C23.9374 20.8411 23.9499 20.9349 23.9582 21.0286C23.981 21.0716 23.9976 21.1184 23.9997 21.1692C24.0018 21.2219 23.9935 21.2727 23.9727 21.3195C23.9748 21.7003 23.9104 22.083 23.7527 22.4247C23.5451 22.8777 23.186 23.2546 22.6235 23.4616C22.1669 23.6295 21.2743 23.7564 20.305 23.8443C18.9703 23.9634 17.4676 24.0142 16.7909 23.9966C14.4558 23.938 12.7413 23.5573 11.309 22.8153C9.87476 22.0713 8.73937 20.9739 7.55831 19.4762C6.15931 17.7032 5.83343 17.4728 4.68559 16.6644C4.42198 16.4789 4.11893 16.2641 3.7806 16.0201C2.80918 15.3132 1.81909 14.4482 1.10091 13.5383C0.573687 12.8705 0.187613 12.1714 0.0526941 11.4841C-0.0884514 10.7596 0.0443915 10.0547 0.56746 9.41623C0.756346 9.18777 0.995048 8.96908 1.28772 8.7621C1.49944 8.6137 1.75059 8.47896 2.02666 8.35399C2.30064 8.23098 2.59124 8.11968 2.89013 8.01619C3.17035 7.91855 3.37792 7.85216 3.55435 7.79554C4.011 7.64714 4.258 7.56708 4.57973 7.37181C4.67521 7.31324 4.78522 7.24099 4.91391 7.15117C5.05298 7.05353 5.20035 6.94614 5.36226 6.82312C5.36433 6.81336 5.36848 6.80945 5.37471 6.8075ZM1.35206 9.60369C1.27319 9.67789 1.20261 9.75404 1.14034 9.83019C0.756346 10.2969 0.660865 10.8163 0.764649 11.3533C0.876735 11.9273 1.21507 12.5307 1.68002 13.1223C2.35461 13.9776 3.29281 14.7958 4.22064 15.4694C4.58803 15.7369 4.87032 15.9361 5.11733 16.1099C6.33159 16.9671 6.67823 17.2092 8.1395 19.0623C9.26036 20.4819 10.3273 21.5187 11.6557 22.208C12.9862 22.8973 14.5948 23.2507 16.8033 23.3073C17.4593 23.323 18.9226 23.2761 20.2303 23.157C21.1394 23.075 21.9614 22.9617 22.3516 22.8172C22.7107 22.6844 22.9411 22.4423 23.076 22.1494C23.159 21.9659 23.2089 21.7647 23.2275 21.5539C22.499 21.6027 21.7102 21.6788 20.9069 21.755C19.1115 21.9268 17.2413 22.1045 15.7821 22.0166C14.7464 21.9541 13.777 21.7159 12.8575 21.2922C11.9442 20.8704 11.087 20.269 10.2754 19.4723C9.3849 18.5995 8.9158 17.8751 8.47783 17.1995C7.85098 16.2329 7.29263 15.3718 5.54699 14.3135C5.23564 14.126 4.90768 13.9132 4.55274 13.6437C4.20196 13.3742 3.83041 13.0501 3.43396 12.6342C2.97108 12.1499 2.5518 11.6266 2.17818 11.0623C1.87513 10.6054 1.59907 10.1192 1.35206 9.60369Z"/>
</mask>
<path d="M5.73172 7.41673L6.11572 8.28956L6.12403 8.30908L6.10327 8.31885L4.64615 9.0628L4.62539 9.07452L4.61294 9.05499L4.12723 8.32861C4.02552 8.36376 3.91344 8.39891 3.78682 8.43991C3.60001 8.50044 3.37999 8.57074 3.13714 8.6547C2.84862 8.75429 2.57671 8.85778 2.33801 8.96517C2.19686 9.02766 2.06609 9.09405 1.9457 9.16434C2.19686 9.70718 2.48123 10.2168 2.80088 10.6972C3.15582 11.2322 3.5502 11.7243 3.97986 12.1753C4.34518 12.56 4.68974 12.8607 5.01562 13.1106C5.33942 13.3586 5.6487 13.5578 5.94344 13.7355C7.8323 14.8778 8.43009 15.8033 9.10469 16.8421C9.5219 17.4865 9.97024 18.1777 10.8047 18.9959C11.5581 19.734 12.3469 20.2905 13.1813 20.6752C14.0095 21.0579 14.8896 21.2707 15.8319 21.3293C17.2392 21.4152 19.0762 21.2395 20.8405 21.0716C21.6583 20.9934 22.4616 20.9173 23.2006 20.8665L23.1985 20.8568C23.157 20.6224 23.103 20.4174 23.0304 20.2417C22.9639 20.0816 22.883 19.9507 22.7813 19.8472C22.3205 19.3806 21.5338 19.4079 20.7284 19.4352C20.1286 19.4548 19.5183 19.4762 18.9454 19.32C17.8557 19.0213 17.0462 18.2441 16.4609 17.2502C16.0623 17.5334 15.6721 17.7247 15.2757 17.8067C14.8003 17.9063 14.3437 17.8477 13.8912 17.6076C13.6213 17.4631 13.5279 17.1409 13.6795 16.887C13.8331 16.6332 14.1755 16.5453 14.4454 16.6879C14.6405 16.7914 14.8335 16.8167 15.0328 16.7757C15.2798 16.725 15.5538 16.5766 15.861 16.3481C15.8984 16.3208 15.9378 16.2973 15.9793 16.2798C15.915 16.1236 15.8548 15.9654 15.7966 15.8053C15.4604 16.022 15.1283 16.1704 14.7941 16.2388C14.3188 16.3383 13.8621 16.2798 13.4096 16.0396C13.1398 15.8951 13.0464 15.5729 13.1979 15.3191C13.3515 15.0652 13.694 14.9774 13.9638 15.1199C14.1589 15.2234 14.352 15.2488 14.5512 15.2078C14.7982 15.157 15.0722 15.0086 15.3794 14.7801C15.4106 14.7567 15.4417 14.7372 15.477 14.7216C15.4168 14.4736 15.3649 14.2256 15.3192 13.9815C14.983 14.1983 14.6509 14.3467 14.3146 14.4169C13.8393 14.5165 13.3826 14.458 12.9301 14.2178C12.6603 14.0733 12.5669 13.7511 12.7184 13.4973C12.872 13.2434 13.2145 13.1555 13.4843 13.2981C13.6795 13.4016 13.8725 13.427 14.0718 13.386C14.3188 13.3352 14.5928 13.1868 14.9 12.9583C14.9768 12.8997 15.066 12.8646 15.1553 12.8509C15.1283 12.5873 15.1096 12.3315 15.0971 12.0894L15.0951 12.0777L15.0785 11.8941C15.0286 11.3318 14.9954 10.9471 14.7775 10.7499C14.381 10.3886 13.75 10.4668 13.1315 10.5449C12.8575 10.58 12.5835 10.6132 12.3095 10.6171C11.3942 10.6269 10.566 10.4472 9.85816 10.002C9.15865 9.56073 8.592 8.86559 8.19554 7.84045C7.86344 7.19608 7.53548 6.87584 7.18262 6.81726C6.81938 6.75673 6.37103 6.9559 5.8189 7.35619L5.81683 7.35815L5.73172 7.41673ZM5.37471 6.8075C6.07421 6.30177 6.69068 6.04988 7.26772 6.12993L11.8674 0.143133C11.9857 -0.0111257 12.212 -0.0462732 12.3759 0.0650274C12.5399 0.176328 12.5773 0.389166 12.459 0.543425L7.95684 6.40526C8.28687 6.63762 8.58369 7.01448 8.85976 7.55536C8.86599 7.56708 8.87014 7.57879 8.87429 7.59051C9.21262 8.47506 9.68587 9.06476 10.2629 9.42795C10.8379 9.79114 11.5291 9.93563 12.3012 9.92782C12.5275 9.92587 12.7807 9.89463 13.036 9.86143C13.476 9.80676 13.9202 9.75013 14.3395 9.81457L22.2541 1.28348C22.3869 1.14093 22.6173 1.12726 22.7688 1.25028C22.9203 1.3733 22.9349 1.59199 22.8041 1.73454C22.6733 1.87708 15.0619 10.0801 15.0619 10.0801C15.1387 10.1309 15.2134 10.1895 15.2881 10.2559C15.7032 10.6347 15.7468 11.1228 15.8091 11.8356C15.8133 11.8766 15.8174 11.9195 15.8257 12.0172C15.8278 12.0308 15.8278 12.0445 15.8278 12.0582C15.8921 13.4231 16.2014 15.2039 16.9237 16.6C17.4385 17.5978 18.1608 18.3886 19.1489 18.66C19.6096 18.785 20.1618 18.7674 20.7035 18.7499C21.6791 18.7167 22.6297 18.6854 23.3168 19.3806C23.4849 19.5504 23.6136 19.7555 23.7132 19.9937C23.8046 20.2143 23.871 20.4682 23.9208 20.7494C23.9374 20.8411 23.9499 20.9349 23.9582 21.0286C23.981 21.0716 23.9976 21.1184 23.9997 21.1692C24.0018 21.2219 23.9935 21.2727 23.9727 21.3195C23.9748 21.7003 23.9104 22.083 23.7527 22.4247C23.5451 22.8777 23.186 23.2546 22.6235 23.4616C22.1669 23.6295 21.2743 23.7564 20.305 23.8443C18.9703 23.9634 17.4676 24.0142 16.7909 23.9966C14.4558 23.938 12.7413 23.5573 11.309 22.8153C9.87476 22.0713 8.73937 20.9739 7.55831 19.4762C6.15931 17.7032 5.83343 17.4728 4.68559 16.6644C4.42198 16.4789 4.11893 16.2641 3.7806 16.0201C2.80918 15.3132 1.81909 14.4482 1.10091 13.5383C0.573687 12.8705 0.187613 12.1714 0.0526941 11.4841C-0.0884514 10.7596 0.0443915 10.0547 0.56746 9.41623C0.756346 9.18777 0.995048 8.96908 1.28772 8.7621C1.49944 8.6137 1.75059 8.47896 2.02666 8.35399C2.30064 8.23098 2.59124 8.11968 2.89013 8.01619C3.17035 7.91855 3.37792 7.85216 3.55435 7.79554C4.011 7.64714 4.258 7.56708 4.57973 7.37181C4.67521 7.31324 4.78522 7.24099 4.91391 7.15117C5.05298 7.05353 5.20035 6.94614 5.36226 6.82312C5.36433 6.81336 5.36848 6.80945 5.37471 6.8075ZM1.35206 9.60369C1.27319 9.67789 1.20261 9.75404 1.14034 9.83019C0.756346 10.2969 0.660865 10.8163 0.764649 11.3533C0.876735 11.9273 1.21507 12.5307 1.68002 13.1223C2.35461 13.9776 3.29281 14.7958 4.22064 15.4694C4.58803 15.7369 4.87032 15.9361 5.11733 16.1099C6.33159 16.9671 6.67823 17.2092 8.1395 19.0623C9.26036 20.4819 10.3273 21.5187 11.6557 22.208C12.9862 22.8973 14.5948 23.2507 16.8033 23.3073C17.4593 23.323 18.9226 23.2761 20.2303 23.157C21.1394 23.075 21.9614 22.9617 22.3516 22.8172C22.7107 22.6844 22.9411 22.4423 23.076 22.1494C23.159 21.9659 23.2089 21.7647 23.2275 21.5539C22.499 21.6027 21.7102 21.6788 20.9069 21.755C19.1115 21.9268 17.2413 22.1045 15.7821 22.0166C14.7464 21.9541 13.777 21.7159 12.8575 21.2922C11.9442 20.8704 11.087 20.269 10.2754 19.4723C9.3849 18.5995 8.9158 17.8751 8.47783 17.1995C7.85098 16.2329 7.29263 15.3718 5.54699 14.3135C5.23564 14.126 4.90768 13.9132 4.55274 13.6437C4.20196 13.3742 3.83041 13.0501 3.43396 12.6342C2.97108 12.1499 2.5518 11.6266 2.17818 11.0623C1.87513 10.6054 1.59907 10.1192 1.35206 9.60369Z" fill="white" stroke="white" stroke-width="2" mask="url(#path-1-inside-1_5961_34017)"/>
</svg>
