<svg width="18" height="18" viewBox="0 0 18 18" fill="none" xmlns="http://www.w3.org/2000/svg">
<path d="M11.9866 9.75H6.01956C6.10956 11.739 6.54906 13.4655 7.16256 14.6925C7.89756 16.1625 8.63406 16.5 9.00156 16.5C9.36906 16.5 10.1071 16.1625 10.8421 14.6925C11.4556 13.4655 11.8966 11.7375 11.9866 9.75ZM6.01806 8.25C6.10806 6.261 6.54756 4.5345 7.16106 3.3075C7.89756 1.8375 8.63406 1.5 9.00156 1.5C9.36906 1.5 10.1071 1.8375 10.8421 3.3075C11.4556 4.5345 11.8951 6.2625 11.9851 8.25H6.01806ZM4.51656 8.25H1.53906C1.67453 6.90093 2.17318 5.61382 2.98195 4.52559C3.79072 3.43737 4.87937 2.58874 6.13206 2.07C5.22606 3.57 4.61856 5.7675 4.51656 8.25ZM4.51806 9.75H1.53906C1.67453 11.0991 2.17318 12.3862 2.98195 13.4744C3.79072 14.5626 4.87937 15.4113 6.13206 15.93C5.22606 14.43 4.62006 12.2325 4.51806 9.75ZM13.4881 9.75H16.4656C16.3302 11.0989 15.8318 12.3859 15.0233 13.4741C14.2148 14.5623 13.1265 15.411 11.8741 15.93C12.7786 14.43 13.3846 12.2325 13.4866 9.75M16.4641 8.25H13.4866C13.3846 5.7675 12.7786 3.57 11.8741 2.07C13.1265 2.58896 14.2148 3.43768 15.0233 4.52589C15.8318 5.61409 16.3287 6.90109 16.4641 8.25Z" fill="#62A07B"/>
</svg>
